<?xml version="1.0" encoding="UTF-8" standalone="no"?>
<!-- Generator: Adobe Illustrator 18.1.1, SVG Export Plug-In . SVG Version: 6.00 Build 0)  -->

<svg
   xmlns:dc="http://purl.org/dc/elements/1.1/"
   xmlns:cc="http://creativecommons.org/ns#"
   xmlns:rdf="http://www.w3.org/1999/02/22-rdf-syntax-ns#"
   xmlns:svg="http://www.w3.org/2000/svg"
   xmlns="http://www.w3.org/2000/svg"
   xmlns:sodipodi="http://sodipodi.sourceforge.net/DTD/sodipodi-0.dtd"
   xmlns:inkscape="http://www.inkscape.org/namespaces/inkscape"
   version="1.1"
   x="0px"
   y="0px"
   viewBox="0 0 221.3 77.5"
   enable-background="new 0 0 221.3 77.5"
   xml:space="preserve"
   id="svg3487"
   inkscape:version="0.91 r13725"
   sodipodi:docname="LinkedModernismHEL.svg"><metadata
     id="metadata3598"><rdf:RDF><cc:Work
         rdf:about=""><dc:format>image/svg+xml</dc:format><dc:type
           rdf:resource="http://purl.org/dc/dcmitype/StillImage" /><dc:title></dc:title></cc:Work></rdf:RDF></metadata><defs
     id="defs3596" /><sodipodi:namedview
     pagecolor="#ffffff"
     bordercolor="#666666"
     borderopacity="1"
     objecttolerance="10"
     gridtolerance="10"
     guidetolerance="10"
     inkscape:pageopacity="0"
     inkscape:pageshadow="2"
     inkscape:window-width="1280"
     inkscape:window-height="718"
     id="namedview3594"
     showgrid="false"
     inkscape:zoom="2.82"
     inkscape:cx="115.2618"
     inkscape:cy="27.223787"
     inkscape:window-x="0"
     inkscape:window-y="0"
     inkscape:window-maximized="1"
     inkscape:current-layer="svg3487" /><g
     id="m"
     transform="matrix(0.95686614,0,0,0.96416185,-5.3246375,3.4981471)"><text
       font-size="36"
       id="text3490"
       style="font-style:normal;font-variant:normal;font-weight:normal;font-stretch:normal;font-size:34.31748962px;line-height:125%;font-family:Helvetica;-inkscape-font-specification:'Helvetica, Normal';text-align:start;writing-mode:lr-tb;text-anchor:start"
       sodipodi:linespacing="125%"
       x="9.9826555"
       y="58.053089">m</text>
</g><g
     id="linked"
     transform="matrix(0.61321949,0,0,0.56837454,-2.648651,-6.4340074)"><text
       font-size="24"
       id="text3493"
       style="font-style:normal;font-variant:normal;font-weight:normal;font-stretch:normal;font-size:40.17808914px;line-height:125%;font-family:Helvetica;-inkscape-font-specification:'Helvetica, Normal';text-align:start;writing-mode:lr-tb;text-anchor:start"
       sodipodi:linespacing="125%"
       x="13.648448"
       y="54.202923"
       transform="scale(0.90911489,1.099971)">linked</text>
</g><g
     id="_x3C_Type_x3E_"><rect
       x="-1.7"
       y="5.9"
       fill="none"
       width="112.6"
       height="5.9"
       id="rect3496" /></g><g
     id="dernisms"
     transform="matrix(0.84795504,0,0,0.81795106,10.600341,7.3575925)"><text
       font-size="36"
       id="text3499"
       style="font-style:normal;font-variant:normal;font-weight:normal;font-stretch:normal;font-size:40.00018692px;line-height:125%;font-family:Helvetica;-inkscape-font-specification:'Helvetica, Normal';text-align:start;writing-mode:lr-tb;text-anchor:start"
       sodipodi:linespacing="125%"
       x="82.415199"
       y="64.2099">dernisms</text>
</g><g
     id="Layer_1_xA0_Image_1_"
     transform="translate(-3.5524883,2.6357294)"><g
       id="g3502"><g
         id="g3504"><path
           d="m 43,42 c 0.4,-0.2 0.7,0.2 1.1,0.2 1.4,0.3 2.9,-1 2.5,-2.3 -0.1,-0.5 -0.2,-0.9 -0.2,-1.3 0.4,0 0.8,0.1 1.2,0.1 1.2,0.3 2.2,-0.4 2.4,-1.6 0.2,-1.4 -0.5,-2.6 -1.8,-2.7 -1.5,-0.1 -2.3,0.6 -2.5,1.9 -0.1,0.8 0.5,1.3 0.5,2 l -0.3,0 c -1.3,-0.7 -2.1,-0.5 -3,0.6 -0.8,1 -0.6,1.8 0.3,2.7 -0.1,0.2 0,0.3 -0.2,0.4 -2.1,-0.2 -3.1,0.9 -2.7,2.8 0.2,1 0.9,1.2 1.6,1.3 1,0.2 1.8,-0.4 2.3,-1.2 0.3,-0.6 0.3,-1.3 -0.2,-2 -0.4,-0.3 -1.1,-0.2 -1,-0.9 z m 12,28.6 c 0.3,-0.3 0.6,0 0.8,0 1.2,0.3 1.9,0.1 2.6,-1.1 0.5,-0.9 0.1,-1.4 -0.2,-2.1 -0.5,-1 -1.4,-0.9 -2.2,-0.9 -0.8,0.1 -1,0.7 -1.3,1.3 -0.6,1.1 0.3,1.9 0.3,2.8 -0.2,-0.1 -0.5,-0.3 -0.8,-0.5 -0.8,-0.5 -2.4,-0.1 -2.9,0.7 -0.5,0.8 -0.1,2.3 0.8,2.8 0.8,0.5 1.7,0.5 2.4,-0.1 1,-0.9 1,-1.9 0.5,-2.9 z m 8.1,-0.5 c 0.2,0.3 0,0.6 -0.1,0.7 -0.7,0.7 -0.5,1.5 -0.1,2.2 0.4,0.7 1.1,1 1.9,0.9 0.8,0 2,-1.1 1.9,-1.8 -0.1,-0.8 0.1,-1.9 -1.4,-2.1 -0.8,-0.2 -1.5,0.2 -2.2,0.1 0.1,-0.4 0.1,-0.8 0.2,-1.1 0.3,-1 -0.2,-1.9 -1.2,-2.3 -1.2,-0.5 -2.3,-0.1 -2.9,1 -0.4,0.7 0,2.1 0.6,2.6 1.3,0.8 2.3,0.3 3.3,-0.2 z m -24,-15.4 c -0.5,-0.3 -1,-0.5 -1.5,-0.5 -1.2,0.1 -2.1,1 -2.1,2.1 0,1.3 0.7,2.2 1.9,2.3 1,0.1 2.2,-1 2.4,-2 0.2,-0.8 -0.6,-1.2 -0.7,-1.9 0.4,-0.4 0.7,0.1 1,0.3 0.9,0.5 1.7,0.3 2.4,-0.2 0.7,-0.5 0.8,-1.4 0.6,-2.2 -0.2,-1 -1,-1.2 -1.8,-1.4 -1.5,-0.3 -2.6,0.7 -2.4,2.3 0,0.4 0.6,0.7 0.2,1.2 z m 35.1,4.8 c -1.4,0 -2.6,0.6 -2.9,1.6 -0.3,1 0.2,1.6 0.9,2.2 0.6,0.6 2.1,0.5 2.7,-0.1 0.9,-0.9 0.8,-1.7 0.2,-2.7 -0.3,-0.4 -0.9,-0.5 -0.9,-1 0.2,-0.1 0.3,0.1 0.5,0.1 1.2,0.5 2.3,-0.1 2.9,-1 0.5,-0.9 0.2,-1.8 -0.8,-2.5 -0.7,-0.5 -1.6,-0.8 -2.3,-0.4 -0.5,0.4 -1,1 -1,1.9 0.1,0.8 0.6,1.3 0.7,1.9 z m -28.1,4.1 c 1.1,-2.5 1,-2.9 -0.8,-3.8 -0.9,-0.4 -2.2,-0.2 -2.7,0.8 -0.4,0.8 -0.3,1.7 0.4,2.4 0.9,1.2 2,0.8 3.1,0.6 0.1,0 0.1,0.1 0.1,0.2 -0.5,1.3 -0.4,2.6 0.4,3.1 0.8,0.6 2,0.3 3,-0.5 0.1,0 0.1,0 0.2,-0.1 0,2.4 0.7,3.4 2.3,3.3 1.1,-0.1 2.2,-1.5 2.1,-2.7 -0.1,-0.5 -0.4,-0.8 -0.7,-1.1 -1.1,-1 -2.3,-0.6 -3.6,0 0.4,-1.3 0,-2.2 -0.9,-2.7 -0.9,-0.6 -1.8,-0.5 -2.6,0.4 -0.1,0.2 -0.2,0.3 -0.3,0.1 z m 16.8,-5.8 c -0.1,-0.1 -0.3,-0.2 -0.4,-0.3 -1,-1.2 -1.7,-1.2 -2.8,-0.1 -0.4,0.4 -0.6,0.8 -0.8,1.4 -0.6,-2.5 -2.2,-2.8 -4.3,-1.2 0.8,-1.3 0.4,-2.2 -0.6,-2.8 -1,-0.7 -2,0 -2.6,0.6 -0.6,0.7 -0.4,1.7 0.2,2.4 0.7,0.9 1.6,0.8 3.2,-0.1 -0.1,1.3 0.3,2.3 1.2,2.6 1.1,0.4 2.1,0 2.8,-1.2 0.5,0 0.5,0.5 0.8,0.8 0.8,0.9 2.3,0.9 2.9,-0.1 0.5,-0.5 0.6,-1.2 0.4,-2 0.3,0.1 0.6,0.4 0.9,0.5 0.8,0.3 1.7,0.5 2.4,-0.3 0.5,-0.7 0.6,-1.6 0.2,-2.2 C 65.9,54.9 65,54.6 64,55 c -1.5,0.5 -1.3,1.7 -1.1,2.8 z M 74.4,42 c -0.2,0.6 -0.9,0.7 -1,1.4 -0.2,1.3 0.6,2.5 1.8,2.7 1.4,0.2 2.3,-0.5 2.4,-1.8 0.1,-1.7 -0.4,-2.2 -2.1,-2.2 C 75.1,42 74.8,42 74.4,42 c -0.1,-0.5 0.3,-0.7 0.5,-1 0.6,-0.8 0.3,-1.6 0,-2.4 -0.3,-0.8 -0.9,-0.5 -1.4,-0.5 l -2.1,0 c 0.5,-1.2 0.9,-2.5 -0.4,-3.3 -1.3,-0.9 -2.5,-0.6 -3.4,1.1 0.3,-2.6 0.1,-3 -1.2,-3.5 -1,-0.4 -1.9,-0.2 -2.5,0.7 -0.5,0.8 -0.8,1.6 0,2.5 0.8,1 1.7,1 3.8,0 -0.2,2.6 0.6,3.2 3.4,2.8 0.2,0.2 0,0.4 -0.1,0.5 -0.5,1.7 0.3,2.9 2.1,3.1 0.5,0.1 0.9,-0.2 1.3,0 z m -15.6,4.5 c -1,0 -2.1,0.1 -2.9,0.8 -1.8,1.5 -1.8,5 -0.2,6.6 1,1 2.1,1.9 3.7,1.6 1.9,-0.4 3.2,-1.3 3.8,-3.3 0.5,-2 0.3,-3.3 -1,-4.4 -0.4,-0.4 -1.1,0 -1.3,-0.4 -0.5,-1.1 -1.4,-0.8 -2.1,-0.9 z m -6.9,0.6 c 1.5,0 2.8,-0.1 3.1,-1.6 0.2,-0.9 -0.3,-1.6 -1,-2 -0.8,-0.4 -1.9,-0.4 -2.5,0.5 -0.7,0.9 -0.5,1.9 0.4,2.8 -1.9,0.2 -2.8,0.6 -2.9,1.6 -0.1,0.9 0.3,1.8 1.1,2.1 0.8,0.3 1.7,0.4 2.4,-0.4 0.7,-1.1 0.6,-2.1 -0.6,-3 z m 6.9,-3.9 c 0.6,1.4 1.6,1.9 2.8,1.6 0.8,-0.2 1.2,-1 1.2,-1.7 0,-0.9 -0.4,-1.7 -1.3,-2.1 -1.8,-0.7 -2.1,0.9 -2.9,2.1 -0.3,-1.6 -1.3,-2.2 -2.5,-2 -0.7,0.1 -1.3,0.8 -1.4,1.7 -0.1,1 0.5,1.7 1.3,1.9 1.2,0.5 2.1,-0.1 2.8,-1.5 z m -18.9,2.1 c 0,-1.2 -1,-2.3 -2.2,-2.3 -1.2,0 -2.2,1.1 -2.2,2.3 0,1.2 1.1,2.2 2.3,2.2 1.2,-0.1 2.1,-1 2.1,-2.2 z M 52,36.6 c 1.2,0 2.2,-1.1 2.1,-2.1 -0.1,-1.2 -1,-2.3 -2,-2.3 -1.6,0.1 -2.4,0.8 -2.4,2.1 0,1.1 1.2,2.3 2.3,2.3 z m 18.1,30.5 c 1.1,0 2.2,-1.2 2.2,-2.4 0,-0.7 -1.5,-2 -2.4,-2 -1.1,0 -2.2,1.3 -2.2,2.4 0.1,1.1 1.3,2.1 2.4,2 z m -27,-29.4 c 1.3,0 2.1,-0.8 2.2,-2.1 0,-1.2 -0.9,-2.2 -2.2,-2.2 -1.3,0 -2.1,0.9 -2.1,2.6 0,0.9 0.9,1.7 2.1,1.7 z m 31.6,15.4 c 0,1.3 1,2.3 2.4,2.3 0.6,0 2.1,-1.6 2.1,-2.4 0,-0.9 -1,-2 -1.8,-2 -1.8,0.1 -2.7,0.7 -2.7,2.1 z m 5.5,-6 c 1.3,0 2.2,-1 2.1,-2.5 0,-0.9 -1.2,-1.8 -2.3,-1.8 -1,0 -2,1.1 -2,2.2 0.1,1.1 1.1,2.1 2.2,2.1 z M 79,48.4 c 0,-1 -1,-2.1 -2,-2.1 -1.4,0 -2.3,0.9 -2.4,2.2 0,1 1,2 2.1,2 1.3,0 2.3,-0.9 2.3,-2.1 z M 68.2,67.3 c 0,-1 -1.2,-2 -2.3,-2 -1,0 -2.3,1 -2.3,1.8 0,1.1 1.1,2.5 2,2.5 0.9,0.1 2.5,-1.4 2.6,-2.3 z m -25,0.9 c 1.7,-0.1 2.4,-0.8 2.3,-2.1 -0.1,-1.1 -1.1,-2 -2.4,-1.9 -0.9,0 -1.9,1.3 -1.8,2.5 0,0.9 0.8,1.5 1.9,1.5 z M 61.5,31 c -1.7,0.1 -2.4,0.6 -2.4,1.8 0,1.5 0.8,2.5 1.8,2.4 1.1,0 2.4,-1.2 2.4,-2.1 0,-0.8 -1.1,-2.1 -1.8,-2.1 z m -3.1,2.1 c 0,-1.3 -0.8,-2.2 -1.8,-2.2 -0.9,0 -2.3,1.2 -2.3,1.9 0.1,1.3 1.1,2.4 2.2,2.4 1.3,0.1 1.9,-0.6 1.9,-2.1 z M 41.8,55.8 c -1,0 -1.8,0.7 -1.8,1.9 0,1.1 0.9,2 2.1,2.1 0.9,0.1 2.3,-1.2 2.4,-2.2 0.1,-0.9 -1.2,-1.7 -2.7,-1.8 z m -0.9,-9.2 c -1.1,0 -2.1,1.1 -2.1,2.1 0,1 1.1,1.9 2.2,1.9 1.2,0 2.1,-1 2.1,-2.2 0.1,-1.1 -0.8,-1.8 -2.2,-1.8 z m 33.6,21.5 c 1.3,0 2.1,-0.8 2.2,-2 0,-1.2 -0.8,-2 -2.1,-2.1 -1,0 -2.1,0.9 -2.1,1.9 0,1.4 0.8,2.2 2,2.2 z M 73.9,33.6 c -1,0 -1.6,0.6 -1.6,1.5 0,1.2 0.9,2.3 1.9,2.3 1.2,0.1 2.2,-0.9 2.2,-2.1 0,-1.5 -0.3,-1.7 -2.5,-1.7 z m 6.4,25 c 1.3,0 2.1,-0.9 2.1,-2.4 0,-0.9 -1.3,-1.8 -2.3,-1.8 -1,0.1 -1.8,0.9 -1.8,2.1 -0.1,1.2 0.8,2.1 2,2.1 z M 50.8,51.2 c -1.1,0 -2,0.8 -2.1,1.9 0,0.8 1,1.9 1.9,1.9 1.2,0 2.2,-0.9 2.2,-2 0.1,-1 -0.9,-1.8 -2,-1.8 z m 16,3.5 c 1.4,0 2,-0.5 2,-1.8 0,-0.8 -0.8,-1.7 -1.6,-1.7 -1.5,0 -2.4,0.6 -2.4,1.8 0.1,1 0.8,1.7 2,1.7 z m -2.2,-7.8 c 0.9,0 2,-0.8 2.1,-1.6 0.1,-1 -1,-2.1 -2,-2.1 -0.9,0 -2,1 -2,1.9 0,1 0.6,1.7 1.9,1.8 z m 2.2,3.6 c 1.4,0 1.9,-0.5 2,-1.9 0,-0.7 -1.1,-1.7 -2.1,-1.7 -0.8,0 -1.7,0.9 -1.7,1.7 0,1.2 0.6,1.8 1.8,1.9 z"
           id="path3506"
           inkscape:connector-curvature="0"
           style="fill:#fcfbfc"
           sodipodi:nodetypes="ccccccccccccccccccccccccccsccccsscccccccccccsccccscccccscsccccccccccscccccccccccccccscccccccccccccccccccccccsscccccccccccccscccccccccccscccssccccccssscssccsscssccscsssssscsscscssscsscssccccccccscscssccscscccssscssccsssscssssccsscscsssscsccsscccssc" /><path
           d="m 53.3,27.4 c 1,0.4 2,0.9 2,2.2 0,1.1 -0.4,1.8 -1.6,2.1 -1.2,0.4 -1.7,-0.1 -2.2,-0.9 -0.6,-0.9 -0.6,-1.7 0.2,-2.5 0.4,-0.4 0.9,-0.6 1.3,-0.9 0.1,0 0.2,0 0.3,0 z"
           id="path3508"
           inkscape:connector-curvature="0"
           style="fill:#721563" /><path
           d="m 65,27.4 c 0.1,0.3 0.4,0.4 0.7,0.6 0.8,0.6 1.1,1.5 0.7,2.5 -0.3,0.7 -1.7,1.4 -2.6,1.2 -1,-0.2 -1.5,-1 -1.5,-1.9 0,-1.1 0.9,-1.8 1.7,-2.4 0.4,0 0.7,0 1,0 z"
           id="path3510"
           inkscape:connector-curvature="0"
           style="fill:#721563" /><path
           d="m 58.8,46.5 c 0.8,0.1 1.6,-0.2 2,0.9 0.2,0.4 0.8,0.1 1.3,0.4 1.3,1.1 1.6,2.4 1,4.4 -0.5,2 -1.8,2.9 -3.8,3.3 -1.6,0.3 -2.7,-0.6 -3.7,-1.6 -1.6,-1.6 -1.6,-5.2 0.2,-6.6 0.9,-0.7 1.9,-0.8 3,-0.8 z"
           id="path3512"
           inkscape:connector-curvature="0"
           style="fill:#721563" /><path
           d="m 74.4,42 c -0.4,-0.2 -0.8,0.1 -1.2,0 -1.8,-0.1 -2.6,-1.4 -2.1,-3.1 0.1,-0.2 0.2,-0.3 0.1,-0.5 -2.9,0.4 -3.6,-0.2 -3.4,-2.8 -2.2,1 -3,1 -3.8,0 -0.7,-0.9 -0.5,-1.7 0,-2.5 0.6,-1 1.5,-1.1 2.5,-0.7 1.3,0.5 1.5,0.9 1.2,3.5 1,-1.6 2.2,-1.9 3.4,-1.1 1.3,0.9 0.9,2.1 0.4,3.3 0.8,0 1.4,0 2.1,0 0.5,0 1.1,-0.2 1.4,0.5 0.3,0.8 0.6,1.6 0,2.4 -0.3,0.3 -0.7,0.5 -0.6,1 l 0,0 z"
           id="path3514"
           inkscape:connector-curvature="0"
           style="fill:#721563" /><path
           d="m 62.9,57.8 c 0.2,0.8 0.2,1.5 -0.3,2.2 -0.6,0.9 -2.1,0.9 -2.9,0.1 -0.3,-0.3 -0.3,-0.7 -0.8,-0.8 -0.7,1.2 -1.7,1.6 -2.8,1.2 -0.9,-0.3 -1.3,-1.3 -1.2,-2.6 -1.6,0.9 -2.4,1 -3.2,0.1 -0.6,-0.7 -0.8,-1.7 -0.2,-2.4 0.6,-0.7 1.6,-1.3 2.6,-0.6 0.9,0.6 1.3,1.6 0.6,2.8 2.1,-1.6 3.7,-1.3 4.3,1.2 0.2,-0.7 0.5,-1.1 0.8,-1.4 1,-1.1 1.8,-1.1 2.8,0.1 0,0 0.2,0.1 0.3,0.1 l 0,0 z"
           id="path3516"
           inkscape:connector-curvature="0"
           style="fill:#721563" /><path
           d="m 46.1,63.6 c 0.1,0.2 0.3,0.1 0.4,0 0.7,-0.9 1.7,-1 2.6,-0.4 0.9,0.5 1.3,1.4 0.9,2.7 1.3,-0.6 2.5,-1 3.6,0 0.3,0.3 0.6,0.6 0.7,1.1 0.1,1.2 -1,2.6 -2.1,2.7 -1.6,0.1 -2.3,-0.9 -2.3,-3.3 -0.1,0 -0.2,0 -0.2,0.1 -1,0.9 -2.3,1.1 -3,0.5 -0.8,-0.6 -1,-1.8 -0.4,-3.1 -0.1,-0.2 -0.2,-0.2 -0.2,-0.3 l 0,0 z"
           id="path3518"
           inkscape:connector-curvature="0"
           style="fill:#721563" /><path
           d="m 51.9,47.1 c 1.3,1 1.3,2 0.6,3 -0.6,0.8 -1.6,0.8 -2.4,0.4 -0.8,-0.4 -1.2,-1.2 -1.1,-2.1 0.1,-1 1,-1.5 2.9,-1.6 -0.9,-0.9 -1,-1.8 -0.4,-2.8 0.6,-0.9 1.6,-0.9 2.5,-0.5 0.7,0.3 1.2,1.1 1,2 -0.3,1.5 -1.6,1.6 -3.1,1.6 z"
           id="path3520"
           inkscape:connector-curvature="0"
           style="fill:#721563" /><path
           d="m 58.8,43.2 c -0.7,1.4 -1.6,2 -2.8,1.6 -0.7,-0.3 -1.4,-0.9 -1.3,-1.9 0.1,-0.9 0.7,-1.6 1.4,-1.7 1.2,-0.2 2.3,0.4 2.5,2 0.8,-1.2 1.2,-2.7 2.9,-2.1 1,0.4 1.4,1.2 1.3,2.1 0,0.7 -0.4,1.5 -1.2,1.7 -1.2,0.2 -2.2,-0.3 -2.8,-1.7 z"
           id="path3522"
           inkscape:connector-curvature="0"
           style="fill:#721563" /><path
           d="m 46.1,38.4 c 0,-0.7 -0.6,-1.2 -0.5,-2 0.2,-1.3 1,-2.1 2.5,-1.9 1.2,0.1 2,1.3 1.8,2.7 -0.2,1.2 -1.2,1.8 -2.4,1.6 -0.4,-0.1 -0.8,-0.1 -1.2,-0.1 l 0,0 c 0.1,-0.3 0.1,-0.4 -0.2,-0.3 l 0,0 z"
           id="path3524"
           inkscape:connector-curvature="0"
           style="fill:#721563" /><path
           d="m 39.9,45.3 c 0,1.2 -0.9,2.2 -2,2.2 -1.2,0.1 -2.3,-1 -2.3,-2.2 0,-1.2 1,-2.4 2.2,-2.3 1,0 2,1 2.1,2.3 z"
           id="path3526"
           inkscape:connector-curvature="0"
           style="fill:#721563" /><path
           d="m 52,36.6 c -1.1,0 -2.3,-1.1 -2.3,-2.3 0,-1.4 0.8,-2.1 2.4,-2.1 1,0 2,1.1 2,2.3 0,1 -1,2 -2.1,2.1 z"
           id="path3528"
           inkscape:connector-curvature="0"
           style="fill:#721563" /><path
           d="m 70.1,67.1 c -1.2,0 -2.3,-0.9 -2.4,-2 -0.1,-1.1 1.1,-2.5 2.2,-2.4 0.8,0 2.4,1.3 2.4,2 0,1.2 -1,2.4 -2.2,2.4 z"
           id="path3530"
           inkscape:connector-curvature="0"
           style="fill:#721563" /><path
           d="M 43.1,37.7 C 41.9,37.7 41,37 41,36 c 0,-1.6 0.8,-2.6 2.1,-2.6 1.3,0 2.2,1 2.2,2.2 0,1.3 -0.9,2.1 -2.2,2.1 z"
           id="path3532"
           inkscape:connector-curvature="0"
           style="fill:#721563" /><path
           d="m 74.7,53.1 c 0,-1.4 0.9,-2 2.7,-2 0.9,0 1.8,1 1.8,2 0,0.7 -1.5,2.4 -2.1,2.4 -1.4,-0.1 -2.4,-1.1 -2.4,-2.4 z"
           id="path3534"
           inkscape:connector-curvature="0"
           style="fill:#721563" /><path
           d="m 74.1,59.5 c 0,0.5 0.6,0.6 0.9,1.1 0.6,1 0.7,1.9 -0.2,2.7 -0.6,0.6 -2.1,0.7 -2.7,0.1 -0.6,-0.6 -1.2,-1.3 -0.9,-2.2 0.4,-1.1 1.6,-1.7 2.9,-1.7 l 0,0 z"
           id="path3536"
           inkscape:connector-curvature="0"
           style="fill:#721563" /><path
           d="m 39.1,54.7 c 0.1,0.7 0.9,1 0.7,1.9 -0.2,0.9 -1.5,2 -2.4,2 -1.2,-0.1 -1.9,-1 -1.9,-2.3 0,-1.1 0.9,-2 2.1,-2.1 0.6,0 1.1,0.2 1.5,0.5 l 0,0 z"
           id="path3538"
           inkscape:connector-curvature="0"
           style="fill:#721563" /><path
           d="m 63.1,70.1 c -1,0.5 -2,1.1 -3.2,0.2 -0.6,-0.5 -1,-1.9 -0.6,-2.6 0.6,-1.1 1.7,-1.5 2.9,-1 1,0.4 1.4,1.3 1.2,2.3 -0.1,0.3 -0.2,0.7 -0.3,1.1 0,0 0,0 0,0 z"
           id="path3540"
           inkscape:connector-curvature="0"
           style="fill:#721563" /><path
           d="m 46.1,63.6 c -1.1,0.2 -2.2,0.6 -3.2,-0.5 -0.7,-0.8 -0.8,-1.7 -0.4,-2.4 0.5,-1 1.7,-1.3 2.7,-0.8 1.9,0.8 2,1.2 0.9,3.7 0,0 0,0 0,0 z"
           id="path3542"
           inkscape:connector-curvature="0"
           style="fill:#721563" /><path
           d="m 80.2,47.1 c -1.1,0 -2.1,-1 -2.2,-2.1 0,-1.1 1,-2.2 1.9,-2.2 1.1,0 2.3,0.9 2.3,1.8 0.2,1.5 -0.7,2.5 -2,2.5 z"
           id="path3544"
           inkscape:connector-curvature="0"
           style="fill:#721563" /><path
           d="m 79,48.4 c 0,1.2 -1,2.1 -2.3,2.2 -1.1,0 -2.1,-1 -2.1,-2 0,-1.3 1,-2.2 2.4,-2.2 1,-0.1 2,0.9 2,2 z"
           id="path3546"
           inkscape:connector-curvature="0"
           style="fill:#721563" /><path
           d="m 55,70.6 c 0,-0.9 -0.9,-1.7 -0.4,-2.8 0.3,-0.6 0.6,-1.3 1.3,-1.3 0.9,-0.1 1.7,-0.1 2.2,0.9 0.3,0.7 0.7,1.2 0.2,2.1 -0.7,1.2 -1.4,1.4 -2.6,1.1 -0.2,-0.1 -0.5,-0.3 -0.7,0 l 0,0 z"
           id="path3548"
           inkscape:connector-curvature="0"
           style="fill:#721563" /><path
           d="m 46.3,38.6 c 0.1,0.4 0.1,0.9 0.2,1.3 0.4,1.2 -1.2,2.6 -2.5,2.3 -0.4,-0.1 -0.6,-0.4 -1.1,-0.2 l 0,0 c 0.2,-0.1 0.2,-0.2 0,-0.4 -0.9,-0.8 -1.1,-1.7 -0.3,-2.7 0.9,-1.1 1.8,-1.3 3,-0.6 0.1,0 0.2,0 0.3,0 0,0 0,0 0,0 0.1,0.3 0.3,0.3 0.4,0.3 l 0,0 z"
           id="path3550"
           inkscape:connector-curvature="0"
           style="fill:#721563" /><path
           d="m 68.2,67.3 c 0,0.9 -1.7,2.4 -2.6,2.3 -0.9,-0.1 -2,-1.4 -2,-2.5 0,-0.8 1.3,-1.8 2.3,-1.8 1.1,0 2.3,1 2.3,2 z"
           id="path3552"
           inkscape:connector-curvature="0"
           style="fill:#721563" /><path
           d="m 39.1,54.7 c 0.3,-0.5 -0.2,-0.8 -0.3,-1.3 -0.2,-1.5 0.9,-2.6 2.4,-2.3 0.8,0.2 1.7,0.3 1.8,1.4 0.1,0.8 0,1.7 -0.6,2.2 -0.7,0.6 -1.5,0.7 -2.4,0.2 -0.2,0 -0.4,-0.6 -0.9,-0.2 0,0 0,0 0,0 z"
           id="path3554"
           inkscape:connector-curvature="0"
           style="fill:#721563" /><path
           d="m 43,42 c -0.1,0.7 0.7,0.6 1,1 0.6,0.7 0.6,1.4 0.2,2 -0.5,0.8 -1.2,1.4 -2.3,1.2 -0.7,-0.1 -1.4,-0.4 -1.6,-1.3 -0.4,-2.1 0.5,-3.1 2.7,-2.9 0,0 0,0 0,0 z"
           id="path3556"
           inkscape:connector-curvature="0"
           style="fill:#721563" /><path
           d="m 74.4,42 c 0.4,0 0.7,0 1.1,0 1.7,0 2.2,0.5 2.1,2.2 -0.1,1.3 -1,2 -2.4,1.8 -1.2,-0.1 -1.9,-1.4 -1.8,-2.7 0.1,-0.6 0.9,-0.7 1,-1.3 0,0 0,0 0,0 z"
           id="path3558"
           inkscape:connector-curvature="0"
           style="fill:#721563" /><path
           d="m 74.2,59.5 c 0,-0.7 -0.6,-1.1 -0.6,-1.9 0,-0.9 0.4,-1.5 1,-1.9 0.7,-0.5 1.6,-0.1 2.3,0.4 1,0.7 1.3,1.7 0.8,2.5 -0.6,1 -1.7,1.6 -2.9,1 -0.3,0 -0.4,-0.2 -0.6,-0.1 -0.1,0 0,0 0,0 z"
           id="path3560"
           inkscape:connector-curvature="0"
           style="fill:#721563" /><path
           d="m 43.2,68.2 c -1,0.1 -1.8,-0.6 -1.9,-1.6 -0.1,-1.1 0.9,-2.4 1.8,-2.5 1.3,0 2.4,0.8 2.4,1.9 0,1.4 -0.7,2.1 -2.3,2.2 z"
           id="path3562"
           inkscape:connector-curvature="0"
           style="fill:#721563" /><path
           d="m 61.5,31 c 0.7,0 1.8,1.3 1.8,2.2 0,0.9 -1.3,2.1 -2.4,2.1 -1.1,0 -1.8,-1 -1.8,-2.4 0,-1.3 0.8,-1.9 2.4,-1.9 z"
           id="path3564"
           inkscape:connector-curvature="0"
           style="fill:#721563" /><path
           d="m 58.4,33.1 c 0,1.5 -0.6,2.2 -1.9,2.2 -1.1,0 -2.2,-1.1 -2.2,-2.4 0,-0.8 1.3,-1.9 2.3,-1.9 1,-0.1 1.8,0.9 1.8,2.1 z"
           id="path3566"
           inkscape:connector-curvature="0"
           style="fill:#721563" /><path
           d="m 41.8,55.8 c 1.5,0 2.8,0.9 2.7,1.8 -0.1,0.9 -1.5,2.2 -2.4,2.2 -1.3,-0.1 -2.1,-0.9 -2.1,-2.1 0.1,-1.1 0.8,-1.9 1.8,-1.9 z"
           id="path3568"
           inkscape:connector-curvature="0"
           style="fill:#721563" /><path
           d="m 40.9,46.6 c 1.3,0 2.2,0.7 2.2,1.8 0,1.3 -0.9,2.2 -2.1,2.2 -1.1,0 -2.2,-1 -2.2,-1.9 0.1,-1 1.1,-2.1 2.1,-2.1 z"
           id="path3570"
           inkscape:connector-curvature="0"
           style="fill:#721563" /><path
           d="m 74.5,68.1 c -1.2,0 -2,-0.9 -2,-2.2 0,-1 1.1,-1.9 2.1,-1.9 1.3,0 2.1,0.9 2.1,2.1 -0.1,1.3 -0.9,2.1 -2.2,2 z"
           id="path3572"
           inkscape:connector-curvature="0"
           style="fill:#721563" /><path
           d="m 55,70.6 c 0.6,1.1 0.6,2.1 -0.4,2.9 -0.8,0.6 -1.6,0.6 -2.4,0.1 -0.9,-0.5 -1.3,-2 -0.8,-2.8 0.5,-0.8 2.1,-1.2 2.9,-0.7 0.2,0.2 0.4,0.3 0.7,0.5 0,0 0,0 0,0 z"
           id="path3574"
           inkscape:connector-curvature="0"
           style="fill:#721563" /><path
           d="m 73.9,33.6 c 2.2,0 2.5,0.2 2.5,1.7 0,1.2 -1,2.2 -2.2,2.1 -1,-0.1 -2,-1.2 -1.9,-2.3 0,-1 0.6,-1.6 1.6,-1.5 z"
           id="path3576"
           inkscape:connector-curvature="0"
           style="fill:#721563" /><path
           d="m 80.3,58.6 c -1.2,0 -2.1,-0.8 -2,-2 0,-1.2 0.8,-2 1.8,-2.1 1.1,-0.1 2.3,0.9 2.3,1.8 0,1.3 -0.8,2.3 -2.1,2.3 z"
           id="path3578"
           inkscape:connector-curvature="0"
           style="fill:#721563" /><path
           d="m 63.1,70.1 c 0.7,0.2 1.4,-0.3 2.2,-0.1 1.4,0.2 1.2,1.3 1.4,2.1 0.1,0.7 -1.1,1.8 -1.9,1.8 -0.8,0 -1.5,-0.2 -1.9,-0.9 -0.4,-0.7 -0.6,-1.5 0.1,-2.2 0.1,-0.1 0.3,-0.5 0.1,-0.7 0,0 0,0 0,0 z"
           id="path3580"
           inkscape:connector-curvature="0"
           style="fill:#721563" /><path
           d="m 50.8,51.2 c 1.1,0 2.1,0.8 2.1,1.8 0,1.1 -1,2 -2.2,2 -0.9,0 -2,-1.1 -1.9,-1.9 0,-1.1 0.9,-1.9 2,-1.9 z"
           id="path3582"
           inkscape:connector-curvature="0"
           style="fill:#721563" /><path
           d="m 62.9,57.8 c -0.2,-1.2 -0.4,-2.3 1.1,-2.9 1.1,-0.4 2,-0.1 2.5,0.8 0.4,0.6 0.3,1.6 -0.2,2.2 -0.7,0.8 -1.6,0.6 -2.4,0.3 -0.4,0 -0.7,-0.2 -1,-0.4 0,0 0,0 0,0 z"
           id="path3584"
           inkscape:connector-curvature="0"
           style="fill:#721563" /><path
           d="m 66.8,54.7 c -1.1,0 -1.9,-0.7 -1.9,-1.8 0,-1.2 0.9,-1.9 2.4,-1.8 0.7,0 1.6,1 1.6,1.7 -0.1,1.4 -0.7,1.9 -2.1,1.9 z"
           id="path3586"
           inkscape:connector-curvature="0"
           style="fill:#721563" /><path
           d="m 64.6,46.9 c -1.2,-0.1 -1.9,-0.7 -1.9,-1.8 0,-0.9 1.1,-1.9 2,-1.9 1,0 2.1,1.2 2,2.1 -0.1,0.8 -1.2,1.6 -2.1,1.6 z"
           id="path3588"
           inkscape:connector-curvature="0"
           style="fill:#721563" /><path
           d="m 66.8,50.5 c -1.2,0 -1.9,-0.7 -1.8,-1.9 0,-0.8 1,-1.8 1.7,-1.7 0.9,0 2.1,1 2.1,1.7 -0.1,1.4 -0.6,1.9 -2,1.9 z"
           id="path3590"
           inkscape:connector-curvature="0"
           style="fill:#721563" /><path
           d="m 46.3,38.7 c -0.1,0 -0.3,0 -0.3,-0.3 0.4,-0.1 0.4,0 0.3,0.3 z"
           id="path3592"
           inkscape:connector-curvature="0"
           style="fill:#fcfbfc" /></g></g></g></svg>