<?xml version="1.0" encoding="utf-8"?>
<!-- Generator: Adobe Illustrator 15.1.0, SVG Export Plug-In . SVG Version: 6.00 Build 0)  -->
<!DOCTYPE svg PUBLIC "-//W3C//DTD SVG 1.1//EN" "http://www.w3.org/Graphics/SVG/1.1/DTD/svg11.dtd">
<svg version="1.1" id="Layer_1" xmlns="http://www.w3.org/2000/svg" xmlns:xlink="http://www.w3.org/1999/xlink" x="0px" y="0px"
	 width="792px" height="64.222px" viewBox="0 0 792 64.222" enable-background="new 0 0 792 64.222" xml:space="preserve">
<path fill="#ED1C24" d="M49.025,45.02c0,0-0.206-5.055-0.206-5.564c0-0.502,0.426-0.674,0.93-0.564
	c0.504,0.11,5.231,1.073,5.231,1.073s-0.362-1.026-0.615-1.783c-0.252-0.754,0.079-0.895,0.252-1.054
	c0.173-0.156,5.282-4.571,5.282-4.571l-0.835-0.408c-0.504-0.236-0.425-0.662-0.346-0.95c0.079-0.279,0.92-3.229,0.92-3.229
	s-2.204,0.493-2.719,0.57c-0.41,0.064-0.552-0.123-0.678-0.408c-0.126-0.285-0.662-1.575-0.662-1.575s-2.699,2.987-2.757,3.042
	c-0.52,0.469-1.024,0.11-0.929-0.441c0.086-0.505,1.386-6.477,1.386-6.477s-1.435,0.852-1.907,1.134
	c-0.473,0.285-0.725,0.236-0.977-0.224c-0.252-0.457-2.021-3.999-2.021-3.999h0.004c0,0-1.769,3.542-2.021,3.999
	c-0.253,0.459-0.505,0.508-0.978,0.224c-0.473-0.282-1.906-1.134-1.906-1.134s1.3,5.972,1.386,6.477
	c0.094,0.552-0.41,0.91-0.93,0.441c-0.058-0.055-2.757-3.042-2.757-3.042s-0.536,1.29-0.663,1.575
	c-0.125,0.285-0.267,0.472-0.677,0.408c-0.515-0.077-2.808-0.57-2.808-0.57s0.93,2.95,1.009,3.229
	c0.078,0.288,0.157,0.714-0.347,0.95l-0.835,0.408c0,0,5.108,4.415,5.282,4.571c0.172,0.159,0.504,0.3,0.251,1.054
	c-0.251,0.757-0.614,1.783-0.614,1.783s4.727-0.962,5.231-1.073c0.504-0.11,0.93,0.062,0.93,0.564c0,0.509-0.206,5.564-0.206,5.564
	H49.025z"/>
<g>
	<rect x="63.841" y="16.994" fill="#ED1C24" width="15.009" height="30.795"/>
	<path fill="#ED1C24" d="M71.345,32.393"/>
</g>
<g>
	<rect x="18.227" y="16.982" fill="#ED1C24" width="15.008" height="30.795"/>
	<path fill="#ED1C24" d="M25.731,32.381"/>
</g>
<path d="M104.881,25.107h1.45c0.036,0.646,0.188,1.17,0.458,1.575c0.512,0.754,1.414,1.131,2.707,1.131
	c0.579,0,1.106-0.083,1.583-0.249c0.92-0.318,1.38-0.895,1.38-1.722c0-0.619-0.194-1.063-0.582-1.324
	c-0.393-0.26-1.008-0.484-1.845-0.677l-1.543-0.349c-1.009-0.227-1.722-0.478-2.141-0.75c-0.724-0.478-1.085-1.186-1.085-2.133
	c0-1.026,0.354-1.863,1.062-2.521c0.708-0.656,1.711-0.986,3.009-0.986c1.195,0,2.209,0.291,3.044,0.867
	c0.835,0.576,1.253,1.499,1.253,2.764h-1.451c-0.078-0.613-0.243-1.075-0.497-1.403c-0.47-0.594-1.269-0.895-2.396-0.895
	c-0.911,0-1.565,0.196-1.962,0.576c-0.398,0.383-0.597,0.827-0.597,1.333c0,0.561,0.232,0.968,0.698,1.229
	c0.305,0.162,0.995,0.371,2.07,0.619l1.598,0.362c0.77,0.181,1.365,0.419,1.783,0.726c0.724,0.533,1.086,1.305,1.086,2.316
	c0,1.262-0.459,2.166-1.376,2.708c-0.917,0.542-1.984,0.812-3.199,0.812c-1.417,0-2.525-0.358-3.327-1.084
	C105.258,27.31,104.865,26.336,104.881,25.107z"/>
<path d="M117.181,27.001c-0.388-0.591-0.582-1.327-0.582-2.212c0-0.922,0.194-1.707,0.582-2.356
	c0.388-0.653,1.008-0.978,1.861-0.978c0.961,0,1.638,0.383,2.032,1.146c0.248,0.487,0.372,1.118,0.372,1.894
	c0,0.855-0.172,1.639-0.516,2.338c-0.344,0.702-0.979,1.051-1.904,1.051C118.184,27.883,117.569,27.589,117.181,27.001z
	 M116.228,21.477c-0.708,0.827-1.063,1.939-1.063,3.336c0,1.302,0.336,2.341,1.009,3.113c0.672,0.772,1.58,1.161,2.723,1.161
	c1.369,0,2.38-0.438,3.032-1.312c0.652-0.873,0.977-1.982,0.977-3.321c0-1.385-0.37-2.433-1.109-3.146
	c-0.739-0.717-1.644-1.072-2.715-1.072C117.887,20.236,116.935,20.649,116.228,21.477z"/>
<path d="M127.764,20.236c0.936,0,1.697,0.229,2.284,0.683c0.586,0.457,0.939,1.238,1.058,2.35h-1.357
	c-0.083-0.515-0.271-0.938-0.566-1.274c-0.294-0.34-0.767-0.509-1.418-0.509c-0.89,0-1.526,0.432-1.908,1.302
	c-0.249,0.561-0.373,1.259-0.373,2.083c0,0.836,0.175,1.535,0.527,2.105c0.352,0.57,0.905,0.852,1.66,0.852
	c0.579,0,1.038-0.178,1.376-0.53c0.338-0.355,0.573-0.839,0.702-1.455h1.357c-0.154,1.103-0.542,1.906-1.163,2.414
	c-0.62,0.512-1.415,0.766-2.381,0.766c-1.085,0-1.952-0.398-2.598-1.189c-0.646-0.793-0.969-1.786-0.969-2.975
	c0-1.458,0.354-2.595,1.062-3.404C125.765,20.643,126.667,20.236,127.764,20.236z"/>
<path d="M132.502,28.781v-8.263h1.419v8.263H132.502z M132.502,18.97V17.39h1.419v1.581H132.502z"/>
<path d="M137.741,25.408c0.253-0.144,0.633-0.248,1.14-0.316l0.845-0.11c0.258-0.031,0.522-0.083,0.791-0.156
	c0.269-0.071,0.489-0.163,0.66-0.273v1.127c0,0.858-0.388,1.474-1.164,1.854c-0.46,0.227-0.936,0.343-1.427,0.343
	c-0.404,0-0.752-0.116-1.047-0.352c-0.295-0.23-0.442-0.548-0.442-0.953C137.097,26.042,137.312,25.649,137.741,25.408z
	 M136.36,24.813c-0.481,0.423-0.722,1.021-0.722,1.792c0,0.699,0.245,1.287,0.733,1.756c0.489,0.466,1.119,0.702,1.889,0.702
	c0.641,0,1.227-0.138,1.76-0.414c0.532-0.273,0.94-0.595,1.226-0.968c0.046,0.331,0.126,0.588,0.24,0.766
	c0.217,0.343,0.566,0.515,1.046,0.515c0.197,0,0.352-0.006,0.466-0.025c0.113-0.015,0.279-0.052,0.496-0.116v-1.033
	c-0.088,0.019-0.17,0.031-0.248,0.037c-0.077,0.009-0.147,0.012-0.209,0.012c-0.191,0-0.317-0.043-0.376-0.135
	c-0.06-0.086-0.09-0.202-0.09-0.346V22.57c0-0.784-0.303-1.363-0.908-1.737c-0.61-0.374-1.403-0.558-2.38-0.558
	c-0.843,0-1.583,0.199-2.222,0.601c-0.639,0.401-0.971,1.112-0.997,2.139h1.303c0.052-0.429,0.163-0.757,0.334-0.971
	c0.305-0.392,0.822-0.588,1.551-0.588c0.63,0,1.115,0.107,1.454,0.319c0.339,0.217,0.508,0.563,0.508,1.039
	c0,0.23-0.03,0.411-0.092,0.533c-0.109,0.227-0.323,0.365-0.645,0.401l-2.226,0.282C137.472,24.127,136.841,24.387,136.36,24.813z"
	/>
<path d="M144.896,28.781V17.39h1.396v11.391H144.896z"/>
<path d="M152.539,25.107h1.45c0.036,0.646,0.188,1.17,0.458,1.575c0.512,0.754,1.414,1.131,2.707,1.131
	c0.579,0,1.106-0.083,1.583-0.249c0.92-0.318,1.38-0.895,1.38-1.722c0-0.619-0.194-1.063-0.582-1.324
	c-0.393-0.26-1.008-0.484-1.845-0.677l-1.543-0.349c-1.008-0.227-1.722-0.478-2.141-0.75c-0.724-0.478-1.085-1.186-1.085-2.133
	c0-1.026,0.354-1.863,1.063-2.521c0.708-0.656,1.711-0.986,3.008-0.986c1.195,0,2.209,0.291,3.045,0.867
	c0.834,0.576,1.252,1.499,1.252,2.764h-1.451c-0.078-0.613-0.243-1.075-0.497-1.403c-0.47-0.594-1.269-0.895-2.396-0.895
	c-0.91,0-1.564,0.196-1.962,0.576c-0.398,0.383-0.597,0.827-0.597,1.333c0,0.561,0.233,0.968,0.698,1.229
	c0.305,0.162,0.995,0.371,2.071,0.619l1.598,0.362c0.77,0.181,1.365,0.419,1.784,0.726c0.723,0.533,1.085,1.305,1.085,2.316
	c0,1.262-0.458,2.166-1.376,2.708c-0.917,0.542-1.984,0.812-3.199,0.812c-1.417,0-2.525-0.358-3.327-1.084
	C152.915,27.31,152.522,26.336,152.539,25.107z"/>
<path d="M166.591,20.236c0.936,0,1.697,0.229,2.284,0.683c0.587,0.457,0.941,1.238,1.059,2.35h-1.357
	c-0.083-0.515-0.271-0.938-0.565-1.274c-0.296-0.34-0.769-0.509-1.42-0.509c-0.89,0-1.524,0.432-1.907,1.302
	c-0.248,0.561-0.374,1.259-0.374,2.083c0,0.836,0.178,1.535,0.528,2.105c0.351,0.57,0.905,0.852,1.659,0.852
	c0.579,0,1.039-0.178,1.377-0.53c0.339-0.355,0.572-0.839,0.702-1.455h1.357c-0.155,1.103-0.544,1.906-1.163,2.414
	c-0.622,0.512-1.416,0.766-2.381,0.766c-1.086,0-1.952-0.398-2.598-1.189c-0.646-0.793-0.971-1.786-0.971-2.975
	c0-1.458,0.355-2.595,1.063-3.404C164.592,20.643,165.496,20.236,166.591,20.236z"/>
<path d="M172.748,18.97V17.39h-1.419v1.581H172.748z M172.748,28.781v-8.263h-1.419v8.263H172.748z"/>
<path d="M176.614,22.2c0.435-0.459,0.973-0.692,1.615-0.692c0.893,0,1.532,0.337,1.915,1.011c0.207,0.361,0.338,0.842,0.395,1.446
	h-4.614C175.95,23.25,176.181,22.663,176.614,22.2z M175.475,21.538c-0.723,0.833-1.084,1.915-1.084,3.25
	c0,1.354,0.358,2.408,1.077,3.162c0.719,0.75,1.595,1.125,2.63,1.125c0.423,0,0.803-0.04,1.14-0.12
	c0.625-0.147,1.149-0.429,1.573-0.843c0.253-0.232,0.482-0.542,0.686-0.916c0.204-0.377,0.325-0.717,0.36-1.02h-1.373
	c-0.103,0.368-0.279,0.689-0.527,0.971c-0.434,0.481-1.016,0.717-1.743,0.717c-0.781,0-1.357-0.254-1.731-0.763
	c-0.371-0.506-0.57-1.183-0.598-2.028h6.088c0-0.836-0.04-1.446-0.123-1.829c-0.093-0.558-0.279-1.045-0.559-1.465
	c-0.29-0.438-0.711-0.796-1.264-1.072c-0.555-0.279-1.125-0.417-1.714-0.417C177.145,20.291,176.198,20.708,175.475,21.538z"/>
<path d="M183.685,28.781v-8.303h1.325v1.179c0.394-0.487,0.809-0.836,1.25-1.048c0.438-0.214,0.928-0.318,1.464-0.318
	c1.18,0,1.976,0.411,2.39,1.235c0.227,0.447,0.34,1.09,0.34,1.927v5.328h-1.418v-5.236c0-0.502-0.075-0.91-0.226-1.223
	c-0.248-0.515-0.697-0.778-1.35-0.778c-0.331,0-0.602,0.034-0.815,0.104c-0.381,0.113-0.717,0.34-1.008,0.68
	c-0.233,0.275-0.383,0.558-0.454,0.852c-0.069,0.291-0.104,0.711-0.104,1.253v4.348H183.685z"/>
<path d="M195.718,20.236c0.935,0,1.696,0.229,2.283,0.683c0.588,0.457,0.94,1.238,1.059,2.35h-1.356
	c-0.084-0.515-0.272-0.938-0.567-1.274c-0.294-0.34-0.769-0.509-1.418-0.509c-0.892,0-1.526,0.432-1.909,1.302
	c-0.248,0.561-0.373,1.259-0.373,2.083c0,0.836,0.176,1.535,0.527,2.105c0.351,0.57,0.905,0.852,1.659,0.852
	c0.579,0,1.039-0.178,1.377-0.53c0.339-0.355,0.573-0.839,0.703-1.455h1.356c-0.155,1.103-0.542,1.906-1.163,2.414
	c-0.621,0.512-1.414,0.766-2.381,0.766c-1.086,0-1.952-0.398-2.598-1.189c-0.646-0.793-0.97-1.786-0.97-2.975
	c0-1.458,0.354-2.595,1.062-3.404C193.719,20.643,194.621,20.236,195.718,20.236z"/>
<path d="M202.216,22.2c0.435-0.459,0.971-0.692,1.612-0.692c0.895,0,1.535,0.337,1.917,1.011c0.207,0.361,0.338,0.842,0.396,1.446
	h-4.616C201.551,23.25,201.781,22.663,202.216,22.2z M201.077,21.538c-0.725,0.833-1.086,1.915-1.086,3.25
	c0,1.354,0.36,2.408,1.077,3.162c0.72,0.75,1.596,1.125,2.629,1.125c0.426,0,0.806-0.04,1.141-0.12
	c0.625-0.147,1.15-0.429,1.573-0.843c0.254-0.232,0.483-0.542,0.687-0.916c0.205-0.377,0.325-0.717,0.361-1.02h-1.373
	c-0.104,0.368-0.279,0.689-0.527,0.971c-0.435,0.481-1.017,0.717-1.747,0.717c-0.78,0-1.357-0.254-1.728-0.763
	c-0.374-0.506-0.573-1.183-0.597-2.028h6.088c0-0.836-0.042-1.446-0.124-1.829c-0.094-0.558-0.28-1.045-0.56-1.465
	c-0.288-0.438-0.71-0.796-1.264-1.072c-0.553-0.279-1.125-0.417-1.714-0.417C202.747,20.291,201.8,20.708,201.077,21.538z"/>
<path d="M208.773,26.177h1.342c0.041,0.466,0.156,0.824,0.349,1.072c0.351,0.447,0.962,0.674,1.829,0.674
	c0.518,0,0.973-0.116,1.367-0.337c0.392-0.227,0.588-0.576,0.588-1.048c0-0.352-0.158-0.625-0.472-0.812
	c-0.202-0.113-0.601-0.245-1.195-0.395l-1.109-0.282c-0.708-0.172-1.231-0.368-1.567-0.588c-0.599-0.374-0.899-0.898-0.899-1.563
	c0-0.791,0.282-1.425,0.849-1.909c0.567-0.487,1.328-0.732,2.284-0.732c1.251,0,2.154,0.371,2.707,1.103
	c0.346,0.465,0.515,0.968,0.504,1.504h-1.319c-0.024-0.313-0.136-0.601-0.333-0.861c-0.32-0.368-0.878-0.548-1.668-0.548
	c-0.527,0-0.925,0.101-1.198,0.3c-0.271,0.202-0.408,0.469-0.408,0.797c0,0.364,0.179,0.652,0.537,0.873
	c0.205,0.125,0.511,0.242,0.915,0.34l0.923,0.224c1.002,0.242,1.675,0.478,2.016,0.708c0.542,0.353,0.815,0.916,0.815,1.679
	c0,0.741-0.282,1.378-0.842,1.918c-0.561,0.539-1.416,0.809-2.563,0.809c-1.236,0-2.111-0.282-2.626-0.846
	C209.085,27.696,208.81,27.004,208.773,26.177z"/>
<path d="M223.354,25.408c0.253-0.144,0.633-0.248,1.14-0.316l0.845-0.11c0.257-0.031,0.521-0.083,0.791-0.156
	c0.27-0.071,0.489-0.163,0.659-0.273v1.127c0,0.858-0.387,1.474-1.163,1.854c-0.461,0.227-0.936,0.343-1.426,0.343
	c-0.404,0-0.753-0.116-1.048-0.352c-0.294-0.23-0.441-0.548-0.441-0.953C222.711,26.042,222.925,25.649,223.354,25.408z
	 M221.972,24.813c-0.481,0.423-0.72,1.021-0.72,1.792c0,0.699,0.244,1.287,0.732,1.756c0.489,0.466,1.119,0.702,1.888,0.702
	c0.642,0,1.229-0.138,1.762-0.414c0.533-0.273,0.94-0.595,1.226-0.968c0.046,0.331,0.125,0.588,0.239,0.766
	c0.218,0.343,0.567,0.515,1.048,0.515c0.196,0,0.353-0.006,0.466-0.025c0.113-0.015,0.279-0.052,0.496-0.116v-1.033
	c-0.089,0.019-0.171,0.031-0.248,0.037c-0.077,0.009-0.147,0.012-0.208,0.012c-0.193,0-0.318-0.043-0.376-0.135
	c-0.06-0.086-0.089-0.202-0.089-0.346V22.57c0-0.784-0.303-1.363-0.909-1.737c-0.609-0.374-1.403-0.558-2.38-0.558
	c-0.844,0-1.583,0.199-2.223,0.601c-0.637,0.401-0.97,1.112-0.996,2.139h1.302c0.052-0.429,0.164-0.757,0.334-0.971
	c0.306-0.392,0.822-0.588,1.55-0.588c0.631,0,1.117,0.107,1.455,0.319c0.339,0.217,0.509,0.563,0.509,1.039
	c0,0.23-0.031,0.411-0.093,0.533c-0.109,0.227-0.323,0.365-0.645,0.401l-2.225,0.282C223.084,24.127,222.453,24.387,221.972,24.813z
	"/>
<path d="M230.468,28.781v-8.303h1.327v1.179c0.393-0.487,0.809-0.836,1.249-1.048c0.44-0.214,0.929-0.318,1.466-0.318
	c1.18,0,1.975,0.411,2.388,1.235c0.229,0.447,0.342,1.09,0.342,1.927v5.328h-1.418v-5.236c0-0.502-0.077-0.91-0.227-1.223
	c-0.248-0.515-0.697-0.778-1.348-0.778c-0.331,0-0.604,0.034-0.815,0.104c-0.383,0.113-0.718,0.34-1.008,0.68
	c-0.233,0.275-0.383,0.558-0.454,0.852c-0.07,0.291-0.104,0.711-0.104,1.253v4.348H230.468z"/>
<path d="M240.838,22.353c0.437-0.54,1.006-0.809,1.711-0.809c0.63,0,1.16,0.254,1.589,0.76c0.429,0.502,0.645,1.281,0.645,2.332
	c0,1.039-0.208,1.832-0.625,2.39c-0.417,0.558-0.949,0.833-1.593,0.833c-0.833,0-1.438-0.3-1.817-0.901
	c-0.377-0.598-0.565-1.342-0.565-2.23C240.183,23.683,240.402,22.892,240.838,22.353z M239.636,21.661
	c-0.618,0.885-0.925,1.933-0.925,3.14c0,1.293,0.337,2.332,1.014,3.11c0.677,0.778,1.48,1.165,2.405,1.165
	c0.573,0,1.083-0.11,1.527-0.34c0.446-0.227,0.83-0.594,1.156-1.106v1.152h1.256V17.35h-1.342v4.194
	c-0.316-0.383-0.598-0.659-0.846-0.812c-0.429-0.267-0.962-0.401-1.598-0.401C241.137,20.331,240.254,20.772,239.636,21.661z"/>
<path d="M252.766,28.781V17.39h1.558v4.709h5.926V17.39h1.56v11.391h-1.56v-5.328h-5.926v5.328H252.766z"/>
<path d="M263.977,20.478h1.426v5.512c0,0.426,0.067,0.772,0.202,1.039c0.249,0.497,0.711,0.748,1.388,0.748
	c0.971,0,1.633-0.435,1.985-1.305c0.191-0.462,0.288-1.103,0.288-1.918v-4.075h1.396v8.303h-1.319l0.015-1.222
	c-0.181,0.315-0.404,0.582-0.674,0.796c-0.533,0.435-1.18,0.653-1.939,0.653c-1.183,0-1.99-0.396-2.42-1.189
	c-0.231-0.423-0.348-0.986-0.348-1.697V20.478z"/>
<path d="M272.837,28.781v-8.303h1.38v1.179c0.331-0.41,0.631-0.708,0.901-0.892c0.459-0.318,0.98-0.475,1.565-0.475
	c0.662,0,1.195,0.162,1.598,0.49c0.227,0.184,0.434,0.457,0.62,0.821c0.31-0.444,0.674-0.775,1.094-0.993
	c0.418-0.214,0.889-0.318,1.411-0.318c1.117,0,1.876,0.404,2.281,1.21c0.216,0.435,0.325,1.018,0.325,1.75v5.53h-1.449v-5.766
	c0-0.555-0.14-0.935-0.417-1.143c-0.275-0.208-0.613-0.31-1.011-0.31c-0.548,0-1.021,0.184-1.416,0.551
	c-0.396,0.368-0.595,0.98-0.595,1.838v4.829h-1.418v-5.42c0-0.561-0.067-0.974-0.202-1.235c-0.211-0.386-0.606-0.582-1.186-0.582
	c-0.527,0-1.008,0.208-1.438,0.616c-0.432,0.408-0.648,1.149-0.648,2.215v4.406H272.837z"/>
<path d="M287.779,25.408c0.252-0.144,0.632-0.248,1.14-0.316l0.846-0.11c0.257-0.031,0.521-0.083,0.791-0.156
	c0.27-0.071,0.488-0.163,0.659-0.273v1.127c0,0.858-0.386,1.474-1.163,1.854c-0.461,0.227-0.936,0.343-1.426,0.343
	c-0.404,0-0.753-0.116-1.048-0.352c-0.294-0.23-0.441-0.548-0.441-0.953C287.135,26.042,287.35,25.649,287.779,25.408z
	 M286.397,24.813c-0.479,0.423-0.72,1.021-0.72,1.792c0,0.699,0.244,1.287,0.732,1.756c0.489,0.466,1.118,0.702,1.889,0.702
	c0.642,0,1.227-0.138,1.76-0.414c0.533-0.273,0.94-0.595,1.226-0.968c0.046,0.331,0.125,0.588,0.241,0.766
	c0.216,0.343,0.565,0.515,1.046,0.515c0.196,0,0.353-0.006,0.466-0.025c0.113-0.015,0.279-0.052,0.497-0.116v-1.033
	c-0.089,0.019-0.17,0.031-0.249,0.037c-0.076,0.009-0.147,0.012-0.208,0.012c-0.193,0-0.319-0.043-0.377-0.135
	c-0.06-0.086-0.089-0.202-0.089-0.346V22.57c0-0.784-0.303-1.363-0.907-1.737c-0.611-0.374-1.405-0.558-2.382-0.558
	c-0.843,0-1.583,0.199-2.221,0.601c-0.639,0.401-0.971,1.112-0.998,2.139h1.302c0.052-0.429,0.164-0.757,0.334-0.971
	c0.306-0.392,0.823-0.588,1.552-0.588c0.63,0,1.115,0.107,1.454,0.319c0.338,0.217,0.508,0.563,0.508,1.039
	c0,0.23-0.03,0.411-0.093,0.533c-0.109,0.227-0.323,0.365-0.644,0.401l-2.226,0.282C287.509,24.127,286.878,24.387,286.397,24.813z"
	/>
<path d="M294.893,28.781v-8.303h1.327v1.179c0.392-0.487,0.809-0.836,1.25-1.048c0.438-0.214,0.927-0.318,1.464-0.318
	c1.18,0,1.977,0.411,2.39,1.235c0.227,0.447,0.34,1.09,0.34,1.927v5.328h-1.418v-5.236c0-0.502-0.077-0.91-0.225-1.223
	c-0.249-0.515-0.697-0.778-1.35-0.778c-0.331,0-0.604,0.034-0.815,0.104c-0.383,0.113-0.717,0.34-1.008,0.68
	c-0.233,0.275-0.383,0.558-0.454,0.852c-0.07,0.291-0.104,0.711-0.104,1.253v4.348H294.893z"/>
<path d="M303.723,28.781v-8.263h1.418v8.263H303.723z M303.723,18.97V17.39h1.418v1.581H303.723z"/>
<path d="M307.528,20.478v-2.32h1.411v2.32h1.325v1.14h-1.325v5.417c0,0.294,0.098,0.484,0.294,0.582
	c0.109,0.061,0.29,0.086,0.544,0.086c0.067,0,0.138,0,0.216,0c0.078-0.006,0.169-0.012,0.271-0.021v1.1
	c-0.16,0.046-0.327,0.083-0.5,0.104c-0.173,0.018-0.362,0.03-0.563,0.03c-0.651,0-1.094-0.168-1.327-0.499
	c-0.231-0.334-0.348-0.769-0.348-1.302v-5.497h-1.125v-1.14H307.528z"/>
<path d="M311.662,28.781v-8.263h1.418v8.263H311.662z M311.662,18.97V17.39h1.418v1.581H311.662z"/>
<path d="M316.947,22.2c0.435-0.459,0.971-0.692,1.613-0.692c0.893,0,1.533,0.337,1.917,1.011c0.205,0.361,0.337,0.842,0.395,1.446
	h-4.614C316.282,23.25,316.512,22.663,316.947,22.2z M315.807,21.538c-0.725,0.833-1.086,1.915-1.086,3.25
	c0,1.354,0.36,2.408,1.077,3.162c0.72,0.75,1.596,1.125,2.63,1.125c0.424,0,0.804-0.04,1.14-0.12
	c0.626-0.147,1.151-0.429,1.573-0.843c0.254-0.232,0.484-0.542,0.687-0.916c0.205-0.377,0.325-0.717,0.361-1.02h-1.373
	c-0.104,0.368-0.279,0.689-0.527,0.971c-0.435,0.481-1.017,0.717-1.747,0.717c-0.78,0-1.355-0.254-1.728-0.763
	c-0.372-0.506-0.573-1.183-0.597-2.028h6.088c0-0.836-0.042-1.446-0.124-1.829c-0.094-0.558-0.28-1.045-0.559-1.465
	c-0.288-0.438-0.711-0.796-1.263-1.072c-0.554-0.279-1.126-0.417-1.716-0.417C317.477,20.291,316.53,20.708,315.807,21.538z"/>
<path d="M323.503,26.177h1.342c0.041,0.466,0.158,0.824,0.349,1.072c0.351,0.447,0.962,0.674,1.829,0.674
	c0.518,0,0.973-0.116,1.367-0.337c0.392-0.227,0.588-0.576,0.588-1.048c0-0.352-0.156-0.625-0.472-0.812
	c-0.202-0.113-0.601-0.245-1.195-0.395l-1.109-0.282c-0.708-0.172-1.231-0.368-1.565-0.588c-0.601-0.374-0.901-0.898-0.901-1.563
	c0-0.791,0.284-1.425,0.849-1.909c0.567-0.487,1.328-0.732,2.286-0.732c1.25,0,2.152,0.371,2.706,1.103
	c0.346,0.465,0.515,0.968,0.504,1.504h-1.319c-0.024-0.313-0.136-0.601-0.333-0.861c-0.32-0.368-0.876-0.548-1.668-0.548
	c-0.527,0-0.926,0.101-1.198,0.3c-0.271,0.202-0.408,0.469-0.408,0.797c0,0.364,0.18,0.652,0.537,0.873
	c0.205,0.125,0.511,0.242,0.915,0.34l0.923,0.224c1.002,0.242,1.675,0.478,2.016,0.708c0.542,0.353,0.815,0.916,0.815,1.679
	c0,0.741-0.282,1.378-0.842,1.918c-0.561,0.539-1.416,0.809-2.563,0.809c-1.236,0-2.111-0.282-2.624-0.846
	C323.816,27.696,323.541,27.004,323.503,26.177z"/>
<path d="M107.053,37.541h3.769c0.528,0,0.949,0.077,1.265,0.233c0.589,0.294,0.884,0.849,0.884,1.661
	c0,0.754-0.21,1.274-0.632,1.563c-0.421,0.294-0.994,0.438-1.718,0.438h-3.567V37.541z M107.053,47.605v-4.884h3.513
	c0.631,0,1.094,0.067,1.389,0.208c0.517,0.251,0.793,0.753,0.83,1.498l0.093,1.896c0.021,0.447,0.046,0.745,0.078,0.901
	c0.03,0.156,0.072,0.282,0.124,0.38h1.892v-0.254c-0.238-0.101-0.403-0.334-0.497-0.698c-0.057-0.211-0.093-0.533-0.108-0.968
	l-0.055-1.529c-0.026-0.662-0.151-1.14-0.376-1.434c-0.225-0.294-0.56-0.533-1.005-0.717c0.507-0.264,0.901-0.61,1.183-1.042
	c0.282-0.435,0.423-0.993,0.423-1.679c0-1.306-0.535-2.203-1.605-2.69c-0.563-0.251-1.279-0.38-2.148-0.38h-5.273v11.392H107.053z"
	/>
<path d="M118.364,41.024c0.434-0.46,0.972-0.692,1.613-0.692c0.894,0,1.533,0.337,1.916,1.011c0.207,0.362,0.338,0.843,0.395,1.446
	h-4.614C117.699,42.075,117.929,41.487,118.364,41.024z M117.224,40.362c-0.725,0.833-1.086,1.915-1.086,3.251
	c0,1.354,0.359,2.408,1.078,3.162c0.719,0.75,1.596,1.124,2.63,1.124c0.423,0,0.803-0.04,1.14-0.119
	c0.626-0.147,1.15-0.429,1.574-0.843c0.253-0.233,0.482-0.542,0.687-0.916c0.204-0.377,0.324-0.717,0.361-1.021h-1.374
	c-0.104,0.368-0.279,0.689-0.527,0.972c-0.435,0.481-1.017,0.717-1.745,0.717c-0.781,0-1.357-0.254-1.729-0.763
	c-0.372-0.505-0.571-1.183-0.597-2.028h6.088c0-0.837-0.042-1.446-0.124-1.83c-0.093-0.558-0.279-1.044-0.559-1.464
	c-0.29-0.438-0.711-0.796-1.264-1.072c-0.553-0.279-1.125-0.417-1.714-0.417C118.894,39.115,117.947,39.532,117.224,40.362z"/>
<path d="M124.921,45.001h1.341c0.041,0.466,0.158,0.824,0.349,1.073c0.352,0.447,0.961,0.674,1.83,0.674
	c0.517,0,0.972-0.116,1.365-0.337c0.393-0.227,0.59-0.576,0.59-1.048c0-0.353-0.158-0.625-0.474-0.812
	c-0.201-0.113-0.6-0.245-1.194-0.395l-1.109-0.282c-0.708-0.171-1.231-0.368-1.566-0.588c-0.6-0.374-0.9-0.898-0.9-1.563
	c0-0.791,0.283-1.424,0.85-1.909c0.566-0.487,1.327-0.732,2.284-0.732c1.25,0,2.153,0.371,2.707,1.103
	c0.346,0.466,0.514,0.968,0.504,1.504h-1.319c-0.026-0.313-0.137-0.601-0.333-0.861c-0.321-0.368-0.876-0.548-1.667-0.548
	c-0.527,0-0.927,0.101-1.198,0.3c-0.271,0.202-0.407,0.469-0.407,0.796c0,0.365,0.178,0.653,0.535,0.874
	c0.207,0.125,0.512,0.242,0.916,0.34l0.922,0.224c1.003,0.242,1.676,0.478,2.017,0.708c0.543,0.352,0.814,0.916,0.814,1.679
	c0,0.742-0.28,1.379-0.841,1.918c-0.562,0.54-1.416,0.809-2.563,0.809c-1.236,0-2.111-0.282-2.625-0.846
	C125.232,46.521,124.957,45.829,124.921,45.001z"/>
<path d="M135.135,41.024c0.434-0.46,0.972-0.692,1.613-0.692c0.895,0,1.533,0.337,1.916,1.011c0.207,0.362,0.338,0.843,0.396,1.446
	h-4.615C134.471,42.075,134.7,41.487,135.135,41.024z M133.995,40.362c-0.724,0.833-1.086,1.915-1.086,3.251
	c0,1.354,0.359,2.408,1.079,3.162c0.718,0.75,1.595,1.124,2.629,1.124c0.424,0,0.804-0.04,1.14-0.119
	c0.626-0.147,1.15-0.429,1.575-0.843c0.254-0.233,0.482-0.542,0.687-0.916c0.204-0.377,0.324-0.717,0.361-1.021h-1.373
	c-0.104,0.368-0.28,0.689-0.528,0.972c-0.435,0.481-1.016,0.717-1.745,0.717c-0.781,0-1.357-0.254-1.729-0.763
	c-0.372-0.505-0.571-1.183-0.597-2.028h6.088c0-0.837-0.041-1.446-0.124-1.83c-0.093-0.558-0.279-1.044-0.559-1.464
	c-0.289-0.438-0.711-0.796-1.264-1.072c-0.553-0.279-1.125-0.417-1.714-0.417C135.665,39.115,134.719,39.532,133.995,40.362z"/>
<path d="M143.918,44.232c0.253-0.144,0.634-0.248,1.14-0.315l0.845-0.11c0.258-0.03,0.522-0.083,0.792-0.156
	c0.268-0.07,0.489-0.162,0.659-0.272v1.127c0,0.858-0.388,1.474-1.164,1.854c-0.459,0.227-0.935,0.343-1.427,0.343
	c-0.403,0-0.752-0.116-1.046-0.353c-0.295-0.229-0.442-0.548-0.442-0.953C143.275,44.866,143.488,44.474,143.918,44.232z
	 M142.538,43.638c-0.481,0.423-0.722,1.021-0.722,1.792c0,0.699,0.244,1.287,0.733,1.755c0.489,0.466,1.118,0.702,1.888,0.702
	c0.641,0,1.228-0.138,1.761-0.414c0.533-0.272,0.941-0.594,1.225-0.968c0.046,0.331,0.127,0.588,0.24,0.766
	c0.218,0.343,0.566,0.515,1.047,0.515c0.196,0,0.352-0.006,0.466-0.024c0.113-0.015,0.279-0.052,0.496-0.116v-1.033
	c-0.088,0.019-0.171,0.031-0.248,0.037c-0.078,0.009-0.148,0.012-0.21,0.012c-0.191,0-0.316-0.042-0.376-0.135
	c-0.06-0.085-0.089-0.202-0.089-0.346v-4.786c0-0.784-0.303-1.363-0.908-1.737c-0.61-0.374-1.404-0.558-2.381-0.558
	c-0.843,0-1.584,0.199-2.222,0.601c-0.639,0.401-0.971,1.112-0.996,2.139h1.303c0.051-0.429,0.163-0.757,0.333-0.971
	c0.305-0.393,0.822-0.588,1.551-0.588c0.63,0,1.115,0.107,1.455,0.318c0.338,0.218,0.508,0.564,0.508,1.039
	c0,0.229-0.031,0.411-0.093,0.533c-0.108,0.227-0.323,0.365-0.644,0.401l-2.226,0.282C143.649,42.952,143.018,43.212,142.538,43.638
	z"/>
<path d="M151.072,47.605v-8.303h1.326v1.434c0.108-0.282,0.375-0.622,0.799-1.021c0.424-0.398,0.913-0.601,1.466-0.601
	c0.026,0,0.07,0,0.132,0.006s0.168,0.019,0.318,0.034v1.474c-0.083-0.018-0.159-0.027-0.228-0.031
	c-0.071-0.006-0.146-0.012-0.229-0.012c-0.704,0-1.244,0.23-1.621,0.68c-0.377,0.451-0.566,0.975-0.566,1.566v4.773H151.072z"/>
<path d="M159.522,39.061c0.936,0,1.697,0.229,2.284,0.683c0.587,0.457,0.94,1.238,1.058,2.35h-1.356
	c-0.083-0.515-0.271-0.938-0.566-1.275c-0.295-0.34-0.767-0.508-1.419-0.508c-0.89,0-1.525,0.432-1.908,1.302
	c-0.248,0.561-0.372,1.259-0.372,2.083c0,0.836,0.175,1.535,0.527,2.105s0.905,0.852,1.66,0.852c0.579,0,1.038-0.178,1.376-0.53
	c0.338-0.355,0.572-0.839,0.702-1.456h1.356c-0.153,1.103-0.542,1.906-1.163,2.415c-0.621,0.512-1.414,0.766-2.381,0.766
	c-1.086,0-1.952-0.398-2.598-1.189c-0.646-0.793-0.969-1.786-0.969-2.975c0-1.458,0.354-2.595,1.062-3.404
	C157.523,39.468,158.426,39.061,159.522,39.061z"/>
<path d="M164.261,47.605V36.174h1.396v4.252c0.331-0.423,0.628-0.717,0.892-0.885c0.451-0.294,1.011-0.441,1.684-0.441
	c1.204,0,2.022,0.42,2.451,1.262c0.233,0.463,0.35,1.1,0.35,1.915v5.328h-1.436v-5.236c0-0.606-0.078-1.054-0.233-1.339
	c-0.253-0.453-0.729-0.68-1.426-0.68c-0.579,0-1.104,0.196-1.575,0.595c-0.472,0.398-0.707,1.152-0.707,2.255v4.406H164.261z"/>
<path d="M182.489,35.904c1.443,0,2.563,0.38,3.36,1.14c0.795,0.76,1.238,1.624,1.325,2.592h-1.504
	c-0.17-0.738-0.51-1.317-1.021-1.75c-0.51-0.426-1.224-0.64-2.143-0.64c-1.123,0-2.028,0.395-2.719,1.183s-1.036,1.998-1.036,3.625
	c0,1.336,0.311,2.415,0.935,3.245c0.624,0.831,1.552,1.247,2.788,1.247c1.138,0,2.004-0.438,2.598-1.312
	c0.315-0.459,0.55-1.066,0.706-1.813h1.504c-0.135,1.198-0.579,2.206-1.334,3.015c-0.905,0.98-2.125,1.464-3.66,1.464
	c-1.323,0-2.436-0.398-3.336-1.198c-1.183-1.063-1.774-2.696-1.774-4.912c0-1.682,0.444-3.061,1.333-4.133
	C179.473,36.487,180.8,35.904,182.489,35.904z"/>
<path d="M190.42,45.825c-0.389-0.591-0.582-1.327-0.582-2.212c0-0.922,0.193-1.707,0.582-2.356c0.388-0.653,1.008-0.978,1.86-0.978
	c0.962,0,1.639,0.383,2.033,1.146c0.248,0.487,0.373,1.118,0.373,1.894c0,0.854-0.172,1.639-0.515,2.337
	c-0.345,0.702-0.98,1.051-1.906,1.051C191.422,46.708,190.808,46.414,190.42,45.825z M189.466,40.301
	c-0.709,0.827-1.062,1.939-1.062,3.336c0,1.302,0.334,2.341,1.008,3.113c0.671,0.772,1.578,1.162,2.721,1.162
	c1.371,0,2.38-0.438,3.033-1.312c0.651-0.873,0.977-1.982,0.977-3.321c0-1.385-0.371-2.433-1.109-3.146
	c-0.74-0.717-1.646-1.072-2.715-1.072C191.125,39.061,190.174,39.474,189.466,40.301z"/>
<path d="M197.768,39.302h1.428v5.512c0,0.426,0.067,0.772,0.202,1.039c0.248,0.496,0.711,0.748,1.388,0.748
	c0.971,0,1.633-0.435,1.985-1.305c0.19-0.463,0.287-1.103,0.287-1.918v-4.075h1.396v8.303h-1.317l0.015-1.223
	c-0.181,0.316-0.406,0.583-0.674,0.797c-0.533,0.435-1.179,0.652-1.939,0.652c-1.186,0-1.991-0.395-2.42-1.188
	c-0.233-0.423-0.349-0.987-0.349-1.697V39.302z"/>
<path d="M206.628,47.605v-8.303h1.327v1.18c0.392-0.487,0.809-0.836,1.249-1.048c0.439-0.214,0.928-0.319,1.466-0.319
	c1.18,0,1.975,0.411,2.389,1.235c0.228,0.447,0.341,1.091,0.341,1.927v5.328h-1.418v-5.236c0-0.502-0.077-0.91-0.227-1.222
	c-0.249-0.515-0.697-0.778-1.348-0.778c-0.331,0-0.604,0.034-0.815,0.104c-0.383,0.113-0.719,0.34-1.008,0.68
	c-0.233,0.276-0.383,0.558-0.453,0.852c-0.071,0.291-0.104,0.71-0.104,1.253v4.348H206.628z"/>
<path d="M218.66,39.061c0.938,0,1.697,0.229,2.286,0.683c0.585,0.457,0.939,1.238,1.057,2.35h-1.357
	c-0.083-0.515-0.27-0.938-0.565-1.275c-0.294-0.34-0.768-0.508-1.42-0.508c-0.889,0-1.524,0.432-1.906,1.302
	c-0.248,0.561-0.374,1.259-0.374,2.083c0,0.836,0.176,1.535,0.527,2.105c0.353,0.57,0.907,0.852,1.661,0.852
	c0.579,0,1.039-0.178,1.375-0.53c0.34-0.355,0.573-0.839,0.702-1.456h1.357c-0.153,1.103-0.542,1.906-1.161,2.415
	c-0.622,0.512-1.416,0.766-2.382,0.766c-1.086,0-1.952-0.398-2.598-1.189c-0.645-0.793-0.97-1.786-0.97-2.975
	c0-1.458,0.355-2.595,1.063-3.404C216.663,39.468,217.565,39.061,218.66,39.061z"/>
<path d="M223.4,47.605v-8.263h1.419v8.263H223.4z M223.4,37.795v-1.581h1.419v1.581H223.4z"/>
<path d="M226.963,47.605V36.214h1.397v11.392H226.963z"/>
<path d="M236.313,45.825c-0.388-0.591-0.581-1.327-0.581-2.212c0-0.922,0.193-1.707,0.581-2.356
	c0.388-0.653,1.008-0.978,1.861-0.978c0.962,0,1.639,0.383,2.031,1.146c0.248,0.487,0.374,1.118,0.374,1.894
	c0,0.854-0.173,1.639-0.518,2.337c-0.343,0.702-0.978,1.051-1.903,1.051C237.316,46.708,236.701,46.414,236.313,45.825z
	 M235.358,40.301c-0.708,0.827-1.063,1.939-1.063,3.336c0,1.302,0.337,2.341,1.009,3.113c0.673,0.772,1.58,1.162,2.723,1.162
	c1.369,0,2.38-0.438,3.033-1.312c0.649-0.873,0.976-1.982,0.976-3.321c0-1.385-0.369-2.433-1.109-3.146
	c-0.74-0.717-1.644-1.072-2.713-1.072C237.019,39.061,236.066,39.474,235.358,40.301z"/>
<path d="M244.042,38.037c0.02-0.582,0.121-1.002,0.302-1.275c0.326-0.472,0.955-0.714,1.886-0.714c0.086,0,0.178,0.006,0.27,0.012
	c0.095,0.006,0.199,0.013,0.318,0.021v1.271c-0.144-0.009-0.25-0.015-0.314-0.018s-0.125-0.006-0.182-0.006
	c-0.423,0-0.677,0.113-0.76,0.331c-0.083,0.221-0.124,0.781-0.124,1.682h1.38v1.1h-1.396v7.164h-1.38v-7.164h-1.155v-1.1h1.155
	V38.037z"/>
<path d="M257.504,35.904c1.443,0,2.561,0.38,3.358,1.14c0.796,0.76,1.238,1.624,1.327,2.592h-1.504
	c-0.171-0.738-0.512-1.317-1.021-1.75c-0.508-0.426-1.224-0.64-2.145-0.64c-1.121,0-2.028,0.395-2.718,1.183
	s-1.036,1.998-1.036,3.625c0,1.336,0.313,2.415,0.935,3.245c0.622,0.831,1.554,1.247,2.788,1.247c1.137,0,2.004-0.438,2.598-1.312
	c0.316-0.459,0.552-1.066,0.707-1.813h1.504c-0.135,1.198-0.581,2.206-1.334,3.015c-0.904,0.98-2.125,1.464-3.661,1.464
	c-1.324,0-2.435-0.398-3.333-1.198c-1.185-1.063-1.777-2.696-1.777-4.912c0-1.682,0.444-3.061,1.334-4.133
	C254.488,36.487,255.813,35.904,257.504,35.904z"/>
<path d="M265.699,44.232c0.252-0.144,0.633-0.248,1.14-0.315l0.846-0.11c0.259-0.03,0.522-0.083,0.791-0.156
	c0.268-0.07,0.489-0.162,0.66-0.272v1.127c0,0.858-0.389,1.474-1.164,1.854c-0.46,0.227-0.936,0.343-1.428,0.343
	c-0.401,0-0.751-0.116-1.046-0.353c-0.294-0.229-0.443-0.548-0.443-0.953C265.054,44.866,265.268,44.474,265.699,44.232z
	 M264.318,43.638c-0.481,0.423-0.722,1.021-0.722,1.792c0,0.699,0.244,1.287,0.734,1.755c0.487,0.466,1.117,0.702,1.887,0.702
	c0.641,0,1.229-0.138,1.76-0.414c0.533-0.272,0.942-0.594,1.226-0.968c0.048,0.331,0.127,0.588,0.241,0.766
	c0.217,0.343,0.567,0.515,1.048,0.515c0.196,0,0.351-0.006,0.464-0.024c0.115-0.015,0.281-0.052,0.497-0.116v-1.033
	c-0.087,0.019-0.17,0.031-0.248,0.037c-0.078,0.009-0.147,0.012-0.21,0.012c-0.19,0-0.315-0.042-0.375-0.135
	c-0.06-0.085-0.089-0.202-0.089-0.346v-4.786c0-0.784-0.302-1.363-0.908-1.737c-0.61-0.374-1.403-0.558-2.381-0.558
	c-0.842,0-1.584,0.199-2.221,0.601c-0.639,0.401-0.971,1.112-0.996,2.139h1.302c0.052-0.429,0.163-0.757,0.334-0.971
	c0.304-0.393,0.821-0.588,1.551-0.588c0.631,0,1.115,0.107,1.454,0.318c0.338,0.218,0.508,0.564,0.508,1.039
	c0,0.229-0.032,0.411-0.093,0.533c-0.109,0.227-0.323,0.365-0.644,0.401l-2.226,0.282C265.429,42.952,264.799,43.212,264.318,43.638
	z"/>
<path d="M272.814,47.605v-8.303h1.327v1.18c0.392-0.487,0.809-0.836,1.247-1.048c0.44-0.214,0.928-0.319,1.466-0.319
	c1.179,0,1.975,0.411,2.388,1.235c0.228,0.447,0.341,1.091,0.341,1.927v5.328h-1.418v-5.236c0-0.502-0.075-0.91-0.225-1.222
	c-0.248-0.515-0.699-0.778-1.35-0.778c-0.331,0-0.602,0.034-0.813,0.104c-0.383,0.113-0.72,0.34-1.008,0.68
	c-0.233,0.276-0.385,0.558-0.454,0.852c-0.07,0.291-0.106,0.71-0.106,1.253v4.348H272.814z"/>
<path d="M283.357,44.232c0.254-0.144,0.634-0.248,1.14-0.315l0.846-0.11c0.257-0.03,0.522-0.083,0.791-0.156
	c0.27-0.07,0.49-0.162,0.66-0.272v1.127c0,0.858-0.388,1.474-1.163,1.854c-0.461,0.227-0.938,0.343-1.428,0.343
	c-0.404,0-0.752-0.116-1.048-0.353c-0.294-0.229-0.441-0.548-0.441-0.953C282.714,44.866,282.928,44.474,283.357,44.232z
	 M281.977,43.638c-0.481,0.423-0.722,1.021-0.722,1.792c0,0.699,0.245,1.287,0.732,1.755c0.49,0.466,1.118,0.702,1.891,0.702
	c0.64,0,1.226-0.138,1.758-0.414c0.533-0.272,0.941-0.594,1.226-0.968c0.048,0.331,0.127,0.588,0.242,0.766
	c0.216,0.343,0.565,0.515,1.045,0.515c0.198,0,0.352-0.006,0.466-0.024c0.113-0.015,0.279-0.052,0.496-0.116v-1.033
	c-0.087,0.019-0.17,0.031-0.248,0.037c-0.077,0.009-0.147,0.012-0.208,0.012c-0.191,0-0.317-0.042-0.377-0.135
	c-0.058-0.085-0.089-0.202-0.089-0.346v-4.786c0-0.784-0.303-1.363-0.907-1.737c-0.61-0.374-1.403-0.558-2.381-0.558
	c-0.842,0-1.584,0.199-2.223,0.601s-0.97,1.112-0.997,2.139h1.304c0.052-0.429,0.164-0.757,0.334-0.971
	c0.305-0.393,0.822-0.588,1.552-0.588c0.629,0,1.115,0.107,1.452,0.318c0.34,0.218,0.509,0.564,0.509,1.039
	c0,0.229-0.031,0.411-0.092,0.533c-0.11,0.227-0.325,0.365-0.645,0.401l-2.226,0.282C283.088,42.952,282.458,43.212,281.977,43.638z
	"/>
<path d="M292.013,41.177c0.437-0.539,1.007-0.809,1.71-0.809c0.631,0,1.161,0.254,1.59,0.76c0.429,0.502,0.644,1.281,0.644,2.332
	c0,1.039-0.208,1.833-0.625,2.39c-0.415,0.558-0.947,0.833-1.593,0.833c-0.832,0-1.437-0.3-1.814-0.9
	c-0.378-0.598-0.566-1.342-0.566-2.231C291.357,42.507,291.575,41.717,292.013,41.177z M290.811,40.485
	c-0.618,0.886-0.927,1.934-0.927,3.141c0,1.293,0.34,2.332,1.018,3.11c0.677,0.778,1.477,1.164,2.403,1.164
	c0.575,0,1.083-0.11,1.527-0.34c0.444-0.227,0.831-0.594,1.155-1.106v1.152h1.256V36.174h-1.342v4.194
	c-0.315-0.383-0.596-0.659-0.844-0.812c-0.43-0.267-0.962-0.401-1.598-0.401C292.312,39.155,291.428,39.597,290.811,40.485z"/>
<path d="M301.018,44.232c0.253-0.144,0.633-0.248,1.14-0.315l0.846-0.11c0.257-0.03,0.521-0.083,0.791-0.156
	c0.27-0.07,0.487-0.162,0.659-0.272v1.127c0,0.858-0.388,1.474-1.164,1.854c-0.459,0.227-0.935,0.343-1.426,0.343
	c-0.403,0-0.752-0.116-1.046-0.353c-0.294-0.229-0.441-0.548-0.441-0.953C300.374,44.866,300.587,44.474,301.018,44.232z
	 M299.636,43.638c-0.481,0.423-0.72,1.021-0.72,1.792c0,0.699,0.243,1.287,0.732,1.755c0.489,0.466,1.119,0.702,1.888,0.702
	c0.642,0,1.229-0.138,1.762-0.414c0.533-0.272,0.94-0.594,1.226-0.968c0.046,0.331,0.125,0.588,0.239,0.766
	c0.218,0.343,0.567,0.515,1.048,0.515c0.196,0,0.353-0.006,0.466-0.024c0.113-0.015,0.279-0.052,0.496-0.116v-1.033
	c-0.089,0.019-0.171,0.031-0.248,0.037c-0.078,0.009-0.147,0.012-0.21,0.012c-0.191,0-0.317-0.042-0.375-0.135
	c-0.062-0.085-0.089-0.202-0.089-0.346v-4.786c0-0.784-0.304-1.363-0.909-1.737c-0.611-0.374-1.405-0.558-2.38-0.558
	c-0.844,0-1.584,0.199-2.223,0.601c-0.637,0.401-0.971,1.112-0.996,2.139h1.302c0.052-0.429,0.164-0.757,0.334-0.971
	c0.305-0.393,0.822-0.588,1.55-0.588c0.631,0,1.115,0.107,1.455,0.318c0.339,0.218,0.509,0.564,0.509,1.039
	c0,0.229-0.032,0.411-0.095,0.533c-0.107,0.227-0.322,0.365-0.643,0.401l-2.225,0.282C300.748,42.952,300.117,43.212,299.636,43.638
	z"/>
<path d="M369.345,17.08c1.442,0,2.562,0.38,3.358,1.14c0.797,0.76,1.239,1.624,1.327,2.592h-1.505c-0.17-0.739-0.51-1.318-1.02-1.75
	c-0.509-0.426-1.224-0.641-2.145-0.641c-1.122,0-2.027,0.396-2.718,1.183c-0.69,0.788-1.035,1.998-1.035,3.625
	c0,1.336,0.312,2.415,0.935,3.245c0.623,0.831,1.552,1.247,2.788,1.247c1.137,0,2.003-0.438,2.598-1.311
	c0.314-0.46,0.551-1.066,0.706-1.814h1.504c-0.134,1.198-0.579,2.206-1.334,3.015c-0.905,0.98-2.125,1.465-3.66,1.465
	c-1.324,0-2.435-0.398-3.335-1.198c-1.184-1.063-1.776-2.696-1.776-4.911c0-1.682,0.445-3.061,1.334-4.133
	C366.328,17.662,367.654,17.08,369.345,17.08z"/>
<path d="M377.275,27.001c-0.388-0.591-0.582-1.327-0.582-2.212c0-0.922,0.194-1.707,0.582-2.356
	c0.388-0.653,1.008-0.978,1.861-0.978c0.961,0,1.639,0.383,2.032,1.146c0.248,0.487,0.372,1.118,0.372,1.894
	c0,0.855-0.172,1.639-0.516,2.338c-0.344,0.702-0.978,1.051-1.903,1.051C378.277,27.883,377.663,27.589,377.275,27.001z
	 M376.321,21.477c-0.708,0.827-1.063,1.939-1.063,3.336c0,1.302,0.335,2.341,1.008,3.113c0.672,0.772,1.58,1.161,2.723,1.161
	c1.37,0,2.38-0.438,3.032-1.312c0.652-0.873,0.977-1.982,0.977-3.321c0-1.385-0.37-2.433-1.109-3.146
	c-0.739-0.717-1.644-1.072-2.714-1.072C377.98,20.236,377.029,20.649,376.321,21.477z"/>
<path d="M384.654,28.781v-8.303h1.326v1.179c0.393-0.487,0.809-0.836,1.249-1.048c0.44-0.214,0.929-0.318,1.466-0.318
	c1.179,0,1.976,0.411,2.389,1.235c0.227,0.447,0.341,1.09,0.341,1.927v5.328h-1.419v-5.236c0-0.502-0.075-0.91-0.225-1.223
	c-0.248-0.515-0.698-0.778-1.349-0.778c-0.332,0-0.603,0.034-0.814,0.104c-0.383,0.113-0.719,0.34-1.009,0.68
	c-0.232,0.275-0.384,0.558-0.454,0.852c-0.07,0.291-0.105,0.711-0.105,1.253v4.348H384.654z"/>
<path d="M392.971,26.177h1.343c0.04,0.466,0.157,0.824,0.348,1.072c0.352,0.447,0.962,0.674,1.831,0.674
	c0.517,0,0.972-0.116,1.365-0.337c0.392-0.227,0.588-0.576,0.588-1.048c0-0.352-0.156-0.625-0.472-0.812
	c-0.202-0.113-0.601-0.245-1.195-0.395l-1.109-0.282c-0.708-0.172-1.23-0.368-1.565-0.588c-0.601-0.374-0.899-0.898-0.899-1.563
	c0-0.791,0.282-1.425,0.849-1.909c0.565-0.487,1.327-0.732,2.283-0.732c1.252,0,2.154,0.371,2.707,1.103
	c0.346,0.465,0.515,0.968,0.506,1.504h-1.319c-0.026-0.313-0.137-0.601-0.334-0.861c-0.32-0.368-0.876-0.548-1.668-0.548
	c-0.527,0-0.925,0.101-1.198,0.3c-0.27,0.202-0.408,0.469-0.408,0.797c0,0.364,0.179,0.652,0.536,0.873
	c0.207,0.125,0.512,0.242,0.916,0.34l0.922,0.224c1.002,0.242,1.676,0.478,2.017,0.708c0.543,0.353,0.814,0.916,0.814,1.679
	c0,0.741-0.282,1.378-0.843,1.918c-0.561,0.539-1.414,0.809-2.563,0.809c-1.236,0-2.11-0.282-2.625-0.846
	C393.284,27.696,393.008,27.004,392.971,26.177z"/>
<path d="M403.187,22.2c0.434-0.459,0.971-0.692,1.613-0.692c0.893,0,1.533,0.337,1.914,1.011c0.207,0.361,0.339,0.842,0.397,1.446
	h-4.616C402.521,23.25,402.751,22.663,403.187,22.2z M402.047,21.538c-0.725,0.833-1.087,1.915-1.087,3.25
	c0,1.354,0.358,2.408,1.077,3.162c0.719,0.75,1.597,1.125,2.629,1.125c0.426,0,0.806-0.04,1.142-0.12
	c0.625-0.147,1.15-0.429,1.574-0.843c0.253-0.232,0.483-0.542,0.687-0.916c0.204-0.377,0.323-0.717,0.36-1.02h-1.373
	c-0.104,0.368-0.278,0.689-0.526,0.971c-0.436,0.481-1.016,0.717-1.747,0.717c-0.779,0-1.355-0.254-1.728-0.763
	c-0.372-0.506-0.573-1.183-0.598-2.028h6.088c0-0.836-0.041-1.446-0.124-1.829c-0.094-0.558-0.279-1.045-0.56-1.465
	c-0.289-0.438-0.709-0.796-1.264-1.072c-0.553-0.279-1.124-0.417-1.713-0.417C403.715,20.291,402.77,20.708,402.047,21.538z"/>
<path d="M410.255,28.781v-8.263h1.418v8.263H410.255z M410.255,18.97V17.39h1.418v1.581H410.255z"/>
<path d="M413.819,28.781V17.39h1.396v11.391H413.819z"/>
<path d="M423.258,22.353c0.435-0.54,1.007-0.809,1.71-0.809c0.629,0,1.159,0.254,1.588,0.76c0.431,0.502,0.646,1.281,0.646,2.332
	c0,1.039-0.209,1.832-0.625,2.39c-0.415,0.558-0.948,0.833-1.594,0.833c-0.833,0-1.437-0.3-1.815-0.901
	c-0.376-0.598-0.564-1.342-0.564-2.23C422.603,23.683,422.821,22.892,423.258,22.353z M422.055,21.661
	c-0.618,0.885-0.927,1.933-0.927,3.14c0,1.293,0.339,2.332,1.017,3.11c0.677,0.778,1.479,1.165,2.403,1.165
	c0.574,0,1.084-0.11,1.528-0.34c0.444-0.227,0.831-0.594,1.155-1.106v1.152h1.257V17.35h-1.341v4.194
	c-0.317-0.383-0.599-0.659-0.848-0.812c-0.427-0.267-0.96-0.401-1.596-0.401C423.555,20.331,422.673,20.772,422.055,21.661z"/>
<path d="M432.307,22.2c0.436-0.459,0.973-0.692,1.615-0.692c0.893,0,1.531,0.337,1.915,1.011c0.206,0.361,0.338,0.842,0.395,1.446
	h-4.614C431.643,23.25,431.873,22.663,432.307,22.2z M431.169,21.538c-0.725,0.833-1.086,1.915-1.086,3.25
	c0,1.354,0.358,2.408,1.076,3.162c0.719,0.75,1.595,1.125,2.631,1.125c0.423,0,0.803-0.04,1.138-0.12
	c0.627-0.147,1.15-0.429,1.575-0.843c0.254-0.232,0.482-0.542,0.687-0.916c0.203-0.377,0.324-0.717,0.359-1.02h-1.372
	c-0.103,0.368-0.279,0.689-0.527,0.971c-0.434,0.481-1.016,0.717-1.743,0.717c-0.783,0-1.357-0.254-1.729-0.763
	c-0.374-0.506-0.571-1.183-0.599-2.028h6.089c0-0.836-0.041-1.446-0.124-1.829c-0.094-0.558-0.28-1.045-0.559-1.465
	c-0.29-0.438-0.711-0.796-1.265-1.072c-0.553-0.279-1.124-0.417-1.714-0.417C432.837,20.291,431.891,20.708,431.169,21.538z"/>
<path d="M443.829,28.781v-8.303h1.325v1.434c0.108-0.282,0.375-0.622,0.799-1.02c0.423-0.398,0.913-0.601,1.467-0.601
	c0.025,0,0.07,0,0.132,0.006c0.063,0.006,0.168,0.019,0.318,0.034v1.474c-0.084-0.019-0.161-0.028-0.229-0.031
	c-0.071-0.006-0.146-0.012-0.229-0.012c-0.705,0-1.244,0.229-1.621,0.68c-0.378,0.45-0.566,0.974-0.566,1.565v4.773H443.829z"/>
<path d="M450.836,22.2c0.434-0.459,0.971-0.692,1.613-0.692c0.893,0,1.531,0.337,1.915,1.011c0.206,0.361,0.338,0.842,0.395,1.446
	h-4.614C450.171,23.25,450.4,22.663,450.836,22.2z M449.694,21.538c-0.723,0.833-1.084,1.915-1.084,3.25
	c0,1.354,0.358,2.408,1.076,3.162c0.719,0.75,1.595,1.125,2.629,1.125c0.425,0,0.805-0.04,1.142-0.12
	c0.625-0.147,1.15-0.429,1.575-0.843c0.252-0.232,0.48-0.542,0.686-0.916c0.204-0.377,0.323-0.717,0.36-1.02h-1.373
	c-0.103,0.368-0.278,0.689-0.526,0.971c-0.436,0.481-1.016,0.717-1.746,0.717c-0.78,0-1.356-0.254-1.73-0.763
	c-0.37-0.506-0.571-1.183-0.596-2.028h6.088c0-0.836-0.041-1.446-0.124-1.829c-0.093-0.558-0.278-1.045-0.559-1.465
	c-0.288-0.438-0.71-0.796-1.265-1.072c-0.553-0.279-1.124-0.417-1.712-0.417C451.366,20.291,450.419,20.708,449.694,21.538z"/>
<path d="M461.107,20.236c0.937,0,1.697,0.229,2.284,0.683c0.587,0.457,0.939,1.238,1.059,2.35h-1.357
	c-0.083-0.515-0.271-0.938-0.566-1.274c-0.294-0.34-0.767-0.509-1.419-0.509c-0.89,0-1.524,0.432-1.908,1.302
	c-0.249,0.561-0.371,1.259-0.371,2.083c0,0.836,0.175,1.535,0.527,2.105c0.352,0.57,0.903,0.852,1.658,0.852
	c0.581,0,1.039-0.178,1.378-0.53c0.338-0.355,0.571-0.839,0.701-1.455h1.357c-0.154,1.103-0.542,1.906-1.164,2.414
	c-0.619,0.512-1.414,0.766-2.381,0.766c-1.086,0-1.951-0.398-2.597-1.189c-0.647-0.793-0.97-1.786-0.97-2.975
	c0-1.458,0.354-2.595,1.062-3.404C459.11,20.643,460.011,20.236,461.107,20.236z"/>
<path d="M465.846,28.781V17.35h1.397v4.252c0.329-0.423,0.628-0.717,0.89-0.885c0.45-0.294,1.013-0.441,1.684-0.441
	c1.204,0,2.022,0.42,2.451,1.263c0.233,0.462,0.35,1.1,0.35,1.915v5.328h-1.436v-5.236c0-0.607-0.076-1.054-0.231-1.339
	c-0.254-0.454-0.73-0.68-1.428-0.68c-0.579,0-1.104,0.196-1.575,0.594c-0.47,0.398-0.704,1.152-0.704,2.255v4.406H465.846z"/>
<path d="M476.437,22.2c0.435-0.459,0.971-0.692,1.613-0.692c0.895,0,1.533,0.337,1.914,1.011c0.209,0.361,0.339,0.842,0.397,1.446
	h-4.614C475.772,23.25,476.003,22.663,476.437,22.2z M475.297,21.538c-0.725,0.833-1.087,1.915-1.087,3.25
	c0,1.354,0.36,2.408,1.079,3.162c0.718,0.75,1.595,1.125,2.629,1.125c0.424,0,0.804-0.04,1.14-0.12
	c0.625-0.147,1.15-0.429,1.574-0.843c0.253-0.232,0.481-0.542,0.687-0.916c0.204-0.377,0.325-0.717,0.36-1.02h-1.373
	c-0.104,0.368-0.278,0.689-0.526,0.971c-0.436,0.481-1.016,0.717-1.745,0.717c-0.781,0-1.357-0.254-1.729-0.763
	c-0.372-0.506-0.571-1.183-0.598-2.028h6.088c0-0.836-0.041-1.446-0.122-1.829c-0.096-0.558-0.281-1.045-0.56-1.465
	c-0.29-0.438-0.713-0.796-1.264-1.072c-0.554-0.279-1.125-0.417-1.715-0.417C476.966,20.291,476.021,20.708,475.297,21.538z"/>
<path d="M483.545,28.781v-8.303h1.326v1.434c0.107-0.282,0.374-0.622,0.798-1.02c0.425-0.398,0.912-0.601,1.467-0.601
	c0.024,0,0.07,0,0.131,0.006c0.063,0.006,0.167,0.019,0.317,0.034v1.474c-0.081-0.019-0.157-0.028-0.229-0.031
	c-0.07-0.006-0.146-0.012-0.228-0.012c-0.703,0-1.244,0.229-1.623,0.68c-0.376,0.45-0.564,0.974-0.564,1.565v4.773H483.545z"/>
<path d="M491.995,20.236c0.936,0,1.695,0.229,2.282,0.683c0.588,0.457,0.94,1.238,1.059,2.35h-1.355
	c-0.083-0.515-0.273-0.938-0.567-1.274c-0.294-0.34-0.769-0.509-1.418-0.509c-0.891,0-1.526,0.432-1.909,1.302
	c-0.248,0.561-0.372,1.259-0.372,2.083c0,0.836,0.176,1.535,0.528,2.105c0.351,0.57,0.903,0.852,1.657,0.852
	c0.581,0,1.039-0.178,1.378-0.53c0.34-0.355,0.572-0.839,0.703-1.455h1.355c-0.155,1.103-0.542,1.906-1.163,2.414
	c-0.62,0.512-1.414,0.766-2.381,0.766c-1.086,0-1.953-0.398-2.598-1.189c-0.646-0.793-0.97-1.786-0.97-2.975
	c0-1.458,0.354-2.595,1.062-3.404C489.995,20.643,490.897,20.236,491.995,20.236z"/>
<path d="M496.731,28.781V17.35h1.397v4.252c0.33-0.423,0.628-0.717,0.892-0.885c0.45-0.294,1.011-0.441,1.682-0.441
	c1.206,0,2.022,0.42,2.451,1.263c0.232,0.462,0.35,1.1,0.35,1.915v5.328h-1.435v-5.236c0-0.607-0.078-1.054-0.232-1.339
	c-0.254-0.454-0.729-0.68-1.428-0.68c-0.579,0-1.104,0.196-1.575,0.594c-0.47,0.398-0.704,1.152-0.704,2.255v4.406H496.731z"/>
<path d="M507.323,22.2c0.434-0.459,0.972-0.692,1.611-0.692c0.895,0,1.534,0.337,1.917,1.011c0.207,0.361,0.338,0.842,0.396,1.446
	h-4.614C506.657,23.25,506.889,22.663,507.323,22.2z M506.184,21.538c-0.725,0.833-1.088,1.915-1.088,3.25
	c0,1.354,0.36,2.408,1.079,3.162c0.718,0.75,1.595,1.125,2.628,1.125c0.425,0,0.805-0.04,1.142-0.12
	c0.625-0.147,1.15-0.429,1.575-0.843c0.253-0.232,0.48-0.542,0.687-0.916c0.203-0.377,0.323-0.717,0.359-1.02h-1.372
	c-0.104,0.368-0.28,0.689-0.529,0.971c-0.434,0.481-1.016,0.717-1.744,0.717c-0.78,0-1.357-0.254-1.729-0.763
	c-0.374-0.506-0.573-1.183-0.599-2.028h6.089c0-0.836-0.043-1.446-0.125-1.829c-0.092-0.558-0.277-1.045-0.558-1.465
	c-0.29-0.438-0.711-0.796-1.264-1.072c-0.554-0.279-1.125-0.417-1.715-0.417C507.854,20.291,506.905,20.708,506.184,21.538z"/>
<path d="M513.88,26.177h1.341c0.041,0.466,0.157,0.824,0.351,1.072c0.351,0.447,0.961,0.674,1.829,0.674
	c0.518,0,0.972-0.116,1.365-0.337c0.394-0.227,0.59-0.576,0.59-1.048c0-0.352-0.158-0.625-0.474-0.812
	c-0.2-0.113-0.599-0.245-1.193-0.395l-1.109-0.282c-0.709-0.172-1.231-0.368-1.567-0.588c-0.599-0.374-0.898-0.898-0.898-1.563
	c0-0.791,0.283-1.425,0.849-1.909c0.565-0.487,1.326-0.732,2.284-0.732c1.25,0,2.152,0.371,2.707,1.103
	c0.346,0.465,0.515,0.968,0.504,1.504h-1.319c-0.024-0.313-0.138-0.601-0.334-0.861c-0.32-0.368-0.876-0.548-1.667-0.548
	c-0.526,0-0.927,0.101-1.197,0.3c-0.271,0.202-0.408,0.469-0.408,0.797c0,0.364,0.18,0.652,0.536,0.873
	c0.206,0.125,0.512,0.242,0.915,0.34l0.924,0.224c1.002,0.242,1.674,0.478,2.015,0.708c0.544,0.353,0.814,0.916,0.814,1.679
	c0,0.741-0.28,1.378-0.841,1.918c-0.563,0.539-1.416,0.809-2.563,0.809c-1.235,0-2.11-0.282-2.625-0.846
	C514.191,27.696,513.917,27.004,513.88,26.177z"/>
<path d="M528.507,22.2c0.434-0.459,0.972-0.692,1.612-0.692c0.895,0,1.533,0.337,1.916,1.011c0.207,0.361,0.339,0.842,0.396,1.446
	h-4.614C527.842,23.25,528.072,22.663,528.507,22.2z M527.366,21.538c-0.724,0.833-1.085,1.915-1.085,3.25
	c0,1.354,0.358,2.408,1.077,3.162c0.718,0.75,1.595,1.125,2.629,1.125c0.424,0,0.806-0.04,1.141-0.12
	c0.625-0.147,1.15-0.429,1.573-0.843c0.255-0.232,0.482-0.542,0.687-0.916c0.205-0.377,0.325-0.717,0.361-1.02h-1.372
	c-0.104,0.368-0.28,0.689-0.528,0.971c-0.434,0.481-1.015,0.717-1.745,0.717c-0.78,0-1.357-0.254-1.729-0.763
	c-0.373-0.506-0.572-1.183-0.598-2.028h6.089c0-0.836-0.042-1.446-0.124-1.829c-0.094-0.558-0.279-1.045-0.56-1.465
	c-0.288-0.438-0.711-0.796-1.264-1.072c-0.554-0.279-1.125-0.417-1.715-0.417C529.037,20.291,528.091,20.708,527.366,21.538z"/>
<path d="M535.575,28.781v-8.303h1.327v1.179c0.392-0.487,0.809-0.836,1.248-1.048c0.439-0.214,0.927-0.318,1.467-0.318
	c1.178,0,1.975,0.411,2.388,1.235c0.229,0.447,0.342,1.09,0.342,1.927v5.328h-1.42v-5.236c0-0.502-0.075-0.91-0.226-1.223
	c-0.248-0.515-0.697-0.778-1.35-0.778c-0.329,0-0.601,0.034-0.813,0.104c-0.383,0.113-0.719,0.34-1.008,0.68
	c-0.233,0.275-0.383,0.558-0.453,0.852c-0.071,0.291-0.104,0.711-0.104,1.253v4.348H535.575z"/>
<path d="M363.846,45.001h1.342c0.041,0.466,0.158,0.824,0.349,1.073c0.352,0.447,0.961,0.674,1.83,0.674
	c0.517,0,0.972-0.116,1.365-0.337c0.393-0.227,0.59-0.576,0.59-1.048c0-0.353-0.158-0.625-0.473-0.812
	c-0.202-0.113-0.6-0.245-1.194-0.395l-1.109-0.282c-0.708-0.171-1.23-0.368-1.566-0.588c-0.6-0.374-0.9-0.898-0.9-1.563
	c0-0.791,0.284-1.424,0.85-1.909c0.566-0.487,1.327-0.732,2.284-0.732c1.25,0,2.153,0.371,2.706,1.103
	c0.346,0.466,0.515,0.968,0.505,1.504h-1.319c-0.026-0.313-0.137-0.601-0.333-0.861c-0.321-0.368-0.876-0.548-1.667-0.548
	c-0.528,0-0.927,0.101-1.198,0.3c-0.272,0.202-0.408,0.469-0.408,0.796c0,0.365,0.179,0.653,0.535,0.874
	c0.207,0.125,0.512,0.242,0.915,0.34l0.923,0.224c1.003,0.242,1.675,0.478,2.017,0.708c0.543,0.352,0.814,0.916,0.814,1.679
	c0,0.742-0.281,1.379-0.842,1.918c-0.561,0.54-1.415,0.809-2.563,0.809c-1.235,0-2.111-0.282-2.625-0.846
	C364.158,46.521,363.883,45.829,363.846,45.001z"/>
<path d="M375.502,39.061c0.936,0,1.697,0.229,2.284,0.683c0.586,0.457,0.94,1.238,1.059,2.35h-1.357
	c-0.083-0.515-0.271-0.938-0.566-1.275c-0.295-0.34-0.768-0.508-1.419-0.508c-0.889,0-1.525,0.432-1.907,1.302
	c-0.248,0.561-0.373,1.259-0.373,2.083c0,0.836,0.176,1.535,0.527,2.105s0.904,0.852,1.66,0.852c0.579,0,1.038-0.178,1.376-0.53
	c0.339-0.355,0.572-0.839,0.702-1.456h1.357c-0.155,1.103-0.543,1.906-1.164,2.415c-0.62,0.512-1.414,0.766-2.381,0.766
	c-1.085,0-1.952-0.398-2.598-1.189c-0.646-0.793-0.969-1.786-0.969-2.975c0-1.458,0.354-2.595,1.063-3.404
	C373.504,39.468,374.406,39.061,375.502,39.061z"/>
<path d="M380.242,47.605v-8.263h1.419v8.263H380.242z M380.242,37.795v-1.581h1.419v1.581H380.242z"/>
<path d="M385.433,41.202c0.435-0.463,0.972-0.696,1.613-0.696c0.894,0,1.533,0.337,1.916,1.008c0.207,0.364,0.339,0.849,0.396,1.449
	h-4.614C384.769,42.253,384.999,41.665,385.433,41.202z M384.293,40.54c-0.725,0.831-1.086,1.915-1.086,3.248
	c0,1.354,0.359,2.408,1.078,3.162c0.719,0.751,1.595,1.127,2.629,1.127c0.424,0,0.804-0.04,1.14-0.125
	c0.626-0.144,1.151-0.423,1.574-0.836c0.253-0.236,0.482-0.542,0.687-0.919c0.204-0.374,0.324-0.714,0.361-1.018h-1.374
	c-0.103,0.365-0.279,0.689-0.527,0.968c-0.434,0.478-1.016,0.72-1.745,0.72c-0.781,0-1.357-0.254-1.729-0.766
	c-0.373-0.508-0.572-1.183-0.598-2.025h6.088c0-0.836-0.042-1.446-0.124-1.829c-0.093-0.561-0.279-1.048-0.559-1.467
	c-0.29-0.441-0.71-0.797-1.264-1.076c-0.553-0.276-1.125-0.414-1.714-0.414C385.962,39.29,385.017,39.704,384.293,40.54z"/>
<path d="M392.596,47.605v-8.303h1.327v1.18c0.392-0.487,0.808-0.836,1.249-1.048c0.44-0.214,0.929-0.319,1.466-0.319
	c1.178,0,1.974,0.411,2.388,1.235c0.227,0.447,0.34,1.091,0.34,1.927v5.328h-1.418v-5.236c0-0.502-0.075-0.91-0.226-1.222
	c-0.248-0.515-0.698-0.778-1.348-0.778c-0.333,0-0.604,0.034-0.815,0.104c-0.383,0.113-0.72,0.34-1.008,0.68
	c-0.233,0.276-0.385,0.558-0.455,0.852c-0.069,0.291-0.104,0.71-0.104,1.253v4.348H392.596z"/>
<path d="M404.629,39.061c0.935,0,1.696,0.229,2.283,0.683c0.588,0.457,0.94,1.238,1.059,2.35h-1.356
	c-0.082-0.515-0.272-0.938-0.566-1.275c-0.294-0.34-0.769-0.508-1.419-0.508c-0.89,0-1.527,0.432-1.908,1.302
	c-0.248,0.561-0.372,1.259-0.372,2.083c0,0.836,0.176,1.535,0.528,2.105c0.349,0.57,0.903,0.852,1.657,0.852
	c0.579,0,1.039-0.178,1.377-0.53c0.341-0.355,0.573-0.839,0.703-1.456h1.356c-0.155,1.103-0.543,1.906-1.163,2.415
	c-0.62,0.512-1.414,0.766-2.381,0.766c-1.086,0-1.953-0.398-2.598-1.189c-0.646-0.793-0.97-1.786-0.97-2.975
	c0-1.458,0.354-2.595,1.062-3.404C402.63,39.468,403.532,39.061,404.629,39.061z"/>
<path d="M411.128,41.024c0.434-0.46,0.971-0.692,1.613-0.692c0.893,0,1.533,0.337,1.915,1.011c0.206,0.362,0.338,0.843,0.396,1.446
	h-4.616C410.463,42.075,410.692,41.487,411.128,41.024z M409.988,40.362c-0.725,0.833-1.086,1.915-1.086,3.251
	c0,1.354,0.358,2.408,1.076,3.162c0.719,0.75,1.597,1.124,2.629,1.124c0.426,0,0.806-0.04,1.142-0.119
	c0.625-0.147,1.15-0.429,1.575-0.843c0.252-0.233,0.482-0.542,0.686-0.916c0.204-0.377,0.323-0.717,0.36-1.021h-1.373
	c-0.104,0.368-0.278,0.689-0.526,0.972c-0.436,0.481-1.016,0.717-1.746,0.717c-0.78,0-1.356-0.254-1.729-0.763
	c-0.372-0.505-0.573-1.183-0.598-2.028h6.088c0-0.837-0.041-1.446-0.124-1.83c-0.093-0.558-0.278-1.044-0.559-1.464
	c-0.29-0.438-0.71-0.796-1.265-1.072c-0.553-0.279-1.124-0.417-1.712-0.417C411.656,39.115,410.711,39.532,409.988,40.362z"/>
<path d="M417.685,45.001h1.342c0.042,0.466,0.158,0.824,0.35,1.073c0.351,0.447,0.96,0.674,1.83,0.674
	c0.517,0,0.972-0.116,1.365-0.337c0.393-0.227,0.589-0.576,0.589-1.048c0-0.353-0.156-0.625-0.473-0.812
	c-0.202-0.113-0.601-0.245-1.194-0.395l-1.109-0.282c-0.708-0.171-1.23-0.368-1.567-0.588c-0.599-0.374-0.899-0.898-0.899-1.563
	c0-0.791,0.282-1.424,0.851-1.909c0.565-0.487,1.327-0.732,2.282-0.732c1.252,0,2.154,0.371,2.707,1.103
	c0.347,0.466,0.515,0.968,0.504,1.504h-1.317c-0.025-0.313-0.138-0.601-0.334-0.861c-0.319-0.368-0.876-0.548-1.668-0.548
	c-0.527,0-0.925,0.101-1.198,0.3c-0.271,0.202-0.405,0.469-0.405,0.796c0,0.365,0.178,0.653,0.534,0.874
	c0.205,0.125,0.512,0.242,0.915,0.34l0.922,0.224c1.004,0.242,1.676,0.478,2.018,0.708c0.542,0.352,0.813,0.916,0.813,1.679
	c0,0.742-0.28,1.379-0.841,1.918c-0.561,0.54-1.416,0.809-2.563,0.809c-1.236,0-2.11-0.282-2.624-0.846
	C417.997,46.521,417.722,45.829,417.685,45.001z"/>
<path d="M430.552,47.605V36.174h1.396v4.252c0.331-0.423,0.628-0.717,0.893-0.885c0.449-0.294,1.01-0.441,1.683-0.441
	c1.204,0,2.021,0.42,2.451,1.262c0.232,0.463,0.348,1.1,0.348,1.915v5.328h-1.435v-5.236c0-0.606-0.078-1.054-0.232-1.339
	c-0.254-0.453-0.729-0.68-1.426-0.68c-0.581,0-1.105,0.196-1.575,0.595c-0.471,0.398-0.706,1.152-0.706,2.255v4.406H430.552z"/>
<path d="M439.35,39.302h1.428v5.512c0,0.426,0.065,0.772,0.202,1.039c0.246,0.496,0.709,0.748,1.386,0.748
	c0.974,0,1.635-0.435,1.987-1.305c0.19-0.463,0.286-1.103,0.286-1.918v-4.075h1.396v8.303h-1.319l0.017-1.223
	c-0.182,0.316-0.406,0.583-0.676,0.797c-0.533,0.435-1.18,0.652-1.939,0.652c-1.183,0-1.989-0.395-2.419-1.188
	c-0.232-0.423-0.349-0.987-0.349-1.697V39.302z"/>
<path d="M448.21,47.605v-8.303h1.381v1.18c0.33-0.411,0.631-0.708,0.9-0.892c0.46-0.319,0.98-0.475,1.565-0.475
	c0.662,0,1.195,0.163,1.598,0.49c0.229,0.184,0.434,0.457,0.621,0.821c0.31-0.444,0.674-0.775,1.094-0.993
	c0.418-0.214,0.889-0.319,1.411-0.319c1.116,0,1.876,0.405,2.279,1.21c0.218,0.435,0.326,1.017,0.326,1.75v5.53h-1.449v-5.766
	c0-0.555-0.14-0.935-0.417-1.143c-0.275-0.208-0.612-0.309-1.011-0.309c-0.549,0-1.019,0.184-1.416,0.551
	c-0.395,0.368-0.593,0.98-0.593,1.838v4.829h-1.42v-5.42c0-0.561-0.065-0.975-0.2-1.235c-0.212-0.386-0.608-0.582-1.188-0.582
	c-0.527,0-1.007,0.208-1.438,0.616c-0.433,0.408-0.646,1.149-0.646,2.215v4.406H448.21z"/>
<path d="M463.151,44.232c0.254-0.144,0.634-0.248,1.14-0.315l0.846-0.11c0.257-0.03,0.522-0.083,0.792-0.156
	c0.268-0.07,0.488-0.162,0.657-0.272v1.127c0,0.858-0.388,1.474-1.161,1.854c-0.461,0.227-0.938,0.343-1.428,0.343
	c-0.404,0-0.753-0.116-1.048-0.353c-0.294-0.229-0.441-0.548-0.441-0.953C462.508,44.866,462.723,44.474,463.151,44.232z
	 M461.771,43.638c-0.48,0.423-0.721,1.021-0.721,1.792c0,0.699,0.245,1.287,0.731,1.755c0.489,0.466,1.119,0.702,1.89,0.702
	c0.642,0,1.227-0.138,1.762-0.414c0.531-0.272,0.94-0.594,1.224-0.968c0.046,0.331,0.127,0.588,0.24,0.766
	c0.218,0.343,0.567,0.515,1.047,0.515c0.197,0,0.353-0.006,0.466-0.024c0.114-0.015,0.278-0.052,0.496-0.116v-1.033
	c-0.088,0.019-0.17,0.031-0.248,0.037c-0.077,0.009-0.147,0.012-0.21,0.012c-0.19,0-0.315-0.042-0.375-0.135
	c-0.061-0.085-0.089-0.202-0.089-0.346v-4.786c0-0.784-0.302-1.363-0.909-1.737c-0.609-0.374-1.401-0.558-2.381-0.558
	c-0.842,0-1.582,0.199-2.221,0.601s-0.97,1.112-0.997,2.139h1.304c0.052-0.429,0.163-0.757,0.334-0.971
	c0.305-0.393,0.822-0.588,1.55-0.588c0.631,0,1.115,0.107,1.455,0.318c0.339,0.218,0.508,0.564,0.508,1.039
	c0,0.229-0.031,0.411-0.094,0.533c-0.108,0.227-0.323,0.365-0.644,0.401l-2.226,0.282C462.883,42.952,462.252,43.212,461.771,43.638
	z"/>
<path d="M470.267,47.605v-8.263h1.421v8.263H470.267z M470.267,37.795v-1.581h1.421v1.581H470.267z"/>
<path d="M473.792,47.605v-8.303h1.327v1.18c0.392-0.487,0.809-0.836,1.248-1.048c0.438-0.214,0.929-0.319,1.465-0.319
	c1.18,0,1.975,0.411,2.388,1.235c0.229,0.447,0.344,1.091,0.344,1.927v5.328h-1.42v-5.236c0-0.502-0.075-0.91-0.226-1.222
	c-0.248-0.515-0.698-0.778-1.35-0.778c-0.331,0-0.603,0.034-0.815,0.104c-0.381,0.113-0.718,0.34-1.006,0.68
	c-0.234,0.276-0.385,0.558-0.454,0.852c-0.07,0.291-0.105,0.71-0.105,1.253v4.348H473.792z"/>
<path d="M484.383,41.024c0.434-0.46,0.971-0.692,1.612-0.692c0.896,0,1.532,0.337,1.915,1.011c0.207,0.362,0.339,0.843,0.396,1.446
	h-4.614C483.718,42.075,483.947,41.487,484.383,41.024z M483.241,40.362c-0.724,0.833-1.085,1.915-1.085,3.251
	c0,1.354,0.358,2.408,1.079,3.162c0.717,0.75,1.593,1.124,2.629,1.124c0.423,0,0.804-0.04,1.14-0.119
	c0.625-0.147,1.148-0.429,1.574-0.843c0.252-0.233,0.481-0.542,0.687-0.916c0.202-0.377,0.323-0.717,0.36-1.021h-1.373
	c-0.104,0.368-0.28,0.689-0.528,0.972c-0.434,0.481-1.016,0.717-1.743,0.717c-0.781,0-1.357-0.254-1.729-0.763
	c-0.372-0.505-0.571-1.183-0.6-2.028h6.09c0-0.837-0.041-1.446-0.124-1.83c-0.094-0.558-0.28-1.044-0.558-1.464
	c-0.291-0.438-0.713-0.796-1.266-1.072c-0.553-0.279-1.124-0.417-1.713-0.417C484.911,39.115,483.966,39.532,483.241,40.362z"/>
<path d="M490.939,45.001h1.342c0.041,0.466,0.157,0.824,0.35,1.073c0.351,0.447,0.96,0.674,1.83,0.674
	c0.517,0,0.972-0.116,1.365-0.337c0.392-0.227,0.588-0.576,0.588-1.048c0-0.353-0.157-0.625-0.473-0.812
	c-0.203-0.113-0.6-0.245-1.193-0.395l-1.109-0.282c-0.708-0.171-1.23-0.368-1.567-0.588c-0.599-0.374-0.899-0.898-0.899-1.563
	c0-0.791,0.282-1.424,0.849-1.909c0.567-0.487,1.328-0.732,2.284-0.732c1.25,0,2.154,0.371,2.707,1.103
	c0.347,0.466,0.515,0.968,0.504,1.504h-1.317c-0.026-0.313-0.138-0.601-0.334-0.861c-0.321-0.368-0.876-0.548-1.668-0.548
	c-0.527,0-0.927,0.101-1.198,0.3c-0.271,0.202-0.407,0.469-0.407,0.796c0,0.365,0.178,0.653,0.536,0.874
	c0.207,0.125,0.512,0.242,0.914,0.34l0.923,0.224c1.003,0.242,1.676,0.478,2.016,0.708c0.544,0.352,0.815,0.916,0.815,1.679
	c0,0.742-0.28,1.379-0.842,1.918c-0.562,0.54-1.415,0.809-2.563,0.809c-1.236,0-2.111-0.282-2.626-0.846
	C491.25,46.521,490.976,45.829,490.939,45.001z"/>
<path d="M505.344,41.177c0.438-0.539,1.008-0.809,1.712-0.809c0.629,0,1.159,0.254,1.588,0.76c0.43,0.502,0.646,1.281,0.646,2.332
	c0,1.039-0.209,1.833-0.625,2.39c-0.417,0.558-0.947,0.833-1.594,0.833c-0.832,0-1.438-0.3-1.815-0.9
	c-0.377-0.598-0.565-1.342-0.565-2.231C504.689,42.507,504.909,41.717,505.344,41.177z M504.143,40.485
	c-0.617,0.886-0.927,1.934-0.927,3.141c0,1.293,0.339,2.332,1.016,3.11c0.678,0.778,1.479,1.164,2.405,1.164
	c0.573,0,1.082-0.11,1.527-0.34c0.444-0.227,0.829-0.594,1.155-1.106v1.152h1.256V36.174h-1.342v4.194
	c-0.313-0.383-0.596-0.659-0.844-0.812c-0.431-0.267-0.962-0.401-1.6-0.401C505.645,39.155,504.761,39.597,504.143,40.485z"/>
<path d="M512.604,39.302h1.427v5.512c0,0.426,0.067,0.772,0.202,1.039c0.248,0.496,0.711,0.748,1.388,0.748
	c0.973,0,1.635-0.435,1.985-1.305c0.191-0.463,0.288-1.103,0.288-1.918v-4.075h1.396v8.303h-1.317l0.014-1.223
	c-0.181,0.316-0.405,0.583-0.674,0.797c-0.533,0.435-1.18,0.652-1.939,0.652c-1.185,0-1.99-0.395-2.419-1.188
	c-0.232-0.423-0.35-0.987-0.35-1.697V39.302z"/>
<path d="M530.863,35.904c1.443,0,2.563,0.38,3.359,1.14c0.795,0.76,1.238,1.624,1.325,2.592h-1.503
	c-0.172-0.738-0.512-1.317-1.021-1.75c-0.51-0.426-1.224-0.64-2.145-0.64c-1.123,0-2.028,0.395-2.718,1.183
	c-0.69,0.788-1.037,1.998-1.037,3.625c0,1.336,0.313,2.415,0.935,3.245c0.624,0.831,1.554,1.247,2.788,1.247
	c1.139,0,2.004-0.438,2.599-1.312c0.317-0.459,0.552-1.066,0.706-1.813h1.506c-0.137,1.198-0.581,2.206-1.336,3.015
	c-0.904,0.98-2.123,1.464-3.66,1.464c-1.323,0-2.436-0.398-3.335-1.198c-1.184-1.063-1.775-2.696-1.775-4.912
	c0-1.682,0.444-3.061,1.335-4.133C527.849,36.487,529.174,35.904,530.863,35.904z"/>
<path d="M539.058,44.232c0.254-0.144,0.634-0.248,1.142-0.315l0.844-0.11c0.259-0.03,0.522-0.083,0.792-0.156
	c0.269-0.07,0.487-0.162,0.659-0.272v1.127c0,0.858-0.388,1.474-1.165,1.854c-0.459,0.227-0.935,0.343-1.426,0.343
	c-0.403,0-0.752-0.116-1.048-0.353c-0.294-0.229-0.441-0.548-0.441-0.953C538.414,44.866,538.629,44.474,539.058,44.232z
	 M537.678,43.638c-0.481,0.423-0.721,1.021-0.721,1.792c0,0.699,0.244,1.287,0.732,1.755c0.487,0.466,1.118,0.702,1.888,0.702
	c0.642,0,1.229-0.138,1.762-0.414c0.531-0.272,0.94-0.594,1.224-0.968c0.048,0.331,0.127,0.588,0.24,0.766
	c0.218,0.343,0.567,0.515,1.048,0.515c0.196,0,0.352-0.006,0.466-0.024c0.113-0.015,0.279-0.052,0.497-0.116v-1.033
	c-0.089,0.019-0.172,0.031-0.249,0.037c-0.078,0.009-0.146,0.012-0.209,0.012c-0.192,0-0.317-0.042-0.376-0.135
	c-0.06-0.085-0.09-0.202-0.09-0.346v-4.786c0-0.784-0.302-1.363-0.907-1.737c-0.611-0.374-1.404-0.558-2.382-0.558
	c-0.843,0-1.583,0.199-2.222,0.601c-0.638,0.401-0.972,1.112-0.996,2.139h1.303c0.052-0.429,0.164-0.757,0.334-0.971
	c0.305-0.393,0.822-0.588,1.55-0.588c0.632,0,1.115,0.107,1.456,0.318c0.337,0.218,0.507,0.564,0.507,1.039
	c0,0.229-0.031,0.411-0.094,0.533c-0.107,0.227-0.321,0.365-0.642,0.401l-2.227,0.282C538.789,42.952,538.158,43.212,537.678,43.638
	z"/>
<path d="M546.174,47.605v-8.303h1.326v1.18c0.393-0.487,0.809-0.836,1.249-1.048c0.439-0.214,0.927-0.319,1.466-0.319
	c1.178,0,1.975,0.411,2.389,1.235c0.227,0.447,0.341,1.091,0.341,1.927v5.328h-1.42v-5.236c0-0.502-0.075-0.91-0.224-1.222
	c-0.248-0.515-0.698-0.778-1.35-0.778c-0.331,0-0.604,0.034-0.814,0.104c-0.384,0.113-0.719,0.34-1.009,0.68
	c-0.232,0.276-0.384,0.558-0.455,0.852c-0.068,0.291-0.104,0.71-0.104,1.253v4.348H546.174z"/>
<path d="M556.718,44.232c0.253-0.144,0.633-0.248,1.14-0.315l0.845-0.11c0.259-0.03,0.523-0.083,0.792-0.156
	c0.268-0.07,0.488-0.162,0.66-0.272v1.127c0,0.858-0.39,1.474-1.164,1.854c-0.46,0.227-0.937,0.343-1.429,0.343
	c-0.402,0-0.752-0.116-1.046-0.353c-0.294-0.229-0.442-0.548-0.442-0.953C556.073,44.866,556.287,44.474,556.718,44.232z
	 M555.338,43.638c-0.481,0.423-0.724,1.021-0.724,1.792c0,0.699,0.245,1.287,0.734,1.755c0.488,0.466,1.118,0.702,1.889,0.702
	c0.641,0,1.227-0.138,1.76-0.414c0.532-0.272,0.94-0.594,1.226-0.968c0.046,0.331,0.127,0.588,0.241,0.766
	c0.216,0.343,0.566,0.515,1.046,0.515c0.196,0,0.353-0.006,0.466-0.024c0.113-0.015,0.278-0.052,0.496-0.116v-1.033
	c-0.087,0.019-0.172,0.031-0.248,0.037c-0.078,0.009-0.148,0.012-0.21,0.012c-0.191,0-0.315-0.042-0.377-0.135
	c-0.058-0.085-0.087-0.202-0.087-0.346v-4.786c0-0.784-0.304-1.363-0.908-1.737c-0.61-0.374-1.403-0.558-2.381-0.558
	c-0.843,0-1.584,0.199-2.222,0.601c-0.639,0.401-0.971,1.112-0.997,2.139h1.304c0.051-0.429,0.162-0.757,0.332-0.971
	c0.305-0.393,0.823-0.588,1.552-0.588c0.632,0,1.115,0.107,1.454,0.318c0.339,0.218,0.507,0.564,0.507,1.039
	c0,0.229-0.03,0.411-0.092,0.533c-0.108,0.227-0.323,0.365-0.644,0.401l-2.226,0.282C556.448,42.952,555.817,43.212,555.338,43.638z
	"/>
<path d="M565.373,41.177c0.437-0.539,1.007-0.809,1.708-0.809c0.632,0,1.161,0.254,1.592,0.76c0.428,0.502,0.643,1.281,0.643,2.332
	c0,1.039-0.209,1.833-0.624,2.39c-0.417,0.558-0.946,0.833-1.593,0.833c-0.832,0-1.438-0.3-1.815-0.9
	c-0.377-0.598-0.567-1.342-0.567-2.231C564.716,42.507,564.936,41.717,565.373,41.177z M564.171,40.485
	c-0.619,0.886-0.929,1.934-0.929,3.141c0,1.293,0.34,2.332,1.018,3.11c0.677,0.778,1.479,1.164,2.403,1.164
	c0.574,0,1.083-0.11,1.527-0.34c0.444-0.227,0.83-0.594,1.157-1.106v1.152h1.256V36.174h-1.342v4.194
	c-0.315-0.383-0.597-0.659-0.845-0.812c-0.431-0.267-0.962-0.401-1.599-0.401C565.671,39.155,564.788,39.597,564.171,40.485z"/>
<path d="M574.377,44.232c0.252-0.144,0.634-0.248,1.14-0.315l0.846-0.11c0.259-0.03,0.521-0.083,0.79-0.156
	c0.269-0.07,0.489-0.162,0.659-0.272v1.127c0,0.858-0.387,1.474-1.163,1.854c-0.461,0.227-0.936,0.343-1.426,0.343
	c-0.405,0-0.754-0.116-1.048-0.353c-0.295-0.229-0.441-0.548-0.441-0.953C573.733,44.866,573.947,44.474,574.377,44.232z
	 M572.996,43.638c-0.48,0.423-0.722,1.021-0.722,1.792c0,0.699,0.244,1.287,0.732,1.755c0.49,0.466,1.118,0.702,1.889,0.702
	c0.641,0,1.229-0.138,1.761-0.414c0.533-0.272,0.94-0.594,1.226-0.968c0.047,0.331,0.126,0.588,0.24,0.766
	c0.218,0.343,0.565,0.515,1.048,0.515c0.196,0,0.351-0.006,0.464-0.024c0.114-0.015,0.279-0.052,0.497-0.116v-1.033
	c-0.088,0.019-0.17,0.031-0.248,0.037c-0.077,0.009-0.147,0.012-0.209,0.012c-0.192,0-0.316-0.042-0.377-0.135
	c-0.06-0.085-0.089-0.202-0.089-0.346v-4.786c0-0.784-0.303-1.363-0.906-1.737c-0.611-0.374-1.405-0.558-2.381-0.558
	c-0.845,0-1.586,0.199-2.223,0.601c-0.64,0.401-0.972,1.112-0.998,2.139h1.304c0.051-0.429,0.163-0.757,0.333-0.971
	c0.305-0.393,0.822-0.588,1.552-0.588c0.63,0,1.115,0.107,1.454,0.318c0.338,0.218,0.508,0.564,0.508,1.039
	c0,0.229-0.032,0.411-0.093,0.533c-0.109,0.227-0.323,0.365-0.644,0.401l-2.226,0.282C574.107,42.952,573.478,43.212,572.996,43.638
	z"/>
<path d="M706.859,33.947c0.032,1.235,0,10.129,0,10.129s-0.468,2.402-2.171,2.905c-0.576,0.168-0.599,0.53,0,0.53h8.346
	c0.601,0,0.576-0.362,0-0.53c-1.703-0.502-2.169-2.905-2.169-2.905s0-9.406,0-10.641c0-2.641-2.036-5.15-6.708-5.15
	c-4.673,0-5.91,2.041-6.076,2.273c-0.167,0.236-0.3,0.034-0.3,0.034s-0.434-1.704-0.535-2.035c-0.1-0.334-0.267-0.272-0.267-0.272
	l-5.74,0.836c0,0-1.169,0.202,0,0.57c0,0,2.571,1.269,2.536,3.205c-0.021,1.234,0,11.18,0,11.18s-0.466,2.402-2.168,2.905
	c-0.578,0.168-0.603,0.53,0,0.53h8.345c0.597,0,0.575-0.362,0-0.53c-1.705-0.502-2.171-2.905-2.171-2.905s0-8.879,0-10.114
	c0,0,0.533-4.403,4.974-4.403C702.755,29.559,706.736,29.458,706.859,33.947z"/>
<g>
	<g>
		<rect x="753.655" y="17.107" fill="#ED1C24" width="4.805" height="9.611"/>
		<path fill="#ED1C24" d="M756.057,21.915"/>
	</g>
	<g>
		<rect x="768.072" y="17.107" fill="#ED1C24" width="4.807" height="9.611"/>
		<path fill="#ED1C24" d="M770.475,21.915"/>
	</g>
	<g>
		<path fill="#ED1C24" d="M763.299,18.41c0,0-0.006,0.015,0.007,0.012"/>
		<path fill="#ED1C24" d="M763.365,18.208c0.429,2.111,1.302,1.002,1.302,1.002l-0.3,1.801c-0.102,0.57,0.399,0.135,0.399,0.135
			l0.737-0.732c-0.167,1.198,1.269,0.466,1.269,0.466c-0.802,1.4,0.197,1.299,0.197,1.299l-1.633,1.339
			c0,0.031-0.269,0.331-0.269,0.331l0.436,0.702l-2.039-0.5l0.103,1.899h-0.269h-0.267l0.1-1.899l-1.9,0.432l0.3-0.634
			c0,0-0.268-0.3-0.268-0.331l-1.635-1.339c0,0,1-0.098,0.133-1.366c0,0,1.435,0.735,1.335-0.398l0.733,0.732
			c0,0,0.501,0.435,0.401-0.135l-0.3-1.801c0,0,0.974,1.002,1.367-1.002"/>
	</g>
</g>
<g>
	<path d="M669.043,16.807l0.734,10.947c0,0-0.198,1.468-0.866-0.135s-3.069-10.613-9.747-9.743
		c-6.677,0.867-9.678,6.339-9.678,15.151c0,8.812,3.804,13.417,10.346,13.417c6.541,0,8.745-3.937,9.945-7.675
		c0,0,0.469-1.538,0.404-0.067c0,0-0.075,9.483-11.887,9.345c-11.618-0.135-14.684-11.015-14.684-15.087
		c0-4.072,1.601-15.218,15.753-16.352c0,0,3.971,0.064,6.941,1.67c0,0,0.936,0.533,1.403-0.202c0.467-0.735,0.599-1.002,0.599-1.002
		S668.644,16.207,669.043,16.807z"/>
</g>
<path d="M747.136,46.193c-4.325,2.672-10.023,2.056-12.997-2.27c-3.144-4.578-2.584-10.797,2.114-14.018
	c3.396-2.332,8.192-2.607,10.858-0.083c0,0,0.401,0.435,0.401-0.166s0-9.078,0-9.078s-0.567-2.672-3.138-2.672
	c0,0-0.668-0.233-0.065-0.533l6.274-0.668c0,0,0.933-0.064,0.933,0.567c0,0.769,0,26.003,0,26.003s0.567,3.202,2.871,3.202
	c0,0,0.867,0.067-0.032,0.536l-6.175,0.8c0,0-0.469,0.202-0.469-0.401l-0.132-1.002C747.58,46.411,747.767,45.804,747.136,46.193z
	 M747.531,38.104c0.008-3.87,0.362-9.51-5.863-8.904c-4.154,0.404-5.787,6.523-4.9,10.764c0.732,3.511,2.296,7.445,6.629,6.768
	C748.189,45.981,747.524,40.782,747.531,38.104z"/>
<path d="M689.871,45.942c0,0,1.402-1.198,0.5,0.171l-0.567,0.668c-2.077,1.434-5.722,1.039-7.175-0.637
	c-0.336-0.5-0.707-0.104-0.707-0.104c-1.935,1.697-4.693,2.028-7.342,1.287c-2.222-0.622-3.929-2.543-3.706-4.819
	c0.488-4.927,6.062-4.32,9.574-5.631c0.948-0.355,1.613-1.701,1.648-3.08c0.049-1.826-0.507-4.724-3.341-4.755
	c-2.467-0.031-2.494,2.5-3.83,3.913c-0.601,0.634-2.562,0.585-3.05-0.665c-0.298-0.757-0.229-1.967,0.89-2.834
	c2.977-2.313,13.444-1.786,13.443,2.479c0,5.923-0.045,7.902,0.003,12.979c0.012,1.266,0.959,1.658,2.022,1.673
	c0.562,0.009,1.353-0.435,1.873-0.778 M681.794,37.167c-2.876,1.397-6.845,2.73-6.795,6.406c0.032,2.442,2.986,3.91,5.276,2.417
	c1.369-0.895,1.813-2.387,1.92-3.851v-4.605C682.195,37.535,682.261,36.999,681.794,37.167z"/>
<path d="M732.325,45.942c0,0,1.401-1.198,0.499,0.171l-0.563,0.668c-2.079,1.434-5.722,1.039-7.178-0.637
	c-0.335-0.5-0.704-0.104-0.704-0.104c-1.936,1.697-4.695,2.028-7.343,1.287c-2.222-0.622-3.931-2.543-3.706-4.819
	c0.487-4.927,6.059-4.32,9.573-5.631c0.95-0.355,1.611-1.701,1.648-3.08c0.046-1.826-0.506-4.724-3.341-4.755
	c-2.469-0.031-2.491,2.5-3.829,3.913c-0.601,0.634-2.562,0.585-3.052-0.665c-0.297-0.757-0.229-1.967,0.893-2.834
	c2.973-2.313,13.44-1.786,13.44,2.479c0,5.923-0.043,7.902,0.003,12.979c0.012,1.266,0.961,1.658,2.022,1.673
	c0.561,0.009,1.352-0.435,1.875-0.778 M724.248,37.167c-2.875,1.397-6.843,2.73-6.795,6.406c0.033,2.442,2.987,3.91,5.28,2.417
	c1.368-0.895,1.811-2.387,1.918-3.851l-0.002-4.605C724.649,37.535,724.716,36.999,724.248,37.167z"/>
<path d="M774.046,45.942c0,0,1.401-1.198,0.501,0.171l-0.565,0.668c-2.079,1.434-5.724,1.039-7.179-0.637
	c-0.334-0.5-0.705-0.104-0.705-0.104c-1.933,1.697-4.693,2.028-7.341,1.287c-2.221-0.622-3.931-2.543-3.704-4.819
	c0.485-4.927,6.058-4.32,9.573-5.631c0.948-0.355,1.61-1.701,1.646-3.08c0.05-1.826-0.505-4.724-3.341-4.755
	c-2.468-0.031-2.492,2.5-3.831,3.913c-0.601,0.634-2.561,0.585-3.049-0.665c-0.298-0.757-0.229-1.967,0.892-2.834
	c2.975-2.313,13.442-1.786,13.441,2.479c0,5.923-0.042,7.902,0.004,12.979c0.011,1.266,0.958,1.658,2.021,1.673
	c0.561,0.009,1.353-0.435,1.875-0.778 M765.971,37.167c-2.877,1.397-6.845,2.73-6.796,6.406c0.032,2.442,2.986,3.91,5.278,2.417
	c1.369-0.895,1.812-2.387,1.918-3.851l-0.002-4.605C766.369,37.535,766.437,36.999,765.971,37.167z"/>
</svg>
