<?xml version="1.0" encoding="utf-8"?>
<!-- Generator: Adobe Illustrator 15.1.0, SVG Export Plug-In . SVG Version: 6.00 Build 0)  -->
<!DOCTYPE svg PUBLIC "-//W3C//DTD SVG 1.1//EN" "http://www.w3.org/Graphics/SVG/1.1/DTD/svg11.dtd">
<svg version="1.1" id="Layer_1" xmlns="http://www.w3.org/2000/svg" xmlns:xlink="http://www.w3.org/1999/xlink" x="0px" y="0px"
	 width="792px" height="64.222px" viewBox="0 0 792 64.222" enable-background="new 0 0 792 64.222" xml:space="preserve">
<g>
	<path d="M48.047,20.828l0.001,0.003l0.002-0.003H48.047z M54.299,38.387c0.173-0.159,5.289-4.58,5.289-4.58l-0.512-0.249
		l-0.325-0.16c-0.504-0.236-0.425-0.663-0.347-0.948c0.079-0.282,0.921-3.236,0.921-3.236s-2.207,0.494-2.723,0.574
		c-0.41,0.064-0.553-0.126-0.679-0.411c-0.126-0.282-0.663-1.577-0.663-1.577s-2.703,2.991-2.761,3.046
		c-0.521,0.473-1.025,0.11-0.93-0.442c0.086-0.506,1.388-6.485,1.388-6.485s-1.436,0.853-1.909,1.135
		c-0.473,0.285-0.726,0.236-0.978-0.221c-0.251-0.458-2.011-3.982-2.022-4.003c-0.011,0.021-1.77,3.546-2.021,4.003
		c-0.253,0.457-0.505,0.506-0.979,0.221c-0.473-0.282-1.909-1.135-1.909-1.135s1.302,5.979,1.388,6.485
		c0.094,0.552-0.41,0.915-0.931,0.442c-0.058-0.055-2.76-3.046-2.76-3.046s-0.537,1.294-0.664,1.577
		c-0.125,0.285-0.268,0.476-0.678,0.411c-0.516-0.08-2.812-0.574-2.812-0.574s0.931,2.954,1.01,3.236
		c0.079,0.285,0.157,0.711-0.347,0.948l-0.324,0.16l-0.512,0.249c0,0,5.114,4.42,5.289,4.58c0.172,0.157,0.504,0.298,0.251,1.052
		c-0.251,0.758-0.615,1.786-0.615,1.786s4.732-0.963,5.238-1.074c0.504-0.11,0.931,0.061,0.931,0.567S47.4,46.286,47.4,46.286h1.299
		c0,0-0.206-5.062-0.206-5.568s0.427-0.678,0.931-0.567s5.237,1.074,5.237,1.074s-0.363-1.028-0.615-1.786
		C53.794,38.685,54.125,38.543,54.299,38.387z"/>
	<g>
		<rect x="63.533" y="18.227" width="15.026" height="30.833"/>
		<path d="M71.046,33.645"/>
	</g>
	<g>
		<rect x="17.863" y="18.217" width="15.027" height="30.83"/>
		<path d="M25.376,33.632"/>
	</g>
	<path d="M351.209,26.35h1.452c0.036,0.647,0.188,1.172,0.458,1.577c0.513,0.755,1.416,1.132,2.71,1.132
		c0.58,0,1.107-0.083,1.584-0.248c0.921-0.319,1.382-0.896,1.382-1.724c0-0.62-0.194-1.062-0.583-1.325
		c-0.393-0.261-1.009-0.485-1.847-0.678l-1.545-0.35c-1.01-0.227-1.724-0.479-2.144-0.751c-0.725-0.476-1.087-1.187-1.087-2.135
		c0-1.024,0.354-1.865,1.064-2.524c0.708-0.656,1.713-0.985,3.012-0.985c1.196,0,2.212,0.289,3.048,0.865s1.254,1.5,1.254,2.767
		h-1.452c-0.078-0.61-0.243-1.077-0.497-1.405c-0.471-0.595-1.271-0.893-2.399-0.893c-0.912,0-1.567,0.193-1.965,0.574
		c-0.399,0.383-0.598,0.828-0.598,1.337c0,0.559,0.233,0.966,0.699,1.227c0.306,0.166,0.997,0.371,2.073,0.62l1.6,0.365
		c0.771,0.178,1.367,0.417,1.785,0.724c0.725,0.534,1.088,1.307,1.088,2.319c0,1.264-0.459,2.169-1.378,2.712
		c-0.918,0.543-1.987,0.816-3.203,0.816c-1.419,0-2.529-0.362-3.331-1.089C351.586,28.558,351.193,27.583,351.209,26.35z"/>
	<path d="M363.524,28.246c-0.388-0.592-0.582-1.329-0.582-2.215c0-0.92,0.194-1.709,0.582-2.359
		c0.388-0.653,1.009-0.979,1.864-0.979c0.962,0,1.64,0.384,2.035,1.147c0.249,0.488,0.373,1.12,0.373,1.896
		c0,0.859-0.172,1.641-0.517,2.34c-0.344,0.703-0.979,1.052-1.906,1.052C364.528,29.129,363.912,28.834,363.524,28.246z
		 M362.569,22.714c-0.709,0.829-1.064,1.942-1.064,3.341c0,1.304,0.336,2.344,1.01,3.117c0.673,0.773,1.582,1.163,2.726,1.163
		c1.372,0,2.384-0.438,3.036-1.313c0.652-0.874,0.979-1.985,0.979-3.325c0-1.387-0.371-2.436-1.11-3.15
		c-0.74-0.715-1.646-1.074-2.718-1.074C364.23,21.472,363.278,21.886,362.569,22.714z"/>
	<path d="M374.12,21.472c0.937,0,1.699,0.23,2.286,0.684c0.587,0.457,0.941,1.239,1.06,2.353h-1.359
		c-0.083-0.513-0.271-0.939-0.566-1.276c-0.294-0.34-0.769-0.509-1.42-0.509c-0.891,0-1.528,0.436-1.911,1.304
		c-0.248,0.564-0.373,1.261-0.373,2.089c0,0.834,0.176,1.534,0.528,2.104c0.352,0.571,0.906,0.853,1.662,0.853
		c0.58,0,1.04-0.175,1.378-0.531s0.573-0.84,0.702-1.457h1.359c-0.155,1.104-0.543,1.911-1.165,2.42
		c-0.621,0.509-1.417,0.764-2.384,0.764c-1.086,0-1.954-0.396-2.601-1.19c-0.647-0.794-0.97-1.788-0.97-2.979
		c0-1.46,0.354-2.595,1.063-3.408C372.118,21.88,373.021,21.472,374.12,21.472z"/>
	<path d="M378.864,30.031v-8.276h1.421v8.276H378.864z M378.864,20.208v-1.586h1.421v1.586H378.864z"/>
	<path d="M384.108,26.653c0.254-0.147,0.634-0.251,1.142-0.319l0.846-0.111c0.258-0.03,0.523-0.083,0.792-0.153
		c0.269-0.073,0.489-0.163,0.66-0.273v1.126c0,0.859-0.389,1.479-1.165,1.856c-0.461,0.23-0.937,0.343-1.429,0.343
		c-0.404,0-0.753-0.116-1.048-0.35c-0.295-0.233-0.442-0.552-0.442-0.957C383.464,27.285,383.679,26.896,384.108,26.653z
		 M382.727,26.055c-0.481,0.423-0.723,1.021-0.723,1.794c0,0.703,0.245,1.289,0.734,1.758c0.49,0.466,1.12,0.703,1.892,0.703
		c0.642,0,1.229-0.138,1.762-0.411c0.533-0.276,0.942-0.598,1.227-0.973c0.047,0.332,0.126,0.589,0.241,0.77
		c0.217,0.341,0.567,0.512,1.048,0.512c0.197,0,0.352-0.006,0.466-0.024c0.114-0.015,0.279-0.052,0.497-0.117v-1.031
		c-0.088,0.016-0.171,0.028-0.249,0.034c-0.077,0.009-0.147,0.012-0.209,0.012c-0.191,0-0.317-0.043-0.376-0.132
		c-0.06-0.089-0.089-0.206-0.089-0.35V23.81c0-0.785-0.303-1.365-0.909-1.739c-0.61-0.371-1.405-0.558-2.383-0.558
		c-0.844,0-1.585,0.199-2.225,0.601c-0.64,0.402-0.972,1.114-0.998,2.141h1.305c0.052-0.429,0.163-0.754,0.334-0.972
		c0.305-0.393,0.823-0.589,1.553-0.589c0.631,0,1.117,0.107,1.456,0.322s0.508,0.562,0.508,1.037c0,0.233-0.03,0.411-0.093,0.534
		c-0.109,0.23-0.323,0.365-0.645,0.405l-2.229,0.279C383.839,25.368,383.208,25.629,382.727,26.055z"/>
	<path d="M391.272,30.031V18.623h1.397v11.408H391.272z"/>
	<path d="M398.924,26.35h1.453c0.035,0.647,0.188,1.172,0.458,1.577c0.511,0.755,1.415,1.132,2.709,1.132
		c0.58,0,1.107-0.083,1.585-0.248c0.922-0.319,1.382-0.896,1.382-1.724c0-0.62-0.193-1.062-0.583-1.325
		c-0.395-0.261-1.01-0.485-1.847-0.678l-1.546-0.35c-1.01-0.227-1.725-0.479-2.145-0.751c-0.724-0.476-1.086-1.187-1.086-2.135
		c0-1.024,0.354-1.865,1.064-2.524c0.709-0.656,1.712-0.985,3.011-0.985c1.198,0,2.213,0.289,3.049,0.865s1.254,1.5,1.254,2.767
		h-1.451c-0.078-0.61-0.244-1.077-0.497-1.405c-0.473-0.595-1.271-0.893-2.398-0.893c-0.911,0-1.566,0.193-1.965,0.574
		c-0.399,0.383-0.601,0.828-0.601,1.337c0,0.559,0.235,0.966,0.7,1.227c0.307,0.166,0.997,0.371,2.073,0.62l1.6,0.365
		c0.771,0.178,1.367,0.417,1.787,0.724c0.724,0.534,1.086,1.307,1.086,2.319c0,1.264-0.46,2.169-1.377,2.712
		c-0.921,0.543-1.988,0.816-3.204,0.816c-1.419,0-2.528-0.362-3.33-1.089C399.302,28.558,398.909,27.583,398.924,26.35z"/>
	<path d="M412.994,21.472c0.937,0,1.699,0.23,2.286,0.684c0.588,0.457,0.942,1.239,1.061,2.353h-1.359
		c-0.083-0.513-0.271-0.939-0.565-1.276c-0.297-0.34-0.771-0.509-1.422-0.509c-0.892,0-1.526,0.436-1.91,1.304
		c-0.248,0.564-0.374,1.261-0.374,2.089c0,0.834,0.178,1.534,0.529,2.104c0.352,0.571,0.906,0.853,1.661,0.853
		c0.58,0,1.04-0.175,1.379-0.531s0.572-0.84,0.702-1.457h1.359c-0.155,1.104-0.545,1.911-1.164,2.42
		c-0.623,0.509-1.418,0.764-2.384,0.764c-1.088,0-1.954-0.396-2.602-1.19c-0.647-0.794-0.973-1.788-0.973-2.979
		c0-1.46,0.356-2.595,1.064-3.408C410.992,21.88,411.897,21.472,412.994,21.472z"/>
	<path d="M419.158,20.208v-1.586h-1.42v1.586H419.158z M419.158,30.031v-8.276h-1.42v8.276H419.158z"/>
	<path d="M423.029,23.441c0.436-0.463,0.975-0.696,1.617-0.696c0.894,0,1.533,0.337,1.917,1.012
		c0.207,0.362,0.339,0.844,0.396,1.451h-4.62C422.364,24.494,422.596,23.905,423.029,23.441z M421.889,22.779
		c-0.725,0.832-1.086,1.917-1.086,3.252c0,1.356,0.358,2.411,1.078,3.166c0.719,0.751,1.597,1.129,2.634,1.129
		c0.423,0,0.804-0.043,1.141-0.123c0.626-0.147,1.15-0.426,1.575-0.841c0.253-0.236,0.483-0.543,0.688-0.92
		c0.204-0.375,0.325-0.715,0.36-1.021h-1.374c-0.104,0.368-0.279,0.693-0.528,0.972c-0.434,0.482-1.017,0.721-1.745,0.721
		c-0.782,0-1.359-0.255-1.733-0.764c-0.371-0.509-0.57-1.187-0.598-2.031h6.095c0-0.84-0.04-1.451-0.122-1.834
		c-0.094-0.558-0.279-1.046-0.561-1.466c-0.29-0.438-0.712-0.797-1.265-1.074c-0.556-0.279-1.126-0.417-1.717-0.417
		C423.561,21.527,422.612,21.944,421.889,22.779z"/>
	<path d="M430.108,30.031v-8.316h1.326v1.181c0.395-0.488,0.81-0.837,1.252-1.049c0.438-0.211,0.93-0.319,1.466-0.319
		c1.182,0,1.979,0.411,2.393,1.236c0.228,0.448,0.341,1.092,0.341,1.933v5.334h-1.42v-5.243c0-0.506-0.075-0.914-0.226-1.227
		c-0.249-0.515-0.698-0.776-1.352-0.776c-0.331,0-0.603,0.034-0.815,0.101c-0.383,0.114-0.718,0.341-1.01,0.684
		c-0.233,0.273-0.384,0.559-0.454,0.85c-0.068,0.292-0.104,0.712-0.104,1.255v4.356H430.108z"/>
	<path d="M442.156,21.472c0.936,0,1.697,0.23,2.285,0.684c0.589,0.457,0.941,1.239,1.06,2.353h-1.357
		c-0.084-0.513-0.272-0.939-0.567-1.276c-0.294-0.34-0.77-0.509-1.42-0.509c-0.893,0-1.528,0.436-1.911,1.304
		c-0.249,0.564-0.373,1.261-0.373,2.089c0,0.834,0.177,1.534,0.527,2.104c0.352,0.571,0.907,0.853,1.661,0.853
		c0.58,0,1.04-0.175,1.379-0.531s0.574-0.84,0.704-1.457h1.357c-0.154,1.104-0.543,1.911-1.164,2.42s-1.416,0.764-2.384,0.764
		c-1.087,0-1.954-0.396-2.601-1.19c-0.647-0.794-0.972-1.788-0.972-2.979c0-1.46,0.354-2.595,1.063-3.408
		C440.154,21.88,441.058,21.472,442.156,21.472z"/>
	<path d="M448.662,23.441c0.436-0.463,0.973-0.696,1.614-0.696c0.896,0,1.536,0.337,1.918,1.012
		c0.207,0.362,0.339,0.844,0.397,1.451h-4.621C447.997,24.494,448.227,23.905,448.662,23.441z M447.521,22.779
		c-0.726,0.832-1.088,1.917-1.088,3.252c0,1.356,0.36,2.411,1.078,3.166c0.721,0.751,1.599,1.129,2.633,1.129
		c0.426,0,0.807-0.043,1.143-0.123c0.625-0.147,1.151-0.426,1.575-0.841c0.254-0.236,0.482-0.543,0.687-0.92
		c0.206-0.375,0.325-0.715,0.362-1.021h-1.374c-0.104,0.368-0.279,0.693-0.528,0.972c-0.436,0.482-1.019,0.721-1.748,0.721
		c-0.781,0-1.359-0.255-1.73-0.764c-0.374-0.509-0.573-1.187-0.598-2.031h6.095c0-0.84-0.041-1.451-0.124-1.834
		c-0.094-0.558-0.28-1.046-0.56-1.466c-0.288-0.438-0.712-0.797-1.266-1.074c-0.554-0.279-1.126-0.417-1.716-0.417
		C449.193,21.527,448.245,21.944,447.521,22.779z"/>
	<path d="M455.227,27.42h1.344c0.042,0.466,0.157,0.825,0.35,1.073c0.352,0.448,0.964,0.675,1.832,0.675
		c0.519,0,0.974-0.114,1.368-0.337c0.393-0.227,0.589-0.574,0.589-1.046c0-0.356-0.158-0.629-0.473-0.816
		c-0.202-0.113-0.602-0.245-1.196-0.396l-1.11-0.279c-0.709-0.175-1.233-0.371-1.569-0.589c-0.6-0.377-0.9-0.902-0.9-1.568
		c0-0.788,0.282-1.423,0.85-1.911c0.567-0.487,1.33-0.73,2.287-0.73c1.253,0,2.156,0.368,2.71,1.102
		c0.347,0.466,0.516,0.969,0.505,1.506h-1.32c-0.024-0.313-0.137-0.601-0.333-0.862c-0.32-0.365-0.879-0.549-1.67-0.549
		c-0.528,0-0.927,0.102-1.2,0.301c-0.271,0.203-0.407,0.469-0.407,0.801c0,0.362,0.179,0.653,0.536,0.871
		c0.206,0.129,0.513,0.242,0.916,0.34l0.925,0.224c1.003,0.246,1.677,0.481,2.019,0.708c0.543,0.356,0.816,0.917,0.816,1.684
		c0,0.739-0.282,1.38-0.844,1.917c-0.562,0.54-1.417,0.81-2.566,0.81c-1.237,0-2.113-0.282-2.629-0.843
		C455.54,28.945,455.264,28.249,455.227,27.42z"/>
	<path d="M469.826,26.653c0.253-0.147,0.633-0.251,1.141-0.319l0.847-0.111c0.258-0.03,0.521-0.083,0.792-0.153
		c0.27-0.073,0.489-0.163,0.659-0.273v1.126c0,0.859-0.388,1.479-1.164,1.856c-0.462,0.23-0.938,0.343-1.428,0.343
		c-0.405,0-0.755-0.116-1.05-0.35c-0.294-0.233-0.441-0.552-0.441-0.957C469.182,27.285,469.396,26.896,469.826,26.653z
		 M468.442,26.055c-0.481,0.423-0.721,1.021-0.721,1.794c0,0.703,0.243,1.289,0.732,1.758c0.489,0.466,1.12,0.703,1.89,0.703
		c0.644,0,1.23-0.138,1.765-0.411c0.533-0.276,0.941-0.598,1.227-0.973c0.046,0.332,0.126,0.589,0.239,0.77
		c0.218,0.341,0.567,0.512,1.049,0.512c0.197,0,0.354-0.006,0.467-0.024c0.113-0.015,0.279-0.052,0.497-0.117v-1.031
		c-0.089,0.016-0.172,0.028-0.249,0.034c-0.076,0.009-0.146,0.012-0.208,0.012c-0.193,0-0.319-0.043-0.378-0.132
		c-0.06-0.089-0.089-0.206-0.089-0.35V23.81c0-0.785-0.304-1.365-0.909-1.739c-0.61-0.371-1.405-0.558-2.384-0.558
		c-0.845,0-1.584,0.199-2.226,0.601c-0.638,0.402-0.971,1.114-0.997,2.141h1.304c0.053-0.429,0.164-0.754,0.335-0.972
		c0.307-0.393,0.823-0.589,1.552-0.589c0.632,0,1.118,0.107,1.457,0.322s0.51,0.562,0.51,1.037c0,0.233-0.031,0.411-0.094,0.534
		c-0.109,0.23-0.323,0.365-0.646,0.405l-2.228,0.279C469.556,25.368,468.924,25.629,468.442,26.055z"/>
	<path d="M476.949,30.031v-8.316h1.328v1.181c0.393-0.488,0.81-0.837,1.25-1.049c0.439-0.211,0.93-0.319,1.468-0.319
		c1.181,0,1.977,0.411,2.391,1.236c0.229,0.448,0.343,1.092,0.343,1.933v5.334h-1.421v-5.243c0-0.506-0.076-0.914-0.227-1.227
		c-0.249-0.515-0.698-0.776-1.35-0.776c-0.332,0-0.604,0.034-0.816,0.101c-0.384,0.114-0.72,0.341-1.009,0.684
		c-0.233,0.273-0.384,0.559-0.454,0.85c-0.071,0.292-0.104,0.712-0.104,1.255v4.356H476.949z"/>
	<path d="M487.331,23.592c0.438-0.537,1.008-0.807,1.713-0.807c0.631,0,1.161,0.251,1.591,0.758c0.43,0.503,0.646,1.282,0.646,2.334
		c0,1.04-0.208,1.837-0.625,2.393c-0.418,0.558-0.95,0.837-1.596,0.837c-0.834,0-1.44-0.301-1.819-0.902
		c-0.377-0.601-0.565-1.347-0.565-2.236C486.675,24.923,486.894,24.132,487.331,23.592z M486.127,22.898
		c-0.618,0.887-0.927,1.936-0.927,3.147c0,1.294,0.338,2.332,1.016,3.111c0.678,0.779,1.481,1.168,2.408,1.168
		c0.573,0,1.084-0.113,1.529-0.34c0.446-0.23,0.831-0.598,1.158-1.11v1.156h1.258V18.585h-1.344v4.2
		c-0.316-0.387-0.599-0.66-0.847-0.816c-0.43-0.267-0.963-0.402-1.6-0.402C487.63,21.567,486.747,22.009,486.127,22.898z"/>
	<path d="M499.273,30.031V18.623h1.56v4.715h5.933v-4.715h1.562v11.408h-1.562v-5.334h-5.933v5.334H499.273z"/>
	<path d="M510.498,21.714h1.428v5.522c0,0.423,0.067,0.77,0.202,1.04c0.249,0.497,0.712,0.746,1.39,0.746
		c0.973,0,1.635-0.436,1.988-1.307c0.191-0.463,0.288-1.104,0.288-1.917v-4.083h1.397v8.316h-1.321l0.016-1.227
		c-0.181,0.316-0.405,0.583-0.675,0.801c-0.533,0.433-1.181,0.65-1.941,0.65c-1.185,0-1.993-0.396-2.424-1.188
		c-0.231-0.423-0.348-0.991-0.348-1.699V21.714z"/>
	<path d="M519.369,30.031v-8.316h1.382v1.181c0.331-0.411,0.632-0.708,0.902-0.893c0.46-0.316,0.981-0.476,1.567-0.476
		c0.662,0,1.196,0.163,1.6,0.491c0.227,0.184,0.434,0.46,0.621,0.822c0.31-0.445,0.675-0.776,1.096-0.991
		c0.418-0.215,0.889-0.322,1.412-0.322c1.118,0,1.879,0.405,2.284,1.212c0.216,0.436,0.325,1.018,0.325,1.754v5.537h-1.451v-5.776
		c0-0.555-0.14-0.936-0.417-1.144c-0.276-0.206-0.614-0.31-1.013-0.31c-0.549,0-1.021,0.184-1.417,0.552s-0.596,0.981-0.596,1.841
		v4.837h-1.42v-5.43c0-0.562-0.067-0.976-0.202-1.233c-0.212-0.389-0.607-0.583-1.188-0.583c-0.527,0-1.009,0.206-1.44,0.613
		c-0.433,0.408-0.648,1.15-0.648,2.221v4.411H519.369z"/>
	<path d="M534.328,26.653c0.253-0.147,0.634-0.251,1.142-0.319l0.847-0.111c0.258-0.03,0.521-0.083,0.791-0.153
		c0.271-0.073,0.489-0.163,0.66-0.273v1.126c0,0.859-0.387,1.479-1.165,1.856c-0.461,0.23-0.937,0.343-1.428,0.343
		c-0.404,0-0.755-0.116-1.049-0.35c-0.295-0.233-0.441-0.552-0.441-0.957C533.685,27.285,533.898,26.896,534.328,26.653z
		 M532.945,26.055c-0.48,0.423-0.722,1.021-0.722,1.794c0,0.703,0.244,1.289,0.733,1.758c0.489,0.466,1.12,0.703,1.892,0.703
		c0.643,0,1.229-0.138,1.762-0.411c0.534-0.276,0.942-0.598,1.228-0.973c0.046,0.332,0.126,0.589,0.24,0.77
		c0.217,0.341,0.566,0.512,1.048,0.512c0.196,0,0.353-0.006,0.467-0.024c0.113-0.015,0.278-0.052,0.496-0.117v-1.031
		c-0.089,0.016-0.17,0.028-0.248,0.034c-0.077,0.009-0.147,0.012-0.209,0.012c-0.192,0-0.318-0.043-0.377-0.132
		c-0.06-0.089-0.089-0.206-0.089-0.35V23.81c0-0.785-0.304-1.365-0.908-1.739c-0.612-0.371-1.406-0.558-2.385-0.558
		c-0.844,0-1.585,0.199-2.225,0.601c-0.639,0.402-0.972,1.114-0.998,2.141h1.304c0.052-0.429,0.164-0.754,0.334-0.972
		c0.308-0.393,0.824-0.589,1.554-0.589c0.631,0,1.117,0.107,1.456,0.322s0.509,0.562,0.509,1.037c0,0.233-0.03,0.411-0.093,0.534
		c-0.109,0.23-0.324,0.365-0.645,0.405l-2.229,0.279C534.059,25.368,533.427,25.629,532.945,26.055z"/>
	<path d="M541.451,30.031v-8.316h1.328v1.181c0.393-0.488,0.811-0.837,1.252-1.049c0.438-0.211,0.928-0.319,1.466-0.319
		c1.182,0,1.979,0.411,2.394,1.236c0.227,0.448,0.34,1.092,0.34,1.933v5.334h-1.42v-5.243c0-0.506-0.077-0.914-0.226-1.227
		c-0.248-0.515-0.698-0.776-1.352-0.776c-0.331,0-0.604,0.034-0.815,0.101c-0.384,0.114-0.718,0.341-1.01,0.684
		c-0.232,0.273-0.383,0.559-0.454,0.85c-0.07,0.292-0.104,0.712-0.104,1.255v4.356H541.451z"/>
	<path d="M550.292,30.031v-8.276h1.421v8.276H550.292z M550.292,20.208v-1.586h1.421v1.586H550.292z"/>
	<path d="M554.103,21.714v-2.322h1.412v2.322h1.327v1.141h-1.327v5.427c0,0.292,0.099,0.485,0.295,0.583
		c0.108,0.058,0.29,0.086,0.544,0.086c0.067,0,0.139,0,0.217-0.003c0.078-0.003,0.168-0.009,0.271-0.021v1.104
		c-0.16,0.046-0.327,0.08-0.5,0.101c-0.174,0.019-0.362,0.031-0.563,0.031c-0.651,0-1.095-0.168-1.328-0.5
		c-0.231-0.334-0.348-0.77-0.348-1.301v-5.506h-1.126v-1.141H554.103z"/>
	<path d="M558.24,30.031v-8.276h1.42v8.276H558.24z M558.24,20.208v-1.586h1.42v1.586H558.24z"/>
	<path d="M563.532,23.441c0.436-0.463,0.972-0.696,1.615-0.696c0.894,0,1.535,0.337,1.918,1.012
		c0.206,0.362,0.338,0.844,0.396,1.451h-4.62C562.866,24.494,563.097,23.905,563.532,23.441z M562.391,22.779
		c-0.726,0.832-1.087,1.917-1.087,3.252c0,1.356,0.36,2.411,1.078,3.166c0.721,0.751,1.598,1.129,2.634,1.129
		c0.424,0,0.805-0.043,1.141-0.123c0.627-0.147,1.152-0.426,1.575-0.841c0.255-0.236,0.484-0.543,0.688-0.92
		c0.205-0.375,0.325-0.715,0.361-1.021h-1.374c-0.104,0.368-0.279,0.693-0.527,0.972c-0.436,0.482-1.019,0.721-1.749,0.721
		c-0.78,0-1.357-0.255-1.729-0.764c-0.373-0.509-0.574-1.187-0.599-2.031h6.096c0-0.84-0.042-1.451-0.124-1.834
		c-0.094-0.558-0.281-1.046-0.561-1.466c-0.288-0.438-0.712-0.797-1.264-1.074c-0.556-0.279-1.127-0.417-1.718-0.417
		C564.063,21.527,563.115,21.944,562.391,22.779z"/>
	<path d="M570.097,27.42h1.344c0.041,0.466,0.158,0.825,0.35,1.073c0.352,0.448,0.963,0.675,1.831,0.675
		c0.519,0,0.975-0.114,1.368-0.337c0.393-0.227,0.589-0.574,0.589-1.046c0-0.356-0.156-0.629-0.472-0.816
		c-0.203-0.113-0.602-0.245-1.197-0.396l-1.11-0.279c-0.708-0.175-1.232-0.371-1.567-0.589c-0.601-0.377-0.901-0.902-0.901-1.568
		c0-0.788,0.283-1.423,0.85-1.911c0.567-0.487,1.33-0.73,2.288-0.73c1.252,0,2.155,0.368,2.709,1.102
		c0.347,0.466,0.516,0.969,0.505,1.506h-1.321c-0.024-0.313-0.136-0.601-0.333-0.862c-0.32-0.365-0.877-0.549-1.67-0.549
		c-0.527,0-0.927,0.102-1.199,0.301c-0.271,0.203-0.408,0.469-0.408,0.801c0,0.362,0.18,0.653,0.537,0.871
		c0.205,0.129,0.512,0.242,0.915,0.34l0.925,0.224c1.004,0.246,1.677,0.481,2.019,0.708c0.543,0.356,0.816,0.917,0.816,1.684
		c0,0.739-0.282,1.38-0.844,1.917c-0.562,0.54-1.417,0.81-2.565,0.81c-1.238,0-2.114-0.282-2.628-0.843
		C570.409,28.945,570.134,28.249,570.097,27.42z"/>
	<path d="M353.383,38.798h3.773c0.529,0,0.95,0.08,1.267,0.233c0.589,0.294,0.885,0.85,0.885,1.663c0,0.754-0.211,1.279-0.633,1.567
		c-0.422,0.292-0.995,0.436-1.72,0.436h-3.571V38.798z M353.383,48.878v-4.893h3.517c0.632,0,1.095,0.07,1.39,0.208
		c0.518,0.255,0.794,0.755,0.831,1.5l0.093,1.902c0.021,0.445,0.047,0.746,0.079,0.902c0.031,0.153,0.072,0.282,0.124,0.38h1.894
		v-0.257c-0.237-0.102-0.403-0.334-0.497-0.7c-0.057-0.211-0.093-0.534-0.108-0.969l-0.054-1.531
		c-0.026-0.663-0.152-1.141-0.376-1.436c-0.226-0.294-0.561-0.534-1.006-0.715c0.508-0.264,0.902-0.613,1.184-1.046
		c0.282-0.436,0.423-0.994,0.423-1.678c0-1.31-0.535-2.208-1.607-2.696c-0.564-0.251-1.281-0.38-2.15-0.38h-5.28v11.408H353.383z"/>
	<path d="M364.708,42.289c0.435-0.463,0.973-0.696,1.615-0.696c0.895,0,1.535,0.337,1.918,1.012
		c0.207,0.362,0.339,0.843,0.396,1.451h-4.62C364.042,43.341,364.273,42.752,364.708,42.289z M363.567,41.626
		c-0.726,0.831-1.087,1.917-1.087,3.251c0,1.356,0.36,2.411,1.079,3.166c0.72,0.751,1.598,1.128,2.633,1.128
		c0.424,0,0.805-0.042,1.141-0.123c0.626-0.147,1.152-0.426,1.576-0.84c0.253-0.236,0.483-0.543,0.688-0.92
		c0.204-0.374,0.325-0.715,0.361-1.021h-1.375c-0.104,0.368-0.279,0.693-0.528,0.973c-0.435,0.481-1.018,0.721-1.747,0.721
		c-0.782,0-1.359-0.254-1.732-0.764c-0.373-0.509-0.572-1.188-0.598-2.031h6.095c0-0.841-0.041-1.451-0.124-1.834
		c-0.093-0.559-0.279-1.046-0.559-1.466c-0.29-0.439-0.712-0.798-1.266-1.074c-0.554-0.279-1.125-0.417-1.716-0.417
		C365.239,40.375,364.291,40.792,363.567,41.626z"/>
	<path d="M371.273,46.268h1.343c0.042,0.466,0.158,0.825,0.35,1.074c0.352,0.448,0.962,0.675,1.832,0.675
		c0.518,0,0.973-0.113,1.367-0.337c0.393-0.227,0.59-0.574,0.59-1.046c0-0.356-0.158-0.629-0.474-0.816
		c-0.202-0.114-0.6-0.246-1.195-0.396l-1.11-0.279c-0.709-0.175-1.232-0.371-1.568-0.589c-0.601-0.377-0.901-0.902-0.901-1.567
		c0-0.789,0.284-1.423,0.851-1.911s1.329-0.73,2.287-0.73c1.252,0,2.156,0.368,2.71,1.101c0.347,0.466,0.515,0.969,0.505,1.506
		h-1.321c-0.026-0.313-0.137-0.602-0.333-0.862c-0.321-0.365-0.877-0.549-1.669-0.549c-0.528,0-0.928,0.101-1.2,0.3
		c-0.272,0.203-0.408,0.47-0.408,0.801c0,0.362,0.179,0.653,0.536,0.871c0.207,0.129,0.513,0.243,0.917,0.341l0.923,0.224
		c1.005,0.246,1.678,0.482,2.02,0.709c0.543,0.355,0.815,0.917,0.815,1.684c0,0.739-0.281,1.38-0.842,1.917
		c-0.562,0.54-1.417,0.81-2.567,0.81c-1.237,0-2.114-0.282-2.628-0.844C371.585,47.792,371.31,47.096,371.273,46.268z"/>
	<path d="M381.5,42.289c0.435-0.463,0.973-0.696,1.615-0.696c0.896,0,1.535,0.337,1.918,1.012c0.207,0.362,0.339,0.843,0.396,1.451
		h-4.621C380.834,43.341,381.064,42.752,381.5,42.289z M380.358,41.626c-0.725,0.831-1.087,1.917-1.087,3.251
		c0,1.356,0.359,2.411,1.08,3.166c0.719,0.751,1.597,1.128,2.632,1.128c0.425,0,0.806-0.042,1.142-0.123
		c0.626-0.147,1.152-0.426,1.577-0.84c0.254-0.236,0.482-0.543,0.687-0.92c0.204-0.374,0.324-0.715,0.361-1.021h-1.375
		c-0.104,0.368-0.28,0.693-0.528,0.973c-0.435,0.481-1.017,0.721-1.747,0.721c-0.782,0-1.359-0.254-1.731-0.764
		c-0.373-0.509-0.572-1.188-0.598-2.031h6.095c0-0.841-0.041-1.451-0.124-1.834c-0.094-0.559-0.28-1.046-0.559-1.466
		c-0.29-0.439-0.712-0.798-1.266-1.074c-0.554-0.279-1.126-0.417-1.715-0.417C382.03,40.375,381.083,40.792,380.358,41.626z"/>
	<path d="M390.293,45.5c0.253-0.147,0.634-0.251,1.141-0.319l0.847-0.11c0.259-0.031,0.523-0.083,0.792-0.153
		c0.269-0.074,0.491-0.163,0.661-0.273v1.125c0,0.859-0.39,1.479-1.166,1.856c-0.46,0.23-0.937,0.344-1.429,0.344
		c-0.404,0-0.753-0.117-1.048-0.35c-0.295-0.233-0.442-0.552-0.442-0.958C389.649,46.133,389.863,45.743,390.293,45.5z
		 M388.912,44.902c-0.481,0.423-0.723,1.021-0.723,1.795c0,0.702,0.245,1.288,0.734,1.757c0.489,0.466,1.119,0.703,1.891,0.703
		c0.642,0,1.229-0.138,1.762-0.411c0.534-0.276,0.943-0.598,1.227-0.972c0.048,0.331,0.127,0.589,0.241,0.77
		c0.218,0.34,0.568,0.512,1.049,0.512c0.196,0,0.351-0.006,0.466-0.024c0.112-0.016,0.279-0.052,0.497-0.117v-1.031
		c-0.089,0.015-0.172,0.027-0.249,0.034c-0.078,0.009-0.149,0.012-0.212,0.012c-0.191,0-0.316-0.043-0.375-0.132
		c-0.06-0.089-0.089-0.206-0.089-0.35v-4.792c0-0.786-0.304-1.365-0.91-1.74c-0.61-0.371-1.405-0.558-2.383-0.558
		c-0.844,0-1.586,0.199-2.225,0.601c-0.64,0.402-0.973,1.114-0.998,2.142h1.305c0.051-0.43,0.163-0.755,0.333-0.973
		c0.305-0.393,0.823-0.589,1.553-0.589c0.632,0,1.116,0.107,1.456,0.322c0.34,0.215,0.509,0.562,0.509,1.037
		c0,0.233-0.03,0.411-0.093,0.534c-0.107,0.23-0.324,0.365-0.645,0.405l-2.229,0.279C390.024,44.215,389.393,44.476,388.912,44.902z
		"/>
	<path d="M397.456,48.878v-8.316h1.327v1.436c0.108-0.279,0.376-0.62,0.801-1.021c0.425-0.399,0.914-0.602,1.468-0.602
		c0.026,0,0.07,0.003,0.132,0.009c0.063,0.003,0.169,0.016,0.319,0.031v1.476c-0.085-0.015-0.16-0.028-0.229-0.031
		c-0.072-0.006-0.147-0.009-0.23-0.009c-0.704,0-1.245,0.227-1.623,0.678c-0.379,0.454-0.567,0.976-0.567,1.567v4.782H397.456z"/>
	<path d="M405.915,40.319c0.938,0,1.7,0.23,2.289,0.684c0.586,0.457,0.939,1.239,1.058,2.353h-1.358
		c-0.083-0.512-0.271-0.938-0.566-1.276c-0.296-0.34-0.769-0.509-1.422-0.509c-0.89,0-1.525,0.436-1.908,1.304
		c-0.248,0.564-0.372,1.261-0.372,2.089c0,0.834,0.175,1.534,0.525,2.104c0.354,0.57,0.907,0.853,1.663,0.853
		c0.58,0,1.038-0.175,1.379-0.531c0.339-0.355,0.572-0.84,0.701-1.457h1.358c-0.153,1.104-0.543,1.911-1.164,2.42
		s-1.415,0.764-2.383,0.764c-1.088,0-1.954-0.396-2.602-1.19s-0.97-1.789-0.97-2.979c0-1.46,0.353-2.595,1.063-3.408
		C403.915,40.728,404.818,40.319,405.915,40.319z"/>
	<path d="M410.661,48.878V37.433h1.397v4.254c0.331-0.42,0.629-0.714,0.893-0.886c0.45-0.294,1.012-0.442,1.686-0.442
		c1.205,0,2.024,0.423,2.454,1.267c0.233,0.46,0.35,1.098,0.35,1.917v5.334h-1.438v-5.242c0-0.611-0.078-1.059-0.233-1.344
		c-0.253-0.454-0.729-0.681-1.428-0.681c-0.579,0-1.105,0.2-1.576,0.595c-0.473,0.399-0.707,1.153-0.707,2.261v4.411H410.661z"/>
	<path d="M428.912,37.16c1.444,0,2.565,0.38,3.363,1.142c0.796,0.761,1.239,1.625,1.326,2.595h-1.506
		c-0.17-0.736-0.511-1.319-1.021-1.749c-0.511-0.429-1.226-0.644-2.146-0.644c-1.124,0-2.031,0.396-2.723,1.184
		c-0.691,0.789-1.037,2-1.037,3.629c0,1.337,0.312,2.42,0.936,3.252c0.624,0.831,1.554,1.245,2.792,1.245
		c1.14,0,2.006-0.438,2.602-1.313c0.315-0.46,0.55-1.064,0.707-1.816h1.506c-0.135,1.2-0.58,2.209-1.336,3.022
		c-0.906,0.979-2.127,1.466-3.664,1.466c-1.325,0-2.439-0.401-3.341-1.202c-1.185-1.062-1.776-2.7-1.776-4.917
		c0-1.681,0.445-3.062,1.335-4.138C425.892,37.746,427.22,37.16,428.912,37.16z"/>
	<path d="M436.853,47.093c-0.39-0.592-0.583-1.328-0.583-2.215c0-0.92,0.193-1.708,0.583-2.359c0.388-0.653,1.009-0.979,1.861-0.979
		c0.964,0,1.642,0.383,2.036,1.147c0.248,0.488,0.372,1.12,0.372,1.896c0,0.859-0.172,1.641-0.516,2.34
		c-0.345,0.703-0.981,1.052-1.907,1.052C437.855,47.976,437.24,47.682,436.853,47.093z M435.896,41.562
		c-0.71,0.828-1.063,1.942-1.063,3.34c0,1.304,0.334,2.344,1.009,3.117c0.672,0.773,1.58,1.163,2.724,1.163
		c1.373,0,2.384-0.438,3.037-1.313c0.652-0.874,0.979-1.984,0.979-3.325c0-1.386-0.371-2.436-1.11-3.15
		c-0.74-0.715-1.647-1.074-2.718-1.074C437.558,40.319,436.605,40.733,435.896,41.562z"/>
	<path d="M444.208,40.562h1.43v5.521c0,0.423,0.067,0.77,0.202,1.04c0.249,0.497,0.712,0.745,1.39,0.745
		c0.973,0,1.636-0.436,1.988-1.307c0.19-0.463,0.287-1.104,0.287-1.917v-4.083h1.396v8.316h-1.318l0.015-1.227
		c-0.181,0.316-0.406,0.583-0.675,0.801c-0.533,0.433-1.181,0.65-1.941,0.65c-1.188,0-1.994-0.396-2.424-1.187
		c-0.232-0.423-0.35-0.991-0.35-1.7V40.562z"/>
	<path d="M453.08,48.878v-8.316h1.328v1.181c0.393-0.487,0.81-0.837,1.25-1.049c0.44-0.212,0.93-0.319,1.468-0.319
		c1.181,0,1.977,0.411,2.392,1.236c0.229,0.448,0.342,1.092,0.342,1.933v5.334h-1.421v-5.242c0-0.506-0.076-0.914-0.227-1.227
		c-0.249-0.516-0.698-0.776-1.35-0.776c-0.331,0-0.604,0.034-0.816,0.102c-0.383,0.113-0.719,0.34-1.009,0.684
		c-0.233,0.273-0.384,0.558-0.454,0.85s-0.104,0.711-0.104,1.254v4.356H453.08z"/>
	<path d="M465.126,40.319c0.938,0,1.7,0.23,2.289,0.684c0.586,0.457,0.939,1.239,1.058,2.353h-1.358
		c-0.083-0.512-0.271-0.938-0.566-1.276c-0.294-0.34-0.769-0.509-1.422-0.509c-0.89,0-1.526,0.436-1.908,1.304
		c-0.248,0.564-0.374,1.261-0.374,2.089c0,0.834,0.177,1.534,0.527,2.104c0.354,0.57,0.908,0.853,1.663,0.853
		c0.58,0,1.04-0.175,1.377-0.531c0.341-0.355,0.574-0.84,0.703-1.457h1.358c-0.153,1.104-0.543,1.911-1.162,2.42
		c-0.623,0.509-1.417,0.764-2.385,0.764c-1.088,0-1.954-0.396-2.602-1.19c-0.646-0.794-0.971-1.789-0.971-2.979
		c0-1.46,0.355-2.595,1.064-3.408C463.126,40.728,464.029,40.319,465.126,40.319z"/>
	<path d="M469.872,48.878v-8.276h1.42v8.276H469.872z M469.872,39.056V37.47h1.42v1.586H469.872z"/>
	<path d="M473.439,48.878V37.47h1.398v11.408H473.439z"/>
	<path d="M482.8,47.093c-0.388-0.592-0.581-1.328-0.581-2.215c0-0.92,0.193-1.708,0.581-2.359c0.389-0.653,1.01-0.979,1.864-0.979
		c0.963,0,1.641,0.383,2.033,1.147c0.249,0.488,0.375,1.12,0.375,1.896c0,0.859-0.174,1.641-0.519,2.34
		c-0.344,0.703-0.979,1.052-1.905,1.052C483.805,47.976,483.188,47.682,482.8,47.093z M481.845,41.562
		c-0.709,0.828-1.064,1.942-1.064,3.34c0,1.304,0.337,2.344,1.011,3.117c0.673,0.773,1.581,1.163,2.726,1.163
		c1.371,0,2.384-0.438,3.037-1.313c0.65-0.874,0.977-1.984,0.977-3.325c0-1.386-0.369-2.436-1.11-3.15
		c-0.74-0.715-1.646-1.074-2.716-1.074C483.508,40.319,482.554,40.733,481.845,41.562z"/>
	<path d="M490.538,39.295c0.021-0.58,0.121-1.003,0.303-1.273c0.326-0.476,0.955-0.715,1.888-0.715c0.086,0,0.178,0.003,0.27,0.009
		c0.096,0.006,0.2,0.012,0.319,0.021v1.273c-0.144-0.009-0.25-0.015-0.314-0.019c-0.064-0.003-0.126-0.003-0.183-0.003
		c-0.423,0-0.678,0.11-0.761,0.328c-0.083,0.221-0.124,0.782-0.124,1.684h1.382v1.102h-1.397v7.175h-1.382v-7.175h-1.156v-1.102
		h1.156V39.295z"/>
	<path d="M504.018,37.16c1.444,0,2.564,0.38,3.362,1.142c0.797,0.761,1.239,1.625,1.328,2.595h-1.507
		c-0.172-0.736-0.512-1.319-1.021-1.749c-0.509-0.429-1.226-0.644-2.147-0.644c-1.122,0-2.03,0.396-2.721,1.184
		c-0.69,0.789-1.037,2-1.037,3.629c0,1.337,0.313,2.42,0.937,3.252c0.622,0.831,1.555,1.245,2.791,1.245
		c1.138,0,2.006-0.438,2.602-1.313c0.315-0.46,0.552-1.064,0.707-1.816h1.506c-0.135,1.2-0.581,2.209-1.336,3.022
		c-0.904,0.979-2.127,1.466-3.666,1.466c-1.325,0-2.437-0.401-3.337-1.202c-1.186-1.062-1.779-2.7-1.779-4.917
		c0-1.681,0.444-3.062,1.336-4.138C500.997,37.746,502.324,37.16,504.018,37.16z"/>
	<path d="M512.222,45.5c0.253-0.147,0.634-0.251,1.142-0.319l0.846-0.11c0.26-0.031,0.523-0.083,0.792-0.153
		c0.269-0.074,0.489-0.163,0.661-0.273v1.125c0,0.859-0.39,1.479-1.166,1.856c-0.46,0.23-0.938,0.344-1.43,0.344
		c-0.401,0-0.751-0.117-1.047-0.35c-0.295-0.233-0.443-0.552-0.443-0.958C511.576,46.133,511.791,45.743,512.222,45.5z
		 M510.84,44.902c-0.481,0.423-0.723,1.021-0.723,1.795c0,0.702,0.244,1.288,0.734,1.757c0.488,0.466,1.118,0.703,1.89,0.703
		c0.642,0,1.23-0.138,1.763-0.411c0.534-0.276,0.943-0.598,1.227-0.972c0.048,0.331,0.128,0.589,0.241,0.77
		c0.218,0.34,0.567,0.512,1.049,0.512c0.196,0,0.352-0.006,0.465-0.024c0.115-0.016,0.281-0.052,0.497-0.117v-1.031
		c-0.087,0.015-0.17,0.027-0.248,0.034c-0.078,0.009-0.147,0.012-0.21,0.012c-0.19,0-0.316-0.043-0.376-0.132
		c-0.061-0.089-0.089-0.206-0.089-0.35v-4.792c0-0.786-0.303-1.365-0.91-1.74c-0.61-0.371-1.404-0.558-2.383-0.558
		c-0.844,0-1.586,0.199-2.225,0.601c-0.64,0.402-0.973,1.114-0.997,2.142h1.304c0.053-0.43,0.163-0.755,0.335-0.973
		c0.304-0.393,0.822-0.589,1.552-0.589c0.632,0,1.117,0.107,1.456,0.322c0.339,0.215,0.509,0.562,0.509,1.037
		c0,0.233-0.032,0.411-0.094,0.534c-0.108,0.23-0.323,0.365-0.644,0.405l-2.229,0.279C511.952,44.215,511.321,44.476,510.84,44.902z
		"/>
	<path d="M519.346,48.878v-8.316h1.329v1.181c0.393-0.487,0.81-0.837,1.248-1.049c0.44-0.212,0.93-0.319,1.468-0.319
		c1.182,0,1.978,0.411,2.392,1.236c0.229,0.448,0.342,1.092,0.342,1.933v5.334h-1.42v-5.242c0-0.506-0.075-0.914-0.226-1.227
		c-0.249-0.516-0.699-0.776-1.352-0.776c-0.331,0-0.603,0.034-0.814,0.102c-0.384,0.113-0.721,0.34-1.009,0.684
		c-0.233,0.273-0.386,0.558-0.454,0.85c-0.071,0.292-0.106,0.711-0.106,1.254v4.356H519.346z"/>
	<path d="M529.901,45.5c0.255-0.147,0.636-0.251,1.142-0.319l0.847-0.11c0.258-0.031,0.522-0.083,0.791-0.153
		c0.271-0.074,0.491-0.163,0.661-0.273v1.125c0,0.859-0.388,1.479-1.164,1.856c-0.462,0.23-0.938,0.344-1.43,0.344
		c-0.404,0-0.753-0.117-1.049-0.35c-0.295-0.233-0.441-0.552-0.441-0.958C529.258,46.133,529.473,45.743,529.901,45.5z
		 M528.52,44.902c-0.481,0.423-0.723,1.021-0.723,1.795c0,0.702,0.246,1.288,0.733,1.757c0.491,0.466,1.12,0.703,1.893,0.703
		c0.642,0,1.228-0.138,1.761-0.411c0.534-0.276,0.942-0.598,1.228-0.972c0.048,0.331,0.127,0.589,0.242,0.77
		c0.217,0.34,0.566,0.512,1.046,0.512c0.198,0,0.354-0.006,0.467-0.024c0.113-0.016,0.279-0.052,0.497-0.117v-1.031
		c-0.088,0.015-0.171,0.027-0.249,0.034c-0.076,0.009-0.147,0.012-0.208,0.012c-0.192,0-0.317-0.043-0.378-0.132
		c-0.058-0.089-0.089-0.206-0.089-0.35v-4.792c0-0.786-0.304-1.365-0.908-1.74c-0.61-0.371-1.404-0.558-2.383-0.558
		c-0.844,0-1.586,0.199-2.226,0.601s-0.972,1.114-0.999,2.142h1.306c0.052-0.43,0.164-0.755,0.334-0.973
		c0.306-0.393,0.824-0.589,1.554-0.589c0.631,0,1.117,0.107,1.454,0.322c0.341,0.215,0.51,0.562,0.51,1.037
		c0,0.233-0.031,0.411-0.093,0.534c-0.11,0.23-0.325,0.365-0.646,0.405l-2.229,0.279C529.632,44.215,529.001,44.476,528.52,44.902z"
		/>
	<path d="M538.567,42.439c0.438-0.537,1.008-0.807,1.712-0.807c0.632,0,1.163,0.251,1.592,0.758c0.43,0.503,0.645,1.282,0.645,2.334
		c0,1.04-0.208,1.837-0.626,2.393c-0.415,0.559-0.947,0.837-1.595,0.837c-0.833,0-1.438-0.3-1.816-0.902
		c-0.379-0.601-0.567-1.347-0.567-2.236C537.911,43.771,538.129,42.979,538.567,42.439z M537.363,41.746
		c-0.617,0.886-0.928,1.936-0.928,3.147c0,1.295,0.341,2.332,1.019,3.111s1.479,1.168,2.406,1.168c0.575,0,1.085-0.113,1.529-0.34
		c0.445-0.23,0.832-0.598,1.157-1.11v1.156h1.257V37.433h-1.343v4.199c-0.316-0.386-0.597-0.659-0.846-0.816
		c-0.431-0.267-0.963-0.402-1.6-0.402C538.867,40.415,537.981,40.856,537.363,41.746z"/>
	<path d="M547.583,45.5c0.254-0.147,0.634-0.251,1.142-0.319l0.847-0.11c0.258-0.031,0.521-0.083,0.791-0.153
		c0.271-0.074,0.488-0.163,0.66-0.273v1.125c0,0.859-0.389,1.479-1.166,1.856c-0.46,0.23-0.936,0.344-1.428,0.344
		c-0.403,0-0.753-0.117-1.048-0.35c-0.294-0.233-0.441-0.552-0.441-0.958C546.939,46.133,547.152,45.743,547.583,45.5z
		 M546.2,44.902c-0.481,0.423-0.721,1.021-0.721,1.795c0,0.702,0.243,1.288,0.732,1.757c0.489,0.466,1.12,0.703,1.89,0.703
		c0.643,0,1.23-0.138,1.764-0.411c0.534-0.276,0.942-0.598,1.228-0.972c0.046,0.331,0.126,0.589,0.239,0.77
		c0.218,0.34,0.567,0.512,1.049,0.512c0.196,0,0.354-0.006,0.467-0.024c0.113-0.016,0.279-0.052,0.497-0.117v-1.031
		c-0.089,0.015-0.172,0.027-0.249,0.034c-0.078,0.009-0.147,0.012-0.21,0.012c-0.191,0-0.317-0.043-0.376-0.132
		c-0.062-0.089-0.089-0.206-0.089-0.35v-4.792c0-0.786-0.304-1.365-0.909-1.74c-0.612-0.371-1.406-0.558-2.384-0.558
		c-0.845,0-1.586,0.199-2.226,0.601c-0.638,0.402-0.973,1.114-0.997,2.142h1.304c0.053-0.43,0.164-0.755,0.335-0.973
		c0.305-0.393,0.823-0.589,1.552-0.589c0.632,0,1.117,0.107,1.457,0.322c0.339,0.215,0.51,0.562,0.51,1.037
		c0,0.233-0.032,0.411-0.096,0.534c-0.107,0.23-0.322,0.365-0.644,0.405l-2.228,0.279C547.313,44.215,546.682,44.476,546.2,44.902z"
		/>
	<path d="M110.256,18.313c1.444,0,2.565,0.38,3.362,1.141c0.798,0.761,1.24,1.626,1.329,2.595h-1.507
		c-0.17-0.736-0.511-1.319-1.021-1.749c-0.51-0.43-1.226-0.644-2.147-0.644c-1.124,0-2.03,0.396-2.722,1.184
		c-0.691,0.788-1.036,2-1.036,3.629c0,1.337,0.312,2.42,0.936,3.251c0.624,0.832,1.555,1.246,2.792,1.246
		c1.139,0,2.005-0.438,2.602-1.313c0.315-0.46,0.551-1.064,0.706-1.816h1.506c-0.134,1.199-0.58,2.208-1.335,3.021
		c-0.907,0.979-2.127,1.466-3.665,1.466c-1.325,0-2.438-0.402-3.339-1.203c-1.186-1.061-1.778-2.699-1.778-4.917
		c0-1.681,0.445-3.062,1.336-4.138C107.235,18.898,108.563,18.313,110.256,18.313z"/>
	<path d="M118.195,28.246c-0.388-0.592-0.582-1.329-0.582-2.215c0-0.92,0.194-1.709,0.582-2.359
		c0.388-0.653,1.009-0.979,1.864-0.979c0.962,0,1.641,0.384,2.035,1.147c0.249,0.488,0.373,1.12,0.373,1.896
		c0,0.859-0.172,1.641-0.517,2.34c-0.344,0.703-0.979,1.052-1.906,1.052C119.199,29.129,118.583,28.834,118.195,28.246z
		 M117.241,22.714c-0.709,0.829-1.064,1.942-1.064,3.341c0,1.304,0.336,2.344,1.009,3.117c0.673,0.773,1.582,1.163,2.726,1.163
		c1.372,0,2.384-0.438,3.036-1.313c0.652-0.874,0.979-1.985,0.979-3.325c0-1.387-0.371-2.436-1.11-3.15
		c-0.74-0.715-1.646-1.074-2.717-1.074C118.902,21.472,117.949,21.886,117.241,22.714z"/>
	<path d="M125.584,30.031v-8.316h1.327v1.181c0.394-0.488,0.81-0.837,1.25-1.049c0.44-0.211,0.93-0.319,1.468-0.319
		c1.18,0,1.978,0.411,2.392,1.236c0.227,0.448,0.341,1.092,0.341,1.933v5.334h-1.421v-5.243c0-0.506-0.075-0.914-0.226-1.227
		c-0.249-0.515-0.699-0.776-1.351-0.776c-0.332,0-0.604,0.034-0.815,0.101c-0.384,0.114-0.72,0.341-1.01,0.684
		c-0.232,0.273-0.384,0.559-0.454,0.85c-0.07,0.292-0.105,0.712-0.105,1.255v4.356H125.584z"/>
	<path d="M133.912,27.42h1.344c0.041,0.466,0.157,0.825,0.349,1.073c0.352,0.448,0.963,0.675,1.833,0.675
		c0.518,0,0.972-0.114,1.367-0.337c0.394-0.227,0.59-0.574,0.59-1.046c0-0.356-0.158-0.629-0.473-0.816
		c-0.203-0.113-0.602-0.245-1.197-0.396l-1.11-0.279c-0.708-0.175-1.231-0.371-1.568-0.589c-0.601-0.377-0.9-0.902-0.9-1.568
		c0-0.788,0.283-1.423,0.85-1.911c0.567-0.487,1.329-0.73,2.287-0.73c1.252,0,2.156,0.368,2.71,1.102
		c0.347,0.466,0.515,0.969,0.504,1.506h-1.32c-0.026-0.313-0.137-0.601-0.334-0.862c-0.32-0.365-0.877-0.549-1.669-0.549
		c-0.528,0-0.928,0.102-1.199,0.301c-0.271,0.203-0.408,0.469-0.408,0.801c0,0.362,0.179,0.653,0.536,0.871
		c0.207,0.129,0.512,0.242,0.917,0.34l0.924,0.224c1.004,0.246,1.677,0.481,2.019,0.708c0.544,0.356,0.816,0.917,0.816,1.684
		c0,0.739-0.281,1.38-0.843,1.917c-0.562,0.54-1.417,0.81-2.567,0.81c-1.237,0-2.113-0.282-2.628-0.843
		C134.223,28.945,133.948,28.249,133.912,27.42z"/>
	<path d="M144.138,23.441c0.434-0.463,0.972-0.696,1.615-0.696c0.895,0,1.535,0.337,1.917,1.012
		c0.207,0.362,0.339,0.844,0.396,1.451h-4.621C143.473,24.494,143.703,23.905,144.138,23.441z M142.996,22.779
		c-0.725,0.832-1.086,1.917-1.086,3.252c0,1.356,0.359,2.411,1.079,3.166c0.719,0.751,1.597,1.129,2.632,1.129
		c0.425,0,0.805-0.043,1.142-0.123c0.625-0.147,1.151-0.426,1.576-0.841c0.254-0.236,0.483-0.543,0.687-0.92
		c0.205-0.375,0.325-0.715,0.361-1.021h-1.374c-0.104,0.368-0.279,0.693-0.528,0.972c-0.436,0.482-1.018,0.721-1.748,0.721
		c-0.782,0-1.359-0.255-1.732-0.764c-0.373-0.509-0.572-1.187-0.597-2.031h6.095c0-0.84-0.042-1.451-0.124-1.834
		c-0.094-0.558-0.279-1.046-0.559-1.466c-0.29-0.438-0.712-0.797-1.267-1.074c-0.554-0.279-1.125-0.417-1.715-0.417
		C144.668,21.527,143.721,21.944,142.996,22.779z"/>
	<path d="M151.216,30.031v-8.276h1.42v8.276H151.216z M151.216,20.208v-1.586h1.42v1.586H151.216z"/>
	<path d="M154.784,30.031V18.623h1.398v11.408H154.784z"/>
	<path d="M164.233,23.592c0.437-0.537,1.008-0.807,1.712-0.807c0.63,0,1.161,0.251,1.59,0.758c0.431,0.503,0.646,1.282,0.646,2.334
		c0,1.04-0.208,1.837-0.626,2.393c-0.416,0.558-0.949,0.837-1.595,0.837c-0.833,0-1.439-0.301-1.816-0.902
		c-0.378-0.601-0.567-1.347-0.567-2.236C163.578,24.923,163.796,24.132,164.233,23.592z M163.03,22.898
		c-0.619,0.887-0.928,1.936-0.928,3.147c0,1.294,0.339,2.332,1.017,3.111c0.678,0.779,1.481,1.168,2.407,1.168
		c0.574,0,1.085-0.113,1.53-0.34c0.445-0.23,0.832-0.598,1.157-1.11v1.156h1.258V18.585h-1.342v4.2
		c-0.317-0.387-0.6-0.66-0.848-0.816c-0.428-0.267-0.962-0.402-1.599-0.402C164.532,21.567,163.648,22.009,163.03,22.898z"/>
	<path d="M173.294,23.441c0.436-0.463,0.974-0.696,1.616-0.696c0.895,0,1.534,0.337,1.917,1.012
		c0.207,0.362,0.339,0.844,0.396,1.451h-4.62C172.628,24.494,172.86,23.905,173.294,23.441z M172.155,22.779
		c-0.726,0.832-1.087,1.917-1.087,3.252c0,1.356,0.359,2.411,1.078,3.166c0.719,0.751,1.597,1.129,2.633,1.129
		c0.423,0,0.804-0.043,1.14-0.123c0.627-0.147,1.152-0.426,1.577-0.841c0.255-0.236,0.483-0.543,0.688-0.92
		c0.204-0.375,0.325-0.715,0.36-1.021h-1.375c-0.103,0.368-0.279,0.693-0.527,0.972c-0.434,0.482-1.017,0.721-1.746,0.721
		c-0.784,0-1.359-0.255-1.731-0.764c-0.375-0.509-0.572-1.187-0.6-2.031h6.097c0-0.84-0.042-1.451-0.125-1.834
		c-0.093-0.558-0.281-1.046-0.56-1.466c-0.29-0.438-0.712-0.797-1.266-1.074c-0.554-0.279-1.125-0.417-1.716-0.417
		C173.825,21.527,172.877,21.944,172.155,22.779z"/>
	<path d="M184.83,30.031v-8.316h1.327v1.436c0.109-0.279,0.375-0.62,0.801-1.021c0.423-0.398,0.914-0.601,1.468-0.601
		c0.026,0,0.07,0.003,0.132,0.009c0.063,0.003,0.168,0.015,0.319,0.031v1.476c-0.084-0.016-0.161-0.028-0.23-0.031
		c-0.07-0.006-0.146-0.009-0.229-0.009c-0.706,0-1.246,0.227-1.623,0.678c-0.379,0.454-0.568,0.976-0.568,1.568v4.782H184.83z"/>
	<path d="M191.846,23.441c0.434-0.463,0.972-0.696,1.615-0.696c0.895,0,1.534,0.337,1.917,1.012
		c0.207,0.362,0.339,0.844,0.396,1.451h-4.62C191.18,24.494,191.41,23.905,191.846,23.441z M190.703,22.779
		c-0.724,0.832-1.086,1.917-1.086,3.252c0,1.356,0.359,2.411,1.078,3.166c0.719,0.751,1.597,1.129,2.632,1.129
		c0.425,0,0.805-0.043,1.143-0.123c0.626-0.147,1.152-0.426,1.577-0.841c0.253-0.236,0.481-0.543,0.687-0.92
		c0.204-0.375,0.324-0.715,0.36-1.021h-1.375c-0.103,0.368-0.279,0.693-0.527,0.972c-0.436,0.482-1.017,0.721-1.749,0.721
		c-0.781,0-1.357-0.255-1.732-0.764c-0.371-0.509-0.572-1.187-0.597-2.031h6.096c0-0.84-0.042-1.451-0.125-1.834
		c-0.093-0.558-0.279-1.046-0.56-1.466c-0.289-0.438-0.71-0.797-1.266-1.074c-0.554-0.279-1.125-0.417-1.715-0.417
		C192.376,21.527,191.428,21.944,190.703,22.779z"/>
	<path d="M202.13,21.472c0.937,0,1.699,0.23,2.287,0.684c0.587,0.457,0.94,1.239,1.06,2.353h-1.359
		c-0.083-0.513-0.271-0.939-0.568-1.276c-0.294-0.34-0.767-0.509-1.42-0.509c-0.891,0-1.526,0.436-1.911,1.304
		c-0.249,0.564-0.371,1.261-0.371,2.089c0,0.834,0.175,1.534,0.527,2.104c0.353,0.571,0.905,0.853,1.661,0.853
		c0.582,0,1.04-0.175,1.379-0.531s0.572-0.84,0.703-1.457h1.359c-0.155,1.104-0.543,1.911-1.166,2.42
		c-0.62,0.509-1.416,0.764-2.383,0.764c-1.087,0-1.954-0.396-2.6-1.19c-0.649-0.794-0.971-1.788-0.971-2.979
		c0-1.46,0.354-2.595,1.063-3.408C200.13,21.88,201.032,21.472,202.13,21.472z"/>
	<path d="M206.874,30.031V18.585h1.399v4.255c0.33-0.42,0.629-0.715,0.891-0.887c0.451-0.294,1.014-0.441,1.686-0.441
		c1.206,0,2.024,0.423,2.454,1.267c0.233,0.46,0.35,1.098,0.35,1.917v5.334h-1.438v-5.243c0-0.61-0.077-1.058-0.231-1.343
		c-0.254-0.454-0.731-0.681-1.43-0.681c-0.58,0-1.105,0.199-1.577,0.595c-0.471,0.398-0.706,1.153-0.706,2.261v4.411H206.874z"/>
	<path d="M217.477,23.441c0.436-0.463,0.972-0.696,1.615-0.696c0.896,0,1.536,0.337,1.917,1.012
		c0.208,0.362,0.339,0.844,0.397,1.451h-4.62C216.813,24.494,217.043,23.905,217.477,23.441z M216.336,22.779
		c-0.726,0.832-1.087,1.917-1.087,3.252c0,1.356,0.36,2.411,1.08,3.166c0.719,0.751,1.597,1.129,2.632,1.129
		c0.425,0,0.805-0.043,1.141-0.123c0.626-0.147,1.152-0.426,1.577-0.841c0.253-0.236,0.481-0.543,0.687-0.92
		c0.204-0.375,0.325-0.715,0.36-1.021h-1.374c-0.104,0.368-0.279,0.693-0.528,0.972c-0.436,0.482-1.017,0.721-1.747,0.721
		c-0.782,0-1.359-0.255-1.731-0.764c-0.373-0.509-0.572-1.187-0.598-2.031h6.095c0-0.84-0.042-1.451-0.123-1.834
		c-0.095-0.558-0.281-1.046-0.56-1.466c-0.29-0.438-0.713-0.797-1.266-1.074c-0.554-0.279-1.125-0.417-1.716-0.417
		C218.008,21.527,217.062,21.944,216.336,22.779z"/>
	<path d="M224.594,30.031v-8.316h1.328v1.436c0.107-0.279,0.375-0.62,0.799-1.021c0.425-0.398,0.913-0.601,1.468-0.601
		c0.024,0,0.071,0.003,0.132,0.009c0.063,0.003,0.167,0.015,0.317,0.031v1.476c-0.081-0.016-0.158-0.028-0.229-0.031
		c-0.07-0.006-0.147-0.009-0.229-0.009c-0.704,0-1.245,0.227-1.624,0.678c-0.377,0.454-0.566,0.976-0.566,1.568v4.782H224.594z"/>
	<path d="M233.054,21.472c0.937,0,1.698,0.23,2.286,0.684c0.589,0.457,0.941,1.239,1.06,2.353h-1.357
		c-0.083-0.513-0.273-0.939-0.567-1.276c-0.294-0.34-0.77-0.509-1.42-0.509c-0.891,0-1.528,0.436-1.911,1.304
		c-0.249,0.564-0.373,1.261-0.373,2.089c0,0.834,0.176,1.534,0.529,2.104c0.351,0.571,0.905,0.853,1.659,0.853
		c0.582,0,1.04-0.175,1.379-0.531c0.341-0.356,0.574-0.84,0.704-1.457h1.357c-0.155,1.104-0.543,1.911-1.164,2.42
		s-1.416,0.764-2.384,0.764c-1.087,0-1.956-0.396-2.601-1.19c-0.647-0.794-0.971-1.788-0.971-2.979c0-1.46,0.354-2.595,1.063-3.408
		C231.053,21.88,231.956,21.472,233.054,21.472z"/>
	<path d="M237.797,30.031V18.585h1.399v4.255c0.331-0.42,0.628-0.715,0.893-0.887c0.451-0.294,1.012-0.441,1.684-0.441
		c1.207,0,2.024,0.423,2.454,1.267c0.233,0.46,0.35,1.098,0.35,1.917v5.334h-1.436v-5.243c0-0.61-0.078-1.058-0.233-1.343
		c-0.254-0.454-0.73-0.681-1.429-0.681c-0.58,0-1.106,0.199-1.577,0.595c-0.471,0.398-0.706,1.153-0.706,2.261v4.411H237.797z"/>
	<path d="M248.401,23.441c0.434-0.463,0.973-0.696,1.614-0.696c0.896,0,1.535,0.337,1.918,1.012
		c0.207,0.362,0.339,0.844,0.396,1.451h-4.62C247.734,24.494,247.966,23.905,248.401,23.441z M247.26,22.779
		c-0.726,0.832-1.089,1.917-1.089,3.252c0,1.356,0.36,2.411,1.08,3.166c0.72,0.751,1.597,1.129,2.632,1.129
		c0.425,0,0.805-0.043,1.143-0.123c0.625-0.147,1.152-0.426,1.577-0.841c0.253-0.236,0.481-0.543,0.687-0.92
		c0.204-0.375,0.324-0.715,0.36-1.021h-1.374c-0.104,0.368-0.281,0.693-0.529,0.972c-0.434,0.482-1.017,0.721-1.747,0.721
		c-0.781,0-1.359-0.255-1.73-0.764c-0.374-0.509-0.574-1.187-0.6-2.031h6.097c0-0.84-0.043-1.451-0.125-1.834
		c-0.092-0.558-0.278-1.046-0.559-1.466c-0.29-0.438-0.711-0.797-1.265-1.074c-0.554-0.279-1.126-0.417-1.716-0.417
		C248.932,21.527,247.983,21.944,247.26,22.779z"/>
	<path d="M254.966,27.42h1.342c0.042,0.466,0.158,0.825,0.352,1.073c0.351,0.448,0.961,0.675,1.831,0.675
		c0.519,0,0.973-0.114,1.367-0.337c0.394-0.227,0.59-0.574,0.59-1.046c0-0.356-0.158-0.629-0.474-0.816
		c-0.201-0.113-0.6-0.245-1.195-0.396l-1.11-0.279c-0.71-0.175-1.233-0.371-1.569-0.589c-0.6-0.377-0.9-0.902-0.9-1.568
		c0-0.788,0.284-1.423,0.85-1.911c0.566-0.487,1.329-0.73,2.287-0.73c1.251,0,2.155,0.368,2.71,1.102
		c0.347,0.466,0.516,0.969,0.505,1.506h-1.321c-0.024-0.313-0.138-0.601-0.334-0.862c-0.321-0.365-0.877-0.549-1.669-0.549
		c-0.528,0-0.928,0.102-1.2,0.301c-0.271,0.203-0.408,0.469-0.408,0.801c0,0.362,0.179,0.653,0.537,0.871
		c0.206,0.129,0.513,0.242,0.916,0.34l0.925,0.224c1.003,0.246,1.676,0.481,2.017,0.708c0.545,0.356,0.816,0.917,0.816,1.684
		c0,0.739-0.281,1.38-0.842,1.917c-0.563,0.54-1.417,0.81-2.566,0.81c-1.238,0-2.114-0.282-2.629-0.843
		C255.277,28.945,255.003,28.249,254.966,27.42z"/>
	<path d="M269.611,23.441c0.434-0.463,0.973-0.696,1.614-0.696c0.896,0,1.535,0.337,1.918,1.012
		c0.207,0.362,0.339,0.844,0.396,1.451h-4.62C268.945,24.494,269.175,23.905,269.611,23.441z M268.468,22.779
		c-0.724,0.832-1.086,1.917-1.086,3.252c0,1.356,0.359,2.411,1.078,3.166c0.719,0.751,1.597,1.129,2.632,1.129
		c0.425,0,0.807-0.043,1.143-0.123c0.625-0.147,1.152-0.426,1.575-0.841c0.254-0.236,0.483-0.543,0.687-0.92
		c0.206-0.375,0.325-0.715,0.362-1.021h-1.374c-0.104,0.368-0.281,0.693-0.529,0.972c-0.434,0.482-1.015,0.721-1.747,0.721
		c-0.781,0-1.359-0.255-1.73-0.764c-0.375-0.509-0.574-1.187-0.598-2.031h6.095c0-0.84-0.042-1.451-0.124-1.834
		c-0.094-0.558-0.279-1.046-0.56-1.466c-0.288-0.438-0.711-0.797-1.265-1.074c-0.554-0.279-1.126-0.417-1.716-0.417
		C270.142,21.527,269.194,21.944,268.468,22.779z"/>
	<path d="M276.688,30.031v-8.316h1.328v1.181c0.393-0.488,0.81-0.837,1.25-1.049c0.44-0.211,0.928-0.319,1.468-0.319
		c1.18,0,1.977,0.411,2.391,1.236c0.229,0.448,0.342,1.092,0.342,1.933v5.334h-1.422v-5.243c0-0.506-0.075-0.914-0.226-1.227
		c-0.249-0.515-0.698-0.776-1.351-0.776c-0.33,0-0.602,0.034-0.814,0.101c-0.383,0.114-0.719,0.341-1.009,0.684
		c-0.233,0.273-0.383,0.559-0.454,0.85c-0.07,0.292-0.104,0.712-0.104,1.255v4.356H276.688z"/>
	<path d="M104.75,46.268h1.344c0.042,0.466,0.158,0.825,0.35,1.074c0.352,0.448,0.962,0.675,1.832,0.675
		c0.518,0,0.973-0.113,1.367-0.337c0.394-0.227,0.591-0.574,0.591-1.046c0-0.356-0.158-0.629-0.474-0.816
		c-0.202-0.114-0.601-0.246-1.196-0.396l-1.11-0.279c-0.709-0.175-1.232-0.371-1.568-0.589c-0.601-0.377-0.901-0.902-0.901-1.567
		c0-0.789,0.284-1.423,0.851-1.911c0.566-0.488,1.329-0.73,2.287-0.73c1.252,0,2.156,0.368,2.709,1.101
		c0.347,0.466,0.516,0.969,0.505,1.506h-1.32c-0.026-0.313-0.138-0.602-0.334-0.862c-0.321-0.365-0.877-0.549-1.669-0.549
		c-0.528,0-0.928,0.101-1.199,0.3c-0.272,0.203-0.408,0.47-0.408,0.801c0,0.362,0.179,0.653,0.536,0.871
		c0.207,0.129,0.512,0.243,0.916,0.341l0.924,0.224c1.004,0.246,1.677,0.482,2.019,0.709c0.544,0.355,0.815,0.917,0.815,1.684
		c0,0.739-0.282,1.38-0.843,1.917c-0.562,0.54-1.417,0.81-2.566,0.81c-1.237,0-2.113-0.282-2.628-0.844
		C105.063,47.792,104.787,47.096,104.75,46.268z"/>
	<path d="M116.421,40.319c0.937,0,1.699,0.23,2.287,0.684c0.588,0.457,0.941,1.239,1.06,2.353h-1.359
		c-0.083-0.512-0.271-0.938-0.567-1.276c-0.295-0.34-0.769-0.509-1.421-0.509c-0.891,0-1.527,0.436-1.91,1.304
		c-0.249,0.564-0.373,1.261-0.373,2.089c0,0.834,0.175,1.534,0.527,2.104c0.352,0.57,0.906,0.853,1.662,0.853
		c0.58,0,1.039-0.175,1.378-0.531c0.339-0.355,0.573-0.84,0.703-1.457h1.359c-0.155,1.104-0.544,1.911-1.165,2.42
		c-0.62,0.509-1.416,0.764-2.383,0.764c-1.087,0-1.954-0.396-2.602-1.19c-0.647-0.794-0.97-1.789-0.97-2.979
		c0-1.46,0.354-2.595,1.064-3.408C114.42,40.728,115.323,40.319,116.421,40.319z"/>
	<path d="M121.166,48.878v-8.276h1.421v8.276H121.166z M121.166,39.056V37.47h1.421v1.586H121.166z"/>
	<path d="M126.364,42.464c0.435-0.463,0.973-0.693,1.615-0.693c0.895,0,1.534,0.334,1.918,1.009
		c0.207,0.362,0.339,0.847,0.396,1.451h-4.62C125.698,43.516,125.929,42.927,126.364,42.464z M125.223,41.801
		c-0.726,0.834-1.087,1.917-1.087,3.251c0,1.359,0.359,2.411,1.079,3.166c0.72,0.751,1.597,1.129,2.632,1.129
		c0.424,0,0.805-0.04,1.142-0.123c0.626-0.147,1.152-0.426,1.576-0.84c0.254-0.236,0.483-0.543,0.688-0.92
		c0.204-0.374,0.324-0.715,0.361-1.019h-1.375c-0.104,0.365-0.279,0.69-0.528,0.97c-0.435,0.481-1.018,0.721-1.747,0.721
		c-0.782,0-1.359-0.254-1.731-0.764c-0.373-0.509-0.572-1.188-0.598-2.031h6.095c0-0.837-0.042-1.448-0.125-1.832
		c-0.093-0.562-0.279-1.049-0.559-1.469c-0.29-0.439-0.711-0.798-1.265-1.074c-0.554-0.279-1.126-0.417-1.716-0.417
		C126.894,40.55,125.946,40.967,125.223,41.801z"/>
	<path d="M133.535,48.878v-8.316h1.327v1.181c0.394-0.487,0.81-0.837,1.25-1.049c0.44-0.212,0.93-0.319,1.468-0.319
		c1.18,0,1.978,0.411,2.392,1.236c0.227,0.448,0.341,1.092,0.341,1.933v5.334h-1.421v-5.242c0-0.506-0.075-0.914-0.226-1.227
		c-0.249-0.516-0.699-0.776-1.351-0.776c-0.332,0-0.604,0.034-0.815,0.102c-0.383,0.113-0.72,0.34-1.01,0.684
		c-0.232,0.273-0.384,0.558-0.454,0.85c-0.069,0.292-0.105,0.711-0.105,1.254v4.356H133.535z"/>
	<path d="M145.582,40.319c0.937,0,1.699,0.23,2.287,0.684c0.587,0.457,0.94,1.239,1.06,2.353h-1.359
		c-0.083-0.512-0.272-0.938-0.566-1.276c-0.295-0.34-0.77-0.509-1.421-0.509c-0.89,0-1.527,0.436-1.91,1.304
		c-0.249,0.564-0.373,1.261-0.373,2.089c0,0.834,0.175,1.534,0.528,2.104c0.351,0.57,0.906,0.853,1.661,0.853
		c0.58,0,1.039-0.175,1.378-0.531c0.34-0.355,0.574-0.84,0.703-1.457h1.359c-0.156,1.104-0.544,1.911-1.165,2.42
		s-1.416,0.764-2.384,0.764c-1.087,0-1.955-0.396-2.601-1.19c-0.647-0.794-0.971-1.789-0.971-2.979c0-1.46,0.354-2.595,1.064-3.408
		S144.485,40.319,145.582,40.319z"/>
	<path d="M152.089,42.289c0.434-0.463,0.973-0.696,1.615-0.696c0.895,0,1.535,0.337,1.917,1.012
		c0.207,0.362,0.339,0.843,0.396,1.451h-4.621C151.424,43.341,151.655,42.752,152.089,42.289z M150.947,41.626
		c-0.725,0.831-1.086,1.917-1.086,3.251c0,1.356,0.359,2.411,1.079,3.166c0.719,0.751,1.597,1.128,2.632,1.128
		c0.425,0,0.805-0.042,1.142-0.123c0.625-0.147,1.151-0.426,1.576-0.84c0.254-0.236,0.483-0.543,0.688-0.92
		c0.205-0.374,0.325-0.715,0.361-1.021h-1.374c-0.104,0.368-0.279,0.693-0.528,0.973c-0.436,0.481-1.018,0.721-1.748,0.721
		c-0.782,0-1.359-0.254-1.732-0.764c-0.373-0.509-0.572-1.188-0.597-2.031h6.095c0-0.841-0.042-1.451-0.124-1.834
		c-0.094-0.559-0.279-1.046-0.559-1.466c-0.29-0.439-0.712-0.798-1.266-1.074c-0.554-0.279-1.126-0.417-1.716-0.417
		C152.619,40.375,151.672,40.792,150.947,41.626z"/>
	<path d="M158.654,46.268h1.343c0.042,0.466,0.158,0.825,0.349,1.074c0.352,0.448,0.963,0.675,1.833,0.675
		c0.518,0,0.973-0.113,1.366-0.337c0.394-0.227,0.59-0.574,0.59-1.046c0-0.356-0.157-0.629-0.473-0.816
		c-0.202-0.114-0.601-0.246-1.195-0.396l-1.111-0.279c-0.709-0.175-1.232-0.371-1.569-0.589c-0.601-0.377-0.9-0.902-0.9-1.567
		c0-0.789,0.283-1.423,0.851-1.911c0.567-0.488,1.329-0.73,2.286-0.73c1.253,0,2.156,0.368,2.71,1.101
		c0.347,0.466,0.515,0.969,0.505,1.506h-1.32c-0.026-0.313-0.137-0.602-0.333-0.862c-0.322-0.365-0.877-0.549-1.67-0.549
		c-0.528,0-0.928,0.101-1.2,0.3c-0.271,0.203-0.407,0.47-0.407,0.801c0,0.362,0.179,0.653,0.536,0.871
		c0.207,0.129,0.513,0.243,0.917,0.341l0.924,0.224c1.004,0.246,1.677,0.482,2.02,0.709c0.543,0.355,0.815,0.917,0.815,1.684
		c0,0.739-0.281,1.38-0.843,1.917c-0.562,0.54-1.417,0.81-2.566,0.81c-1.238,0-2.114-0.282-2.628-0.844
		C158.966,47.792,158.69,47.096,158.654,46.268z"/>
	<path d="M171.537,48.878V37.433h1.397v4.254c0.332-0.42,0.629-0.714,0.895-0.886c0.449-0.294,1.011-0.442,1.684-0.442
		c1.206,0,2.023,0.423,2.454,1.267c0.233,0.46,0.348,1.098,0.348,1.917v5.334h-1.436v-5.242c0-0.611-0.079-1.059-0.233-1.344
		c-0.254-0.454-0.73-0.681-1.428-0.681c-0.582,0-1.106,0.2-1.577,0.595c-0.471,0.399-0.707,1.153-0.707,2.261v4.411H171.537z"/>
	<path d="M180.345,40.562h1.429v5.521c0,0.423,0.066,0.77,0.203,1.04c0.247,0.497,0.71,0.745,1.388,0.745
		c0.974,0,1.637-0.436,1.989-1.307c0.19-0.463,0.287-1.104,0.287-1.917v-4.083h1.397v8.316h-1.321l0.017-1.227
		c-0.183,0.316-0.406,0.583-0.676,0.801c-0.534,0.433-1.181,0.65-1.942,0.65c-1.184,0-1.992-0.396-2.422-1.187
		c-0.233-0.423-0.35-0.991-0.35-1.7V40.562z"/>
	<path d="M189.217,48.878v-8.316h1.382v1.181c0.331-0.411,0.632-0.708,0.902-0.893c0.46-0.316,0.981-0.476,1.567-0.476
		c0.663,0,1.196,0.163,1.6,0.491c0.229,0.184,0.434,0.46,0.621,0.822c0.31-0.445,0.675-0.776,1.095-0.991
		c0.418-0.215,0.89-0.322,1.413-0.322c1.118,0,1.879,0.405,2.282,1.212c0.218,0.436,0.327,1.019,0.327,1.755v5.537h-1.451v-5.776
		c0-0.556-0.14-0.936-0.417-1.145c-0.276-0.206-0.614-0.31-1.012-0.31c-0.549,0-1.02,0.184-1.417,0.552
		c-0.396,0.368-0.593,0.982-0.593,1.841v4.837h-1.422v-5.43c0-0.561-0.066-0.975-0.201-1.233c-0.211-0.39-0.609-0.583-1.188-0.583
		c-0.528,0-1.008,0.206-1.44,0.614c-0.433,0.408-0.647,1.15-0.647,2.221v4.411H189.217z"/>
	<path d="M204.176,45.5c0.255-0.147,0.635-0.251,1.141-0.319l0.847-0.11c0.258-0.031,0.523-0.083,0.793-0.153
		c0.269-0.074,0.489-0.163,0.658-0.273v1.125c0,0.859-0.388,1.479-1.163,1.856c-0.462,0.23-0.939,0.344-1.43,0.344
		c-0.405,0-0.753-0.117-1.049-0.35c-0.294-0.233-0.441-0.552-0.441-0.958C203.532,46.133,203.746,45.743,204.176,45.5z
		 M202.794,44.902c-0.482,0.423-0.723,1.021-0.723,1.795c0,0.702,0.246,1.288,0.733,1.757c0.489,0.466,1.12,0.703,1.891,0.703
		c0.643,0,1.229-0.138,1.764-0.411c0.532-0.276,0.942-0.598,1.226-0.972c0.046,0.331,0.127,0.589,0.241,0.77
		c0.218,0.34,0.568,0.512,1.048,0.512c0.198,0,0.353-0.006,0.466-0.024c0.115-0.016,0.279-0.052,0.497-0.117v-1.031
		c-0.087,0.015-0.17,0.027-0.248,0.034c-0.077,0.009-0.147,0.012-0.21,0.012c-0.19,0-0.316-0.043-0.375-0.132
		c-0.06-0.089-0.089-0.206-0.089-0.35v-4.792c0-0.786-0.302-1.365-0.909-1.74c-0.61-0.371-1.404-0.558-2.384-0.558
		c-0.843,0-1.584,0.199-2.224,0.601c-0.639,0.402-0.971,1.114-0.998,2.142h1.305c0.052-0.43,0.164-0.755,0.334-0.973
		c0.305-0.393,0.823-0.589,1.552-0.589c0.632,0,1.117,0.107,1.458,0.322c0.339,0.215,0.507,0.562,0.507,1.037
		c0,0.233-0.03,0.411-0.093,0.534c-0.109,0.23-0.324,0.365-0.645,0.405l-2.229,0.279C203.907,44.215,203.275,44.476,202.794,44.902z
		"/>
	<path d="M211.3,48.878v-8.276h1.422v8.276H211.3z M211.3,39.056V37.47h1.422v1.586H211.3z"/>
	<path d="M214.83,48.878v-8.316h1.328v1.181c0.393-0.487,0.81-0.837,1.25-1.049c0.439-0.212,0.93-0.319,1.466-0.319
		c1.181,0,1.977,0.411,2.392,1.236c0.229,0.448,0.343,1.092,0.343,1.933v5.334h-1.422v-5.242c0-0.506-0.075-0.914-0.225-1.227
		c-0.249-0.516-0.7-0.776-1.352-0.776c-0.331,0-0.603,0.034-0.816,0.102c-0.382,0.113-0.719,0.34-1.008,0.684
		c-0.234,0.273-0.385,0.558-0.454,0.85c-0.07,0.292-0.105,0.711-0.105,1.254v4.356H214.83z"/>
	<path d="M225.433,42.289c0.434-0.463,0.973-0.696,1.615-0.696c0.896,0,1.534,0.337,1.917,1.012
		c0.207,0.362,0.339,0.843,0.396,1.451h-4.62C224.767,43.341,224.997,42.752,225.433,42.289z M224.29,41.626
		c-0.724,0.831-1.086,1.917-1.086,3.251c0,1.356,0.359,2.411,1.08,3.166c0.718,0.751,1.595,1.128,2.632,1.128
		c0.423,0,0.805-0.042,1.141-0.123c0.626-0.147,1.15-0.426,1.577-0.84c0.251-0.236,0.481-0.543,0.687-0.92
		c0.203-0.374,0.324-0.715,0.361-1.021h-1.375c-0.104,0.368-0.281,0.693-0.529,0.973c-0.434,0.481-1.017,0.721-1.745,0.721
		c-0.782,0-1.359-0.254-1.732-0.764c-0.373-0.509-0.572-1.188-0.6-2.031h6.097c0-0.841-0.041-1.451-0.124-1.834
		c-0.094-0.559-0.281-1.046-0.559-1.466c-0.291-0.439-0.713-0.798-1.267-1.074c-0.554-0.279-1.126-0.417-1.715-0.417
		C225.962,40.375,225.016,40.792,224.29,41.626z"/>
	<path d="M231.998,46.268h1.343c0.042,0.466,0.158,0.825,0.35,1.074c0.351,0.448,0.961,0.675,1.833,0.675
		c0.517,0,0.973-0.113,1.367-0.337c0.393-0.227,0.589-0.574,0.589-1.046c0-0.356-0.158-0.629-0.474-0.816
		c-0.203-0.114-0.6-0.246-1.195-0.396l-1.11-0.279c-0.709-0.175-1.232-0.371-1.569-0.589c-0.6-0.377-0.9-0.902-0.9-1.567
		c0-0.789,0.282-1.423,0.85-1.911c0.568-0.488,1.33-0.73,2.287-0.73c1.251,0,2.157,0.368,2.71,1.101
		c0.346,0.466,0.515,0.969,0.504,1.506h-1.319c-0.026-0.313-0.138-0.602-0.334-0.862c-0.322-0.365-0.877-0.549-1.67-0.549
		c-0.528,0-0.928,0.101-1.199,0.3c-0.271,0.203-0.408,0.47-0.408,0.801c0,0.362,0.178,0.653,0.537,0.871
		c0.207,0.129,0.513,0.243,0.916,0.341l0.923,0.224c1.004,0.246,1.678,0.482,2.019,0.709c0.544,0.355,0.816,0.917,0.816,1.684
		c0,0.739-0.281,1.38-0.842,1.917c-0.563,0.54-1.417,0.81-2.566,0.81c-1.238,0-2.114-0.282-2.629-0.844
		C232.309,47.792,232.034,47.096,231.998,46.268z"/>
	<path d="M246.42,42.439c0.438-0.537,1.009-0.807,1.713-0.807c0.631,0,1.161,0.251,1.591,0.758c0.429,0.503,0.646,1.282,0.646,2.334
		c0,1.04-0.208,1.837-0.625,2.393c-0.417,0.559-0.948,0.837-1.595,0.837c-0.833,0-1.44-0.3-1.817-0.902
		c-0.377-0.601-0.566-1.347-0.566-2.236C245.765,43.771,245.984,42.979,246.42,42.439z M245.217,41.746
		c-0.618,0.886-0.928,1.936-0.928,3.147c0,1.295,0.339,2.332,1.017,3.111c0.678,0.779,1.48,1.168,2.408,1.168
		c0.574,0,1.083-0.113,1.529-0.34c0.445-0.23,0.83-0.598,1.156-1.11v1.156h1.258V37.433h-1.344v4.199
		c-0.314-0.386-0.597-0.659-0.845-0.816c-0.431-0.267-0.963-0.402-1.601-0.402C246.72,40.415,245.835,40.856,245.217,41.746z"/>
	<path d="M253.688,40.562h1.428v5.521c0,0.423,0.068,0.77,0.203,1.04c0.249,0.497,0.712,0.745,1.39,0.745
		c0.974,0,1.637-0.436,1.988-1.307c0.192-0.463,0.289-1.104,0.289-1.917v-4.083h1.397v8.316h-1.319l0.014-1.227
		c-0.181,0.316-0.406,0.583-0.675,0.801c-0.534,0.433-1.181,0.65-1.942,0.65c-1.186,0-1.992-0.396-2.422-1.187
		c-0.233-0.423-0.35-0.991-0.35-1.7V40.562z"/>
	<path d="M271.97,37.16c1.445,0,2.566,0.38,3.364,1.142c0.796,0.761,1.239,1.625,1.327,2.595h-1.504
		c-0.172-0.736-0.513-1.319-1.021-1.749c-0.511-0.429-1.226-0.644-2.147-0.644c-1.125,0-2.031,0.396-2.721,1.184
		c-0.691,0.789-1.038,2-1.038,3.629c0,1.337,0.313,2.42,0.936,3.252c0.624,0.831,1.555,1.245,2.792,1.245
		c1.14,0,2.006-0.438,2.601-1.313c0.318-0.46,0.552-1.064,0.707-1.816h1.508c-0.136,1.2-0.581,2.209-1.337,3.022
		c-0.905,0.979-2.126,1.466-3.664,1.466c-1.325,0-2.439-0.401-3.339-1.202c-1.186-1.062-1.777-2.7-1.777-4.917
		c0-1.681,0.445-3.062,1.336-4.138C268.951,37.746,270.278,37.16,271.97,37.16z"/>
	<path d="M280.174,45.5c0.254-0.147,0.635-0.251,1.143-0.319l0.845-0.11c0.259-0.031,0.523-0.083,0.793-0.153
		c0.269-0.074,0.488-0.163,0.659-0.273v1.125c0,0.859-0.388,1.479-1.166,1.856c-0.46,0.23-0.936,0.344-1.428,0.344
		c-0.403,0-0.753-0.117-1.049-0.35c-0.294-0.233-0.442-0.552-0.442-0.958C279.53,46.133,279.745,45.743,280.174,45.5z
		 M278.792,44.902c-0.481,0.423-0.721,1.021-0.721,1.795c0,0.702,0.244,1.288,0.733,1.757c0.487,0.466,1.12,0.703,1.89,0.703
		c0.643,0,1.23-0.138,1.764-0.411c0.532-0.276,0.942-0.598,1.226-0.972c0.047,0.331,0.127,0.589,0.241,0.77
		c0.218,0.34,0.567,0.512,1.049,0.512c0.196,0,0.351-0.006,0.466-0.024c0.113-0.016,0.279-0.052,0.497-0.117v-1.031
		c-0.089,0.015-0.172,0.027-0.249,0.034c-0.078,0.009-0.147,0.012-0.21,0.012c-0.192,0-0.317-0.043-0.375-0.132
		c-0.06-0.089-0.091-0.206-0.091-0.35v-4.792c0-0.786-0.302-1.365-0.908-1.74c-0.612-0.371-1.407-0.558-2.385-0.558
		c-0.844,0-1.584,0.199-2.224,0.601c-0.638,0.402-0.972,1.114-0.997,2.142h1.304c0.052-0.43,0.165-0.755,0.334-0.973
		c0.305-0.393,0.824-0.589,1.552-0.589c0.632,0,1.117,0.107,1.457,0.322c0.337,0.215,0.508,0.562,0.508,1.037
		c0,0.233-0.031,0.411-0.094,0.534c-0.107,0.23-0.322,0.365-0.643,0.405l-2.229,0.279C279.906,44.215,279.274,44.476,278.792,44.902
		z"/>
	<path d="M287.299,48.878v-8.316h1.328v1.181c0.393-0.487,0.81-0.837,1.25-1.049c0.44-0.212,0.928-0.319,1.468-0.319
		c1.18,0,1.977,0.411,2.391,1.236c0.227,0.448,0.342,1.092,0.342,1.933v5.334h-1.422v-5.242c0-0.506-0.075-0.914-0.224-1.227
		c-0.248-0.516-0.699-0.776-1.351-0.776c-0.331,0-0.604,0.034-0.816,0.102c-0.383,0.113-0.719,0.34-1.009,0.684
		c-0.233,0.273-0.385,0.558-0.456,0.85c-0.069,0.292-0.104,0.711-0.104,1.254v4.356H287.299z"/>
	<path d="M297.856,45.5c0.253-0.147,0.633-0.251,1.141-0.319l0.845-0.11c0.259-0.031,0.524-0.083,0.793-0.153
		c0.268-0.074,0.489-0.163,0.661-0.273v1.125c0,0.859-0.39,1.479-1.166,1.856c-0.46,0.23-0.937,0.344-1.429,0.344
		c-0.403,0-0.753-0.117-1.048-0.35c-0.294-0.233-0.443-0.552-0.443-0.958C297.21,46.133,297.425,45.743,297.856,45.5z
		 M296.474,44.902c-0.482,0.423-0.724,1.021-0.724,1.795c0,0.702,0.245,1.288,0.735,1.757c0.489,0.466,1.12,0.703,1.891,0.703
		c0.641,0,1.229-0.138,1.762-0.411c0.532-0.276,0.942-0.598,1.227-0.972c0.046,0.331,0.127,0.589,0.241,0.77
		c0.216,0.34,0.567,0.512,1.048,0.512c0.196,0,0.353-0.006,0.466-0.024c0.113-0.016,0.279-0.052,0.497-0.117v-1.031
		c-0.087,0.015-0.172,0.027-0.249,0.034c-0.078,0.009-0.148,0.012-0.21,0.012c-0.192,0-0.316-0.043-0.377-0.132
		c-0.058-0.089-0.087-0.206-0.087-0.35v-4.792c0-0.786-0.304-1.365-0.909-1.74c-0.611-0.371-1.405-0.558-2.384-0.558
		c-0.844,0-1.586,0.199-2.224,0.601c-0.64,0.402-0.972,1.114-0.999,2.142h1.306c0.05-0.43,0.162-0.755,0.333-0.973
		c0.305-0.393,0.824-0.589,1.554-0.589c0.632,0,1.117,0.107,1.456,0.322c0.339,0.215,0.508,0.562,0.508,1.037
		c0,0.233-0.031,0.411-0.092,0.534c-0.109,0.23-0.324,0.365-0.645,0.405l-2.229,0.279C297.586,44.215,296.954,44.476,296.474,44.902
		z"/>
	<path d="M306.522,42.439c0.437-0.537,1.007-0.807,1.71-0.807c0.632,0,1.163,0.251,1.594,0.758c0.428,0.503,0.643,1.282,0.643,2.334
		c0,1.04-0.208,1.837-0.624,2.393c-0.417,0.559-0.948,0.837-1.595,0.837c-0.833,0-1.439-0.3-1.818-0.902
		c-0.377-0.601-0.567-1.347-0.567-2.236C305.864,43.771,306.083,42.979,306.522,42.439z M305.318,41.746
		c-0.62,0.886-0.93,1.936-0.93,3.147c0,1.295,0.341,2.332,1.019,3.111c0.678,0.779,1.48,1.168,2.407,1.168
		c0.575,0,1.084-0.113,1.529-0.34c0.445-0.23,0.832-0.598,1.158-1.11v1.156h1.258V37.433h-1.344v4.199
		c-0.316-0.386-0.597-0.659-0.845-0.816c-0.431-0.267-0.963-0.402-1.601-0.402C306.819,40.415,305.936,40.856,305.318,41.746z"/>
	<path d="M315.536,45.5c0.253-0.147,0.635-0.251,1.141-0.319l0.847-0.11c0.259-0.031,0.521-0.083,0.792-0.153
		c0.268-0.074,0.489-0.163,0.659-0.273v1.125c0,0.859-0.386,1.479-1.164,1.856c-0.461,0.23-0.937,0.344-1.428,0.344
		c-0.405,0-0.755-0.117-1.049-0.35c-0.294-0.233-0.442-0.552-0.442-0.958C314.892,46.133,315.106,45.743,315.536,45.5z
		 M314.154,44.902c-0.482,0.423-0.723,1.021-0.723,1.795c0,0.702,0.244,1.288,0.733,1.757c0.491,0.466,1.12,0.703,1.892,0.703
		c0.641,0,1.23-0.138,1.762-0.411c0.534-0.276,0.942-0.598,1.227-0.972c0.047,0.331,0.125,0.589,0.241,0.77
		c0.218,0.34,0.566,0.512,1.049,0.512c0.196,0,0.351-0.006,0.464-0.024c0.114-0.016,0.279-0.052,0.497-0.117v-1.031
		c-0.087,0.015-0.17,0.027-0.249,0.034c-0.077,0.009-0.147,0.012-0.208,0.012c-0.193,0-0.317-0.043-0.377-0.132
		c-0.06-0.089-0.089-0.206-0.089-0.35v-4.792c0-0.786-0.304-1.365-0.908-1.74c-0.612-0.371-1.407-0.558-2.384-0.558
		c-0.845,0-1.587,0.199-2.226,0.601c-0.64,0.402-0.972,1.114-0.999,2.142h1.305c0.051-0.43,0.163-0.755,0.333-0.973
		c0.305-0.393,0.824-0.589,1.554-0.589c0.63,0,1.117,0.107,1.456,0.322c0.339,0.215,0.509,0.562,0.509,1.037
		c0,0.233-0.032,0.411-0.094,0.534c-0.109,0.23-0.323,0.365-0.644,0.405l-2.229,0.279C315.266,44.215,314.636,44.476,314.154,44.902
		z"/>
	<path d="M707.33,35.2c0.032,1.236,0,10.142,0,10.142s-0.468,2.405-2.173,2.908c-0.577,0.168-0.6,0.53,0,0.53h8.356
		c0.601,0,0.576-0.362,0-0.53c-1.706-0.503-2.172-2.908-2.172-2.908s0-9.417,0-10.654c0-2.645-2.039-5.154-6.717-5.154
		s-5.918,2.04-6.083,2.273c-0.167,0.236-0.301,0.034-0.301,0.034s-0.435-1.706-0.535-2.037c-0.1-0.334-0.267-0.27-0.267-0.27
		l-5.748,0.837c0,0-1.17,0.2,0,0.568c0,0,2.574,1.27,2.539,3.208c-0.021,1.236,0,11.194,0,11.194s-0.467,2.405-2.171,2.908
		c-0.578,0.168-0.603,0.53,0,0.53h8.355c0.598,0,0.576-0.362,0-0.53c-1.708-0.503-2.174-2.908-2.174-2.908s0-8.89,0-10.126
		c0,0,0.534-4.405,4.98-4.405C703.222,30.81,707.208,30.706,707.33,35.2z"/>
	<g>
		<g>
			<rect x="754.184" y="18.34" width="4.81" height="9.623"/>
			<path d="M756.587,23.153"/>
		</g>
		<g>
			<rect x="768.618" y="18.34" width="4.812" height="9.623"/>
			<path d="M771.023,23.153"/>
		</g>
		<g>
			<path d="M763.839,19.644c0,0-0.006,0.015,0.006,0.012"/>
			<path d="M763.904,19.441c0.43,2.114,1.305,1.003,1.305,1.003l-0.301,1.804c-0.102,0.571,0.4,0.135,0.4,0.135l0.737-0.733
				c-0.167,1.203,1.271,0.466,1.271,0.466c-0.803,1.402,0.197,1.304,0.197,1.304l-1.635,1.337c0,0.031-0.269,0.332-0.269,0.332
				l0.436,0.703l-2.041-0.5l0.103,1.905h-0.269h-0.267l0.1-1.905l-1.903,0.432l0.3-0.635c0,0-0.268-0.301-0.268-0.332l-1.637-1.337
				c0,0,1.001-0.101,0.133-1.371c0,0,1.437,0.736,1.336-0.399l0.735,0.733c0,0,0.501,0.436,0.401-0.135l-0.301-1.804
				c0,0,0.976,1.003,1.37-1.003"/>
		</g>
	</g>
	<g>
		<path d="M669.469,18.04L670.203,29c0,0-0.197,1.469-0.866-0.135c-0.669-1.604-3.074-10.626-9.76-9.755
			c-6.685,0.868-9.689,6.347-9.689,15.169c0,8.823,3.809,13.433,10.358,13.433c6.549,0,8.756-3.942,9.957-7.684
			c0,0,0.47-1.537,0.405-0.068c0,0-0.075,9.494-11.901,9.356c-11.632-0.135-14.701-11.028-14.701-15.105s1.603-15.237,15.772-16.372
			c0,0,3.976,0.064,6.949,1.671c0,0,0.938,0.534,1.405-0.202s0.6-1.003,0.6-1.003S669.068,17.438,669.469,18.04z"/>
	</g>
	<path d="M747.655,47.461c-4.329,2.675-10.035,2.058-13.013-2.273c-3.147-4.583-2.587-10.811,2.117-14.035
		c3.4-2.334,8.202-2.61,10.871-0.083c0,0,0.402,0.436,0.402-0.166c0-0.601,0-9.089,0-9.089s-0.567-2.675-3.142-2.675
		c0,0-0.669-0.233-0.065-0.531l6.282-0.671c0,0,0.934-0.064,0.934,0.567c0,0.77,0,26.035,0,26.035s0.567,3.206,2.875,3.206
		c0,0,0.868,0.067-0.032,0.537l-6.183,0.8c0,0-0.47,0.203-0.47-0.402l-0.132-1.003C748.101,47.679,748.288,47.071,747.655,47.461z
		 M748.052,39.362c0.007-3.875,0.363-9.522-5.87-8.915c-4.16,0.405-5.795,6.531-4.906,10.777c0.732,3.515,2.299,7.454,6.637,6.776
		C748.711,47.249,748.045,42.043,748.052,39.362z"/>
	<path d="M690.322,47.209c0,0,1.403-1.2,0.5,0.172l-0.567,0.668c-2.08,1.436-5.729,1.04-7.185-0.638
		c-0.336-0.5-0.707-0.104-0.707-0.104c-1.938,1.699-4.699,2.031-7.352,1.288c-2.224-0.623-3.933-2.546-3.71-4.825
		c0.489-4.933,6.069-4.325,9.586-5.638c0.949-0.353,1.615-1.703,1.65-3.083c0.049-1.825-0.508-4.73-3.345-4.761
		c-2.47-0.031-2.497,2.503-3.835,3.917c-0.602,0.635-2.564,0.586-3.054-0.666c-0.298-0.758-0.229-1.969,0.891-2.837
		c2.98-2.316,13.461-1.789,13.46,2.481c0,5.93-0.045,7.912,0.003,12.998c0.012,1.264,0.96,1.657,2.024,1.672
		c0.563,0.009,1.354-0.436,1.876-0.776 M682.234,38.424c-2.879,1.399-6.853,2.733-6.803,6.414c0.032,2.445,2.99,3.915,5.283,2.42
		c1.371-0.896,1.814-2.39,1.922-3.856v-4.61C682.637,38.792,682.702,38.255,682.234,38.424z"/>
	<path d="M732.827,47.209c0,0,1.403-1.2,0.5,0.172l-0.564,0.668c-2.082,1.436-5.729,1.04-7.187-0.638
		c-0.336-0.5-0.705-0.104-0.705-0.104c-1.938,1.699-4.701,2.031-7.352,1.288c-2.224-0.623-3.936-2.546-3.71-4.825
		c0.487-4.933,6.065-4.325,9.585-5.638c0.95-0.353,1.613-1.703,1.649-3.083c0.047-1.825-0.506-4.73-3.345-4.761
		c-2.471-0.031-2.494,2.503-3.833,3.917c-0.602,0.635-2.564,0.586-3.056-0.666c-0.297-0.758-0.229-1.969,0.893-2.837
		c2.978-2.316,13.458-1.789,13.458,2.481c0,5.93-0.043,7.912,0.003,12.998c0.011,1.264,0.962,1.657,2.024,1.672
		c0.562,0.009,1.354-0.436,1.878-0.776 M724.74,38.424c-2.879,1.399-6.851,2.733-6.804,6.414c0.034,2.445,2.991,3.915,5.287,2.42
		c1.37-0.896,1.813-2.39,1.921-3.856l-0.002-4.61C725.143,38.792,725.209,38.255,724.74,38.424z"/>
	<path d="M774.599,47.209c0,0,1.403-1.2,0.501,0.172l-0.565,0.668c-2.081,1.436-5.73,1.04-7.188-0.638
		c-0.334-0.5-0.706-0.104-0.706-0.104c-1.936,1.699-4.699,2.031-7.35,1.288c-2.224-0.623-3.936-2.546-3.709-4.825
		c0.486-4.933,6.065-4.325,9.585-5.638c0.949-0.353,1.612-1.703,1.649-3.083c0.049-1.825-0.507-4.73-3.346-4.761
		c-2.471-0.031-2.495,2.503-3.836,3.917c-0.602,0.635-2.563,0.586-3.053-0.666c-0.297-0.758-0.229-1.969,0.893-2.837
		c2.979-2.316,13.46-1.789,13.458,2.481c0,5.93-0.041,7.912,0.005,12.998c0.011,1.264,0.958,1.657,2.022,1.672
		c0.562,0.009,1.354-0.436,1.878-0.776 M766.514,38.424c-2.881,1.399-6.853,2.733-6.804,6.414c0.032,2.445,2.989,3.915,5.284,2.42
		c1.371-0.896,1.814-2.39,1.92-3.856l-0.002-4.61C766.912,38.792,766.98,38.255,766.514,38.424z"/>
</g>
</svg>
