<?xml version="1.0" encoding="utf-8"?>
<!-- Generator: Adobe Illustrator 15.1.0, SVG Export Plug-In . SVG Version: 6.00 Build 0)  -->
<!DOCTYPE svg PUBLIC "-//W3C//DTD SVG 1.1//EN" "http://www.w3.org/Graphics/SVG/1.1/DTD/svg11.dtd">
<svg version="1.1" id="Layer_1" xmlns="http://www.w3.org/2000/svg" xmlns:xlink="http://www.w3.org/1999/xlink" x="0px" y="0px"
	 width="792px" height="64.222px" viewBox="0 0 792 64.222" enable-background="new 0 0 792 64.222" xml:space="preserve">
<g>
	<path fill="#ED1C24" d="M49.155,45.717c0,0-0.206-5.058-0.206-5.563c0-0.502,0.426-0.677,0.93-0.567
		c0.504,0.11,5.23,1.072,5.23,1.072s-0.362-1.023-0.614-1.78c-0.252-0.756,0.079-0.895,0.252-1.054
		c0.173-0.156,5.281-4.57,5.281-4.57l-0.835-0.411c-0.504-0.236-0.425-0.662-0.346-0.947c0.079-0.282,0.92-3.23,0.92-3.23
		s-2.204,0.492-2.719,0.571c-0.41,0.064-0.552-0.125-0.678-0.408c-0.125-0.283-0.662-1.576-0.662-1.576s-2.699,2.988-2.757,3.04
		c-0.52,0.472-1.024,0.11-0.929-0.441c0.085-0.502,1.386-6.475,1.386-6.475s-1.435,0.852-1.907,1.134
		c-0.472,0.285-0.725,0.237-0.977-0.221c-0.252-0.457-2.021-4.001-2.021-4.001h0.004c0,0-1.769,3.544-2.02,4.001
		c-0.253,0.458-0.505,0.505-0.978,0.221c-0.472-0.282-1.906-1.134-1.906-1.134s1.3,5.972,1.386,6.475
		c0.094,0.551-0.41,0.913-0.93,0.441c-0.057-0.052-2.756-3.04-2.756-3.04s-0.536,1.292-0.663,1.576
		c-0.125,0.282-0.268,0.472-0.677,0.408c-0.515-0.08-2.808-0.571-2.808-0.571s0.93,2.948,1.009,3.23
		c0.078,0.285,0.157,0.711-0.347,0.947l-0.835,0.411c0,0,5.107,4.414,5.281,4.57c0.172,0.159,0.504,0.297,0.251,1.054
		c-0.251,0.757-0.614,1.78-0.614,1.78s4.726-0.962,5.231-1.072c0.504-0.11,0.93,0.064,0.93,0.567c0,0.505-0.205,5.563-0.205,5.563
		H49.155z"/>
	<g>
		<rect x="63.968" y="17.697" fill="#ED1C24" width="15.006" height="30.79"/>
		<path fill="#ED1C24" d="M71.471,33.09"/>
	</g>
	<g>
		<rect x="18.362" y="17.686" fill="#ED1C24" width="15.006" height="30.789"/>
		<path fill="#ED1C24" d="M25.865,33.081"/>
	</g>
	<path d="M351.245,25.807h1.45c0.036,0.646,0.188,1.17,0.458,1.575c0.512,0.753,1.414,1.132,2.707,1.132
		c0.579,0,1.105-0.083,1.582-0.248c0.92-0.32,1.38-0.895,1.38-1.722c0-0.621-0.193-1.062-0.582-1.325
		c-0.393-0.259-1.008-0.484-1.845-0.676l-1.543-0.349c-1.009-0.227-1.722-0.478-2.141-0.752c-0.724-0.475-1.085-1.186-1.085-2.132
		c0-1.023,0.354-1.862,1.063-2.521c0.708-0.656,1.711-0.983,3.008-0.983c1.194,0,2.208,0.288,3.043,0.864
		c0.834,0.576,1.253,1.498,1.253,2.765h-1.451c-0.077-0.611-0.243-1.077-0.496-1.404c-0.47-0.594-1.269-0.892-2.396-0.892
		c-0.911,0-1.565,0.193-1.962,0.574c-0.398,0.383-0.597,0.827-0.597,1.334c0,0.558,0.233,0.966,0.698,1.225
		c0.305,0.166,0.995,0.371,2.07,0.619l1.597,0.365c0.77,0.178,1.365,0.417,1.783,0.723c0.724,0.533,1.086,1.305,1.086,2.317
		c0,1.26-0.459,2.164-1.376,2.707c-0.917,0.541-1.984,0.813-3.199,0.813c-1.417,0-2.525-0.361-3.326-1.084
		C351.622,28.013,351.229,27.039,351.245,25.807z"/>
	<path d="M363.542,27.7c-0.387-0.591-0.581-1.326-0.581-2.211c0-0.919,0.194-1.705,0.581-2.356c0.388-0.652,1.008-0.977,1.861-0.977
		c0.961,0,1.638,0.383,2.032,1.147c0.248,0.486,0.372,1.117,0.372,1.892c0,0.858-0.172,1.639-0.516,2.337
		c-0.344,0.702-0.978,1.051-1.903,1.051C364.545,28.583,363.93,28.289,363.542,27.7z M362.589,22.179
		c-0.708,0.827-1.063,1.938-1.063,3.334c0,1.302,0.336,2.34,1.008,3.112c0.672,0.773,1.579,1.16,2.722,1.16
		c1.369,0,2.38-0.438,3.031-1.31c0.652-0.873,0.978-1.98,0.978-3.319c0-1.386-0.37-2.434-1.109-3.147
		c-0.739-0.714-1.644-1.071-2.714-1.071C364.248,20.938,363.297,21.352,362.589,22.179z"/>
	<path d="M374.124,20.938c0.935,0,1.696,0.228,2.283,0.682c0.587,0.457,0.94,1.239,1.059,2.35h-1.357
		c-0.083-0.512-0.271-0.936-0.566-1.274c-0.294-0.34-0.768-0.508-1.418-0.508c-0.89,0-1.526,0.435-1.908,1.302
		c-0.248,0.563-0.372,1.259-0.372,2.086c0,0.833,0.175,1.533,0.527,2.102c0.352,0.57,0.904,0.853,1.66,0.853
		c0.579,0,1.038-0.176,1.376-0.531c0.338-0.354,0.573-0.838,0.702-1.454h1.357c-0.155,1.101-0.542,1.907-1.163,2.416
		c-0.62,0.507-1.415,0.764-2.381,0.764c-1.085,0-1.952-0.398-2.598-1.19c-0.646-0.793-0.969-1.786-0.969-2.975
		c0-1.458,0.354-2.592,1.062-3.403C372.125,21.344,373.027,20.938,374.124,20.938z"/>
	<path d="M378.861,29.481v-8.263h1.419v8.263H378.861z M378.861,19.674v-1.582h1.419v1.582H378.861z"/>
	<path d="M384.099,26.11c0.253-0.146,0.633-0.251,1.14-0.318l0.845-0.109c0.258-0.031,0.522-0.083,0.791-0.155
		c0.269-0.072,0.489-0.162,0.66-0.272v1.125c0,0.858-0.389,1.475-1.164,1.852c-0.46,0.229-0.936,0.343-1.427,0.343
		c-0.403,0-0.752-0.117-1.047-0.35c-0.295-0.232-0.442-0.551-0.442-0.954C383.455,26.742,383.669,26.353,384.099,26.11z
		 M382.718,25.513c-0.481,0.423-0.721,1.02-0.721,1.792c0,0.702,0.244,1.287,0.733,1.754c0.489,0.469,1.118,0.701,1.889,0.701
		c0.641,0,1.227-0.138,1.76-0.41c0.532-0.273,0.94-0.596,1.225-0.968c0.047,0.331,0.126,0.587,0.241,0.766
		c0.217,0.343,0.566,0.511,1.046,0.511c0.197,0,0.352-0.006,0.466-0.021c0.113-0.015,0.279-0.055,0.496-0.116v-1.031
		c-0.088,0.015-0.17,0.027-0.248,0.034c-0.077,0.009-0.147,0.012-0.209,0.012c-0.191,0-0.317-0.043-0.376-0.132
		c-0.06-0.087-0.09-0.204-0.09-0.349v-4.783c0-0.786-0.302-1.365-0.907-1.737c-0.61-0.372-1.403-0.559-2.38-0.559
		c-0.842,0-1.583,0.201-2.222,0.601c-0.639,0.401-0.97,1.114-0.996,2.138h1.302c0.052-0.429,0.164-0.753,0.334-0.971
		c0.305-0.392,0.822-0.588,1.551-0.588c0.63,0,1.115,0.107,1.454,0.322c0.338,0.214,0.508,0.561,0.508,1.035
		c0,0.233-0.031,0.411-0.093,0.535c-0.108,0.228-0.323,0.363-0.644,0.403l-2.226,0.279C383.83,24.829,383.199,25.089,382.718,25.513
		z"/>
	<path d="M391.252,29.481V18.092h1.396v11.389H391.252z"/>
	<path d="M398.894,25.807h1.45c0.035,0.646,0.188,1.17,0.458,1.575c0.511,0.753,1.412,1.132,2.705,1.132
		c0.579,0,1.106-0.083,1.582-0.248c0.921-0.32,1.381-0.895,1.381-1.722c0-0.621-0.193-1.062-0.582-1.325
		c-0.394-0.259-1.008-0.484-1.845-0.676l-1.544-0.349c-1.008-0.227-1.722-0.478-2.141-0.752c-0.724-0.475-1.085-1.186-1.085-2.132
		c0-1.023,0.354-1.862,1.063-2.521c0.707-0.656,1.709-0.983,3.006-0.983c1.196,0,2.211,0.288,3.045,0.864
		c0.835,0.576,1.252,1.498,1.252,2.765h-1.449c-0.078-0.611-0.243-1.077-0.496-1.404c-0.472-0.594-1.27-0.892-2.396-0.892
		c-0.91,0-1.563,0.193-1.962,0.574c-0.398,0.383-0.599,0.827-0.599,1.334c0,0.558,0.233,0.966,0.698,1.225
		c0.306,0.166,0.995,0.371,2.07,0.619l1.598,0.365c0.769,0.178,1.365,0.417,1.784,0.723c0.724,0.533,1.085,1.305,1.085,2.317
		c0,1.26-0.46,2.164-1.376,2.707c-0.919,0.541-1.984,0.813-3.199,0.813c-1.417,0-2.524-0.361-3.325-1.084
		C399.271,28.013,398.878,27.039,398.894,25.807z"/>
	<path d="M412.943,20.938c0.937,0,1.697,0.228,2.284,0.682c0.587,0.457,0.94,1.239,1.059,2.35h-1.357
		c-0.083-0.512-0.271-0.936-0.565-1.274c-0.295-0.34-0.769-0.508-1.42-0.508c-0.89,0-1.523,0.435-1.906,1.302
		c-0.248,0.563-0.374,1.259-0.374,2.086c0,0.833,0.178,1.533,0.528,2.102c0.351,0.57,0.905,0.853,1.659,0.853
		c0.579,0,1.038-0.176,1.377-0.531c0.338-0.354,0.571-0.838,0.701-1.454h1.357c-0.155,1.101-0.544,1.907-1.163,2.416
		c-0.622,0.507-1.415,0.764-2.38,0.764c-1.086,0-1.951-0.398-2.598-1.19c-0.646-0.793-0.972-1.786-0.972-2.975
		c0-1.458,0.355-2.592,1.063-3.403C410.945,21.344,411.849,20.938,412.943,20.938z"/>
	<path d="M419.1,19.674v-1.582h-1.418v1.582H419.1z M419.1,29.481v-8.263h-1.418v8.263H419.1z"/>
	<path d="M422.966,22.903c0.435-0.463,0.973-0.694,1.614-0.694c0.893,0,1.531,0.335,1.914,1.009
		c0.207,0.361,0.339,0.844,0.396,1.449h-4.613C422.301,23.954,422.532,23.366,422.966,22.903z M421.826,22.241
		c-0.724,0.832-1.085,1.915-1.085,3.248c0,1.355,0.358,2.408,1.077,3.161c0.718,0.749,1.595,1.126,2.63,1.126
		c0.423,0,0.803-0.04,1.14-0.123c0.625-0.147,1.148-0.426,1.573-0.838c0.252-0.236,0.482-0.542,0.686-0.919
		c0.204-0.374,0.325-0.714,0.36-1.019h-1.373c-0.103,0.366-0.278,0.69-0.526,0.969c-0.434,0.481-1.016,0.72-1.743,0.72
		c-0.781,0-1.357-0.254-1.73-0.763c-0.371-0.509-0.57-1.186-0.598-2.028h6.087c0-0.838-0.04-1.447-0.122-1.83
		c-0.094-0.559-0.279-1.046-0.56-1.466c-0.289-0.438-0.711-0.796-1.264-1.072c-0.555-0.279-1.124-0.417-1.714-0.417
		C423.495,20.992,422.549,21.408,421.826,22.241z"/>
	<path d="M430.034,29.481v-8.303h1.325v1.18c0.394-0.487,0.809-0.836,1.249-1.048c0.438-0.211,0.929-0.318,1.465-0.318
		c1.18,0,1.976,0.41,2.39,1.234c0.227,0.449,0.34,1.092,0.34,1.93v5.325h-1.419v-5.233c0-0.505-0.074-0.913-0.225-1.224
		c-0.248-0.516-0.697-0.776-1.35-0.776c-0.331,0-0.602,0.034-0.814,0.101c-0.382,0.113-0.717,0.342-1.008,0.683
		c-0.233,0.274-0.383,0.558-0.454,0.849c-0.068,0.292-0.104,0.71-0.104,1.253v4.348H430.034z"/>
	<path d="M442.065,20.938c0.935,0,1.695,0.228,2.282,0.682c0.588,0.457,0.94,1.239,1.059,2.35h-1.355
		c-0.085-0.512-0.273-0.936-0.567-1.274c-0.294-0.34-0.769-0.508-1.418-0.508c-0.892,0-1.525,0.435-1.908,1.302
		c-0.248,0.563-0.372,1.259-0.372,2.086c0,0.833,0.176,1.533,0.526,2.102c0.351,0.57,0.905,0.853,1.659,0.853
		c0.579,0,1.038-0.176,1.377-0.531c0.338-0.354,0.572-0.838,0.703-1.454h1.355c-0.155,1.101-0.543,1.907-1.163,2.416
		c-0.62,0.507-1.413,0.764-2.38,0.764c-1.086,0-1.951-0.398-2.598-1.19c-0.646-0.793-0.97-1.786-0.97-2.975
		c0-1.458,0.354-2.592,1.062-3.403C440.066,21.344,440.969,20.938,442.065,20.938z"/>
	<path d="M448.563,22.903c0.436-0.463,0.972-0.694,1.611-0.694c0.895,0,1.535,0.335,1.916,1.009
		c0.207,0.361,0.339,0.844,0.397,1.449h-4.615C447.898,23.954,448.128,23.366,448.563,22.903z M447.423,22.241
		c-0.725,0.832-1.086,1.915-1.086,3.248c0,1.355,0.36,2.408,1.077,3.161c0.72,0.749,1.596,1.126,2.628,1.126
		c0.426,0,0.806-0.04,1.142-0.123c0.625-0.147,1.15-0.426,1.573-0.838c0.254-0.236,0.482-0.542,0.686-0.919
		c0.205-0.374,0.325-0.714,0.361-1.019h-1.372c-0.104,0.366-0.278,0.69-0.526,0.969c-0.436,0.481-1.018,0.72-1.746,0.72
		c-0.78,0-1.357-0.254-1.729-0.763c-0.373-0.509-0.572-1.186-0.597-2.028h6.087c0-0.838-0.042-1.447-0.124-1.83
		c-0.094-0.559-0.28-1.046-0.56-1.466c-0.288-0.438-0.711-0.796-1.264-1.072c-0.553-0.279-1.124-0.417-1.714-0.417
		C449.093,20.992,448.146,21.408,447.423,22.241z"/>
	<path d="M455.118,26.878h1.342c0.041,0.464,0.156,0.822,0.35,1.07c0.351,0.449,0.962,0.674,1.828,0.674
		c0.519,0,0.973-0.113,1.366-0.337c0.393-0.226,0.589-0.573,0.589-1.045c0-0.355-0.158-0.628-0.472-0.813
		c-0.202-0.114-0.601-0.245-1.195-0.396l-1.108-0.28c-0.708-0.174-1.231-0.371-1.567-0.588c-0.599-0.377-0.898-0.899-0.898-1.565
		c0-0.788,0.281-1.421,0.848-1.909c0.567-0.485,1.328-0.729,2.284-0.729c1.251,0,2.153,0.368,2.706,1.101
		c0.347,0.466,0.515,0.967,0.504,1.504h-1.318c-0.024-0.314-0.137-0.602-0.332-0.861c-0.32-0.366-0.878-0.55-1.668-0.55
		c-0.527,0-0.926,0.101-1.198,0.302c-0.271,0.202-0.407,0.467-0.407,0.798c0,0.363,0.179,0.652,0.536,0.87
		c0.205,0.128,0.512,0.242,0.914,0.34l0.924,0.225c1.002,0.244,1.674,0.479,2.016,0.706c0.542,0.355,0.814,0.917,0.814,1.682
		c0,0.74-0.281,1.378-0.842,1.916c-0.561,0.536-1.415,0.806-2.563,0.806c-1.236,0-2.11-0.282-2.625-0.841
		C455.431,28.399,455.155,27.705,455.118,26.878z"/>
	<path d="M469.697,26.11c0.252-0.146,0.632-0.251,1.139-0.318l0.846-0.109c0.258-0.031,0.521-0.083,0.791-0.155
		c0.27-0.072,0.488-0.162,0.658-0.272v1.125c0,0.858-0.388,1.475-1.163,1.852c-0.461,0.229-0.936,0.343-1.426,0.343
		c-0.404,0-0.753-0.117-1.048-0.35c-0.294-0.232-0.44-0.551-0.44-0.954C469.054,26.742,469.268,26.353,469.697,26.11z
		 M468.315,25.513c-0.481,0.423-0.72,1.02-0.72,1.792c0,0.702,0.243,1.287,0.731,1.754c0.489,0.469,1.118,0.701,1.888,0.701
		c0.642,0,1.229-0.138,1.761-0.41c0.533-0.273,0.94-0.596,1.226-0.968c0.046,0.331,0.126,0.587,0.239,0.766
		c0.217,0.343,0.566,0.511,1.048,0.511c0.195,0,0.352-0.006,0.465-0.021c0.113-0.015,0.279-0.055,0.497-0.116v-1.031
		c-0.089,0.015-0.172,0.027-0.249,0.034c-0.076,0.009-0.146,0.012-0.208,0.012c-0.192,0-0.318-0.043-0.377-0.132
		c-0.06-0.087-0.089-0.204-0.089-0.349v-4.783c0-0.786-0.303-1.365-0.908-1.737c-0.609-0.372-1.402-0.559-2.38-0.559
		c-0.844,0-1.582,0.201-2.223,0.601c-0.637,0.401-0.97,1.114-0.995,2.138h1.302c0.052-0.429,0.164-0.753,0.334-0.971
		c0.306-0.392,0.822-0.588,1.55-0.588c0.631,0,1.116,0.107,1.455,0.322c0.339,0.214,0.509,0.561,0.509,1.035
		c0,0.233-0.031,0.411-0.094,0.535c-0.108,0.228-0.323,0.363-0.645,0.403l-2.225,0.279
		C469.427,24.829,468.796,25.089,468.315,25.513z"/>
	<path d="M476.81,29.481v-8.303h1.327v1.18c0.392-0.487,0.809-0.836,1.248-1.048s0.928-0.318,1.466-0.318
		c1.179,0,1.975,0.41,2.388,1.234c0.229,0.449,0.342,1.092,0.342,1.93v5.325h-1.419v-5.233c0-0.505-0.076-0.913-0.227-1.224
		c-0.248-0.516-0.696-0.776-1.348-0.776c-0.331,0-0.604,0.034-0.814,0.101c-0.383,0.113-0.719,0.342-1.008,0.683
		c-0.233,0.274-0.384,0.558-0.454,0.849c-0.07,0.292-0.104,0.71-0.104,1.253v4.348H476.81z"/>
	<path d="M487.178,23.055c0.437-0.538,1.006-0.807,1.711-0.807c0.63,0,1.159,0.253,1.588,0.757c0.43,0.504,0.646,1.28,0.646,2.331
		c0,1.039-0.209,1.835-0.625,2.391c-0.417,0.556-0.948,0.834-1.593,0.834c-0.834,0-1.438-0.3-1.817-0.9
		c-0.376-0.599-0.564-1.343-0.564-2.233C486.522,24.383,486.741,23.592,487.178,23.055z M485.976,22.361
		c-0.617,0.887-0.926,1.935-0.926,3.143c0,1.292,0.338,2.328,1.015,3.106c0.677,0.776,1.479,1.166,2.404,1.166
		c0.573,0,1.083-0.113,1.527-0.34c0.445-0.227,0.83-0.596,1.156-1.107v1.153h1.256V18.054h-1.342v4.194
		c-0.315-0.386-0.597-0.659-0.846-0.813c-0.429-0.268-0.961-0.403-1.597-0.403C487.477,21.031,486.594,21.474,485.976,22.361z"/>
	<path d="M499.104,29.481V18.092h1.558v4.707h5.925v-4.707h1.559v11.389h-1.559v-5.325h-5.925v5.325H499.104z"/>
	<path d="M510.313,21.178h1.426v5.514c0,0.423,0.067,0.769,0.202,1.039c0.248,0.496,0.711,0.744,1.388,0.744
		c0.971,0,1.633-0.435,1.985-1.303c0.191-0.464,0.287-1.103,0.287-1.916v-4.078h1.396v8.303h-1.318l0.016-1.224
		c-0.182,0.315-0.405,0.582-0.675,0.798c-0.532,0.435-1.179,0.649-1.938,0.649c-1.183,0-1.99-0.395-2.42-1.184
		c-0.231-0.423-0.348-0.99-0.348-1.697V21.178z"/>
	<path d="M519.171,29.481v-8.303h1.381v1.18c0.33-0.409,0.631-0.708,0.9-0.892c0.459-0.315,0.98-0.475,1.565-0.475
		c0.661,0,1.194,0.162,1.598,0.49c0.227,0.185,0.434,0.459,0.62,0.821c0.31-0.444,0.674-0.775,1.094-0.989
		c0.418-0.215,0.888-0.322,1.41-0.322c1.117,0,1.877,0.404,2.281,1.21c0.216,0.435,0.324,1.019,0.324,1.752v5.528h-1.449v-5.767
		c0-0.554-0.139-0.934-0.416-1.141c-0.276-0.207-0.613-0.311-1.011-0.311c-0.549,0-1.021,0.184-1.416,0.552
		c-0.395,0.367-0.594,0.98-0.594,1.838v4.829h-1.418v-5.419c0-0.562-0.068-0.974-0.203-1.233c-0.211-0.388-0.606-0.582-1.186-0.582
		c-0.526,0-1.008,0.205-1.438,0.613c-0.433,0.409-0.648,1.148-0.648,2.218v4.403H519.171z"/>
	<path d="M534.109,26.11c0.253-0.146,0.633-0.251,1.14-0.318l0.846-0.109c0.258-0.031,0.521-0.083,0.79-0.155
		c0.27-0.072,0.489-0.162,0.659-0.272v1.125c0,0.858-0.386,1.475-1.163,1.852c-0.461,0.229-0.936,0.343-1.426,0.343
		c-0.404,0-0.754-0.117-1.048-0.35c-0.294-0.232-0.44-0.551-0.44-0.954C533.467,26.742,533.681,26.353,534.109,26.11z
		 M532.729,25.513c-0.479,0.423-0.721,1.02-0.721,1.792c0,0.702,0.244,1.287,0.732,1.754c0.488,0.469,1.118,0.701,1.889,0.701
		c0.642,0,1.227-0.138,1.76-0.41c0.533-0.273,0.94-0.596,1.226-0.968c0.046,0.331,0.126,0.587,0.24,0.766
		c0.216,0.343,0.565,0.511,1.046,0.511c0.196,0,0.353-0.006,0.466-0.021c0.113-0.015,0.279-0.055,0.496-0.116v-1.031
		c-0.089,0.015-0.17,0.027-0.248,0.034c-0.076,0.009-0.146,0.012-0.208,0.012c-0.193,0-0.318-0.043-0.377-0.132
		c-0.06-0.087-0.089-0.204-0.089-0.349v-4.783c0-0.786-0.303-1.365-0.906-1.737c-0.611-0.372-1.405-0.559-2.382-0.559
		c-0.843,0-1.582,0.201-2.221,0.601c-0.639,0.401-0.972,1.114-0.998,2.138h1.303c0.052-0.429,0.164-0.753,0.334-0.971
		c0.306-0.392,0.822-0.588,1.551-0.588c0.63,0,1.115,0.107,1.454,0.322c0.339,0.214,0.509,0.561,0.509,1.035
		c0,0.233-0.031,0.411-0.094,0.535c-0.108,0.228-0.323,0.363-0.644,0.403l-2.226,0.279C533.84,24.829,533.209,25.089,532.729,25.513
		z"/>
	<path d="M541.223,29.481v-8.303h1.326v1.18c0.393-0.487,0.81-0.836,1.25-1.048c0.438-0.211,0.927-0.318,1.465-0.318
		c1.179,0,1.976,0.41,2.389,1.234c0.228,0.449,0.341,1.092,0.341,1.93v5.325h-1.419v-5.233c0-0.505-0.076-0.913-0.225-1.224
		c-0.248-0.516-0.697-0.776-1.35-0.776c-0.331,0-0.604,0.034-0.814,0.101c-0.384,0.113-0.717,0.342-1.008,0.683
		c-0.233,0.274-0.384,0.558-0.454,0.849c-0.07,0.292-0.104,0.71-0.104,1.253v4.348H541.223z"/>
	<path d="M550.052,29.481v-8.263h1.418v8.263H550.052z M550.052,19.674v-1.582h1.418v1.582H550.052z"/>
	<path d="M553.856,21.178v-2.319h1.41v2.319h1.325v1.14h-1.325v5.419c0,0.291,0.099,0.484,0.294,0.582
		c0.109,0.058,0.29,0.085,0.544,0.085c0.067,0,0.138,0,0.216-0.003s0.169-0.009,0.271-0.02v1.1c-0.159,0.046-0.326,0.08-0.5,0.101
		c-0.173,0.021-0.361,0.031-0.562,0.031c-0.651,0-1.094-0.166-1.326-0.499c-0.231-0.333-0.348-0.766-0.348-1.297v-5.499h-1.125
		v-1.14H553.856z"/>
	<path d="M557.988,29.481v-8.263h1.419v8.263H557.988z M557.988,19.674v-1.582h1.419v1.582H557.988z"/>
	<path d="M563.272,22.903c0.436-0.463,0.972-0.694,1.613-0.694c0.893,0,1.533,0.335,1.916,1.009
		c0.205,0.361,0.337,0.844,0.396,1.449h-4.613C562.608,23.954,562.838,23.366,563.272,22.903z M562.133,22.241
		c-0.724,0.832-1.086,1.915-1.086,3.248c0,1.355,0.36,2.408,1.077,3.161c0.72,0.749,1.596,1.126,2.63,1.126
		c0.424,0,0.804-0.04,1.14-0.123c0.626-0.147,1.15-0.426,1.573-0.838c0.254-0.236,0.483-0.542,0.686-0.919
		c0.206-0.374,0.325-0.714,0.361-1.019h-1.372c-0.104,0.366-0.278,0.69-0.526,0.969c-0.436,0.481-1.018,0.72-1.746,0.72
		c-0.78,0-1.355-0.254-1.729-0.763c-0.372-0.509-0.572-1.186-0.597-2.028h6.087c0-0.838-0.042-1.447-0.124-1.83
		c-0.094-0.559-0.28-1.046-0.56-1.466c-0.288-0.438-0.711-0.796-1.262-1.072c-0.555-0.279-1.126-0.417-1.716-0.417
		C563.803,20.992,562.856,21.408,562.133,22.241z"/>
	<path d="M569.828,26.878h1.342c0.041,0.464,0.158,0.822,0.35,1.07c0.351,0.449,0.962,0.674,1.828,0.674
		c0.519,0,0.973-0.113,1.367-0.337c0.392-0.226,0.588-0.573,0.588-1.045c0-0.355-0.156-0.628-0.472-0.813
		c-0.202-0.114-0.601-0.245-1.195-0.396l-1.108-0.28c-0.708-0.174-1.231-0.371-1.565-0.588c-0.601-0.377-0.9-0.899-0.9-1.565
		c0-0.788,0.283-1.421,0.849-1.909c0.566-0.485,1.327-0.729,2.285-0.729c1.25,0,2.151,0.368,2.705,1.101
		c0.346,0.466,0.514,0.967,0.504,1.504h-1.319c-0.024-0.314-0.136-0.602-0.332-0.861c-0.32-0.366-0.876-0.55-1.668-0.55
		c-0.527,0-0.926,0.101-1.198,0.302c-0.271,0.202-0.407,0.467-0.407,0.798c0,0.363,0.179,0.652,0.536,0.87
		c0.205,0.128,0.512,0.242,0.914,0.34l0.924,0.225c1.002,0.244,1.674,0.479,2.016,0.706c0.542,0.355,0.815,0.917,0.815,1.682
		c0,0.74-0.282,1.378-0.843,1.916c-0.561,0.536-1.415,0.806-2.563,0.806c-1.236,0-2.11-0.282-2.624-0.841
		C570.141,28.399,569.865,27.705,569.828,26.878z"/>
	<path d="M353.416,38.237h3.768c0.527,0,0.949,0.08,1.264,0.233c0.589,0.297,0.884,0.848,0.884,1.66c0,0.753-0.21,1.277-0.632,1.565
		c-0.421,0.291-0.994,0.435-1.718,0.435h-3.566V38.237z M353.416,48.306v-4.889h3.512c0.631,0,1.093,0.07,1.388,0.211
		c0.517,0.251,0.793,0.75,0.83,1.495l0.093,1.902c0.021,0.444,0.046,0.745,0.078,0.901c0.031,0.153,0.072,0.282,0.124,0.379h1.892
		v-0.257c-0.237-0.102-0.403-0.334-0.497-0.699c-0.057-0.211-0.092-0.533-0.108-0.968l-0.054-1.529
		c-0.026-0.662-0.152-1.14-0.376-1.437c-0.225-0.294-0.56-0.53-1.005-0.714c0.507-0.264,0.901-0.61,1.183-1.045
		c0.282-0.435,0.423-0.992,0.423-1.675c0-1.308-0.535-2.206-1.605-2.69c-0.563-0.254-1.279-0.38-2.147-0.38h-5.272v11.393H353.416z"
		/>
	<path d="M364.725,41.723c0.434-0.462,0.972-0.692,1.613-0.692c0.894,0,1.533,0.334,1.916,1.008
		c0.207,0.362,0.338,0.846,0.395,1.449h-4.613C364.061,42.773,364.291,42.186,364.725,41.723z M363.585,41.061
		c-0.725,0.833-1.086,1.915-1.086,3.247c0,1.357,0.359,2.411,1.078,3.165c0.719,0.75,1.595,1.127,2.629,1.127
		c0.424,0,0.804-0.043,1.14-0.123c0.626-0.147,1.15-0.426,1.574-0.839c0.253-0.236,0.482-0.542,0.687-0.919
		c0.204-0.374,0.324-0.717,0.361-1.02h-1.373c-0.104,0.364-0.279,0.692-0.527,0.971c-0.435,0.481-1.017,0.72-1.745,0.72
		c-0.781,0-1.357-0.254-1.729-0.763c-0.372-0.511-0.571-1.188-0.597-2.031h6.087c0-0.836-0.042-1.446-0.124-1.829
		c-0.093-0.561-0.279-1.048-0.559-1.468c-0.29-0.438-0.71-0.796-1.264-1.072c-0.553-0.279-1.124-0.417-1.714-0.417
		C365.255,39.811,364.309,40.228,363.585,41.061z"/>
	<path d="M371.281,45.699h1.341c0.041,0.462,0.158,0.824,0.349,1.072c0.352,0.447,0.961,0.674,1.83,0.674
		c0.517,0,0.972-0.114,1.365-0.337c0.393-0.227,0.59-0.573,0.59-1.047c0-0.355-0.158-0.628-0.474-0.812
		c-0.201-0.113-0.6-0.245-1.194-0.395l-1.109-0.282c-0.708-0.175-1.23-0.371-1.566-0.588c-0.6-0.376-0.899-0.897-0.899-1.565
		c0-0.787,0.283-1.421,0.849-1.908c0.566-0.484,1.327-0.729,2.284-0.729c1.25,0,2.153,0.368,2.707,1.103
		c0.346,0.466,0.514,0.965,0.504,1.504h-1.319c-0.026-0.316-0.137-0.604-0.333-0.861c-0.321-0.368-0.876-0.552-1.667-0.552
		c-0.527,0-0.926,0.101-1.198,0.304c-0.271,0.202-0.407,0.465-0.407,0.796c0,0.364,0.178,0.652,0.535,0.87
		c0.207,0.129,0.512,0.242,0.915,0.34l0.922,0.227c1.003,0.242,1.676,0.478,2.017,0.705c0.543,0.355,0.814,0.919,0.814,1.682
		c0,0.742-0.28,1.382-0.841,1.918c-0.562,0.539-1.416,0.809-2.563,0.809c-1.235,0-2.11-0.282-2.625-0.842
		C371.592,47.222,371.317,46.526,371.281,45.699z"/>
	<path d="M381.493,41.723c0.434-0.462,0.972-0.692,1.613-0.692c0.895,0,1.533,0.334,1.916,1.008
		c0.207,0.362,0.338,0.846,0.396,1.449h-4.614C380.829,42.773,381.059,42.186,381.493,41.723z M380.354,41.061
		c-0.724,0.833-1.086,1.915-1.086,3.247c0,1.357,0.359,2.411,1.078,3.165c0.719,0.75,1.595,1.127,2.628,1.127
		c0.424,0,0.804-0.043,1.14-0.123c0.625-0.147,1.15-0.426,1.575-0.839c0.253-0.236,0.481-0.542,0.686-0.919
		c0.204-0.374,0.324-0.717,0.361-1.02h-1.373c-0.104,0.364-0.279,0.692-0.528,0.971c-0.434,0.481-1.015,0.72-1.744,0.72
		c-0.781,0-1.357-0.254-1.729-0.763c-0.372-0.511-0.571-1.188-0.597-2.031h6.087c0-0.836-0.041-1.446-0.124-1.829
		c-0.093-0.561-0.279-1.048-0.558-1.468c-0.29-0.438-0.711-0.796-1.265-1.072c-0.553-0.279-1.124-0.417-1.713-0.417
		C382.023,39.811,381.077,40.228,380.354,41.061z"/>
	<path d="M390.275,44.93c0.253-0.144,0.633-0.251,1.14-0.319l0.845-0.107c0.259-0.031,0.522-0.083,0.791-0.156
		c0.268-0.07,0.49-0.163,0.66-0.273v1.127c0,0.858-0.389,1.477-1.164,1.854c-0.459,0.229-0.935,0.343-1.427,0.343
		c-0.403,0-0.752-0.116-1.046-0.349c-0.295-0.233-0.442-0.551-0.442-0.956C389.632,45.561,389.845,45.172,390.275,44.93z
		 M388.895,44.333c-0.481,0.423-0.722,1.021-0.722,1.792c0,0.705,0.245,1.29,0.733,1.758c0.489,0.465,1.118,0.701,1.888,0.701
		c0.641,0,1.228-0.138,1.76-0.41c0.533-0.276,0.942-0.598,1.225-0.971c0.048,0.331,0.127,0.588,0.241,0.769
		c0.217,0.34,0.566,0.511,1.047,0.511c0.196,0,0.351-0.006,0.466-0.024c0.112-0.015,0.279-0.052,0.496-0.116v-1.029
		c-0.089,0.015-0.171,0.027-0.248,0.034c-0.078,0.009-0.148,0.012-0.211,0.012c-0.191,0-0.315-0.043-0.375-0.132
		c-0.06-0.089-0.089-0.205-0.089-0.349v-4.785c0-0.787-0.303-1.366-0.908-1.737c-0.61-0.374-1.403-0.561-2.379-0.561
		c-0.843,0-1.584,0.202-2.222,0.601c-0.639,0.401-0.971,1.115-0.996,2.138h1.303c0.051-0.429,0.162-0.754,0.333-0.971
		c0.305-0.392,0.822-0.588,1.551-0.588c0.631,0,1.115,0.107,1.454,0.322c0.34,0.214,0.509,0.561,0.509,1.036
		c0,0.233-0.031,0.41-0.094,0.536c-0.107,0.227-0.323,0.361-0.643,0.401l-2.226,0.279C390.006,43.649,389.375,43.91,388.895,44.333z
		"/>
	<path d="M397.428,48.306v-8.308h1.325v1.434c0.108-0.279,0.375-0.619,0.8-1.02c0.424-0.398,0.912-0.601,1.466-0.601
		c0.025,0,0.07,0.003,0.131,0.009c0.063,0.006,0.169,0.016,0.319,0.031v1.474c-0.085-0.016-0.159-0.025-0.229-0.031
		c-0.072-0.006-0.147-0.009-0.229-0.009c-0.703,0-1.244,0.227-1.621,0.68c-0.378,0.45-0.566,0.971-0.566,1.562v4.779H397.428z"/>
	<path d="M405.875,39.759c0.938,0,1.697,0.227,2.285,0.68c0.585,0.456,0.939,1.24,1.057,2.35h-1.356
		c-0.083-0.512-0.27-0.935-0.565-1.274c-0.296-0.34-0.768-0.509-1.42-0.509c-0.889,0-1.524,0.435-1.905,1.302
		c-0.248,0.563-0.372,1.259-0.372,2.086c0,0.833,0.175,1.535,0.525,2.104c0.352,0.57,0.905,0.852,1.66,0.852
		c0.579,0,1.037-0.175,1.377-0.53c0.339-0.355,0.571-0.839,0.7-1.455h1.356c-0.152,1.103-0.542,1.908-1.162,2.417
		c-0.62,0.508-1.414,0.763-2.38,0.763c-1.086,0-1.952-0.395-2.599-1.188c-0.646-0.793-0.968-1.789-0.968-2.978
		c0-1.458,0.353-2.592,1.062-3.404C403.878,40.164,404.78,39.759,405.875,39.759z"/>
	<path d="M410.614,48.306V36.874h1.396v4.249c0.33-0.42,0.628-0.714,0.891-0.882c0.451-0.297,1.012-0.444,1.684-0.444
		c1.204,0,2.021,0.423,2.451,1.265c0.232,0.459,0.349,1.097,0.349,1.915v5.33h-1.435v-5.238c0-0.609-0.078-1.057-0.233-1.338
		c-0.253-0.457-0.729-0.683-1.426-0.683c-0.579,0-1.104,0.199-1.574,0.597c-0.472,0.398-0.706,1.149-0.706,2.255v4.408H410.614z"/>
	<path d="M428.84,36.601c1.442,0,2.563,0.38,3.358,1.139c0.795,0.763,1.237,1.624,1.325,2.592h-1.504
		c-0.17-0.735-0.511-1.317-1.021-1.746s-1.224-0.644-2.143-0.644c-1.123,0-2.028,0.396-2.719,1.183
		c-0.691,0.791-1.035,1.998-1.035,3.627c0,1.333,0.311,2.414,0.934,3.244c0.624,0.833,1.552,1.247,2.788,1.247
		c1.138,0,2.003-0.438,2.598-1.314c0.315-0.459,0.55-1.063,0.706-1.813h1.504c-0.135,1.201-0.579,2.208-1.334,3.021
		c-0.905,0.977-2.124,1.464-3.659,1.464c-1.323,0-2.436-0.401-3.336-1.201c-1.183-1.06-1.773-2.699-1.773-4.91
		c0-1.682,0.444-3.061,1.332-4.136C425.823,37.186,427.15,36.601,428.84,36.601z"/>
	<path d="M436.769,46.523c-0.389-0.594-0.582-1.33-0.582-2.215c0-0.919,0.193-1.703,0.582-2.355
		c0.388-0.653,1.008-0.978,1.859-0.978c0.962,0,1.64,0.383,2.033,1.149c0.248,0.484,0.372,1.115,0.372,1.89
		c0,0.858-0.172,1.639-0.515,2.34c-0.345,0.702-0.98,1.051-1.905,1.051C437.771,47.405,437.156,47.111,436.769,46.523z M435.814,41
		c-0.709,0.827-1.062,1.936-1.062,3.333c0,1.302,0.334,2.344,1.008,3.116c0.671,0.772,1.578,1.161,2.721,1.161
		c1.371,0,2.38-0.438,3.032-1.312c0.651-0.873,0.978-1.982,0.978-3.32c0-1.388-0.371-2.436-1.109-3.149
		c-0.739-0.713-1.645-1.069-2.714-1.069C437.474,39.759,436.522,40.173,435.814,41z"/>
	<path d="M444.115,39.998h1.427v5.514c0,0.423,0.067,0.772,0.202,1.042c0.248,0.496,0.711,0.744,1.388,0.744
		c0.972,0,1.633-0.435,1.985-1.305c0.189-0.466,0.286-1.103,0.286-1.918v-4.077h1.396v8.308h-1.317l0.016-1.225
		c-0.181,0.315-0.406,0.582-0.674,0.799c-0.533,0.432-1.18,0.649-1.939,0.649c-1.186,0-1.991-0.395-2.42-1.185
		c-0.232-0.423-0.349-0.99-0.349-1.7V39.998z"/>
	<path d="M452.974,48.306v-8.308h1.327v1.18c0.392-0.487,0.809-0.836,1.248-1.048s0.928-0.319,1.466-0.319
		c1.18,0,1.975,0.411,2.388,1.235c0.229,0.45,0.342,1.093,0.342,1.93v5.33h-1.419v-5.238c0-0.505-0.076-0.913-0.227-1.222
		c-0.248-0.518-0.696-0.778-1.348-0.778c-0.331,0-0.604,0.034-0.814,0.101c-0.383,0.113-0.719,0.343-1.008,0.683
		c-0.233,0.275-0.383,0.558-0.454,0.849c-0.07,0.294-0.104,0.71-0.104,1.253v4.353H452.974z"/>
	<path d="M465.004,39.759c0.938,0,1.697,0.227,2.285,0.68c0.585,0.456,0.938,1.24,1.057,2.35h-1.357
		c-0.082-0.512-0.27-0.935-0.564-1.274c-0.294-0.34-0.768-0.509-1.42-0.509c-0.889,0-1.524,0.435-1.905,1.302
		c-0.248,0.563-0.374,1.259-0.374,2.086c0,0.833,0.176,1.535,0.527,2.104s0.906,0.852,1.66,0.852c0.579,0,1.038-0.175,1.375-0.53
		c0.34-0.355,0.573-0.839,0.701-1.455h1.357c-0.153,1.103-0.542,1.908-1.161,2.417c-0.622,0.508-1.415,0.763-2.382,0.763
		c-1.086,0-1.951-0.395-2.598-1.188c-0.645-0.793-0.97-1.789-0.97-2.978c0-1.458,0.355-2.592,1.063-3.404
		C463.007,40.164,463.908,39.759,465.004,39.759z"/>
	<path d="M469.743,48.306v-8.268h1.418v8.268H469.743z M469.743,38.494v-1.581h1.418v1.581H469.743z"/>
	<path d="M473.306,48.306V36.913h1.396v11.393H473.306z"/>
	<path d="M482.653,46.523c-0.388-0.594-0.581-1.33-0.581-2.215c0-0.919,0.193-1.703,0.581-2.355c0.388-0.653,1.008-0.978,1.86-0.978
		c0.963,0,1.64,0.383,2.031,1.149c0.248,0.484,0.374,1.115,0.374,1.89c0,0.858-0.173,1.639-0.518,2.34
		c-0.343,0.702-0.978,1.051-1.902,1.051C483.656,47.405,483.041,47.111,482.653,46.523z M481.699,41
		c-0.708,0.827-1.063,1.936-1.063,3.333c0,1.302,0.337,2.344,1.01,3.116c0.672,0.772,1.579,1.161,2.722,1.161
		c1.369,0,2.38-0.438,3.032-1.312c0.649-0.873,0.977-1.982,0.977-3.32c0-1.388-0.369-2.436-1.109-3.149
		c-0.74-0.713-1.644-1.069-2.713-1.069C483.359,39.759,482.406,40.173,481.699,41z"/>
	<path d="M490.381,38.733c0.02-0.579,0.121-1.001,0.302-1.271c0.326-0.475,0.954-0.713,1.885-0.713c0.086,0,0.178,0.003,0.27,0.009
		c0.096,0.006,0.199,0.012,0.319,0.024v1.271c-0.145-0.012-0.25-0.018-0.314-0.021c-0.064,0-0.126-0.003-0.183-0.003
		c-0.422,0-0.677,0.11-0.759,0.331c-0.083,0.217-0.125,0.778-0.125,1.679h1.381v1.1h-1.396v7.168h-1.38v-7.168h-1.155v-1.1h1.155
		V38.733z"/>
	<path d="M503.841,36.601c1.442,0,2.561,0.38,3.357,1.139c0.797,0.763,1.237,1.624,1.326,2.592h-1.504
		c-0.172-0.735-0.512-1.317-1.021-1.746c-0.508-0.429-1.224-0.644-2.144-0.644c-1.121,0-2.028,0.396-2.718,1.183
		c-0.689,0.791-1.035,1.998-1.035,3.627c0,1.333,0.313,2.414,0.935,3.244c0.622,0.833,1.553,1.247,2.787,1.247
		c1.137,0,2.004-0.438,2.598-1.314c0.315-0.459,0.552-1.063,0.706-1.813h1.505c-0.135,1.201-0.581,2.208-1.334,3.021
		c-0.904,0.977-2.125,1.464-3.661,1.464c-1.323,0-2.434-0.401-3.333-1.201c-1.184-1.06-1.776-2.699-1.776-4.91
		c0-1.682,0.444-3.061,1.334-4.136C500.825,37.186,502.149,36.601,503.841,36.601z"/>
	<path d="M512.034,44.93c0.252-0.144,0.632-0.251,1.139-0.319l0.846-0.107c0.259-0.031,0.522-0.083,0.791-0.156
		c0.268-0.07,0.488-0.163,0.66-0.273v1.127c0,0.858-0.39,1.477-1.164,1.854c-0.46,0.229-0.937,0.343-1.428,0.343
		c-0.401,0-0.751-0.116-1.046-0.349s-0.443-0.551-0.443-0.956C511.389,45.561,511.604,45.172,512.034,44.93z M510.653,44.333
		c-0.48,0.423-0.721,1.021-0.721,1.792c0,0.705,0.243,1.29,0.733,1.758c0.487,0.465,1.116,0.701,1.887,0.701
		c0.641,0,1.229-0.138,1.76-0.41c0.533-0.276,0.942-0.598,1.226-0.971c0.048,0.331,0.127,0.588,0.24,0.769
		c0.218,0.34,0.567,0.511,1.048,0.511c0.196,0,0.351-0.006,0.464-0.024c0.115-0.015,0.28-0.052,0.497-0.116v-1.029
		c-0.088,0.015-0.17,0.027-0.248,0.034c-0.078,0.009-0.147,0.012-0.21,0.012c-0.19,0-0.315-0.043-0.376-0.132
		c-0.06-0.089-0.089-0.205-0.089-0.349v-4.785c0-0.787-0.302-1.366-0.908-1.737c-0.609-0.374-1.402-0.561-2.38-0.561
		c-0.843,0-1.584,0.202-2.221,0.601c-0.639,0.401-0.972,1.115-0.996,2.138h1.302c0.053-0.429,0.163-0.754,0.334-0.971
		c0.304-0.392,0.821-0.588,1.551-0.588c0.631,0,1.114,0.107,1.453,0.322s0.509,0.561,0.509,1.036c0,0.233-0.032,0.41-0.094,0.536
		c-0.108,0.227-0.323,0.361-0.644,0.401l-2.226,0.279C511.764,43.649,511.135,43.91,510.653,44.333z"/>
	<path d="M519.148,48.306v-8.308h1.326v1.18c0.393-0.487,0.809-0.836,1.247-1.048c0.439-0.211,0.928-0.319,1.466-0.319
		c1.18,0,1.975,0.411,2.388,1.235c0.229,0.45,0.342,1.093,0.342,1.93v5.33h-1.419v-5.238c0-0.505-0.074-0.913-0.225-1.222
		c-0.248-0.518-0.698-0.778-1.35-0.778c-0.331,0-0.602,0.034-0.813,0.101c-0.383,0.113-0.72,0.343-1.008,0.683
		c-0.232,0.275-0.384,0.558-0.453,0.849c-0.07,0.294-0.105,0.71-0.105,1.253v4.353H519.148z"/>
	<path d="M529.689,44.93c0.254-0.144,0.634-0.251,1.14-0.319l0.846-0.107c0.257-0.031,0.521-0.083,0.79-0.156
		c0.27-0.07,0.49-0.163,0.66-0.273v1.127c0,0.858-0.388,1.477-1.163,1.854c-0.461,0.229-0.937,0.343-1.427,0.343
		c-0.404,0-0.752-0.116-1.048-0.349c-0.294-0.233-0.441-0.551-0.441-0.956C529.046,45.561,529.261,45.172,529.689,44.93z
		 M528.31,44.333c-0.481,0.423-0.722,1.021-0.722,1.792c0,0.705,0.245,1.29,0.732,1.758c0.49,0.465,1.118,0.701,1.89,0.701
		c0.641,0,1.226-0.138,1.759-0.41c0.533-0.276,0.94-0.598,1.225-0.971c0.048,0.331,0.128,0.588,0.242,0.769
		c0.216,0.34,0.565,0.511,1.045,0.511c0.197,0,0.353-0.006,0.466-0.024c0.113-0.015,0.278-0.052,0.496-0.116v-1.029
		c-0.087,0.015-0.17,0.027-0.248,0.034c-0.077,0.009-0.147,0.012-0.208,0.012c-0.192,0-0.317-0.043-0.377-0.132
		c-0.059-0.089-0.089-0.205-0.089-0.349v-4.785c0-0.787-0.304-1.366-0.907-1.737c-0.609-0.374-1.402-0.561-2.38-0.561
		c-0.843,0-1.584,0.202-2.223,0.601c-0.639,0.401-0.97,1.115-0.997,2.138h1.304c0.052-0.429,0.164-0.754,0.334-0.971
		c0.305-0.392,0.822-0.588,1.552-0.588c0.629,0,1.114,0.107,1.451,0.322c0.341,0.214,0.509,0.561,0.509,1.036
		c0,0.233-0.03,0.41-0.092,0.536c-0.11,0.227-0.325,0.361-0.645,0.401l-2.226,0.279C529.42,43.649,528.79,43.91,528.31,44.333z"/>
	<path d="M538.344,41.876c0.436-0.539,1.006-0.809,1.709-0.809c0.631,0,1.161,0.254,1.59,0.756c0.429,0.505,0.644,1.281,0.644,2.332
		c0,1.038-0.209,1.835-0.625,2.392c-0.415,0.558-0.947,0.836-1.593,0.836c-0.832,0-1.438-0.3-1.813-0.9
		c-0.379-0.601-0.567-1.345-0.567-2.236C537.688,43.202,537.905,42.412,538.344,41.876z M537.141,41.181
		c-0.617,0.888-0.927,1.936-0.927,3.143c0,1.292,0.341,2.331,1.018,3.109c0.677,0.778,1.477,1.167,2.403,1.167
		c0.574,0,1.083-0.113,1.526-0.34c0.444-0.229,0.831-0.597,1.155-1.109v1.155h1.256V36.874h-1.342v4.194
		c-0.315-0.386-0.596-0.659-0.844-0.812c-0.431-0.27-0.962-0.404-1.598-0.404C538.642,39.851,537.758,40.295,537.141,41.181z"/>
	<path d="M547.347,44.93c0.253-0.144,0.633-0.251,1.14-0.319l0.845-0.107c0.258-0.031,0.521-0.083,0.791-0.156
		c0.27-0.07,0.487-0.163,0.658-0.273v1.127c0,0.858-0.388,1.477-1.164,1.854c-0.459,0.229-0.935,0.343-1.426,0.343
		c-0.403,0-0.752-0.116-1.046-0.349s-0.441-0.551-0.441-0.956C546.703,45.561,546.916,45.172,547.347,44.93z M545.965,44.333
		c-0.48,0.423-0.72,1.021-0.72,1.792c0,0.705,0.243,1.29,0.732,1.758c0.488,0.465,1.118,0.701,1.887,0.701
		c0.642,0,1.229-0.138,1.762-0.41c0.532-0.276,0.94-0.598,1.225-0.971c0.046,0.331,0.126,0.588,0.239,0.769
		c0.218,0.34,0.566,0.511,1.048,0.511c0.196,0,0.353-0.006,0.466-0.024c0.113-0.015,0.278-0.052,0.496-0.116v-1.029
		c-0.089,0.015-0.172,0.027-0.248,0.034c-0.078,0.009-0.147,0.012-0.21,0.012c-0.191,0-0.317-0.043-0.375-0.132
		c-0.062-0.089-0.089-0.205-0.089-0.349v-4.785c0-0.787-0.304-1.366-0.908-1.737c-0.611-0.374-1.405-0.561-2.381-0.561
		c-0.844,0-1.584,0.202-2.223,0.601c-0.637,0.401-0.971,1.115-0.995,2.138h1.302c0.052-0.429,0.164-0.754,0.334-0.971
		c0.305-0.392,0.822-0.588,1.55-0.588c0.631,0,1.115,0.107,1.455,0.322c0.339,0.214,0.509,0.561,0.509,1.036
		c0,0.233-0.032,0.41-0.095,0.536c-0.107,0.227-0.322,0.361-0.644,0.401l-2.224,0.279C547.077,43.649,546.445,43.91,545.965,44.333z
		"/>
	<path d="M110.626,17.781c1.442,0,2.562,0.38,3.357,1.14c0.796,0.761,1.238,1.624,1.326,2.591h-1.504
		c-0.17-0.735-0.51-1.317-1.02-1.746c-0.509-0.429-1.224-0.643-2.145-0.643c-1.122,0-2.027,0.395-2.718,1.182
		c-0.69,0.789-1.035,1.998-1.035,3.625c0,1.334,0.312,2.416,0.934,3.246c0.623,0.831,1.553,1.244,2.788,1.244
		c1.137,0,2.002-0.437,2.598-1.312c0.314-0.459,0.55-1.063,0.705-1.813h1.504c-0.134,1.2-0.579,2.206-1.333,3.018
		c-0.905,0.976-2.125,1.463-3.66,1.463c-1.323,0-2.435-0.401-3.334-1.199c-1.184-1.06-1.776-2.696-1.776-4.909
		c0-1.68,0.445-3.059,1.334-4.134C107.609,18.366,108.936,17.781,110.626,17.781z"/>
	<path d="M118.555,27.7c-0.388-0.591-0.581-1.326-0.581-2.211c0-0.919,0.193-1.705,0.581-2.356c0.388-0.652,1.008-0.977,1.861-0.977
		c0.961,0,1.639,0.383,2.032,1.147c0.248,0.486,0.373,1.117,0.373,1.892c0,0.858-0.172,1.639-0.517,2.337
		c-0.344,0.702-0.978,1.051-1.903,1.051C119.557,28.583,118.942,28.289,118.555,27.7z M117.601,22.179
		c-0.708,0.827-1.062,1.938-1.062,3.334c0,1.302,0.335,2.34,1.008,3.112c0.671,0.773,1.579,1.16,2.722,1.16
		c1.369,0,2.38-0.438,3.031-1.31c0.652-0.873,0.977-1.98,0.977-3.319c0-1.386-0.37-2.434-1.109-3.147
		c-0.739-0.714-1.644-1.071-2.713-1.071C119.26,20.938,118.309,21.352,117.601,22.179z"/>
	<path d="M125.933,29.481v-8.303h1.326v1.18c0.393-0.487,0.809-0.836,1.249-1.048c0.439-0.211,0.928-0.318,1.466-0.318
		c1.179,0,1.975,0.41,2.389,1.234c0.227,0.449,0.341,1.092,0.341,1.93v5.325h-1.419v-5.233c0-0.505-0.075-0.913-0.225-1.224
		c-0.248-0.516-0.698-0.776-1.349-0.776c-0.332,0-0.603,0.034-0.814,0.101c-0.383,0.113-0.719,0.342-1.009,0.683
		c-0.232,0.274-0.383,0.558-0.453,0.849c-0.07,0.292-0.105,0.71-0.105,1.253v4.348H125.933z"/>
	<path d="M134.249,26.878h1.342c0.041,0.464,0.157,0.822,0.348,1.07c0.352,0.449,0.962,0.674,1.831,0.674
		c0.517,0,0.971-0.113,1.365-0.337c0.393-0.226,0.589-0.573,0.589-1.045c0-0.355-0.158-0.628-0.473-0.813
		c-0.202-0.114-0.6-0.245-1.194-0.396l-1.109-0.28c-0.708-0.174-1.229-0.371-1.566-0.588c-0.6-0.377-0.899-0.899-0.899-1.565
		c0-0.788,0.282-1.421,0.848-1.909c0.567-0.485,1.328-0.729,2.284-0.729c1.25,0,2.152,0.368,2.706,1.101
		c0.346,0.466,0.514,0.967,0.504,1.504h-1.318c-0.026-0.314-0.137-0.602-0.334-0.861c-0.32-0.366-0.876-0.55-1.667-0.55
		c-0.527,0-0.927,0.101-1.198,0.302c-0.271,0.202-0.408,0.467-0.408,0.798c0,0.363,0.179,0.652,0.536,0.87
		c0.207,0.128,0.511,0.242,0.915,0.34l0.923,0.225c1.002,0.244,1.675,0.479,2.016,0.706c0.543,0.355,0.815,0.917,0.815,1.682
		c0,0.74-0.281,1.378-0.842,1.916c-0.561,0.536-1.415,0.806-2.563,0.806c-1.235,0-2.11-0.282-2.625-0.841
		C134.56,28.399,134.285,27.705,134.249,26.878z"/>
	<path d="M144.461,22.903c0.434-0.463,0.971-0.694,1.613-0.694c0.894,0,1.532,0.335,1.915,1.009
		c0.207,0.361,0.338,0.844,0.396,1.449h-4.614C143.797,23.954,144.027,23.366,144.461,22.903z M143.321,22.241
		c-0.724,0.832-1.085,1.915-1.085,3.248c0,1.355,0.358,2.408,1.078,3.161c0.718,0.749,1.594,1.126,2.628,1.126
		c0.424,0,0.804-0.04,1.14-0.123c0.625-0.147,1.149-0.426,1.574-0.838c0.253-0.236,0.482-0.542,0.686-0.919
		c0.205-0.374,0.325-0.714,0.361-1.019h-1.372c-0.104,0.366-0.279,0.69-0.527,0.969c-0.435,0.481-1.017,0.72-1.746,0.72
		c-0.78,0-1.357-0.254-1.729-0.763c-0.373-0.509-0.571-1.186-0.597-2.028h6.087c0-0.838-0.042-1.447-0.124-1.83
		c-0.094-0.559-0.279-1.046-0.559-1.466c-0.29-0.438-0.71-0.796-1.264-1.072c-0.553-0.279-1.125-0.417-1.713-0.417
		C144.991,20.992,144.045,21.408,143.321,22.241z"/>
	<path d="M151.529,29.481v-8.263h1.418v8.263H151.529z M151.529,19.674v-1.582h1.418v1.582H151.529z"/>
	<path d="M155.092,29.481V18.092h1.396v11.389H155.092z"/>
	<path d="M164.529,23.055c0.437-0.538,1.006-0.807,1.71-0.807c0.629,0,1.159,0.253,1.588,0.757c0.43,0.504,0.645,1.28,0.645,2.331
		c0,1.039-0.208,1.835-0.625,2.391c-0.416,0.556-0.948,0.834-1.593,0.834c-0.833,0-1.438-0.3-1.814-0.9
		c-0.378-0.599-0.566-1.343-0.566-2.233C163.874,24.383,164.092,23.592,164.529,23.055z M163.327,22.361
		c-0.618,0.887-0.927,1.935-0.927,3.143c0,1.292,0.338,2.328,1.016,3.106c0.677,0.776,1.479,1.166,2.404,1.166
		c0.574,0,1.083-0.113,1.528-0.34c0.444-0.227,0.83-0.596,1.155-1.107v1.153h1.256V18.054h-1.34v4.194
		c-0.317-0.386-0.599-0.659-0.847-0.813c-0.427-0.268-0.96-0.403-1.597-0.403C164.827,21.031,163.944,21.474,163.327,22.361z"/>
	<path d="M173.577,22.903c0.435-0.463,0.972-0.694,1.614-0.694c0.893,0,1.532,0.335,1.915,1.009
		c0.207,0.361,0.338,0.844,0.395,1.449h-4.613C172.912,23.954,173.144,23.366,173.577,22.903z M172.439,22.241
		c-0.725,0.832-1.086,1.915-1.086,3.248c0,1.355,0.358,2.408,1.077,3.161c0.718,0.749,1.595,1.126,2.63,1.126
		c0.423,0,0.803-0.04,1.138-0.123c0.626-0.147,1.15-0.426,1.574-0.838c0.254-0.236,0.483-0.542,0.687-0.919
		c0.204-0.374,0.325-0.714,0.36-1.019h-1.373c-0.103,0.366-0.279,0.69-0.527,0.969c-0.434,0.481-1.016,0.72-1.743,0.72
		c-0.782,0-1.357-0.254-1.729-0.763c-0.374-0.509-0.571-1.186-0.599-2.028h6.088c0-0.838-0.041-1.447-0.124-1.83
		c-0.093-0.559-0.28-1.046-0.559-1.466c-0.289-0.438-0.71-0.796-1.264-1.072c-0.553-0.279-1.124-0.417-1.714-0.417
		C174.107,20.992,173.16,21.408,172.439,22.241z"/>
	<path d="M185.097,29.481v-8.303h1.325v1.434c0.109-0.279,0.375-0.619,0.8-1.021c0.423-0.398,0.913-0.6,1.466-0.6
		c0.026,0,0.07,0.003,0.132,0.009c0.063,0.004,0.168,0.015,0.318,0.03v1.474c-0.084-0.015-0.161-0.026-0.23-0.031
		c-0.07-0.006-0.146-0.009-0.228-0.009c-0.705,0-1.244,0.227-1.621,0.679c-0.378,0.452-0.566,0.973-0.566,1.564v4.774H185.097z"/>
	<path d="M192.103,22.903c0.434-0.463,0.971-0.694,1.613-0.694c0.893,0,1.532,0.335,1.915,1.009
		c0.207,0.361,0.338,0.844,0.395,1.449h-4.613C191.438,23.954,191.667,23.366,192.103,22.903z M190.961,22.241
		c-0.723,0.832-1.084,1.915-1.084,3.248c0,1.355,0.358,2.408,1.077,3.161c0.718,0.749,1.595,1.126,2.628,1.126
		c0.424,0,0.804-0.04,1.141-0.123c0.625-0.147,1.15-0.426,1.575-0.838c0.252-0.236,0.481-0.542,0.686-0.919
		c0.204-0.374,0.323-0.714,0.36-1.019h-1.372c-0.103,0.366-0.279,0.69-0.527,0.969c-0.435,0.481-1.016,0.72-1.746,0.72
		c-0.78,0-1.356-0.254-1.729-0.763c-0.371-0.509-0.571-1.186-0.596-2.028h6.087c0-0.838-0.042-1.447-0.124-1.83
		c-0.094-0.559-0.279-1.046-0.559-1.466c-0.288-0.438-0.709-0.796-1.264-1.072c-0.553-0.279-1.125-0.417-1.712-0.417
		C192.632,20.992,191.686,21.408,190.961,22.241z"/>
	<path d="M202.373,20.938c0.936,0,1.697,0.228,2.284,0.682c0.586,0.457,0.939,1.239,1.058,2.35h-1.357
		c-0.083-0.512-0.271-0.936-0.567-1.274c-0.294-0.34-0.766-0.508-1.418-0.508c-0.89,0-1.524,0.435-1.909,1.302
		c-0.248,0.563-0.371,1.259-0.371,2.086c0,0.833,0.175,1.533,0.527,2.102c0.353,0.57,0.904,0.853,1.659,0.853
		c0.581,0,1.039-0.176,1.377-0.531c0.339-0.354,0.571-0.838,0.702-1.454h1.357c-0.155,1.101-0.542,1.907-1.164,2.416
		c-0.619,0.507-1.414,0.764-2.38,0.764c-1.086,0-1.952-0.398-2.596-1.19c-0.648-0.793-0.97-1.786-0.97-2.975
		c0-1.458,0.354-2.592,1.062-3.403C200.375,21.344,201.276,20.938,202.373,20.938z"/>
	<path d="M207.11,29.481V18.054h1.397v4.249c0.329-0.42,0.628-0.714,0.89-0.884c0.451-0.295,1.013-0.443,1.684-0.443
		c1.204,0,2.021,0.423,2.451,1.265c0.233,0.46,0.349,1.097,0.349,1.915v5.325h-1.435v-5.233c0-0.61-0.077-1.057-0.231-1.34
		c-0.254-0.455-0.73-0.682-1.428-0.682c-0.579,0-1.104,0.199-1.574,0.596c-0.47,0.398-0.705,1.15-0.705,2.256v4.403H207.11z"/>
	<path d="M217.698,22.903c0.435-0.463,0.971-0.694,1.613-0.694c0.895,0,1.533,0.335,1.915,1.009
		c0.208,0.361,0.339,0.844,0.397,1.449h-4.613C217.035,23.954,217.265,23.366,217.698,22.903z M216.559,22.241
		c-0.724,0.832-1.086,1.915-1.086,3.248c0,1.355,0.36,2.408,1.079,3.161c0.718,0.749,1.594,1.126,2.628,1.126
		c0.424,0,0.804-0.04,1.14-0.123c0.625-0.147,1.15-0.426,1.575-0.838c0.253-0.236,0.481-0.542,0.686-0.919
		c0.204-0.374,0.325-0.714,0.36-1.019h-1.372c-0.104,0.366-0.279,0.69-0.527,0.969c-0.435,0.481-1.016,0.72-1.745,0.72
		c-0.781,0-1.357-0.254-1.729-0.763c-0.372-0.509-0.571-1.186-0.597-2.028h6.087c0-0.838-0.042-1.447-0.123-1.83
		c-0.095-0.559-0.28-1.046-0.559-1.466c-0.29-0.438-0.712-0.796-1.264-1.072c-0.553-0.279-1.124-0.417-1.714-0.417
		C218.229,20.992,217.283,21.408,216.559,22.241z"/>
	<path d="M224.805,29.481v-8.303h1.327v1.434c0.107-0.279,0.374-0.619,0.798-1.021c0.424-0.398,0.911-0.6,1.466-0.6
		c0.024,0,0.07,0.003,0.132,0.009c0.063,0.004,0.167,0.015,0.317,0.03v1.474c-0.081-0.015-0.158-0.026-0.228-0.031
		c-0.071-0.006-0.147-0.009-0.229-0.009c-0.703,0-1.244,0.227-1.622,0.679c-0.376,0.452-0.565,0.973-0.565,1.564v4.774H224.805z"/>
	<path d="M233.254,20.938c0.936,0,1.696,0.228,2.282,0.682c0.588,0.457,0.94,1.239,1.059,2.35h-1.355
		c-0.083-0.512-0.273-0.936-0.567-1.274c-0.294-0.34-0.769-0.508-1.418-0.508c-0.89,0-1.525,0.435-1.908,1.302
		c-0.249,0.563-0.373,1.259-0.373,2.086c0,0.833,0.176,1.533,0.529,2.102c0.351,0.57,0.903,0.853,1.657,0.853
		c0.581,0,1.038-0.176,1.377-0.531c0.34-0.354,0.573-0.838,0.703-1.454h1.355c-0.155,1.101-0.542,1.907-1.163,2.416
		c-0.621,0.507-1.414,0.764-2.38,0.764c-1.086,0-1.953-0.398-2.598-1.19c-0.646-0.793-0.97-1.786-0.97-2.975
		c0-1.458,0.354-2.592,1.062-3.403C231.255,21.344,232.157,20.938,233.254,20.938z"/>
	<path d="M237.99,29.481V18.054h1.397v4.249c0.331-0.42,0.628-0.714,0.892-0.884c0.45-0.295,1.011-0.443,1.682-0.443
		c1.206,0,2.022,0.423,2.451,1.265c0.233,0.46,0.349,1.097,0.349,1.915v5.325h-1.434v-5.233c0-0.61-0.078-1.057-0.233-1.34
		c-0.254-0.455-0.729-0.682-1.427-0.682c-0.579,0-1.104,0.199-1.575,0.596c-0.47,0.398-0.705,1.15-0.705,2.256v4.403H237.99z"/>
	<path d="M248.58,22.903c0.433-0.463,0.971-0.694,1.611-0.694c0.895,0,1.533,0.335,1.916,1.009c0.207,0.361,0.338,0.844,0.395,1.449
		h-4.613C247.914,23.954,248.145,23.366,248.58,22.903z M247.44,22.241c-0.725,0.832-1.087,1.915-1.087,3.248
		c0,1.355,0.36,2.408,1.078,3.161c0.718,0.749,1.594,1.126,2.628,1.126c0.424,0,0.804-0.04,1.141-0.123
		c0.625-0.147,1.15-0.426,1.575-0.838c0.252-0.236,0.48-0.542,0.686-0.919c0.204-0.374,0.323-0.714,0.36-1.019h-1.373
		c-0.104,0.366-0.28,0.69-0.528,0.969c-0.434,0.481-1.016,0.72-1.745,0.72c-0.779,0-1.357-0.254-1.728-0.763
		c-0.374-0.509-0.573-1.186-0.599-2.028h6.088c0-0.838-0.042-1.447-0.125-1.83c-0.092-0.559-0.277-1.046-0.558-1.466
		c-0.29-0.438-0.71-0.796-1.264-1.072c-0.553-0.279-1.124-0.417-1.714-0.417C249.11,20.992,248.162,21.408,247.44,22.241z"/>
	<path d="M255.135,26.878h1.34c0.042,0.464,0.158,0.822,0.351,1.07c0.351,0.449,0.96,0.674,1.829,0.674
		c0.518,0,0.971-0.113,1.365-0.337c0.394-0.226,0.59-0.573,0.59-1.045c0-0.355-0.158-0.628-0.474-0.813
		c-0.201-0.114-0.599-0.245-1.193-0.396l-1.109-0.28c-0.709-0.174-1.232-0.371-1.567-0.588c-0.599-0.377-0.899-0.899-0.899-1.565
		c0-0.788,0.284-1.421,0.849-1.909c0.565-0.485,1.327-0.729,2.284-0.729c1.25,0,2.152,0.368,2.707,1.101
		c0.346,0.466,0.515,0.967,0.504,1.504h-1.319c-0.024-0.314-0.138-0.602-0.334-0.861c-0.32-0.366-0.876-0.55-1.667-0.55
		c-0.527,0-0.926,0.101-1.198,0.302c-0.271,0.202-0.407,0.467-0.407,0.798c0,0.363,0.179,0.652,0.536,0.87
		c0.205,0.128,0.512,0.242,0.915,0.34l0.923,0.225c1.002,0.244,1.674,0.479,2.014,0.706c0.544,0.355,0.815,0.917,0.815,1.682
		c0,0.74-0.28,1.378-0.841,1.916c-0.562,0.536-1.416,0.806-2.563,0.806c-1.236,0-2.111-0.282-2.625-0.841
		C255.446,28.399,255.172,27.705,255.135,26.878z"/>
	<path d="M269.76,22.903c0.434-0.463,0.971-0.694,1.611-0.694c0.895,0,1.533,0.335,1.916,1.009c0.207,0.361,0.339,0.844,0.396,1.449
		h-4.613C269.095,23.954,269.325,23.366,269.76,22.903z M268.619,22.241c-0.723,0.832-1.084,1.915-1.084,3.248
		c0,1.355,0.358,2.408,1.077,3.161c0.718,0.749,1.594,1.126,2.628,1.126c0.424,0,0.806-0.04,1.141-0.123
		c0.625-0.147,1.15-0.426,1.573-0.838c0.254-0.236,0.482-0.542,0.686-0.919c0.206-0.374,0.325-0.714,0.362-1.019h-1.373
		c-0.104,0.366-0.28,0.69-0.528,0.969c-0.434,0.481-1.014,0.72-1.745,0.72c-0.78,0-1.357-0.254-1.728-0.763
		c-0.374-0.509-0.573-1.186-0.597-2.028h6.087c0-0.838-0.042-1.447-0.124-1.83c-0.093-0.559-0.279-1.046-0.559-1.466
		c-0.288-0.438-0.711-0.796-1.264-1.072c-0.553-0.279-1.124-0.417-1.714-0.417C270.29,20.992,269.343,21.408,268.619,22.241z"/>
	<path d="M276.827,29.481v-8.303h1.326v1.18c0.392-0.487,0.809-0.836,1.249-1.048c0.439-0.211,0.927-0.318,1.466-0.318
		c1.178,0,1.974,0.41,2.388,1.234c0.228,0.449,0.342,1.092,0.342,1.93v5.325h-1.42v-5.233c0-0.505-0.075-0.913-0.225-1.224
		c-0.248-0.516-0.697-0.776-1.35-0.776c-0.329,0-0.601,0.034-0.813,0.101c-0.383,0.113-0.718,0.342-1.008,0.683
		c-0.232,0.274-0.383,0.558-0.453,0.849c-0.07,0.292-0.104,0.71-0.104,1.253v4.348H276.827z"/>
	<path d="M105.128,45.699h1.342c0.042,0.462,0.158,0.824,0.349,1.072c0.352,0.447,0.961,0.674,1.83,0.674
		c0.517,0,0.972-0.114,1.365-0.337c0.393-0.227,0.59-0.573,0.59-1.047c0-0.355-0.158-0.628-0.473-0.812
		c-0.202-0.113-0.6-0.245-1.194-0.395l-1.109-0.282c-0.708-0.175-1.23-0.371-1.566-0.588c-0.6-0.376-0.9-0.897-0.9-1.565
		c0-0.787,0.283-1.421,0.849-1.908c0.566-0.484,1.327-0.729,2.284-0.729c1.251,0,2.153,0.368,2.706,1.103
		c0.346,0.466,0.515,0.965,0.504,1.504h-1.319c-0.026-0.316-0.137-0.604-0.333-0.861c-0.321-0.368-0.876-0.552-1.667-0.552
		c-0.528,0-0.927,0.101-1.198,0.304c-0.272,0.202-0.408,0.465-0.408,0.796c0,0.364,0.179,0.652,0.536,0.87
		c0.207,0.129,0.511,0.242,0.914,0.34l0.923,0.227c1.003,0.242,1.675,0.478,2.017,0.705c0.543,0.355,0.814,0.919,0.814,1.682
		c0,0.742-0.281,1.382-0.841,1.918c-0.561,0.539-1.415,0.809-2.563,0.809c-1.235,0-2.111-0.282-2.625-0.842
		C105.44,47.222,105.165,46.526,105.128,45.699z"/>
	<path d="M116.783,39.759c0.936,0,1.697,0.227,2.284,0.68c0.586,0.456,0.939,1.24,1.058,2.35h-1.357
		c-0.083-0.512-0.271-0.935-0.566-1.274c-0.295-0.34-0.768-0.509-1.419-0.509c-0.889,0-1.525,0.435-1.907,1.302
		c-0.248,0.563-0.372,1.259-0.372,2.086c0,0.833,0.175,1.535,0.527,2.104s0.904,0.852,1.66,0.852c0.579,0,1.038-0.175,1.376-0.53
		c0.339-0.355,0.572-0.839,0.702-1.455h1.357c-0.155,1.103-0.543,1.908-1.163,2.417c-0.62,0.508-1.414,0.763-2.38,0.763
		c-1.085,0-1.951-0.395-2.598-1.188s-0.969-1.789-0.969-2.978c0-1.458,0.354-2.592,1.062-3.404
		C114.785,40.164,115.687,39.759,116.783,39.759z"/>
	<path d="M121.521,48.306v-8.268h1.419v8.268H121.521z M121.521,38.494v-1.581h1.419v1.581H121.521z"/>
	<path d="M126.711,41.9c0.435-0.462,0.972-0.695,1.613-0.695c0.894,0,1.533,0.337,1.916,1.008c0.207,0.361,0.338,0.846,0.395,1.449
		h-4.613C126.047,42.948,126.277,42.363,126.711,41.9z M125.572,41.236c-0.725,0.833-1.086,1.915-1.086,3.25
		c0,1.354,0.359,2.408,1.078,3.162c0.719,0.75,1.595,1.127,2.629,1.127c0.423,0,0.803-0.04,1.139-0.123
		c0.626-0.147,1.15-0.426,1.574-0.839c0.253-0.236,0.482-0.542,0.687-0.919c0.204-0.374,0.324-0.717,0.361-1.02h-1.373
		c-0.104,0.368-0.279,0.692-0.527,0.971c-0.434,0.481-1.016,0.72-1.745,0.72c-0.781,0-1.357-0.254-1.729-0.763
		c-0.373-0.508-0.571-1.188-0.598-2.031h6.087c0-0.836-0.042-1.446-0.124-1.829c-0.093-0.558-0.279-1.047-0.558-1.464
		c-0.29-0.441-0.711-0.799-1.264-1.075c-0.553-0.275-1.125-0.414-1.714-0.414C127.241,39.989,126.295,40.402,125.572,41.236z"/>
	<path d="M133.873,48.306v-8.308h1.326v1.18c0.393-0.487,0.809-0.836,1.248-1.048c0.44-0.211,0.928-0.319,1.466-0.319
		c1.179,0,1.975,0.411,2.389,1.235c0.227,0.45,0.341,1.093,0.341,1.93v5.33h-1.419v-5.238c0-0.505-0.075-0.913-0.225-1.222
		c-0.248-0.518-0.698-0.778-1.349-0.778c-0.332,0-0.603,0.034-0.814,0.101c-0.383,0.113-0.719,0.343-1.008,0.683
		c-0.232,0.275-0.384,0.558-0.454,0.849c-0.069,0.294-0.105,0.71-0.105,1.253v4.353H133.873z"/>
	<path d="M145.903,39.759c0.935,0,1.696,0.227,2.284,0.68c0.587,0.456,0.939,1.24,1.059,2.35h-1.357
		c-0.083-0.512-0.272-0.935-0.566-1.274c-0.295-0.34-0.769-0.509-1.419-0.509c-0.889,0-1.525,0.435-1.908,1.302
		c-0.248,0.563-0.372,1.259-0.372,2.086c0,0.833,0.175,1.535,0.528,2.104c0.351,0.57,0.904,0.852,1.659,0.852
		c0.579,0,1.038-0.175,1.376-0.53c0.339-0.355,0.573-0.839,0.703-1.455h1.357c-0.156,1.103-0.543,1.908-1.164,2.417
		c-0.62,0.508-1.414,0.763-2.38,0.763c-1.086,0-1.952-0.395-2.598-1.188c-0.646-0.793-0.97-1.789-0.97-2.978
		c0-1.458,0.354-2.592,1.062-3.404C143.905,40.164,144.808,39.759,145.903,39.759z"/>
	<path d="M152.401,41.723c0.434-0.462,0.971-0.692,1.613-0.692c0.894,0,1.532,0.334,1.915,1.008
		c0.207,0.362,0.338,0.846,0.396,1.449h-4.614C151.737,42.773,151.967,42.186,152.401,41.723z M151.261,41.061
		c-0.724,0.833-1.085,1.915-1.085,3.247c0,1.357,0.358,2.411,1.077,3.165c0.718,0.75,1.595,1.127,2.628,1.127
		c0.424,0,0.804-0.043,1.141-0.123c0.625-0.147,1.149-0.426,1.574-0.839c0.253-0.236,0.482-0.542,0.686-0.919
		c0.205-0.374,0.325-0.717,0.361-1.02h-1.373c-0.104,0.364-0.279,0.692-0.527,0.971c-0.435,0.481-1.016,0.72-1.745,0.72
		c-0.781,0-1.357-0.254-1.729-0.763c-0.372-0.511-0.571-1.188-0.597-2.031h6.087c0-0.836-0.042-1.446-0.124-1.829
		c-0.093-0.561-0.279-1.048-0.558-1.468c-0.29-0.438-0.711-0.796-1.265-1.072c-0.553-0.279-1.124-0.417-1.713-0.417
		C152.931,39.811,151.985,40.228,151.261,41.061z"/>
	<path d="M158.957,45.699h1.342c0.042,0.462,0.158,0.824,0.349,1.072c0.352,0.447,0.962,0.674,1.83,0.674
		c0.517,0,0.972-0.114,1.365-0.337c0.393-0.227,0.589-0.573,0.589-1.047c0-0.355-0.157-0.628-0.472-0.812
		c-0.202-0.113-0.6-0.245-1.194-0.395l-1.109-0.282c-0.708-0.175-1.23-0.371-1.567-0.588c-0.6-0.376-0.899-0.897-0.899-1.565
		c0-0.787,0.283-1.421,0.849-1.908c0.566-0.484,1.327-0.729,2.283-0.729c1.251,0,2.153,0.368,2.707,1.103
		c0.346,0.466,0.514,0.965,0.504,1.504h-1.318c-0.026-0.316-0.137-0.604-0.333-0.861c-0.321-0.368-0.876-0.552-1.667-0.552
		c-0.528,0-0.927,0.101-1.199,0.304c-0.271,0.202-0.407,0.465-0.407,0.796c0,0.364,0.179,0.652,0.535,0.87
		c0.207,0.129,0.512,0.242,0.915,0.34l0.923,0.227c1.002,0.242,1.675,0.478,2.017,0.705c0.542,0.355,0.814,0.919,0.814,1.682
		c0,0.742-0.281,1.382-0.841,1.918c-0.561,0.539-1.416,0.809-2.563,0.809c-1.236,0-2.111-0.282-2.625-0.842
		C159.269,47.222,158.993,46.526,158.957,45.699z"/>
	<path d="M171.822,48.306V36.874h1.395v4.249c0.331-0.42,0.628-0.714,0.893-0.882c0.449-0.297,1.009-0.444,1.682-0.444
		c1.204,0,2.021,0.423,2.451,1.265c0.233,0.459,0.348,1.097,0.348,1.915v5.33h-1.434v-5.238c0-0.609-0.078-1.057-0.232-1.338
		c-0.254-0.457-0.729-0.683-1.426-0.683c-0.581,0-1.104,0.199-1.575,0.597c-0.47,0.398-0.706,1.149-0.706,2.255v4.408H171.822z"/>
	<path d="M180.618,39.998h1.427v5.514c0,0.423,0.066,0.772,0.202,1.042c0.247,0.496,0.709,0.744,1.386,0.744
		c0.973,0,1.634-0.435,1.987-1.305c0.19-0.466,0.286-1.103,0.286-1.918v-4.077h1.396v8.308h-1.319L186,47.081
		c-0.183,0.315-0.406,0.582-0.676,0.799c-0.533,0.432-1.179,0.649-1.939,0.649c-1.183,0-1.99-0.395-2.418-1.185
		c-0.233-0.423-0.349-0.99-0.349-1.7V39.998z"/>
	<path d="M189.477,48.306v-8.308h1.38v1.18c0.331-0.408,0.631-0.708,0.9-0.892c0.459-0.315,0.98-0.475,1.565-0.475
		c0.662,0,1.195,0.163,1.598,0.49c0.228,0.187,0.434,0.459,0.62,0.821c0.31-0.444,0.674-0.775,1.094-0.99
		c0.418-0.214,0.888-0.322,1.411-0.322c1.117,0,1.876,0.405,2.279,1.21c0.217,0.435,0.326,1.02,0.326,1.752v5.532h-1.449v-5.771
		c0-0.555-0.139-0.935-0.417-1.14c-0.276-0.208-0.613-0.313-1.011-0.313c-0.548,0-1.019,0.184-1.416,0.551
		c-0.395,0.368-0.593,0.98-0.593,1.838v4.833h-1.42v-5.422c0-0.563-0.065-0.974-0.2-1.234c-0.211-0.386-0.608-0.582-1.188-0.582
		c-0.527,0-1.006,0.205-1.438,0.612c-0.432,0.411-0.646,1.149-0.646,2.218v4.408H189.477z"/>
	<path d="M204.416,44.93c0.254-0.144,0.634-0.251,1.14-0.319l0.846-0.107c0.257-0.031,0.522-0.083,0.792-0.156
		c0.268-0.07,0.489-0.163,0.657-0.273v1.127c0,0.858-0.388,1.477-1.161,1.854c-0.461,0.229-0.937,0.343-1.427,0.343
		c-0.404,0-0.752-0.116-1.048-0.349c-0.294-0.233-0.441-0.551-0.441-0.956C203.772,45.561,203.987,45.172,204.416,44.93z
		 M203.036,44.333c-0.481,0.423-0.722,1.021-0.722,1.792c0,0.705,0.245,1.29,0.732,1.758c0.489,0.465,1.118,0.701,1.889,0.701
		c0.642,0,1.227-0.138,1.761-0.41c0.532-0.276,0.94-0.598,1.224-0.971c0.046,0.331,0.127,0.588,0.241,0.769
		c0.217,0.34,0.567,0.511,1.046,0.511c0.198,0,0.353-0.006,0.466-0.024c0.115-0.015,0.279-0.052,0.496-0.116v-1.029
		c-0.087,0.015-0.17,0.027-0.248,0.034c-0.077,0.009-0.147,0.012-0.21,0.012c-0.19,0-0.315-0.043-0.375-0.132
		c-0.06-0.089-0.089-0.205-0.089-0.349v-4.785c0-0.787-0.302-1.366-0.908-1.737c-0.61-0.374-1.402-0.561-2.38-0.561
		c-0.842,0-1.582,0.202-2.221,0.601c-0.639,0.401-0.97,1.115-0.997,2.138h1.303c0.052-0.429,0.164-0.754,0.334-0.971
		c0.305-0.392,0.822-0.588,1.55-0.588c0.631,0,1.115,0.107,1.455,0.322c0.339,0.214,0.507,0.561,0.507,1.036
		c0,0.233-0.031,0.41-0.094,0.536c-0.108,0.227-0.323,0.361-0.643,0.401l-2.226,0.279C204.147,43.649,203.517,43.91,203.036,44.333z
		"/>
	<path d="M211.53,48.306v-8.268h1.42v8.268H211.53z M211.53,38.494v-1.581h1.42v1.581H211.53z"/>
	<path d="M215.055,48.306v-8.308h1.326v1.18c0.392-0.487,0.809-0.836,1.249-1.048c0.438-0.211,0.928-0.319,1.464-0.319
		c1.179,0,1.974,0.411,2.388,1.235c0.229,0.45,0.343,1.093,0.343,1.93v5.33h-1.42v-5.238c0-0.505-0.075-0.913-0.225-1.222
		c-0.248-0.518-0.699-0.778-1.35-0.778c-0.331,0-0.602,0.034-0.815,0.101c-0.381,0.113-0.718,0.343-1.006,0.683
		c-0.234,0.275-0.385,0.558-0.454,0.849c-0.07,0.294-0.105,0.71-0.105,1.253v4.353H215.055z"/>
	<path d="M225.643,41.723c0.434-0.462,0.971-0.692,1.613-0.692c0.895,0,1.532,0.334,1.915,1.008
		c0.207,0.362,0.338,0.846,0.396,1.449h-4.614C224.979,42.773,225.208,42.186,225.643,41.723z M224.502,41.061
		c-0.723,0.833-1.084,1.915-1.084,3.247c0,1.357,0.358,2.411,1.079,3.165c0.717,0.75,1.593,1.127,2.628,1.127
		c0.423,0,0.804-0.043,1.14-0.123c0.625-0.147,1.149-0.426,1.575-0.839c0.251-0.236,0.481-0.542,0.686-0.919
		c0.202-0.374,0.323-0.717,0.36-1.02h-1.372c-0.104,0.364-0.28,0.692-0.528,0.971c-0.434,0.481-1.016,0.72-1.743,0.72
		c-0.781,0-1.357-0.254-1.729-0.763c-0.372-0.511-0.571-1.188-0.599-2.031h6.088c0-0.836-0.042-1.446-0.124-1.829
		c-0.094-0.561-0.28-1.048-0.558-1.468c-0.291-0.438-0.712-0.796-1.265-1.072c-0.553-0.279-1.125-0.417-1.712-0.417
		C226.171,39.811,225.227,40.228,224.502,41.061z"/>
	<path d="M232.199,45.699h1.342c0.041,0.462,0.158,0.824,0.349,1.072c0.351,0.447,0.96,0.674,1.83,0.674
		c0.517,0,0.971-0.114,1.365-0.337c0.392-0.227,0.588-0.573,0.588-1.047c0-0.355-0.158-0.628-0.473-0.812
		c-0.202-0.113-0.599-0.245-1.193-0.395l-1.109-0.282c-0.708-0.175-1.23-0.371-1.567-0.588c-0.599-0.376-0.899-0.897-0.899-1.565
		c0-0.787,0.282-1.421,0.848-1.908c0.567-0.484,1.328-0.729,2.284-0.729c1.25,0,2.153,0.368,2.706,1.103
		c0.346,0.466,0.515,0.965,0.504,1.504h-1.317c-0.026-0.316-0.138-0.604-0.334-0.861c-0.322-0.368-0.876-0.552-1.668-0.552
		c-0.527,0-0.927,0.101-1.198,0.304c-0.271,0.202-0.408,0.465-0.408,0.796c0,0.364,0.178,0.652,0.536,0.87
		c0.207,0.129,0.512,0.242,0.915,0.34l0.922,0.227c1.003,0.242,1.676,0.478,2.016,0.705c0.543,0.355,0.814,0.919,0.814,1.682
		c0,0.742-0.28,1.382-0.841,1.918c-0.562,0.539-1.415,0.809-2.563,0.809c-1.236,0-2.11-0.282-2.625-0.842
		S232.235,46.526,232.199,45.699z"/>
	<path d="M246.601,41.876c0.438-0.539,1.008-0.809,1.711-0.809c0.629,0,1.159,0.254,1.588,0.756
		c0.429,0.505,0.645,1.281,0.645,2.332c0,1.038-0.208,1.835-0.625,2.392c-0.417,0.558-0.946,0.836-1.593,0.836
		c-0.832,0-1.438-0.3-1.815-0.9c-0.377-0.601-0.565-1.345-0.565-2.236C245.947,43.202,246.166,42.412,246.601,41.876z M245.4,41.181
		c-0.618,0.888-0.927,1.936-0.927,3.143c0,1.292,0.338,2.331,1.015,3.109c0.677,0.778,1.478,1.167,2.405,1.167
		c0.573,0,1.082-0.113,1.527-0.34c0.444-0.229,0.829-0.597,1.155-1.109v1.155h1.256V36.874h-1.342v4.194
		c-0.314-0.386-0.596-0.659-0.844-0.812c-0.431-0.27-0.962-0.404-1.599-0.404C246.901,39.851,246.018,40.295,245.4,41.181z"/>
	<path d="M253.859,39.998h1.426v5.514c0,0.423,0.067,0.772,0.202,1.042c0.248,0.496,0.71,0.744,1.388,0.744
		c0.973,0,1.634-0.435,1.985-1.305c0.191-0.466,0.288-1.103,0.288-1.918v-4.077h1.396v8.308h-1.317l0.014-1.225
		c-0.181,0.315-0.406,0.582-0.674,0.799c-0.533,0.432-1.179,0.649-1.939,0.649c-1.184,0-1.99-0.395-2.418-1.185
		c-0.233-0.423-0.35-0.99-0.35-1.7V39.998z"/>
	<path d="M272.116,36.601c1.443,0,2.563,0.38,3.359,1.139c0.795,0.763,1.237,1.624,1.325,2.592h-1.502
		c-0.171-0.735-0.512-1.317-1.02-1.746c-0.51-0.429-1.224-0.644-2.145-0.644c-1.123,0-2.028,0.396-2.717,1.183
		c-0.69,0.791-1.037,1.998-1.037,3.627c0,1.333,0.313,2.414,0.934,3.244c0.624,0.833,1.553,1.247,2.788,1.247
		c1.138,0,2.003-0.438,2.598-1.314c0.317-0.459,0.552-1.063,0.707-1.813h1.505c-0.136,1.201-0.581,2.208-1.335,3.021
		c-0.904,0.977-2.123,1.464-3.659,1.464c-1.323,0-2.436-0.401-3.334-1.201c-1.184-1.06-1.775-2.699-1.775-4.91
		c0-1.682,0.444-3.061,1.334-4.136C269.101,37.186,270.426,36.601,272.116,36.601z"/>
	<path d="M280.309,44.93c0.254-0.144,0.634-0.251,1.141-0.319l0.844-0.107c0.259-0.031,0.522-0.083,0.792-0.156
		c0.268-0.07,0.487-0.163,0.659-0.273v1.127c0,0.858-0.388,1.477-1.164,1.854c-0.459,0.229-0.935,0.343-1.426,0.343
		c-0.403,0-0.752-0.116-1.047-0.349c-0.294-0.233-0.441-0.551-0.441-0.956C279.665,45.561,279.88,45.172,280.309,44.93z
		 M278.929,44.333c-0.481,0.423-0.72,1.021-0.72,1.792c0,0.705,0.244,1.29,0.732,1.758c0.487,0.465,1.118,0.701,1.887,0.701
		c0.642,0,1.229-0.138,1.762-0.41c0.531-0.276,0.94-0.598,1.224-0.971c0.047,0.331,0.127,0.588,0.24,0.769
		c0.218,0.34,0.567,0.511,1.048,0.511c0.196,0,0.351-0.006,0.466-0.024c0.113-0.015,0.279-0.052,0.496-0.116v-1.029
		c-0.089,0.015-0.171,0.027-0.248,0.034c-0.078,0.009-0.147,0.012-0.21,0.012c-0.191,0-0.317-0.043-0.375-0.132
		c-0.06-0.089-0.09-0.205-0.09-0.349v-4.785c0-0.787-0.302-1.366-0.907-1.737c-0.611-0.374-1.404-0.561-2.381-0.561
		c-0.843,0-1.583,0.202-2.221,0.601c-0.637,0.401-0.971,1.115-0.996,2.138h1.302c0.052-0.429,0.164-0.754,0.333-0.971
		c0.305-0.392,0.823-0.588,1.55-0.588c0.631,0,1.115,0.107,1.455,0.322c0.337,0.214,0.507,0.561,0.507,1.036
		c0,0.233-0.03,0.41-0.093,0.536c-0.107,0.227-0.322,0.361-0.642,0.401l-2.225,0.279C280.041,43.649,279.409,43.91,278.929,44.333z"
		/>
	<path d="M287.423,48.306v-8.308h1.326v1.18c0.392-0.487,0.809-0.836,1.249-1.048c0.439-0.211,0.926-0.319,1.466-0.319
		c1.178,0,1.974,0.411,2.388,1.235c0.227,0.45,0.342,1.093,0.342,1.93v5.33h-1.42v-5.238c0-0.505-0.075-0.913-0.224-1.222
		c-0.249-0.518-0.699-0.778-1.35-0.778c-0.331,0-0.604,0.034-0.815,0.101c-0.383,0.113-0.718,0.343-1.008,0.683
		c-0.233,0.275-0.384,0.558-0.455,0.849c-0.069,0.294-0.104,0.71-0.104,1.253v4.353H287.423z"/>
	<path d="M297.966,44.93c0.252-0.144,0.632-0.251,1.139-0.319l0.844-0.107c0.259-0.031,0.524-0.083,0.792-0.156
		c0.268-0.07,0.488-0.163,0.66-0.273v1.127c0,0.858-0.389,1.477-1.164,1.854c-0.46,0.229-0.936,0.343-1.428,0.343
		c-0.403,0-0.752-0.116-1.046-0.349c-0.294-0.233-0.443-0.551-0.443-0.956C297.321,45.561,297.535,45.172,297.966,44.93z
		 M296.585,44.333c-0.481,0.423-0.723,1.021-0.723,1.792c0,0.705,0.245,1.29,0.733,1.758c0.489,0.465,1.118,0.701,1.889,0.701
		c0.64,0,1.227-0.138,1.76-0.41c0.532-0.276,0.94-0.598,1.226-0.971c0.046,0.331,0.127,0.588,0.24,0.769
		c0.216,0.34,0.567,0.511,1.046,0.511c0.196,0,0.352-0.006,0.465-0.024c0.113-0.015,0.279-0.052,0.497-0.116v-1.029
		c-0.087,0.015-0.172,0.027-0.248,0.034c-0.078,0.009-0.149,0.012-0.21,0.012c-0.191,0-0.315-0.043-0.377-0.132
		c-0.058-0.089-0.087-0.205-0.087-0.349v-4.785c0-0.787-0.303-1.366-0.908-1.737c-0.609-0.374-1.403-0.561-2.38-0.561
		c-0.842,0-1.583,0.202-2.221,0.601c-0.639,0.401-0.971,1.115-0.997,2.138h1.303c0.051-0.429,0.163-0.754,0.333-0.971
		c0.305-0.392,0.822-0.588,1.552-0.588c0.631,0,1.115,0.107,1.454,0.322c0.338,0.214,0.507,0.561,0.507,1.036
		c0,0.233-0.031,0.41-0.092,0.536c-0.109,0.227-0.323,0.361-0.644,0.401l-2.226,0.279C297.696,43.649,297.065,43.91,296.585,44.333z
		"/>
	<path d="M306.62,41.876c0.437-0.539,1.006-0.809,1.708-0.809c0.631,0,1.161,0.254,1.592,0.756c0.427,0.505,0.642,1.281,0.642,2.332
		c0,1.038-0.208,1.835-0.624,2.392c-0.417,0.558-0.946,0.836-1.593,0.836c-0.832,0-1.437-0.3-1.815-0.9
		c-0.377-0.601-0.567-1.345-0.567-2.236C305.962,43.202,306.182,42.412,306.62,41.876z M305.417,41.181
		c-0.619,0.888-0.928,1.936-0.928,3.143c0,1.292,0.34,2.331,1.017,3.109c0.677,0.778,1.478,1.167,2.403,1.167
		c0.574,0,1.083-0.113,1.527-0.34c0.444-0.229,0.83-0.597,1.156-1.109v1.155h1.256V36.874h-1.342v4.194
		c-0.315-0.386-0.596-0.659-0.844-0.812c-0.431-0.27-0.962-0.404-1.599-0.404C306.917,39.851,306.035,40.295,305.417,41.181z"/>
	<path d="M315.621,44.93c0.253-0.144,0.634-0.251,1.14-0.319l0.846-0.107c0.259-0.031,0.521-0.083,0.79-0.156
		c0.268-0.07,0.489-0.163,0.659-0.273v1.127c0,0.858-0.386,1.477-1.163,1.854c-0.461,0.229-0.936,0.343-1.426,0.343
		c-0.404,0-0.754-0.116-1.048-0.349s-0.441-0.551-0.441-0.956C314.978,45.561,315.192,45.172,315.621,44.93z M314.241,44.333
		c-0.481,0.423-0.722,1.021-0.722,1.792c0,0.705,0.244,1.29,0.732,1.758c0.49,0.465,1.118,0.701,1.889,0.701
		c0.64,0,1.228-0.138,1.76-0.41c0.533-0.276,0.94-0.598,1.225-0.971c0.048,0.331,0.126,0.588,0.241,0.769
		c0.217,0.34,0.565,0.511,1.048,0.511c0.196,0,0.351-0.006,0.464-0.024c0.113-0.015,0.279-0.052,0.496-0.116v-1.029
		c-0.087,0.015-0.17,0.027-0.248,0.034c-0.077,0.009-0.147,0.012-0.208,0.012c-0.193,0-0.317-0.043-0.377-0.132
		s-0.089-0.205-0.089-0.349v-4.785c0-0.787-0.303-1.366-0.907-1.737c-0.611-0.374-1.405-0.561-2.38-0.561
		c-0.844,0-1.585,0.202-2.222,0.601c-0.639,0.401-0.971,1.115-0.998,2.138h1.304c0.051-0.429,0.162-0.754,0.333-0.971
		c0.305-0.392,0.822-0.588,1.551-0.588c0.63,0,1.115,0.107,1.454,0.322s0.509,0.561,0.509,1.036c0,0.233-0.032,0.41-0.094,0.536
		c-0.108,0.227-0.323,0.361-0.643,0.401l-2.226,0.279C315.352,43.649,314.722,43.91,314.241,44.333z"/>
	<path d="M706.872,34.646c0.031,1.234,0,10.125,0,10.125s-0.468,2.404-2.172,2.907c-0.575,0.168-0.597,0.53,0,0.53h8.345
		c0.601,0,0.576-0.362,0-0.53c-1.703-0.502-2.169-2.907-2.169-2.907s0-9.401,0-10.636c0-2.644-2.034-5.148-6.705-5.148
		c-4.672,0-5.909,2.039-6.075,2.271c-0.168,0.233-0.3,0.034-0.3,0.034s-0.436-1.703-0.536-2.034
		c-0.098-0.335-0.267-0.271-0.267-0.271l-5.737,0.835c0,0-1.171,0.202,0,0.57c0,0,2.57,1.268,2.533,3.204
		c-0.021,1.234,0,11.175,0,11.175s-0.466,2.404-2.166,2.907c-0.579,0.168-0.604,0.53,0,0.53h8.342c0.597,0,0.576-0.362,0-0.53
		c-1.703-0.502-2.169-2.907-2.169-2.907s0-8.875,0-10.109c0,0,0.533-4.402,4.972-4.402C702.768,30.26,706.75,30.159,706.872,34.646z
		"/>
	<g>
		<g>
			<rect x="753.659" y="17.81" fill="#ED1C24" width="4.803" height="9.61"/>
			<path fill="#ED1C24" d="M756.061,22.617"/>
		</g>
		<g>
			<rect x="768.075" y="17.81" fill="#ED1C24" width="4.803" height="9.61"/>
			<path fill="#ED1C24" d="M770.477,22.617"/>
		</g>
		<g>
			<path fill="#ED1C24" d="M763.303,19.112c0,0-0.007,0.015,0.006,0.011"/>
			<path fill="#ED1C24" d="M763.367,18.91c0.429,2.11,1.302,1.001,1.302,1.001l-0.301,1.801c-0.101,0.57,0.401,0.135,0.401,0.135
				l0.735-0.733c-0.165,1.201,1.269,0.467,1.269,0.467c-0.8,1.4,0.199,1.301,0.199,1.301l-1.633,1.335
				c0,0.032-0.27,0.333-0.27,0.333l0.435,0.701l-2.037-0.499l0.101,1.901h-0.266h-0.267l0.098-1.901l-1.899,0.432l0.301-0.634
				c0,0-0.27-0.3-0.27-0.333l-1.633-1.335c0,0,0.998-0.1,0.132-1.368c0,0,1.434,0.735,1.335-0.399l0.732,0.733
				c0,0,0.502,0.435,0.401-0.135l-0.301-1.801c0,0,0.975,1,1.37-1.001"/>
		</g>
	</g>
	<g>
		<path d="M669.062,17.509l0.735,10.947c0,0-0.199,1.467-0.867-0.135s-3.069-10.612-9.744-9.743s-9.678,6.34-9.678,15.15
			s3.805,13.414,10.346,13.414c6.54,0,8.742-3.939,9.943-7.673c0,0,0.469-1.538,0.404-0.071c0,0-0.076,9.484-11.886,9.347
			c-11.616-0.135-14.68-11.013-14.68-15.084s1.6-15.216,15.749-16.351c0,0,3.97,0.066,6.941,1.669c0,0,0.935,0.533,1.403-0.201
			c0.465-0.735,0.597-1.002,0.597-1.002S668.663,16.91,669.062,17.509z"/>
	</g>
	<path d="M747.141,46.891c-4.323,2.671-10.021,2.056-12.995-2.27c-3.144-4.577-2.582-10.795,2.113-14.015
		c3.397-2.331,8.191-2.607,10.856-0.083c0,0,0.401,0.435,0.401-0.165c0-0.601,0-9.079,0-9.079s-0.566-2.669-3.137-2.669
		c0,0-0.668-0.233-0.064-0.532l6.274-0.669c0,0,0.931-0.066,0.931,0.566c0,0.769,0,25.996,0,25.996s0.567,3.204,2.87,3.204
		c0,0,0.867,0.068-0.03,0.536l-6.176,0.8c0,0-0.469,0.202-0.469-0.401l-0.132-1.002C747.584,47.108,747.771,46.501,747.141,46.891z
		 M747.535,38.803c0.01-3.869,0.364-9.508-5.86-8.902c-4.153,0.404-5.786,6.522-4.901,10.762c0.732,3.51,2.298,7.444,6.63,6.767
		C748.194,46.679,747.529,41.481,747.535,38.803z"/>
	<path d="M689.887,46.64c0,0,1.402-1.201,0.499,0.171l-0.567,0.668c-2.076,1.434-5.719,1.038-7.174-0.637
		c-0.334-0.5-0.705-0.104-0.705-0.104c-1.936,1.697-4.692,2.028-7.343,1.287c-2.221-0.622-3.927-2.542-3.703-4.818
		c0.487-4.926,6.06-4.323,9.573-5.63c0.946-0.355,1.611-1.7,1.647-3.079c0.049-1.826-0.508-4.724-3.342-4.758
		c-2.466-0.027-2.493,2.503-3.829,3.915c-0.601,0.634-2.562,0.582-3.048-0.665c-0.298-0.76-0.23-1.967,0.888-2.833
		c2.978-2.313,13.442-1.788,13.442,2.478c0,5.921-0.046,7.897,0.003,12.977c0.013,1.265,0.959,1.657,2.021,1.672
		c0.561,0.009,1.352-0.435,1.872-0.775 M681.812,37.866c-2.877,1.396-6.844,2.729-6.795,6.405c0.034,2.441,2.987,3.909,5.275,2.417
		c1.369-0.895,1.813-2.386,1.921-3.851V38.23C682.213,38.23,682.277,37.698,681.812,37.866z"/>
	<path d="M732.332,46.64c0,0,1.403-1.201,0.499,0.171l-0.563,0.668c-2.077,1.434-5.719,1.038-7.174-0.637
		c-0.338-0.5-0.705-0.104-0.705-0.104c-1.936,1.697-4.696,2.028-7.343,1.287c-2.221-0.622-3.931-2.542-3.704-4.818
		c0.487-4.926,6.057-4.323,9.57-5.63c0.949-0.355,1.611-1.7,1.648-3.079c0.046-1.826-0.506-4.724-3.34-4.758
		c-2.469-0.027-2.49,2.503-3.829,3.915c-0.6,0.634-2.561,0.582-3.051-0.665c-0.297-0.76-0.229-1.967,0.892-2.833
		c2.975-2.313,13.438-1.788,13.438,2.478c0,5.921-0.043,7.897,0.003,12.977c0.013,1.265,0.962,1.657,2.022,1.672
		c0.561,0.009,1.351-0.435,1.875-0.775 M724.257,37.866c-2.873,1.396-6.841,2.729-6.794,6.405c0.033,2.441,2.986,3.909,5.281,2.417
		c1.366-0.895,1.81-2.386,1.917-3.851l-0.003-4.607C724.658,38.23,724.726,37.698,724.257,37.866z"/>
	<path d="M774.046,46.64c0,0,1.402-1.201,0.502,0.171l-0.566,0.668c-2.077,1.434-5.723,1.038-7.178-0.637
		c-0.334-0.5-0.704-0.104-0.704-0.104c-1.934,1.697-4.693,2.028-7.34,1.287c-2.222-0.622-3.931-2.542-3.704-4.818
		c0.487-4.926,6.057-4.323,9.573-5.63c0.946-0.355,1.608-1.7,1.645-3.079c0.05-1.826-0.505-4.724-3.339-4.758
		c-2.469-0.027-2.493,2.503-3.832,3.915c-0.601,0.634-2.558,0.582-3.048-0.665c-0.297-0.76-0.227-1.967,0.892-2.833
		c2.974-2.313,13.441-1.788,13.438,2.478c0,5.921-0.04,7.897,0.006,12.977c0.01,1.265,0.956,1.657,2.02,1.672
		c0.561,0.009,1.354-0.435,1.874-0.775 M765.974,37.866c-2.877,1.396-6.844,2.729-6.795,6.405c0.031,2.441,2.984,3.909,5.275,2.417
		c1.369-0.895,1.813-2.386,1.918-3.851V38.23C766.372,38.23,766.439,37.698,765.974,37.866z"/>
</g>
</svg>
