<?xml version="1.0" encoding="utf-8"?>
<!-- Generator: Adobe Illustrator 15.1.0, SVG Export Plug-In . SVG Version: 6.00 Build 0)  -->
<!DOCTYPE svg PUBLIC "-//W3C//DTD SVG 1.1//EN" "http://www.w3.org/Graphics/SVG/1.1/DTD/svg11.dtd">
<svg version="1.1" id="Layer_1" xmlns="http://www.w3.org/2000/svg" xmlns:xlink="http://www.w3.org/1999/xlink" x="0px" y="0px"
	 width="792px" height="64.222px" viewBox="0 0 792 64.222" enable-background="new 0 0 792 64.222" xml:space="preserve">
<g>
	<path d="M48.047,20.771l0.001,0.003l0.002-0.003H48.047z M54.299,38.327c0.173-0.156,5.289-4.577,5.289-4.577l-0.512-0.252
		l-0.325-0.156c-0.504-0.236-0.425-0.663-0.347-0.951c0.079-0.279,0.921-3.233,0.921-3.233s-2.207,0.494-2.723,0.57
		c-0.41,0.064-0.553-0.123-0.679-0.408c-0.126-0.286-0.663-1.577-0.663-1.577s-2.703,2.991-2.761,3.046
		c-0.521,0.469-1.025,0.11-0.93-0.442c0.086-0.506,1.388-6.485,1.388-6.485s-1.436,0.853-1.909,1.135
		c-0.473,0.285-0.726,0.236-0.978-0.224c-0.251-0.454-2.011-3.979-2.022-4c-0.011,0.021-1.77,3.546-2.021,4
		c-0.253,0.46-0.505,0.509-0.979,0.224c-0.473-0.282-1.909-1.135-1.909-1.135s1.302,5.979,1.388,6.485
		c0.094,0.552-0.41,0.911-0.931,0.442c-0.058-0.055-2.76-3.046-2.76-3.046s-0.537,1.291-0.664,1.577
		c-0.125,0.285-0.268,0.472-0.678,0.408c-0.516-0.077-2.812-0.57-2.812-0.57s0.931,2.954,1.01,3.233
		c0.079,0.289,0.157,0.715-0.347,0.951l-0.324,0.156l-0.512,0.252c0,0,5.114,4.42,5.289,4.577c0.172,0.16,0.504,0.301,0.251,1.055
		c-0.251,0.758-0.615,1.786-0.615,1.786s4.732-0.963,5.238-1.074c0.504-0.11,0.931,0.061,0.931,0.564
		c0,0.509-0.206,5.571-0.206,5.571h1.299c0,0-0.206-5.062-0.206-5.571c0-0.503,0.427-0.675,0.931-0.564s5.237,1.074,5.237,1.074
		s-0.363-1.028-0.615-1.786C53.794,38.627,54.125,38.486,54.299,38.327z"/>
	<g>
		<rect x="63.533" y="18.169" width="15.026" height="30.833"/>
		<path d="M71.046,33.587"/>
	</g>
	<g>
		<rect x="17.863" y="18.157" width="15.027" height="30.833"/>
		<path d="M25.376,33.575"/>
	</g>
	<path d="M104.623,26.292h1.452c0.036,0.647,0.188,1.172,0.458,1.577c0.513,0.755,1.416,1.132,2.71,1.132
		c0.58,0,1.107-0.083,1.584-0.248c0.921-0.319,1.382-0.896,1.382-1.724c0-0.62-0.194-1.064-0.583-1.325
		c-0.393-0.261-1.009-0.485-1.847-0.678l-1.545-0.35c-1.01-0.227-1.724-0.479-2.144-0.751c-0.725-0.479-1.086-1.187-1.086-2.135
		c0-1.027,0.354-1.865,1.063-2.524c0.708-0.657,1.713-0.988,3.012-0.988c1.197,0,2.212,0.292,3.048,0.868s1.255,1.5,1.255,2.767
		h-1.453c-0.078-0.614-0.243-1.077-0.497-1.405c-0.471-0.595-1.271-0.896-2.399-0.896c-0.912,0-1.567,0.196-1.965,0.577
		c-0.398,0.383-0.598,0.828-0.598,1.334c0,0.561,0.233,0.969,0.7,1.23c0.305,0.163,0.996,0.371,2.073,0.62l1.6,0.362
		c0.771,0.181,1.367,0.42,1.786,0.727c0.725,0.534,1.087,1.307,1.087,2.319c0,1.264-0.459,2.169-1.378,2.712
		c-0.918,0.543-1.987,0.813-3.203,0.813c-1.419,0-2.528-0.359-3.331-1.086C105,28.498,104.607,27.522,104.623,26.292z"/>
	<path d="M116.938,28.188c-0.388-0.592-0.582-1.329-0.582-2.215c0-0.923,0.194-1.709,0.582-2.359
		c0.388-0.653,1.009-0.979,1.864-0.979c0.962,0,1.641,0.384,2.035,1.147c0.249,0.488,0.373,1.12,0.373,1.896
		c0,0.856-0.172,1.642-0.517,2.341c-0.345,0.703-0.979,1.052-1.906,1.052C117.941,29.072,117.326,28.777,116.938,28.188z
		 M115.983,22.657c-0.709,0.829-1.064,1.942-1.064,3.341c0,1.304,0.337,2.344,1.01,3.117c0.672,0.773,1.581,1.163,2.725,1.163
		c1.372,0,2.384-0.439,3.036-1.313c0.653-0.875,0.979-1.985,0.979-3.325c0-1.387-0.371-2.436-1.11-3.15
		c-0.74-0.718-1.646-1.074-2.718-1.074C117.644,21.415,116.691,21.829,115.983,22.657z"/>
	<path d="M127.533,21.415c0.937,0,1.699,0.23,2.286,0.684c0.587,0.457,0.941,1.239,1.06,2.353h-1.359
		c-0.083-0.516-0.271-0.939-0.567-1.276c-0.294-0.34-0.769-0.509-1.42-0.509c-0.891,0-1.528,0.433-1.91,1.304
		c-0.249,0.562-0.373,1.261-0.373,2.086c0,0.837,0.176,1.537,0.528,2.107c0.352,0.571,0.906,0.853,1.662,0.853
		c0.58,0,1.04-0.178,1.378-0.531c0.339-0.356,0.574-0.84,0.703-1.457h1.359c-0.155,1.104-0.543,1.908-1.165,2.417
		c-0.621,0.513-1.416,0.767-2.384,0.767c-1.086,0-1.954-0.399-2.601-1.19c-0.647-0.794-0.97-1.788-0.97-2.979
		c0-1.46,0.354-2.598,1.064-3.408C125.532,21.823,126.435,21.415,127.533,21.415z"/>
	<path d="M132.277,29.971v-8.273h1.421v8.273H132.277z M132.277,20.148v-1.583h1.421v1.583H132.277z"/>
	<path d="M137.522,26.593c0.254-0.145,0.634-0.249,1.142-0.316l0.846-0.111c0.259-0.03,0.523-0.083,0.792-0.156
		c0.269-0.071,0.489-0.163,0.66-0.273v1.129c0,0.859-0.389,1.476-1.165,1.856c-0.461,0.227-0.937,0.343-1.429,0.343
		c-0.404,0-0.753-0.116-1.048-0.353c-0.295-0.23-0.442-0.549-0.442-0.954C136.878,27.228,137.093,26.835,137.522,26.593z
		 M136.14,25.998c-0.481,0.423-0.722,1.021-0.722,1.794c0,0.699,0.245,1.289,0.734,1.758c0.489,0.466,1.12,0.703,1.891,0.703
		c0.642,0,1.229-0.138,1.762-0.415c0.533-0.273,0.942-0.595,1.227-0.969c0.047,0.332,0.126,0.589,0.241,0.767
		c0.217,0.343,0.567,0.515,1.048,0.515c0.197,0,0.352-0.006,0.466-0.024c0.113-0.015,0.279-0.052,0.497-0.117v-1.034
		c-0.088,0.019-0.171,0.031-0.249,0.037c-0.077,0.009-0.147,0.012-0.209,0.012c-0.192,0-0.318-0.043-0.377-0.135
		c-0.06-0.086-0.089-0.202-0.089-0.347v-4.792c0-0.785-0.303-1.365-0.909-1.739c-0.611-0.375-1.405-0.558-2.384-0.558
		c-0.844,0-1.585,0.199-2.225,0.601s-0.972,1.113-0.998,2.141h1.305c0.052-0.429,0.163-0.758,0.334-0.972
		c0.305-0.393,0.823-0.589,1.553-0.589c0.631,0,1.117,0.107,1.456,0.319c0.339,0.218,0.509,0.564,0.509,1.04
		c0,0.23-0.031,0.411-0.093,0.534c-0.109,0.227-0.324,0.365-0.645,0.402l-2.229,0.282C137.253,25.311,136.622,25.572,136.14,25.998z
		"/>
	<path d="M144.686,29.971V18.565h1.397v11.406H144.686z"/>
	<path d="M152.338,26.292h1.452c0.036,0.647,0.189,1.172,0.458,1.577c0.513,0.755,1.415,1.132,2.709,1.132
		c0.58,0,1.107-0.083,1.584-0.248c0.921-0.319,1.382-0.896,1.382-1.724c0-0.62-0.194-1.064-0.583-1.325
		c-0.394-0.261-1.009-0.485-1.848-0.678l-1.545-0.35c-1.009-0.227-1.724-0.479-2.143-0.751c-0.725-0.479-1.087-1.187-1.087-2.135
		c0-1.027,0.354-1.865,1.063-2.524c0.709-0.657,1.713-0.988,3.013-0.988c1.196,0,2.211,0.292,3.048,0.868
		c0.835,0.577,1.254,1.5,1.254,2.767h-1.453c-0.077-0.614-0.243-1.077-0.497-1.405c-0.471-0.595-1.271-0.896-2.398-0.896
		c-0.911,0-1.566,0.196-1.965,0.577c-0.399,0.383-0.598,0.828-0.598,1.334c0,0.561,0.233,0.969,0.699,1.23
		c0.305,0.163,0.996,0.371,2.073,0.62l1.6,0.362c0.771,0.181,1.366,0.42,1.786,0.727c0.724,0.534,1.086,1.307,1.086,2.319
		c0,1.264-0.459,2.169-1.378,2.712c-0.919,0.543-1.987,0.813-3.204,0.813c-1.418,0-2.528-0.359-3.331-1.086
		C152.715,28.498,152.322,27.522,152.338,26.292z"/>
	<path d="M166.407,21.415c0.938,0,1.7,0.23,2.287,0.684c0.587,0.457,0.942,1.239,1.06,2.353h-1.359
		c-0.083-0.516-0.271-0.939-0.566-1.276c-0.296-0.34-0.77-0.509-1.422-0.509c-0.891,0-1.526,0.433-1.909,1.304
		c-0.249,0.562-0.375,1.261-0.375,2.086c0,0.837,0.178,1.537,0.529,2.107c0.351,0.571,0.906,0.853,1.661,0.853
		c0.58,0,1.04-0.178,1.379-0.531c0.339-0.356,0.572-0.84,0.703-1.457h1.359c-0.155,1.104-0.545,1.908-1.165,2.417
		c-0.623,0.513-1.417,0.767-2.383,0.767c-1.087,0-1.954-0.399-2.602-1.19c-0.647-0.794-0.972-1.788-0.972-2.979
		c0-1.46,0.356-2.598,1.064-3.408C164.406,21.823,165.311,21.415,166.407,21.415z"/>
	<path d="M172.572,20.148v-1.583h-1.42v1.583H172.572z M172.572,29.971v-8.273h-1.42v8.273H172.572z"/>
	<path d="M176.443,23.381c0.436-0.46,0.974-0.693,1.616-0.693c0.895,0,1.534,0.337,1.917,1.012c0.207,0.362,0.339,0.844,0.396,1.448
		h-4.62C175.777,24.434,176.009,23.845,176.443,23.381z M175.302,22.719c-0.724,0.834-1.086,1.917-1.086,3.255
		c0,1.355,0.359,2.411,1.079,3.166c0.719,0.751,1.597,1.126,2.633,1.126c0.423,0,0.804-0.04,1.141-0.12
		c0.626-0.147,1.15-0.43,1.575-0.844c0.253-0.233,0.483-0.543,0.688-0.917c0.204-0.377,0.325-0.718,0.36-1.021h-1.375
		c-0.103,0.368-0.279,0.69-0.527,0.972c-0.434,0.481-1.017,0.718-1.746,0.718c-0.782,0-1.359-0.254-1.733-0.764
		c-0.371-0.506-0.57-1.184-0.598-2.031h6.096c0-0.837-0.04-1.448-0.123-1.832c-0.093-0.558-0.279-1.046-0.56-1.466
		c-0.29-0.438-0.712-0.797-1.266-1.074c-0.555-0.279-1.126-0.417-1.716-0.417C176.974,21.47,176.026,21.887,175.302,22.719z"/>
	<path d="M183.521,29.971v-8.313h1.327v1.181c0.395-0.488,0.81-0.837,1.252-1.049c0.438-0.214,0.929-0.319,1.466-0.319
		c1.181,0,1.979,0.411,2.393,1.236c0.227,0.448,0.34,1.092,0.34,1.929v5.335h-1.42v-5.243c0-0.503-0.075-0.911-0.226-1.224
		c-0.249-0.515-0.698-0.779-1.352-0.779c-0.331,0-0.603,0.034-0.816,0.104c-0.382,0.114-0.718,0.34-1.009,0.681
		c-0.233,0.276-0.383,0.558-0.454,0.853c-0.069,0.292-0.104,0.712-0.104,1.255v4.353H183.521z"/>
	<path d="M195.57,21.415c0.936,0,1.698,0.23,2.285,0.684c0.589,0.457,0.942,1.239,1.06,2.353h-1.357
		c-0.084-0.516-0.273-0.939-0.568-1.276c-0.294-0.34-0.77-0.509-1.42-0.509c-0.893,0-1.528,0.433-1.911,1.304
		c-0.249,0.562-0.373,1.261-0.373,2.086c0,0.837,0.177,1.537,0.528,2.107c0.351,0.571,0.906,0.853,1.661,0.853
		c0.58,0,1.04-0.178,1.379-0.531c0.339-0.356,0.574-0.84,0.704-1.457h1.357c-0.155,1.104-0.543,1.908-1.165,2.417
		c-0.621,0.513-1.416,0.767-2.383,0.767c-1.087,0-1.954-0.399-2.602-1.19c-0.647-0.794-0.971-1.788-0.971-2.979
		c0-1.46,0.354-2.598,1.063-3.408C193.568,21.823,194.472,21.415,195.57,21.415z"/>
	<path d="M202.076,23.381c0.436-0.46,0.972-0.693,1.613-0.693c0.896,0,1.537,0.337,1.919,1.012c0.207,0.362,0.339,0.844,0.397,1.448
		h-4.622C201.41,24.434,201.641,23.845,202.076,23.381z M200.935,22.719c-0.726,0.834-1.087,1.917-1.087,3.255
		c0,1.355,0.36,2.411,1.078,3.166c0.721,0.751,1.598,1.126,2.632,1.126c0.426,0,0.807-0.04,1.143-0.12
		c0.626-0.147,1.152-0.43,1.575-0.844c0.255-0.233,0.483-0.543,0.688-0.917c0.206-0.377,0.325-0.718,0.362-1.021h-1.375
		c-0.104,0.368-0.279,0.69-0.527,0.972c-0.436,0.481-1.019,0.718-1.749,0.718c-0.781,0-1.359-0.254-1.73-0.764
		c-0.375-0.506-0.574-1.184-0.599-2.031h6.096c0-0.837-0.042-1.448-0.125-1.832c-0.093-0.558-0.281-1.046-0.56-1.466
		c-0.289-0.438-0.712-0.797-1.266-1.074c-0.554-0.279-1.125-0.417-1.716-0.417C202.607,21.47,201.659,21.887,200.935,22.719z"/>
	<path d="M208.641,27.363h1.344c0.042,0.466,0.156,0.825,0.35,1.073c0.351,0.448,0.963,0.675,1.832,0.675
		c0.518,0,0.974-0.117,1.368-0.338c0.393-0.227,0.589-0.577,0.589-1.049c0-0.353-0.158-0.626-0.473-0.813
		c-0.202-0.113-0.601-0.246-1.196-0.396l-1.11-0.282c-0.708-0.172-1.233-0.368-1.569-0.589c-0.6-0.374-0.9-0.898-0.9-1.564
		c0-0.792,0.282-1.426,0.85-1.911c0.567-0.488,1.33-0.733,2.287-0.733c1.253,0,2.157,0.371,2.71,1.104
		c0.347,0.466,0.515,0.969,0.504,1.506h-1.32c-0.024-0.313-0.137-0.601-0.333-0.862c-0.32-0.368-0.879-0.549-1.67-0.549
		c-0.527,0-0.926,0.102-1.199,0.301c-0.271,0.203-0.408,0.469-0.408,0.797c0,0.365,0.18,0.654,0.537,0.875
		c0.206,0.125,0.512,0.242,0.916,0.34l0.925,0.224c1.003,0.242,1.677,0.479,2.019,0.708c0.543,0.353,0.816,0.917,0.816,1.681
		c0,0.742-0.282,1.38-0.843,1.92c-0.562,0.54-1.417,0.81-2.566,0.81c-1.238,0-2.113-0.282-2.629-0.847
		C208.954,28.885,208.678,28.191,208.641,27.363z"/>
	<path d="M223.239,26.593c0.253-0.145,0.634-0.249,1.141-0.316l0.847-0.111c0.258-0.03,0.521-0.083,0.792-0.156
		c0.27-0.071,0.489-0.163,0.66-0.273v1.129c0,0.859-0.388,1.476-1.164,1.856c-0.462,0.227-0.937,0.343-1.428,0.343
		c-0.405,0-0.754-0.116-1.049-0.353c-0.294-0.23-0.442-0.549-0.442-0.954C222.595,27.228,222.81,26.835,223.239,26.593z
		 M221.856,25.998c-0.481,0.423-0.721,1.021-0.721,1.794c0,0.699,0.244,1.289,0.733,1.758c0.489,0.466,1.12,0.703,1.89,0.703
		c0.643,0,1.23-0.138,1.764-0.415c0.534-0.273,0.942-0.595,1.228-0.969c0.046,0.332,0.125,0.589,0.239,0.767
		c0.218,0.343,0.567,0.515,1.049,0.515c0.196,0,0.353-0.006,0.466-0.024c0.114-0.015,0.279-0.052,0.497-0.117v-1.034
		c-0.089,0.019-0.172,0.031-0.249,0.037c-0.077,0.009-0.147,0.012-0.208,0.012c-0.193,0-0.319-0.043-0.377-0.135
		c-0.06-0.086-0.089-0.202-0.089-0.347v-4.792c0-0.785-0.304-1.365-0.91-1.739c-0.61-0.375-1.405-0.558-2.383-0.558
		c-0.845,0-1.584,0.199-2.226,0.601c-0.638,0.402-0.971,1.113-0.997,2.141h1.304c0.052-0.429,0.164-0.758,0.334-0.972
		c0.307-0.393,0.824-0.589,1.552-0.589c0.632,0,1.118,0.107,1.457,0.319c0.339,0.218,0.509,0.564,0.509,1.04
		c0,0.23-0.031,0.411-0.094,0.534c-0.109,0.227-0.324,0.365-0.646,0.402l-2.227,0.282C222.97,25.311,222.337,25.572,221.856,25.998z
		"/>
	<path d="M230.362,29.971v-8.313h1.329v1.181c0.393-0.488,0.81-0.837,1.25-1.049c0.44-0.214,0.929-0.319,1.468-0.319
		c1.181,0,1.977,0.411,2.391,1.236c0.229,0.448,0.342,1.092,0.342,1.929v5.335h-1.42v-5.243c0-0.503-0.077-0.911-0.227-1.224
		c-0.249-0.515-0.698-0.779-1.35-0.779c-0.331,0-0.604,0.034-0.816,0.104c-0.383,0.114-0.719,0.34-1.009,0.681
		c-0.233,0.276-0.383,0.558-0.454,0.853c-0.071,0.292-0.104,0.712-0.104,1.255v4.353H230.362z"/>
	<path d="M240.745,23.535c0.437-0.54,1.008-0.81,1.713-0.81c0.63,0,1.161,0.255,1.59,0.761c0.43,0.503,0.646,1.282,0.646,2.334
		c0,1.04-0.208,1.834-0.626,2.393c-0.417,0.558-0.949,0.834-1.595,0.834c-0.834,0-1.44-0.301-1.819-0.902
		c-0.377-0.599-0.566-1.344-0.566-2.233C240.088,24.866,240.308,24.075,240.745,23.535z M239.541,22.841
		c-0.618,0.887-0.926,1.936-0.926,3.145c0,1.294,0.337,2.334,1.016,3.113c0.678,0.779,1.481,1.166,2.408,1.166
		c0.574,0,1.084-0.11,1.529-0.341c0.446-0.227,0.832-0.595,1.158-1.107v1.154h1.257V18.525h-1.343v4.199
		c-0.316-0.383-0.598-0.659-0.847-0.813c-0.43-0.267-0.963-0.402-1.6-0.402C241.044,21.51,240.16,21.952,239.541,22.841z"/>
	<path d="M252.687,29.971V18.565h1.56v4.715h5.933v-4.715h1.561v11.406h-1.561v-5.335h-5.933v5.335H252.687z"/>
	<path d="M263.911,21.657h1.428v5.519c0,0.427,0.067,0.773,0.202,1.04c0.249,0.497,0.712,0.749,1.39,0.749
		c0.973,0,1.635-0.436,1.988-1.307c0.192-0.463,0.289-1.104,0.289-1.92v-4.08h1.397v8.313h-1.321l0.015-1.224
		c-0.181,0.316-0.405,0.583-0.675,0.797c-0.534,0.436-1.181,0.654-1.942,0.654c-1.184,0-1.992-0.396-2.423-1.19
		c-0.231-0.423-0.348-0.988-0.348-1.7V21.657z"/>
	<path d="M272.783,29.971v-8.313h1.382v1.181c0.332-0.411,0.632-0.708,0.902-0.893c0.46-0.319,0.982-0.476,1.568-0.476
		c0.663,0,1.196,0.163,1.6,0.491c0.227,0.184,0.434,0.457,0.621,0.822c0.31-0.445,0.675-0.776,1.095-0.994
		c0.419-0.214,0.89-0.319,1.413-0.319c1.118,0,1.879,0.405,2.284,1.212c0.216,0.436,0.325,1.018,0.325,1.751v5.537h-1.451v-5.773
		c0-0.555-0.14-0.936-0.417-1.144c-0.276-0.209-0.613-0.31-1.012-0.31c-0.549,0-1.021,0.184-1.417,0.552
		c-0.396,0.368-0.595,0.981-0.595,1.84v4.835h-1.42v-5.427c0-0.562-0.067-0.976-0.203-1.236c-0.211-0.386-0.607-0.583-1.187-0.583
		c-0.527,0-1.009,0.209-1.44,0.617c-0.433,0.408-0.649,1.15-0.649,2.218v4.412H272.783z"/>
	<path d="M287.742,26.593c0.253-0.145,0.633-0.249,1.141-0.316l0.847-0.111c0.257-0.03,0.521-0.083,0.791-0.156
		c0.27-0.071,0.49-0.163,0.66-0.273v1.129c0,0.859-0.386,1.476-1.164,1.856c-0.462,0.227-0.937,0.343-1.428,0.343
		c-0.405,0-0.755-0.116-1.049-0.353c-0.294-0.23-0.442-0.549-0.442-0.954C287.098,27.228,287.313,26.835,287.742,26.593z
		 M286.358,25.998c-0.48,0.423-0.721,1.021-0.721,1.794c0,0.699,0.244,1.289,0.733,1.758c0.489,0.466,1.12,0.703,1.891,0.703
		c0.643,0,1.229-0.138,1.763-0.415c0.534-0.273,0.941-0.595,1.227-0.969c0.046,0.332,0.125,0.589,0.241,0.767
		c0.216,0.343,0.566,0.515,1.047,0.515c0.196,0,0.353-0.006,0.466-0.024c0.114-0.015,0.279-0.052,0.497-0.117v-1.034
		c-0.089,0.019-0.17,0.031-0.249,0.037c-0.077,0.009-0.147,0.012-0.208,0.012c-0.193,0-0.319-0.043-0.377-0.135
		c-0.06-0.086-0.089-0.202-0.089-0.347v-4.792c0-0.785-0.304-1.365-0.908-1.739c-0.612-0.375-1.406-0.558-2.385-0.558
		c-0.844,0-1.584,0.199-2.224,0.601s-0.973,1.113-0.999,2.141h1.304c0.052-0.429,0.164-0.758,0.334-0.972
		c0.307-0.393,0.824-0.589,1.554-0.589c0.63,0,1.117,0.107,1.456,0.319c0.339,0.218,0.509,0.564,0.509,1.04
		c0,0.23-0.031,0.411-0.094,0.534c-0.109,0.227-0.324,0.365-0.644,0.402l-2.229,0.282C287.472,25.311,286.84,25.572,286.358,25.998z
		"/>
	<path d="M294.865,29.971v-8.313h1.329v1.181c0.393-0.488,0.81-0.837,1.251-1.049c0.438-0.214,0.928-0.319,1.466-0.319
		c1.181,0,1.979,0.411,2.393,1.236c0.227,0.448,0.341,1.092,0.341,1.929v5.335h-1.42v-5.243c0-0.503-0.077-0.911-0.226-1.224
		c-0.249-0.515-0.698-0.779-1.351-0.779c-0.332,0-0.604,0.034-0.816,0.104c-0.384,0.114-0.718,0.34-1.009,0.681
		c-0.233,0.276-0.384,0.558-0.454,0.853c-0.071,0.292-0.104,0.712-0.104,1.255v4.353H294.865z"/>
	<path d="M303.706,29.971v-8.273h1.42v8.273H303.706z M303.706,20.148v-1.583h1.42v1.583H303.706z"/>
	<path d="M307.516,21.657v-2.322h1.413v2.322h1.327v1.141h-1.327v5.424c0,0.294,0.098,0.484,0.294,0.583
		c0.109,0.062,0.29,0.086,0.545,0.086c0.067,0,0.138,0,0.216,0c0.079-0.006,0.169-0.012,0.271-0.021v1.102
		c-0.159,0.046-0.327,0.083-0.5,0.104c-0.173,0.019-0.362,0.031-0.563,0.031c-0.652,0-1.095-0.168-1.329-0.5
		c-0.231-0.334-0.348-0.77-0.348-1.304v-5.503h-1.125v-1.141H307.516z"/>
	<path d="M311.654,29.971v-8.273h1.42v8.273H311.654z M311.654,20.148v-1.583h1.42v1.583H311.654z"/>
	<path d="M316.945,23.381c0.436-0.46,0.973-0.693,1.615-0.693c0.895,0,1.536,0.337,1.919,1.012c0.206,0.362,0.337,0.844,0.396,1.448
		h-4.62C316.28,24.434,316.51,23.845,316.945,23.381z M315.804,22.719c-0.725,0.834-1.087,1.917-1.087,3.255
		c0,1.355,0.36,2.411,1.079,3.166c0.721,0.751,1.598,1.126,2.633,1.126c0.425,0,0.805-0.04,1.141-0.12
		c0.627-0.147,1.152-0.43,1.575-0.844c0.255-0.233,0.485-0.543,0.687-0.917c0.206-0.377,0.325-0.718,0.362-1.021h-1.375
		c-0.104,0.368-0.279,0.69-0.527,0.972c-0.436,0.481-1.019,0.718-1.749,0.718c-0.781,0-1.357-0.254-1.73-0.764
		c-0.373-0.506-0.573-1.184-0.598-2.031h6.095c0-0.837-0.041-1.448-0.124-1.832c-0.094-0.558-0.281-1.046-0.56-1.466
		c-0.289-0.438-0.712-0.797-1.264-1.074c-0.555-0.279-1.127-0.417-1.718-0.417C317.476,21.47,316.528,21.887,315.804,22.719z"/>
	<path d="M323.51,27.363h1.344c0.042,0.466,0.158,0.825,0.35,1.073c0.351,0.448,0.963,0.675,1.832,0.675
		c0.518,0,0.974-0.117,1.368-0.338c0.393-0.227,0.589-0.577,0.589-1.049c0-0.353-0.157-0.626-0.473-0.813
		c-0.202-0.113-0.601-0.246-1.196-0.396l-1.11-0.282c-0.708-0.172-1.233-0.368-1.567-0.589c-0.602-0.374-0.902-0.898-0.902-1.564
		c0-0.792,0.284-1.426,0.85-1.911c0.567-0.488,1.33-0.733,2.288-0.733c1.252,0,2.155,0.371,2.709,1.104
		c0.347,0.466,0.515,0.969,0.504,1.506h-1.32c-0.025-0.313-0.137-0.601-0.333-0.862c-0.32-0.368-0.877-0.549-1.67-0.549
		c-0.527,0-0.926,0.102-1.199,0.301c-0.271,0.203-0.408,0.469-0.408,0.797c0,0.365,0.18,0.654,0.537,0.875
		c0.206,0.125,0.512,0.242,0.916,0.34l0.925,0.224c1.003,0.242,1.677,0.479,2.019,0.708c0.543,0.353,0.816,0.917,0.816,1.681
		c0,0.742-0.282,1.38-0.844,1.92c-0.561,0.54-1.417,0.81-2.566,0.81c-1.238,0-2.113-0.282-2.627-0.847
		C323.823,28.885,323.547,28.191,323.51,27.363z"/>
	<path d="M106.797,38.741h3.773c0.528,0,0.95,0.077,1.266,0.233c0.59,0.294,0.885,0.85,0.885,1.663c0,0.754-0.211,1.276-0.633,1.564
		c-0.421,0.294-0.995,0.438-1.72,0.438h-3.572V38.741z M106.797,48.818v-4.89h3.517c0.632,0,1.095,0.067,1.391,0.208
		c0.518,0.251,0.793,0.755,0.831,1.5l0.093,1.899c0.021,0.448,0.046,0.746,0.078,0.902c0.031,0.156,0.072,0.282,0.124,0.38h1.895
		v-0.254c-0.238-0.102-0.403-0.334-0.497-0.7c-0.057-0.211-0.093-0.534-0.108-0.969l-0.054-1.531
		c-0.026-0.663-0.152-1.141-0.376-1.436c-0.226-0.294-0.561-0.534-1.006-0.718c0.508-0.264,0.902-0.61,1.184-1.043
		c0.282-0.436,0.423-0.994,0.423-1.681c0-1.307-0.535-2.206-1.607-2.693c-0.564-0.251-1.281-0.38-2.15-0.38h-5.28v11.405H106.797z"
		/>
	<path d="M118.122,42.229c0.435-0.46,0.974-0.693,1.615-0.693c0.895,0,1.535,0.338,1.918,1.013c0.207,0.362,0.339,0.843,0.396,1.448
		h-4.62C117.456,43.281,117.687,42.692,118.122,42.229z M116.98,41.566c-0.725,0.834-1.087,1.917-1.087,3.255
		c0,1.356,0.36,2.411,1.079,3.166c0.72,0.752,1.598,1.126,2.633,1.126c0.424,0,0.805-0.04,1.141-0.12
		c0.626-0.147,1.152-0.429,1.576-0.844c0.254-0.233,0.483-0.543,0.688-0.917c0.204-0.377,0.324-0.718,0.361-1.021h-1.375
		c-0.104,0.368-0.279,0.69-0.527,0.972c-0.435,0.482-1.018,0.718-1.747,0.718c-0.782,0-1.359-0.255-1.732-0.764
		c-0.373-0.506-0.572-1.184-0.598-2.031h6.095c0-0.837-0.041-1.448-0.124-1.831c-0.093-0.559-0.279-1.046-0.559-1.466
		c-0.29-0.439-0.711-0.798-1.265-1.074c-0.554-0.279-1.126-0.417-1.716-0.417C118.652,40.317,117.705,40.735,116.98,41.566z"/>
	<path d="M124.688,46.21h1.343c0.041,0.466,0.158,0.825,0.35,1.074c0.352,0.448,0.962,0.675,1.832,0.675
		c0.518,0,0.973-0.117,1.367-0.337c0.394-0.227,0.59-0.577,0.59-1.049c0-0.353-0.158-0.625-0.474-0.813
		c-0.202-0.113-0.601-0.245-1.196-0.396l-1.11-0.282c-0.709-0.172-1.232-0.368-1.568-0.589c-0.601-0.375-0.901-0.899-0.901-1.564
		c0-0.792,0.284-1.427,0.851-1.911c0.567-0.488,1.329-0.733,2.287-0.733c1.252,0,2.156,0.371,2.71,1.104
		c0.347,0.466,0.515,0.969,0.505,1.506h-1.321c-0.026-0.313-0.137-0.602-0.333-0.862c-0.321-0.368-0.877-0.549-1.669-0.549
		c-0.528,0-0.928,0.101-1.2,0.3c-0.272,0.203-0.408,0.47-0.408,0.798c0,0.365,0.179,0.653,0.536,0.874
		c0.207,0.126,0.512,0.243,0.916,0.341l0.924,0.224c1.004,0.243,1.678,0.479,2.019,0.709c0.543,0.353,0.815,0.917,0.815,1.681
		c0,0.743-0.28,1.38-0.842,1.92c-0.562,0.54-1.417,0.81-2.567,0.81c-1.237,0-2.114-0.282-2.628-0.847
		C124.999,47.732,124.723,47.039,124.688,46.21z"/>
	<path d="M134.913,42.229c0.435-0.46,0.973-0.693,1.615-0.693c0.896,0,1.535,0.338,1.918,1.013c0.207,0.362,0.339,0.843,0.396,1.448
		h-4.621C134.248,43.281,134.479,42.692,134.913,42.229z M133.772,41.566c-0.725,0.834-1.087,1.917-1.087,3.255
		c0,1.356,0.359,2.411,1.08,3.166c0.72,0.752,1.597,1.126,2.632,1.126c0.425,0,0.805-0.04,1.141-0.12
		c0.626-0.147,1.152-0.429,1.577-0.844c0.254-0.233,0.482-0.543,0.687-0.917c0.204-0.377,0.325-0.718,0.361-1.021h-1.375
		c-0.104,0.368-0.28,0.69-0.528,0.972c-0.435,0.482-1.017,0.718-1.747,0.718c-0.782,0-1.359-0.255-1.731-0.764
		c-0.373-0.506-0.572-1.184-0.598-2.031h6.096c0-0.837-0.042-1.448-0.125-1.831c-0.093-0.559-0.28-1.046-0.559-1.466
		c-0.29-0.439-0.712-0.798-1.266-1.074c-0.554-0.279-1.125-0.417-1.715-0.417C135.444,40.317,134.497,40.735,133.772,41.566z"/>
	<path d="M143.707,45.44c0.253-0.144,0.634-0.249,1.141-0.316l0.847-0.11c0.259-0.031,0.522-0.083,0.792-0.157
		c0.268-0.07,0.489-0.163,0.659-0.273v1.129c0,0.859-0.388,1.476-1.165,1.856c-0.46,0.227-0.937,0.344-1.429,0.344
		c-0.403,0-0.753-0.117-1.048-0.353c-0.295-0.23-0.442-0.549-0.442-0.954C143.063,46.076,143.277,45.683,143.707,45.44z
		 M142.325,44.845c-0.481,0.423-0.722,1.021-0.722,1.794c0,0.7,0.245,1.289,0.734,1.758c0.489,0.466,1.119,0.703,1.89,0.703
		c0.642,0,1.229-0.138,1.763-0.414c0.533-0.273,0.942-0.595,1.226-0.969c0.047,0.331,0.127,0.589,0.241,0.767
		c0.218,0.344,0.566,0.516,1.048,0.516c0.196,0,0.352-0.006,0.466-0.025c0.113-0.015,0.279-0.052,0.497-0.116v-1.034
		c-0.088,0.018-0.171,0.03-0.249,0.037c-0.078,0.009-0.148,0.012-0.21,0.012c-0.192,0-0.317-0.043-0.376-0.135
		c-0.06-0.086-0.089-0.203-0.089-0.347V42.6c0-0.786-0.303-1.365-0.909-1.74c-0.611-0.374-1.406-0.558-2.384-0.558
		c-0.844,0-1.586,0.199-2.225,0.601c-0.64,0.402-0.973,1.114-0.998,2.141h1.305c0.051-0.429,0.163-0.757,0.333-0.972
		c0.305-0.393,0.823-0.589,1.553-0.589c0.631,0,1.117,0.107,1.456,0.319c0.339,0.218,0.509,0.564,0.509,1.04
		c0,0.23-0.032,0.411-0.094,0.534c-0.108,0.227-0.324,0.365-0.644,0.402l-2.229,0.282C143.438,44.158,142.806,44.419,142.325,44.845
		z"/>
	<path d="M150.87,48.818v-8.313h1.328v1.436c0.109-0.282,0.375-0.623,0.8-1.021c0.425-0.399,0.914-0.602,1.468-0.602
		c0.026,0,0.07,0,0.132,0.006c0.062,0.006,0.168,0.019,0.318,0.034v1.476c-0.083-0.019-0.159-0.028-0.229-0.031
		c-0.071-0.006-0.146-0.012-0.229-0.012c-0.704,0-1.246,0.23-1.623,0.681c-0.378,0.451-0.567,0.975-0.567,1.567v4.779H150.87z"/>
	<path d="M159.33,40.262c0.938,0,1.7,0.23,2.287,0.684c0.587,0.457,0.941,1.239,1.059,2.353h-1.358
		c-0.083-0.516-0.271-0.939-0.566-1.276c-0.295-0.34-0.769-0.509-1.421-0.509c-0.89,0-1.527,0.432-1.91,1.304
		c-0.248,0.561-0.373,1.261-0.373,2.086c0,0.837,0.176,1.537,0.528,2.107c0.352,0.57,0.906,0.853,1.662,0.853
		c0.58,0,1.039-0.178,1.378-0.531c0.339-0.355,0.573-0.84,0.702-1.457h1.358c-0.153,1.104-0.543,1.908-1.164,2.417
		c-0.622,0.512-1.416,0.767-2.384,0.767c-1.087,0-1.954-0.398-2.601-1.19c-0.647-0.794-0.97-1.789-0.97-2.979
		c0-1.46,0.354-2.599,1.063-3.408C157.329,40.67,158.232,40.262,159.33,40.262z"/>
	<path d="M164.075,48.818V37.373h1.397v4.258c0.332-0.423,0.629-0.718,0.893-0.886c0.451-0.294,1.013-0.442,1.686-0.442
		c1.206,0,2.024,0.42,2.454,1.264c0.233,0.463,0.35,1.102,0.35,1.917v5.334h-1.437v-5.243c0-0.607-0.079-1.055-0.233-1.34
		c-0.253-0.454-0.73-0.681-1.428-0.681c-0.58,0-1.106,0.196-1.577,0.595c-0.472,0.399-0.707,1.153-0.707,2.258v4.411H164.075z"/>
	<path d="M182.325,37.103c1.445,0,2.566,0.38,3.364,1.141c0.796,0.761,1.239,1.626,1.327,2.595h-1.506
		c-0.17-0.739-0.511-1.319-1.021-1.751c-0.511-0.426-1.226-0.641-2.146-0.641c-1.125,0-2.031,0.396-2.723,1.184
		s-1.037,2-1.037,3.629c0,1.337,0.311,2.417,0.936,3.249c0.624,0.832,1.554,1.249,2.792,1.249c1.14,0,2.006-0.438,2.601-1.313
		c0.316-0.46,0.551-1.067,0.707-1.816h1.506c-0.135,1.2-0.58,2.209-1.336,3.019c-0.906,0.982-2.127,1.466-3.664,1.466
		c-1.325,0-2.439-0.399-3.341-1.199c-1.184-1.064-1.776-2.7-1.776-4.917c0-1.684,0.445-3.064,1.334-4.138
		C179.305,37.686,180.633,37.103,182.325,37.103z"/>
	<path d="M190.266,47.036c-0.39-0.592-0.583-1.328-0.583-2.215c0-0.923,0.193-1.708,0.583-2.359
		c0.388-0.653,1.009-0.979,1.862-0.979c0.963,0,1.641,0.383,2.035,1.147c0.249,0.488,0.373,1.12,0.373,1.896
		c0,0.856-0.171,1.641-0.515,2.34c-0.345,0.703-0.981,1.052-1.908,1.052C191.269,47.919,190.654,47.625,190.266,47.036z
		 M189.31,41.505c-0.71,0.828-1.063,1.941-1.063,3.34c0,1.304,0.334,2.344,1.009,3.117c0.672,0.773,1.58,1.163,2.724,1.163
		c1.373,0,2.384-0.438,3.037-1.313c0.652-0.874,0.979-1.984,0.979-3.325c0-1.386-0.371-2.436-1.11-3.15
		c-0.741-0.718-1.647-1.074-2.718-1.074C190.971,40.262,190.019,40.676,189.31,41.505z"/>
	<path d="M197.622,40.505h1.429v5.519c0,0.426,0.067,0.773,0.203,1.04c0.249,0.497,0.711,0.749,1.39,0.749
		c0.972,0,1.635-0.436,1.988-1.307c0.19-0.463,0.287-1.104,0.287-1.92v-4.08h1.397v8.313h-1.319l0.016-1.224
		c-0.181,0.316-0.407,0.583-0.675,0.798c-0.534,0.436-1.181,0.653-1.942,0.653c-1.187,0-1.994-0.396-2.423-1.19
		c-0.233-0.423-0.35-0.988-0.35-1.699V40.505z"/>
	<path d="M206.493,48.818v-8.313h1.329v1.181c0.393-0.488,0.81-0.837,1.25-1.049c0.44-0.215,0.929-0.319,1.468-0.319
		c1.181,0,1.977,0.411,2.391,1.236c0.229,0.448,0.342,1.092,0.342,1.93v5.334h-1.42v-5.243c0-0.503-0.077-0.911-0.227-1.224
		c-0.249-0.516-0.698-0.779-1.35-0.779c-0.332,0-0.604,0.034-0.816,0.104c-0.384,0.114-0.72,0.341-1.009,0.681
		c-0.233,0.276-0.384,0.559-0.454,0.853c-0.071,0.292-0.104,0.711-0.104,1.254v4.353H206.493z"/>
	<path d="M218.54,40.262c0.938,0,1.699,0.23,2.288,0.684c0.586,0.457,0.94,1.239,1.059,2.353h-1.359
		c-0.083-0.516-0.27-0.939-0.566-1.276c-0.295-0.34-0.769-0.509-1.422-0.509c-0.89,0-1.526,0.432-1.908,1.304
		c-0.249,0.561-0.374,1.261-0.374,2.086c0,0.837,0.176,1.537,0.527,2.107c0.353,0.57,0.908,0.853,1.663,0.853
		c0.58,0,1.04-0.178,1.377-0.531c0.34-0.355,0.574-0.84,0.703-1.457h1.359c-0.153,1.104-0.543,1.908-1.163,2.417
		c-0.623,0.512-1.417,0.767-2.385,0.767c-1.087,0-1.954-0.398-2.601-1.19c-0.646-0.794-0.971-1.789-0.971-2.979
		c0-1.46,0.356-2.599,1.064-3.408C216.54,40.67,217.443,40.262,218.54,40.262z"/>
	<path d="M223.286,48.818v-8.273h1.42v8.273H223.286z M223.286,38.996v-1.583h1.42v1.583H223.286z"/>
	<path d="M226.853,48.818V37.413h1.399v11.405H226.853z"/>
	<path d="M236.214,47.036c-0.388-0.592-0.582-1.328-0.582-2.215c0-0.923,0.193-1.708,0.582-2.359
		c0.388-0.653,1.009-0.979,1.864-0.979c0.963,0,1.641,0.383,2.034,1.147c0.249,0.488,0.374,1.12,0.374,1.896
		c0,0.856-0.173,1.641-0.518,2.34c-0.344,0.703-0.979,1.052-1.905,1.052C237.219,47.919,236.602,47.625,236.214,47.036z
		 M235.258,41.505c-0.708,0.828-1.064,1.941-1.064,3.34c0,1.304,0.337,2.344,1.011,3.117s1.582,1.163,2.726,1.163
		c1.371,0,2.383-0.438,3.037-1.313c0.65-0.874,0.977-1.984,0.977-3.325c0-1.386-0.37-2.436-1.111-3.15
		c-0.741-0.718-1.646-1.074-2.716-1.074C236.921,40.262,235.967,40.676,235.258,41.505z"/>
	<path d="M243.952,39.238c0.02-0.583,0.121-1.003,0.302-1.276c0.327-0.472,0.956-0.714,1.888-0.714c0.086,0,0.178,0.006,0.27,0.012
		c0.095,0.006,0.199,0.012,0.319,0.021v1.273c-0.144-0.009-0.25-0.015-0.314-0.019c-0.064-0.003-0.125-0.006-0.182-0.006
		c-0.423,0-0.678,0.113-0.761,0.331c-0.083,0.221-0.125,0.782-0.125,1.684h1.382v1.102h-1.397v7.172h-1.382v-7.172h-1.157v-1.102
		h1.157V39.238z"/>
	<path d="M257.431,37.103c1.445,0,2.564,0.38,3.362,1.141c0.798,0.761,1.239,1.626,1.328,2.595h-1.506
		c-0.172-0.739-0.512-1.319-1.021-1.751c-0.509-0.426-1.226-0.641-2.147-0.641c-1.123,0-2.031,0.396-2.721,1.184
		c-0.69,0.789-1.037,2-1.037,3.629c0,1.337,0.313,2.417,0.936,3.249c0.623,0.832,1.555,1.249,2.792,1.249
		c1.138,0,2.006-0.438,2.602-1.313c0.316-0.46,0.552-1.067,0.707-1.816h1.506c-0.135,1.2-0.582,2.209-1.336,3.019
		c-0.905,0.982-2.127,1.466-3.666,1.466c-1.325,0-2.437-0.399-3.337-1.199c-1.186-1.064-1.779-2.7-1.779-4.917
		c0-1.684,0.445-3.064,1.336-4.138C254.411,37.686,255.738,37.103,257.431,37.103z"/>
	<path d="M265.635,45.44c0.253-0.144,0.633-0.249,1.141-0.316l0.847-0.11c0.259-0.031,0.523-0.083,0.792-0.157
		c0.269-0.07,0.489-0.163,0.661-0.273v1.129c0,0.859-0.39,1.476-1.166,1.856c-0.46,0.227-0.938,0.344-1.43,0.344
		c-0.402,0-0.751-0.117-1.048-0.353c-0.294-0.23-0.443-0.549-0.443-0.954C264.99,46.076,265.204,45.683,265.635,45.44z
		 M264.253,44.845c-0.482,0.423-0.723,1.021-0.723,1.794c0,0.7,0.244,1.289,0.735,1.758c0.488,0.466,1.118,0.703,1.89,0.703
		c0.641,0,1.23-0.138,1.762-0.414c0.534-0.273,0.943-0.595,1.227-0.969c0.048,0.331,0.127,0.589,0.241,0.767
		c0.218,0.344,0.568,0.516,1.049,0.516c0.196,0,0.351-0.006,0.465-0.025c0.115-0.015,0.281-0.052,0.497-0.116v-1.034
		c-0.088,0.018-0.17,0.03-0.249,0.037c-0.079,0.009-0.147,0.012-0.21,0.012c-0.19,0-0.316-0.043-0.375-0.135
		c-0.06-0.086-0.089-0.203-0.089-0.347V42.6c0-0.786-0.302-1.365-0.909-1.74c-0.61-0.374-1.405-0.558-2.384-0.558
		c-0.843,0-1.586,0.199-2.224,0.601c-0.639,0.402-0.972,1.114-0.997,2.141h1.304c0.052-0.429,0.163-0.757,0.334-0.972
		c0.304-0.393,0.822-0.589,1.552-0.589c0.632,0,1.117,0.107,1.456,0.319c0.339,0.218,0.509,0.564,0.509,1.04
		c0,0.23-0.032,0.411-0.093,0.534c-0.109,0.227-0.324,0.365-0.645,0.402l-2.229,0.282C265.365,44.158,264.735,44.419,264.253,44.845
		z"/>
	<path d="M272.76,48.818v-8.313h1.328v1.181c0.393-0.488,0.81-0.837,1.249-1.049c0.44-0.215,0.93-0.319,1.468-0.319
		c1.181,0,1.977,0.411,2.392,1.236c0.229,0.448,0.342,1.092,0.342,1.93v5.334h-1.42v-5.243c0-0.503-0.075-0.911-0.225-1.224
		c-0.249-0.516-0.7-0.779-1.352-0.779c-0.331,0-0.603,0.034-0.814,0.104c-0.383,0.114-0.721,0.341-1.009,0.681
		c-0.233,0.276-0.385,0.559-0.454,0.853c-0.07,0.292-0.105,0.711-0.105,1.254v4.353H272.76z"/>
	<path d="M283.315,45.44c0.254-0.144,0.635-0.249,1.141-0.316l0.847-0.11c0.258-0.031,0.523-0.083,0.792-0.157
		c0.27-0.07,0.491-0.163,0.661-0.273v1.129c0,0.859-0.388,1.476-1.164,1.856c-0.462,0.227-0.939,0.344-1.43,0.344
		c-0.405,0-0.753-0.117-1.049-0.353c-0.294-0.23-0.441-0.549-0.441-0.954C282.671,46.076,282.886,45.683,283.315,45.44z
		 M281.934,44.845c-0.482,0.423-0.723,1.021-0.723,1.794c0,0.7,0.246,1.289,0.733,1.758c0.491,0.466,1.12,0.703,1.893,0.703
		c0.641,0,1.227-0.138,1.761-0.414c0.534-0.273,0.942-0.595,1.227-0.969c0.047,0.331,0.127,0.589,0.242,0.767
		c0.216,0.344,0.566,0.516,1.046,0.516c0.198,0,0.353-0.006,0.466-0.025c0.113-0.015,0.279-0.052,0.497-0.116v-1.034
		c-0.087,0.018-0.17,0.03-0.248,0.037c-0.077,0.009-0.147,0.012-0.209,0.012c-0.191,0-0.317-0.043-0.377-0.135
		c-0.059-0.086-0.089-0.203-0.089-0.347V42.6c0-0.786-0.304-1.365-0.908-1.74c-0.61-0.374-1.405-0.558-2.384-0.558
		c-0.843,0-1.586,0.199-2.226,0.601s-0.971,1.114-0.999,2.141h1.306c0.052-0.429,0.164-0.757,0.334-0.972
		c0.306-0.393,0.824-0.589,1.554-0.589c0.63,0,1.116,0.107,1.454,0.319c0.341,0.218,0.509,0.564,0.509,1.04
		c0,0.23-0.031,0.411-0.092,0.534c-0.11,0.227-0.325,0.365-0.646,0.402l-2.229,0.282C283.045,44.158,282.415,44.419,281.934,44.845z
		"/>
	<path d="M291.981,42.382c0.437-0.54,1.008-0.81,1.712-0.81c0.632,0,1.163,0.254,1.592,0.761c0.43,0.503,0.644,1.282,0.644,2.334
		c0,1.04-0.208,1.834-0.625,2.393c-0.416,0.559-0.948,0.834-1.595,0.834c-0.833,0-1.439-0.301-1.816-0.902
		c-0.379-0.598-0.568-1.344-0.568-2.233C291.325,43.713,291.543,42.922,291.981,42.382z M290.777,41.689
		c-0.618,0.886-0.928,1.936-0.928,3.144c0,1.294,0.34,2.334,1.018,3.114c0.678,0.779,1.479,1.166,2.407,1.166
		c0.575,0,1.084-0.11,1.529-0.34c0.445-0.227,0.831-0.595,1.156-1.107v1.153h1.258V37.373h-1.344v4.2
		c-0.316-0.383-0.597-0.66-0.845-0.813c-0.431-0.267-0.963-0.402-1.6-0.402C292.28,40.357,291.396,40.799,290.777,41.689z"/>
	<path d="M300.997,45.44c0.253-0.144,0.633-0.249,1.141-0.316l0.847-0.11c0.258-0.031,0.521-0.083,0.792-0.157
		c0.27-0.07,0.488-0.163,0.66-0.273v1.129c0,0.859-0.388,1.476-1.166,1.856c-0.46,0.227-0.936,0.344-1.428,0.344
		c-0.403,0-0.753-0.117-1.048-0.353c-0.294-0.23-0.441-0.549-0.441-0.954C300.353,46.076,300.566,45.683,300.997,45.44z
		 M299.614,44.845c-0.482,0.423-0.721,1.021-0.721,1.794c0,0.7,0.244,1.289,0.733,1.758c0.489,0.466,1.12,0.703,1.89,0.703
		c0.643,0,1.23-0.138,1.764-0.414c0.534-0.273,0.942-0.595,1.227-0.969c0.046,0.331,0.126,0.589,0.239,0.767
		c0.218,0.344,0.567,0.516,1.049,0.516c0.196,0,0.353-0.006,0.466-0.025c0.113-0.015,0.279-0.052,0.497-0.116v-1.034
		c-0.089,0.018-0.171,0.03-0.248,0.037c-0.079,0.009-0.147,0.012-0.21,0.012c-0.191,0-0.317-0.043-0.375-0.135
		c-0.062-0.086-0.089-0.203-0.089-0.347V42.6c0-0.786-0.303-1.365-0.909-1.74c-0.612-0.374-1.407-0.558-2.384-0.558
		c-0.845,0-1.586,0.199-2.226,0.601c-0.638,0.402-0.972,1.114-0.997,2.141h1.304c0.052-0.429,0.164-0.757,0.334-0.972
		c0.305-0.393,0.824-0.589,1.552-0.589c0.632,0,1.117,0.107,1.457,0.319c0.339,0.218,0.509,0.564,0.509,1.04
		c0,0.23-0.032,0.411-0.095,0.534c-0.107,0.227-0.322,0.365-0.645,0.402l-2.227,0.282C300.727,44.158,300.095,44.419,299.614,44.845
		z"/>
	<path d="M369.407,18.255c1.444,0,2.565,0.38,3.362,1.141c0.797,0.761,1.24,1.626,1.328,2.595h-1.507
		c-0.17-0.739-0.511-1.319-1.021-1.751c-0.51-0.427-1.226-0.641-2.147-0.641c-1.124,0-2.03,0.396-2.722,1.184
		c-0.691,0.788-1.036,2-1.036,3.629c0,1.337,0.312,2.417,0.936,3.249c0.624,0.831,1.555,1.249,2.792,1.249
		c1.139,0,2.005-0.438,2.602-1.313c0.315-0.46,0.551-1.067,0.706-1.816h1.506c-0.134,1.199-0.58,2.208-1.335,3.019
		c-0.906,0.981-2.127,1.466-3.665,1.466c-1.325,0-2.438-0.399-3.339-1.2c-1.186-1.064-1.778-2.699-1.778-4.917
		c0-1.685,0.445-3.065,1.336-4.138C366.386,18.838,367.714,18.255,369.407,18.255z"/>
	<path d="M377.347,28.188c-0.388-0.592-0.582-1.329-0.582-2.215c0-0.923,0.194-1.709,0.582-2.359
		c0.388-0.653,1.009-0.979,1.864-0.979c0.962,0,1.641,0.384,2.035,1.147c0.248,0.488,0.373,1.12,0.373,1.896
		c0,0.856-0.173,1.642-0.517,2.341c-0.344,0.703-0.979,1.052-1.906,1.052C378.351,29.072,377.735,28.777,377.347,28.188z
		 M376.392,22.657c-0.709,0.829-1.064,1.942-1.064,3.341c0,1.304,0.336,2.344,1.009,3.117c0.673,0.773,1.582,1.163,2.726,1.163
		c1.371,0,2.384-0.439,3.036-1.313c0.652-0.875,0.979-1.985,0.979-3.325c0-1.387-0.371-2.436-1.111-3.15
		c-0.74-0.718-1.646-1.074-2.717-1.074C378.053,21.415,377.101,21.829,376.392,22.657z"/>
	<path d="M384.735,29.971v-8.313h1.328v1.181c0.394-0.488,0.81-0.837,1.25-1.049c0.44-0.214,0.93-0.319,1.468-0.319
		c1.181,0,1.978,0.411,2.392,1.236c0.227,0.448,0.341,1.092,0.341,1.929v5.335h-1.421v-5.243c0-0.503-0.075-0.911-0.226-1.224
		c-0.249-0.515-0.699-0.779-1.351-0.779c-0.332,0-0.604,0.034-0.815,0.104c-0.383,0.114-0.72,0.34-1.01,0.681
		c-0.232,0.276-0.384,0.558-0.454,0.853c-0.07,0.292-0.105,0.712-0.105,1.255v4.353H384.735z"/>
	<path d="M393.062,27.363h1.345c0.04,0.466,0.156,0.825,0.348,1.073c0.353,0.448,0.963,0.675,1.833,0.675
		c0.517,0,0.972-0.117,1.367-0.338c0.393-0.227,0.589-0.577,0.589-1.049c0-0.353-0.156-0.626-0.473-0.813
		c-0.202-0.113-0.602-0.246-1.196-0.396l-1.11-0.282c-0.708-0.172-1.231-0.368-1.567-0.589c-0.602-0.374-0.9-0.898-0.9-1.564
		c0-0.792,0.282-1.426,0.85-1.911c0.566-0.488,1.328-0.733,2.285-0.733c1.253,0,2.156,0.371,2.71,1.104
		c0.347,0.466,0.516,0.969,0.507,1.506h-1.321c-0.025-0.313-0.136-0.601-0.334-0.862c-0.32-0.368-0.877-0.549-1.67-0.549
		c-0.527,0-0.926,0.102-1.199,0.301c-0.27,0.203-0.408,0.469-0.408,0.797c0,0.365,0.18,0.654,0.537,0.875
		c0.207,0.125,0.512,0.242,0.917,0.34l0.923,0.224c1.003,0.242,1.678,0.479,2.019,0.708c0.545,0.353,0.816,0.917,0.816,1.681
		c0,0.742-0.282,1.38-0.844,1.92c-0.562,0.54-1.416,0.81-2.566,0.81c-1.238,0-2.112-0.282-2.627-0.847
		C393.375,28.885,393.099,28.191,393.062,27.363z"/>
	<path d="M403.289,23.381c0.435-0.46,0.973-0.693,1.615-0.693c0.895,0,1.535,0.337,1.918,1.012c0.207,0.362,0.339,0.844,0.396,1.448
		h-4.621C402.624,24.434,402.854,23.845,403.289,23.381z M402.148,22.719c-0.726,0.834-1.088,1.917-1.088,3.255
		c0,1.355,0.359,2.411,1.078,3.166c0.72,0.751,1.599,1.126,2.633,1.126c0.426,0,0.807-0.04,1.143-0.12
		c0.626-0.147,1.151-0.43,1.576-0.844c0.253-0.233,0.483-0.543,0.688-0.917c0.204-0.377,0.323-0.718,0.36-1.021h-1.374
		c-0.104,0.368-0.279,0.69-0.528,0.972c-0.436,0.481-1.017,0.718-1.748,0.718c-0.78,0-1.357-0.254-1.73-0.764
		c-0.372-0.506-0.573-1.184-0.598-2.031h6.095c0-0.837-0.041-1.448-0.124-1.832c-0.094-0.558-0.279-1.046-0.56-1.466
		c-0.29-0.438-0.71-0.797-1.266-1.074c-0.554-0.279-1.126-0.417-1.715-0.417C403.818,21.47,402.872,21.887,402.148,22.719z"/>
	<path d="M410.366,29.971v-8.273h1.421v8.273H410.366z M410.366,20.148v-1.583h1.421v1.583H410.366z"/>
	<path d="M413.936,29.971V18.565h1.397v11.406H413.936z"/>
	<path d="M423.386,23.535c0.436-0.54,1.007-0.81,1.711-0.81c0.631,0,1.161,0.255,1.591,0.761c0.431,0.503,0.646,1.282,0.646,2.334
		c0,1.04-0.208,1.834-0.625,2.393c-0.416,0.558-0.95,0.834-1.596,0.834c-0.834,0-1.438-0.301-1.817-0.902
		c-0.377-0.599-0.566-1.344-0.566-2.233C422.729,24.866,422.948,24.075,423.386,23.535z M422.182,22.841
		c-0.62,0.887-0.929,1.936-0.929,3.145c0,1.294,0.34,2.334,1.018,3.113c0.678,0.779,1.481,1.166,2.406,1.166
		c0.575,0,1.086-0.11,1.53-0.341c0.445-0.227,0.832-0.595,1.157-1.107v1.154h1.258V18.525h-1.343v4.199
		c-0.317-0.383-0.6-0.659-0.848-0.813c-0.428-0.267-0.962-0.402-1.599-0.402C423.683,21.51,422.8,21.952,422.182,22.841z"/>
	<path d="M432.445,23.381c0.436-0.46,0.975-0.693,1.617-0.693c0.894,0,1.533,0.337,1.917,1.012c0.207,0.362,0.339,0.844,0.396,1.448
		h-4.62C431.78,24.434,432.012,23.845,432.445,23.381z M431.306,22.719c-0.726,0.834-1.087,1.917-1.087,3.255
		c0,1.355,0.358,2.411,1.078,3.166c0.719,0.751,1.597,1.126,2.634,1.126c0.423,0,0.804-0.04,1.14-0.12
		c0.627-0.147,1.151-0.43,1.576-0.844c0.255-0.233,0.483-0.543,0.688-0.917c0.204-0.377,0.325-0.718,0.36-1.021h-1.374
		c-0.104,0.368-0.279,0.69-0.528,0.972c-0.434,0.481-1.017,0.718-1.745,0.718c-0.784,0-1.359-0.254-1.731-0.764
		c-0.375-0.506-0.572-1.184-0.6-2.031h6.097c0-0.837-0.042-1.448-0.124-1.832c-0.094-0.558-0.281-1.046-0.561-1.466
		c-0.29-0.438-0.712-0.797-1.265-1.074c-0.554-0.279-1.126-0.417-1.717-0.417C432.977,21.47,432.028,21.887,431.306,22.719z"/>
	<path d="M443.981,29.971v-8.313h1.326v1.436c0.109-0.282,0.376-0.623,0.801-1.021c0.424-0.398,0.914-0.601,1.468-0.601
		c0.026,0,0.071,0,0.132,0.006c0.063,0.006,0.169,0.018,0.319,0.034v1.475c-0.084-0.018-0.161-0.027-0.23-0.03
		c-0.07-0.006-0.146-0.012-0.229-0.012c-0.705,0-1.245,0.23-1.622,0.681c-0.379,0.451-0.567,0.976-0.567,1.568v4.779H443.981z"/>
	<path d="M450.997,23.381c0.434-0.46,0.973-0.693,1.615-0.693c0.894,0,1.533,0.337,1.917,1.012c0.207,0.362,0.339,0.844,0.396,1.448
		h-4.62C450.331,24.434,450.562,23.845,450.997,23.381z M449.854,22.719c-0.725,0.834-1.086,1.917-1.086,3.255
		c0,1.355,0.358,2.411,1.078,3.166c0.719,0.751,1.597,1.126,2.632,1.126c0.425,0,0.806-0.04,1.143-0.12
		c0.626-0.147,1.152-0.43,1.577-0.844c0.253-0.233,0.481-0.543,0.687-0.917c0.204-0.377,0.324-0.718,0.36-1.021h-1.374
		c-0.103,0.368-0.279,0.69-0.527,0.972c-0.436,0.481-1.017,0.718-1.749,0.718c-0.78,0-1.357-0.254-1.731-0.764
		c-0.371-0.506-0.572-1.184-0.597-2.031h6.096c0-0.837-0.042-1.448-0.124-1.832c-0.094-0.558-0.279-1.046-0.561-1.466
		c-0.288-0.438-0.71-0.797-1.266-1.074c-0.553-0.279-1.125-0.417-1.714-0.417C451.527,21.47,450.58,21.887,449.854,22.719z"/>
	<path d="M461.281,21.415c0.937,0,1.699,0.23,2.287,0.684c0.587,0.457,0.939,1.239,1.06,2.353h-1.359
		c-0.083-0.516-0.271-0.939-0.567-1.276c-0.294-0.34-0.767-0.509-1.42-0.509c-0.892,0-1.526,0.433-1.911,1.304
		c-0.249,0.562-0.371,1.261-0.371,2.086c0,0.837,0.175,1.537,0.527,2.107c0.353,0.571,0.905,0.853,1.661,0.853
		c0.581,0,1.04-0.178,1.379-0.531c0.339-0.356,0.572-0.84,0.702-1.457h1.359c-0.155,1.104-0.543,1.908-1.166,2.417
		c-0.619,0.513-1.416,0.767-2.384,0.767c-1.087,0-1.954-0.399-2.6-1.19c-0.648-0.794-0.971-1.788-0.971-2.979
		c0-1.46,0.354-2.598,1.063-3.408C459.281,21.823,460.183,21.415,461.281,21.415z"/>
	<path d="M466.025,29.971V18.525h1.398v4.258c0.33-0.423,0.629-0.718,0.892-0.887c0.45-0.294,1.014-0.441,1.686-0.441
		c1.205,0,2.024,0.42,2.454,1.264c0.232,0.463,0.35,1.101,0.35,1.917v5.335h-1.438v-5.243c0-0.607-0.076-1.055-0.231-1.341
		c-0.255-0.454-0.731-0.681-1.43-0.681c-0.58,0-1.105,0.196-1.577,0.595c-0.471,0.398-0.705,1.153-0.705,2.257v4.412H466.025z"/>
	<path d="M476.628,23.381c0.436-0.46,0.973-0.693,1.615-0.693c0.896,0,1.535,0.337,1.917,1.012c0.209,0.362,0.34,0.844,0.397,1.448
		h-4.62C475.964,24.434,476.194,23.845,476.628,23.381z M475.487,22.719c-0.726,0.834-1.088,1.917-1.088,3.255
		c0,1.355,0.36,2.411,1.08,3.166c0.72,0.751,1.597,1.126,2.632,1.126c0.425,0,0.806-0.04,1.142-0.12
		c0.625-0.147,1.151-0.43,1.576-0.844c0.253-0.233,0.481-0.543,0.688-0.917c0.204-0.377,0.325-0.718,0.36-1.021h-1.374
		c-0.104,0.368-0.279,0.69-0.528,0.972c-0.436,0.481-1.017,0.718-1.747,0.718c-0.782,0-1.358-0.254-1.731-0.764
		c-0.372-0.506-0.572-1.184-0.598-2.031h6.095c0-0.837-0.041-1.448-0.122-1.832c-0.096-0.558-0.281-1.046-0.561-1.466
		c-0.289-0.438-0.713-0.797-1.265-1.074c-0.554-0.279-1.126-0.417-1.717-0.417C477.159,21.47,476.213,21.887,475.487,22.719z"/>
	<path d="M483.745,29.971v-8.313h1.328v1.436c0.107-0.282,0.374-0.623,0.799-1.021c0.425-0.398,0.913-0.601,1.468-0.601
		c0.025,0,0.071,0,0.133,0.006c0.063,0.006,0.167,0.018,0.317,0.034v1.475c-0.082-0.018-0.158-0.027-0.229-0.03
		c-0.071-0.006-0.147-0.012-0.229-0.012c-0.704,0-1.246,0.23-1.625,0.681c-0.377,0.451-0.565,0.976-0.565,1.568v4.779H483.745z"/>
	<path d="M492.205,21.415c0.938,0,1.698,0.23,2.286,0.684c0.589,0.457,0.941,1.239,1.06,2.353h-1.357
		c-0.083-0.516-0.273-0.939-0.567-1.276c-0.295-0.34-0.771-0.509-1.421-0.509c-0.891,0-1.527,0.433-1.911,1.304
		c-0.248,0.562-0.372,1.261-0.372,2.086c0,0.837,0.176,1.537,0.529,2.107c0.351,0.571,0.904,0.853,1.659,0.853
		c0.581,0,1.04-0.178,1.379-0.531c0.341-0.356,0.573-0.84,0.704-1.457h1.357c-0.155,1.104-0.543,1.908-1.164,2.417
		c-0.621,0.513-1.416,0.767-2.384,0.767c-1.087,0-1.955-0.399-2.602-1.19c-0.646-0.794-0.971-1.788-0.971-2.979
		c0-1.46,0.354-2.598,1.063-3.408C490.204,21.823,491.107,21.415,492.205,21.415z"/>
	<path d="M496.948,29.971V18.525h1.398v4.258c0.331-0.423,0.629-0.718,0.893-0.887c0.451-0.294,1.013-0.441,1.685-0.441
		c1.207,0,2.024,0.42,2.454,1.264c0.233,0.463,0.35,1.101,0.35,1.917v5.335h-1.436v-5.243c0-0.607-0.078-1.055-0.233-1.341
		c-0.255-0.454-0.73-0.681-1.43-0.681c-0.579,0-1.105,0.196-1.576,0.595c-0.472,0.398-0.706,1.153-0.706,2.257v4.412H496.948z"/>
	<path d="M507.553,23.381c0.434-0.46,0.973-0.693,1.613-0.693c0.896,0,1.535,0.337,1.919,1.012c0.207,0.362,0.339,0.844,0.396,1.448
		h-4.619C506.886,24.434,507.117,23.845,507.553,23.381z M506.411,22.719c-0.725,0.834-1.089,1.917-1.089,3.255
		c0,1.355,0.36,2.411,1.08,3.166c0.72,0.751,1.597,1.126,2.632,1.126c0.425,0,0.806-0.04,1.143-0.12
		c0.626-0.147,1.152-0.43,1.577-0.844c0.253-0.233,0.481-0.543,0.688-0.917c0.203-0.377,0.323-0.718,0.36-1.021h-1.375
		c-0.104,0.368-0.28,0.69-0.528,0.972c-0.435,0.481-1.018,0.718-1.747,0.718c-0.781,0-1.359-0.254-1.73-0.764
		c-0.374-0.506-0.573-1.184-0.6-2.031h6.097c0-0.837-0.043-1.448-0.126-1.832c-0.092-0.558-0.277-1.046-0.558-1.466
		c-0.29-0.438-0.712-0.797-1.266-1.074c-0.554-0.279-1.126-0.417-1.717-0.417C508.083,21.47,507.134,21.887,506.411,22.719z"/>
	<path d="M514.117,27.363h1.342c0.042,0.466,0.158,0.825,0.352,1.073c0.352,0.448,0.962,0.675,1.832,0.675
		c0.518,0,0.972-0.117,1.366-0.338c0.395-0.227,0.591-0.577,0.591-1.049c0-0.353-0.158-0.626-0.475-0.813
		c-0.201-0.113-0.6-0.246-1.194-0.396l-1.11-0.282c-0.711-0.172-1.233-0.368-1.569-0.589c-0.6-0.374-0.9-0.898-0.9-1.564
		c0-0.792,0.284-1.426,0.85-1.911c0.566-0.488,1.328-0.733,2.287-0.733c1.251,0,2.155,0.371,2.71,1.104
		c0.347,0.466,0.516,0.969,0.505,1.506h-1.32c-0.025-0.313-0.139-0.601-0.335-0.862c-0.32-0.368-0.877-0.549-1.669-0.549
		c-0.527,0-0.928,0.102-1.199,0.301c-0.271,0.203-0.408,0.469-0.408,0.797c0,0.365,0.18,0.654,0.537,0.875
		c0.206,0.125,0.513,0.242,0.916,0.34l0.925,0.224c1.003,0.242,1.676,0.479,2.017,0.708c0.545,0.353,0.816,0.917,0.816,1.681
		c0,0.742-0.281,1.38-0.843,1.92c-0.563,0.54-1.417,0.81-2.565,0.81c-1.238,0-2.114-0.282-2.629-0.847
		C514.429,28.885,514.154,28.191,514.117,27.363z"/>
	<path d="M528.762,23.381c0.435-0.46,0.973-0.693,1.614-0.693c0.896,0,1.535,0.337,1.919,1.012c0.207,0.362,0.339,0.844,0.396,1.448
		h-4.62C528.097,24.434,528.326,23.845,528.762,23.381z M527.619,22.719c-0.724,0.834-1.086,1.917-1.086,3.255
		c0,1.355,0.359,2.411,1.078,3.166c0.72,0.751,1.598,1.126,2.633,1.126c0.425,0,0.807-0.04,1.143-0.12
		c0.626-0.147,1.151-0.43,1.575-0.844c0.255-0.233,0.483-0.543,0.687-0.917c0.206-0.377,0.325-0.718,0.362-1.021h-1.374
		c-0.104,0.368-0.281,0.69-0.529,0.972c-0.435,0.481-1.016,0.718-1.747,0.718c-0.78,0-1.359-0.254-1.73-0.764
		c-0.374-0.506-0.573-1.184-0.598-2.031h6.095c0-0.837-0.041-1.448-0.124-1.832c-0.094-0.558-0.279-1.046-0.56-1.466
		c-0.288-0.438-0.712-0.797-1.266-1.074c-0.554-0.279-1.126-0.417-1.716-0.417C529.293,21.47,528.345,21.887,527.619,22.719z"/>
	<path d="M535.839,29.971v-8.313h1.328v1.181c0.394-0.488,0.811-0.837,1.25-1.049c0.44-0.214,0.929-0.319,1.469-0.319
		c1.179,0,1.977,0.411,2.391,1.236c0.229,0.448,0.342,1.092,0.342,1.929v5.335h-1.422v-5.243c0-0.503-0.075-0.911-0.226-1.224
		c-0.248-0.515-0.697-0.779-1.351-0.779c-0.33,0-0.602,0.034-0.814,0.104c-0.384,0.114-0.72,0.34-1.01,0.681
		c-0.232,0.276-0.383,0.558-0.454,0.853c-0.07,0.292-0.104,0.712-0.104,1.255v4.353H535.839z"/>
	<path d="M363.901,46.21h1.344c0.042,0.466,0.158,0.825,0.35,1.074c0.352,0.448,0.962,0.675,1.832,0.675
		c0.518,0,0.973-0.117,1.367-0.337c0.394-0.227,0.59-0.577,0.59-1.049c0-0.353-0.158-0.625-0.474-0.813
		c-0.202-0.113-0.601-0.245-1.196-0.396l-1.11-0.282c-0.709-0.172-1.232-0.368-1.568-0.589c-0.601-0.375-0.901-0.899-0.901-1.564
		c0-0.792,0.284-1.427,0.85-1.911c0.567-0.488,1.329-0.733,2.287-0.733c1.252,0,2.156,0.371,2.709,1.104
		c0.347,0.466,0.515,0.969,0.505,1.506h-1.321c-0.026-0.313-0.137-0.602-0.333-0.862c-0.321-0.368-0.877-0.549-1.669-0.549
		c-0.528,0-0.928,0.101-1.2,0.3c-0.272,0.203-0.408,0.47-0.408,0.798c0,0.365,0.179,0.653,0.536,0.874
		c0.207,0.126,0.512,0.243,0.916,0.341l0.924,0.224c1.004,0.243,1.677,0.479,2.019,0.709c0.544,0.353,0.815,0.917,0.815,1.681
		c0,0.743-0.282,1.38-0.843,1.92c-0.561,0.54-1.416,0.81-2.566,0.81c-1.237,0-2.113-0.282-2.628-0.847
		C364.213,47.732,363.938,47.039,363.901,46.21z"/>
	<path d="M375.572,40.262c0.937,0,1.699,0.23,2.287,0.684c0.587,0.457,0.941,1.239,1.06,2.353h-1.359
		c-0.083-0.516-0.271-0.939-0.567-1.276c-0.295-0.34-0.769-0.509-1.421-0.509c-0.891,0-1.527,0.432-1.91,1.304
		c-0.249,0.561-0.373,1.261-0.373,2.086c0,0.837,0.175,1.537,0.527,2.107c0.352,0.57,0.906,0.853,1.662,0.853
		c0.58,0,1.039-0.178,1.378-0.531c0.339-0.355,0.573-0.84,0.703-1.457h1.359c-0.155,1.104-0.544,1.908-1.165,2.417
		c-0.621,0.512-1.416,0.767-2.383,0.767c-1.087,0-1.954-0.398-2.602-1.19c-0.647-0.794-0.97-1.789-0.97-2.979
		c0-1.46,0.354-2.599,1.064-3.408C373.571,40.67,374.475,40.262,375.572,40.262z"/>
	<path d="M380.317,48.818v-8.273h1.421v8.273H380.317z M380.317,38.996v-1.583h1.421v1.583H380.317z"/>
	<path d="M385.515,42.407c0.435-0.463,0.973-0.696,1.615-0.696c0.895,0,1.535,0.337,1.918,1.009c0.208,0.365,0.339,0.85,0.396,1.451
		h-4.62C384.849,43.459,385.08,42.87,385.515,42.407z M384.374,41.744c-0.726,0.831-1.088,1.917-1.088,3.251
		c0,1.356,0.36,2.411,1.079,3.166c0.72,0.751,1.598,1.129,2.633,1.129c0.424,0,0.805-0.04,1.141-0.126
		c0.626-0.144,1.152-0.423,1.576-0.837c0.254-0.236,0.483-0.543,0.688-0.92c0.204-0.374,0.324-0.715,0.361-1.019h-1.375
		c-0.104,0.365-0.279,0.69-0.527,0.97c-0.435,0.479-1.018,0.721-1.747,0.721c-0.782,0-1.359-0.254-1.732-0.767
		c-0.373-0.509-0.572-1.184-0.598-2.027h6.096c0-0.837-0.042-1.448-0.125-1.832c-0.093-0.562-0.279-1.049-0.559-1.469
		c-0.29-0.442-0.711-0.798-1.265-1.077c-0.554-0.276-1.126-0.415-1.716-0.415C386.045,40.492,385.098,40.907,384.374,41.744z"/>
	<path d="M392.686,48.818v-8.313h1.329v1.181c0.393-0.488,0.808-0.837,1.25-1.049c0.44-0.215,0.929-0.319,1.468-0.319
		c1.18,0,1.978,0.411,2.392,1.236c0.227,0.448,0.34,1.092,0.34,1.93v5.334h-1.42v-5.243c0-0.503-0.075-0.911-0.226-1.224
		c-0.248-0.516-0.699-0.779-1.35-0.779c-0.333,0-0.604,0.034-0.816,0.104c-0.384,0.114-0.721,0.341-1.009,0.681
		c-0.233,0.276-0.385,0.559-0.456,0.853c-0.069,0.292-0.104,0.711-0.104,1.254v4.353H392.686z"/>
	<path d="M404.734,40.262c0.936,0,1.698,0.23,2.285,0.684c0.589,0.457,0.941,1.239,1.06,2.353h-1.357
		c-0.082-0.516-0.272-0.939-0.567-1.276c-0.294-0.34-0.77-0.509-1.42-0.509c-0.892,0-1.529,0.432-1.911,1.304
		c-0.249,0.561-0.373,1.261-0.373,2.086c0,0.837,0.177,1.537,0.529,2.107c0.35,0.57,0.905,0.853,1.66,0.853
		c0.579,0,1.039-0.178,1.378-0.531c0.341-0.355,0.574-0.84,0.704-1.457h1.357c-0.154,1.104-0.543,1.908-1.164,2.417
		c-0.621,0.512-1.415,0.767-2.383,0.767c-1.088,0-1.956-0.398-2.602-1.19c-0.647-0.794-0.971-1.789-0.971-2.979
		c0-1.46,0.354-2.599,1.063-3.408C402.732,40.67,403.636,40.262,404.734,40.262z"/>
	<path d="M411.24,42.229c0.435-0.46,0.973-0.693,1.615-0.693c0.895,0,1.535,0.338,1.918,1.013c0.207,0.362,0.339,0.843,0.396,1.448
		h-4.621C410.575,43.281,410.805,42.692,411.24,42.229z M410.1,41.566c-0.726,0.834-1.088,1.917-1.088,3.255
		c0,1.356,0.359,2.411,1.078,3.166c0.72,0.752,1.599,1.126,2.633,1.126c0.426,0,0.807-0.04,1.143-0.12
		c0.626-0.147,1.151-0.429,1.576-0.844c0.254-0.233,0.483-0.543,0.688-0.917c0.204-0.377,0.323-0.718,0.36-1.021h-1.374
		c-0.104,0.368-0.279,0.69-0.527,0.972c-0.437,0.482-1.018,0.718-1.749,0.718c-0.78,0-1.357-0.255-1.73-0.764
		c-0.372-0.506-0.573-1.184-0.598-2.031h6.095c0-0.837-0.041-1.448-0.124-1.831c-0.094-0.559-0.279-1.046-0.56-1.466
		c-0.29-0.439-0.71-0.798-1.266-1.074c-0.554-0.279-1.126-0.417-1.715-0.417C411.77,40.317,410.823,40.735,410.1,41.566z"/>
	<path d="M417.806,46.21h1.344c0.041,0.466,0.157,0.825,0.35,1.074c0.351,0.448,0.961,0.675,1.833,0.675
		c0.517,0,0.972-0.117,1.366-0.337c0.393-0.227,0.589-0.577,0.589-1.049c0-0.353-0.156-0.625-0.473-0.813
		c-0.202-0.113-0.601-0.245-1.196-0.396l-1.11-0.282c-0.709-0.172-1.231-0.368-1.569-0.589c-0.6-0.375-0.9-0.899-0.9-1.564
		c0-0.792,0.282-1.427,0.852-1.911c0.566-0.488,1.328-0.733,2.285-0.733c1.253,0,2.157,0.371,2.711,1.104
		c0.347,0.466,0.515,0.969,0.504,1.506h-1.318c-0.026-0.313-0.139-0.602-0.335-0.862c-0.32-0.368-0.877-0.549-1.67-0.549
		c-0.527,0-0.927,0.101-1.199,0.3c-0.271,0.203-0.407,0.47-0.407,0.798c0,0.365,0.179,0.653,0.536,0.874
		c0.205,0.126,0.512,0.243,0.915,0.341l0.924,0.224c1.004,0.243,1.678,0.479,2.02,0.709c0.543,0.353,0.814,0.917,0.814,1.681
		c0,0.743-0.28,1.38-0.842,1.92s-1.417,0.81-2.566,0.81c-1.237,0-2.113-0.282-2.627-0.847
		C418.118,47.732,417.842,47.039,417.806,46.21z"/>
	<path d="M430.688,48.818V37.373h1.397v4.258c0.331-0.423,0.629-0.718,0.895-0.886c0.449-0.294,1.011-0.442,1.684-0.442
		c1.206,0,2.023,0.42,2.454,1.264c0.233,0.463,0.349,1.102,0.349,1.917v5.334h-1.436v-5.243c0-0.607-0.078-1.055-0.233-1.34
		c-0.255-0.454-0.73-0.681-1.428-0.681c-0.582,0-1.106,0.196-1.577,0.595s-0.707,1.153-0.707,2.258v4.411H430.688z"/>
	<path d="M439.496,40.505h1.43v5.519c0,0.426,0.066,0.773,0.202,1.04c0.247,0.497,0.711,0.749,1.389,0.749
		c0.974,0,1.637-0.436,1.989-1.307c0.19-0.463,0.287-1.104,0.287-1.92v-4.08h1.396v8.313h-1.32l0.017-1.224
		c-0.182,0.316-0.406,0.583-0.676,0.798c-0.534,0.436-1.182,0.653-1.942,0.653c-1.184,0-1.992-0.396-2.422-1.19
		c-0.232-0.423-0.35-0.988-0.35-1.699V40.505z"/>
	<path d="M448.368,48.818v-8.313h1.382v1.181c0.331-0.411,0.632-0.708,0.901-0.893c0.461-0.319,0.982-0.476,1.568-0.476
		c0.662,0,1.196,0.163,1.6,0.491c0.229,0.184,0.434,0.457,0.621,0.822c0.31-0.445,0.675-0.776,1.095-0.994
		c0.419-0.215,0.89-0.319,1.413-0.319c1.118,0,1.879,0.405,2.282,1.212c0.218,0.436,0.326,1.019,0.326,1.751v5.537h-1.45v-5.773
		c0-0.555-0.14-0.936-0.418-1.144c-0.275-0.208-0.613-0.31-1.012-0.31c-0.55,0-1.021,0.184-1.417,0.552
		c-0.396,0.368-0.594,0.982-0.594,1.841v4.834h-1.422v-5.427c0-0.561-0.066-0.975-0.201-1.236c-0.212-0.387-0.609-0.583-1.188-0.583
		c-0.528,0-1.008,0.208-1.44,0.617c-0.433,0.408-0.647,1.15-0.647,2.218v4.411H448.368z"/>
	<path d="M463.327,45.44c0.255-0.144,0.635-0.249,1.141-0.316l0.847-0.11c0.258-0.031,0.523-0.083,0.793-0.157
		c0.269-0.07,0.489-0.163,0.658-0.273v1.129c0,0.859-0.388,1.476-1.162,1.856c-0.462,0.227-0.939,0.344-1.43,0.344
		c-0.405,0-0.753-0.117-1.049-0.353c-0.295-0.23-0.442-0.549-0.442-0.954C462.683,46.076,462.897,45.683,463.327,45.44z
		 M461.945,44.845c-0.481,0.423-0.723,1.021-0.723,1.794c0,0.7,0.245,1.289,0.733,1.758c0.489,0.466,1.119,0.703,1.891,0.703
		c0.643,0,1.229-0.138,1.765-0.414c0.532-0.273,0.941-0.595,1.225-0.969c0.047,0.331,0.128,0.589,0.241,0.767
		c0.218,0.344,0.567,0.516,1.048,0.516c0.197,0,0.353-0.006,0.466-0.025c0.115-0.015,0.279-0.052,0.497-0.116v-1.034
		c-0.087,0.018-0.17,0.03-0.248,0.037c-0.077,0.009-0.147,0.012-0.21,0.012c-0.19,0-0.316-0.043-0.376-0.135
		c-0.061-0.086-0.089-0.203-0.089-0.347V42.6c0-0.786-0.303-1.365-0.91-1.74c-0.61-0.374-1.403-0.558-2.383-0.558
		c-0.844,0-1.585,0.199-2.225,0.601s-0.971,1.114-0.998,2.141h1.305c0.053-0.429,0.164-0.757,0.335-0.972
		c0.305-0.393,0.823-0.589,1.552-0.589c0.632,0,1.117,0.107,1.457,0.319c0.339,0.218,0.508,0.564,0.508,1.04
		c0,0.23-0.03,0.411-0.094,0.534c-0.108,0.227-0.323,0.365-0.644,0.402l-2.229,0.282C463.059,44.158,462.427,44.419,461.945,44.845z
		"/>
	<path d="M470.451,48.818v-8.273h1.422v8.273H470.451z M470.451,38.996v-1.583h1.422v1.583H470.451z"/>
	<path d="M473.98,48.818v-8.313h1.329v1.181c0.393-0.488,0.81-0.837,1.25-1.049c0.438-0.215,0.929-0.319,1.466-0.319
		c1.181,0,1.978,0.411,2.392,1.236c0.229,0.448,0.344,1.092,0.344,1.93v5.334h-1.422v-5.243c0-0.503-0.075-0.911-0.226-1.224
		c-0.249-0.516-0.7-0.779-1.352-0.779c-0.331,0-0.603,0.034-0.816,0.104c-0.382,0.114-0.719,0.341-1.008,0.681
		c-0.234,0.276-0.385,0.559-0.453,0.853c-0.071,0.292-0.106,0.711-0.106,1.254v4.353H473.98z"/>
	<path d="M484.584,42.229c0.435-0.46,0.973-0.693,1.615-0.693c0.896,0,1.534,0.338,1.917,1.013c0.207,0.362,0.339,0.843,0.396,1.448
		h-4.619C483.918,43.281,484.148,42.692,484.584,42.229z M483.441,41.566c-0.724,0.834-1.086,1.917-1.086,3.255
		c0,1.356,0.358,2.411,1.08,3.166c0.718,0.752,1.595,1.126,2.632,1.126c0.423,0,0.805-0.04,1.141-0.12
		c0.626-0.147,1.15-0.429,1.577-0.844c0.252-0.233,0.481-0.543,0.688-0.917c0.202-0.377,0.323-0.718,0.36-1.021h-1.375
		c-0.104,0.368-0.28,0.69-0.528,0.972c-0.435,0.482-1.018,0.718-1.746,0.718c-0.782,0-1.358-0.255-1.731-0.764
		c-0.373-0.506-0.572-1.184-0.6-2.031h6.097c0-0.837-0.041-1.448-0.124-1.831c-0.094-0.559-0.281-1.046-0.559-1.466
		c-0.291-0.439-0.713-0.798-1.267-1.074c-0.554-0.279-1.126-0.417-1.715-0.417C485.113,40.317,484.167,40.735,483.441,41.566z"/>
	<path d="M491.148,46.21h1.344c0.042,0.466,0.158,0.825,0.35,1.074c0.352,0.448,0.962,0.675,1.833,0.675
		c0.517,0,0.973-0.117,1.367-0.337c0.393-0.227,0.589-0.577,0.589-1.049c0-0.353-0.158-0.625-0.475-0.813
		c-0.202-0.113-0.6-0.245-1.194-0.396l-1.11-0.282c-0.709-0.172-1.232-0.368-1.569-0.589c-0.6-0.375-0.9-0.899-0.9-1.564
		c0-0.792,0.282-1.427,0.85-1.911c0.567-0.488,1.33-0.733,2.287-0.733c1.252,0,2.156,0.371,2.71,1.104
		c0.347,0.466,0.516,0.969,0.505,1.506h-1.319c-0.025-0.313-0.138-0.602-0.334-0.862c-0.322-0.368-0.878-0.549-1.671-0.549
		c-0.527,0-0.928,0.101-1.199,0.3c-0.271,0.203-0.408,0.47-0.408,0.798c0,0.365,0.179,0.653,0.537,0.874
		c0.207,0.126,0.513,0.243,0.916,0.341l0.923,0.224c1.005,0.243,1.679,0.479,2.019,0.709c0.545,0.353,0.816,0.917,0.816,1.681
		c0,0.743-0.281,1.38-0.843,1.92c-0.563,0.54-1.417,0.81-2.565,0.81c-1.238,0-2.113-0.282-2.629-0.847
		C491.46,47.732,491.186,47.039,491.148,46.21z"/>
	<path d="M505.571,42.382c0.438-0.54,1.009-0.81,1.713-0.81c0.631,0,1.161,0.254,1.591,0.761c0.43,0.503,0.646,1.282,0.646,2.334
		c0,1.04-0.208,1.834-0.626,2.393c-0.417,0.559-0.947,0.834-1.595,0.834c-0.833,0-1.44-0.301-1.817-0.902
		c-0.378-0.598-0.566-1.344-0.566-2.233C504.916,43.713,505.136,42.922,505.571,42.382z M504.368,41.689
		c-0.618,0.886-0.928,1.936-0.928,3.144c0,1.294,0.339,2.334,1.017,3.114c0.679,0.779,1.48,1.166,2.408,1.166
		c0.574,0,1.083-0.11,1.529-0.34c0.445-0.227,0.83-0.595,1.156-1.107v1.153h1.258V37.373h-1.343v4.2
		c-0.314-0.383-0.597-0.66-0.846-0.813c-0.431-0.267-0.963-0.402-1.602-0.402C505.872,40.357,504.986,40.799,504.368,41.689z"/>
	<path d="M512.84,40.505h1.428v5.519c0,0.426,0.067,0.773,0.202,1.04c0.249,0.497,0.712,0.749,1.39,0.749
		c0.975,0,1.637-0.436,1.988-1.307c0.191-0.463,0.288-1.104,0.288-1.92v-4.08h1.397v8.313h-1.319l0.014-1.224
		c-0.181,0.316-0.406,0.583-0.675,0.798c-0.533,0.436-1.181,0.653-1.941,0.653c-1.186,0-1.992-0.396-2.422-1.19
		c-0.233-0.423-0.35-0.988-0.35-1.699V40.505z"/>
	<path d="M531.121,37.103c1.445,0,2.566,0.38,3.363,1.141s1.239,1.626,1.327,2.595h-1.505c-0.172-0.739-0.512-1.319-1.021-1.751
		c-0.511-0.426-1.226-0.641-2.147-0.641c-1.124,0-2.03,0.396-2.721,1.184c-0.691,0.789-1.038,2-1.038,3.629
		c0,1.337,0.313,2.417,0.936,3.249c0.624,0.832,1.555,1.249,2.791,1.249c1.14,0,2.007-0.438,2.602-1.313
		c0.317-0.46,0.553-1.067,0.707-1.816h1.508c-0.137,1.2-0.581,2.209-1.338,3.019c-0.904,0.982-2.125,1.466-3.664,1.466
		c-1.325,0-2.438-0.399-3.339-1.199c-1.186-1.064-1.777-2.7-1.777-4.917c0-1.684,0.444-3.064,1.336-4.138
		C528.103,37.686,529.43,37.103,531.121,37.103z"/>
	<path d="M539.325,45.44c0.255-0.144,0.636-0.249,1.143-0.316l0.846-0.11c0.259-0.031,0.522-0.083,0.793-0.157
		c0.269-0.07,0.487-0.163,0.659-0.273v1.129c0,0.859-0.388,1.476-1.166,1.856c-0.46,0.227-0.936,0.344-1.428,0.344
		c-0.403,0-0.753-0.117-1.049-0.353c-0.295-0.23-0.441-0.549-0.441-0.954C538.682,46.076,538.896,45.683,539.325,45.44z
		 M537.943,44.845c-0.481,0.423-0.721,1.021-0.721,1.794c0,0.7,0.244,1.289,0.733,1.758c0.487,0.466,1.119,0.703,1.89,0.703
		c0.643,0,1.229-0.138,1.764-0.414c0.532-0.273,0.941-0.595,1.226-0.969c0.048,0.331,0.127,0.589,0.24,0.767
		c0.218,0.344,0.568,0.516,1.05,0.516c0.196,0,0.351-0.006,0.466-0.025c0.113-0.015,0.279-0.052,0.497-0.116v-1.034
		c-0.089,0.018-0.172,0.03-0.248,0.037c-0.078,0.009-0.147,0.012-0.211,0.012c-0.191,0-0.317-0.043-0.375-0.135
		c-0.061-0.086-0.091-0.203-0.091-0.347V42.6c0-0.786-0.302-1.365-0.908-1.74c-0.612-0.374-1.406-0.558-2.385-0.558
		c-0.844,0-1.585,0.199-2.224,0.601s-0.973,1.114-0.997,2.141h1.304c0.052-0.429,0.164-0.757,0.334-0.972
		c0.306-0.393,0.823-0.589,1.552-0.589c0.633,0,1.117,0.107,1.458,0.319c0.337,0.218,0.507,0.564,0.507,1.04
		c0,0.23-0.03,0.411-0.093,0.534c-0.107,0.227-0.322,0.365-0.643,0.402l-2.229,0.282C539.057,44.158,538.425,44.419,537.943,44.845z
		"/>
	<path d="M546.45,48.818v-8.313h1.328v1.181c0.393-0.488,0.81-0.837,1.25-1.049c0.44-0.215,0.928-0.319,1.468-0.319
		c1.18,0,1.978,0.411,2.392,1.236c0.227,0.448,0.342,1.092,0.342,1.93v5.334h-1.422v-5.243c0-0.503-0.075-0.911-0.224-1.224
		c-0.249-0.516-0.7-0.779-1.352-0.779c-0.331,0-0.604,0.034-0.816,0.104c-0.383,0.114-0.719,0.341-1.009,0.681
		c-0.233,0.276-0.385,0.559-0.456,0.853c-0.068,0.292-0.104,0.711-0.104,1.254v4.353H546.45z"/>
	<path d="M557.007,45.44c0.253-0.144,0.634-0.249,1.142-0.316l0.845-0.11c0.26-0.031,0.524-0.083,0.793-0.157
		c0.269-0.07,0.489-0.163,0.661-0.273v1.129c0,0.859-0.39,1.476-1.166,1.856c-0.46,0.227-0.937,0.344-1.429,0.344
		c-0.403,0-0.753-0.117-1.048-0.353c-0.295-0.23-0.443-0.549-0.443-0.954C556.361,46.076,556.576,45.683,557.007,45.44z
		 M555.625,44.845c-0.481,0.423-0.724,1.021-0.724,1.794c0,0.7,0.245,1.289,0.734,1.758c0.489,0.466,1.12,0.703,1.892,0.703
		c0.641,0,1.229-0.138,1.762-0.414c0.532-0.273,0.942-0.595,1.228-0.969c0.046,0.331,0.127,0.589,0.24,0.767
		c0.217,0.344,0.568,0.516,1.048,0.516c0.196,0,0.353-0.006,0.467-0.025c0.113-0.015,0.279-0.052,0.496-0.116v-1.034
		c-0.087,0.018-0.171,0.03-0.248,0.037c-0.078,0.009-0.148,0.012-0.21,0.012c-0.191,0-0.316-0.043-0.377-0.135
		c-0.059-0.086-0.088-0.203-0.088-0.347V42.6c0-0.786-0.304-1.365-0.909-1.74c-0.61-0.374-1.405-0.558-2.384-0.558
		c-0.844,0-1.586,0.199-2.224,0.601c-0.64,0.402-0.973,1.114-0.999,2.141h1.306c0.05-0.429,0.162-0.757,0.332-0.972
		c0.306-0.393,0.824-0.589,1.555-0.589c0.632,0,1.116,0.107,1.455,0.319c0.339,0.218,0.508,0.564,0.508,1.04
		c0,0.23-0.031,0.411-0.092,0.534c-0.109,0.227-0.324,0.365-0.645,0.402l-2.229,0.282C556.737,44.158,556.105,44.419,555.625,44.845
		z"/>
	<path d="M565.673,42.382c0.438-0.54,1.008-0.81,1.71-0.81c0.633,0,1.163,0.254,1.594,0.761c0.429,0.503,0.643,1.282,0.643,2.334
		c0,1.04-0.208,1.834-0.624,2.393c-0.417,0.559-0.947,0.834-1.595,0.834c-0.833,0-1.438-0.301-1.817-0.902
		c-0.378-0.598-0.567-1.344-0.567-2.233C565.016,43.713,565.234,42.922,565.673,42.382z M564.469,41.689
		c-0.619,0.886-0.929,1.936-0.929,3.144c0,1.294,0.34,2.334,1.018,3.114c0.679,0.779,1.48,1.166,2.407,1.166
		c0.575,0,1.084-0.11,1.529-0.34c0.444-0.227,0.831-0.595,1.157-1.107v1.153h1.258V37.373h-1.343v4.2
		c-0.316-0.383-0.598-0.66-0.846-0.813c-0.431-0.267-0.963-0.402-1.602-0.402C565.971,40.357,565.087,40.799,564.469,41.689z"/>
	<path d="M574.688,45.44c0.253-0.144,0.635-0.249,1.141-0.316l0.847-0.11c0.26-0.031,0.521-0.083,0.792-0.157
		c0.269-0.07,0.489-0.163,0.659-0.273v1.129c0,0.859-0.387,1.476-1.164,1.856c-0.462,0.227-0.938,0.344-1.428,0.344
		c-0.405,0-0.755-0.117-1.05-0.353c-0.294-0.23-0.441-0.549-0.441-0.954C574.043,46.076,574.258,45.683,574.688,45.44z
		 M573.306,44.845c-0.482,0.423-0.723,1.021-0.723,1.794c0,0.7,0.244,1.289,0.733,1.758c0.49,0.466,1.119,0.703,1.891,0.703
		c0.642,0,1.23-0.138,1.763-0.414c0.533-0.273,0.941-0.595,1.227-0.969c0.048,0.331,0.126,0.589,0.241,0.767
		c0.218,0.344,0.565,0.516,1.049,0.516c0.196,0,0.352-0.006,0.465-0.025c0.113-0.015,0.279-0.052,0.497-0.116v-1.034
		c-0.088,0.018-0.17,0.03-0.248,0.037c-0.077,0.009-0.147,0.012-0.209,0.012c-0.193,0-0.317-0.043-0.377-0.135
		c-0.061-0.086-0.089-0.203-0.089-0.347V42.6c0-0.786-0.305-1.365-0.908-1.74c-0.612-0.374-1.407-0.558-2.384-0.558
		c-0.845,0-1.588,0.199-2.226,0.601c-0.64,0.402-0.973,1.114-0.998,2.141h1.305c0.051-0.429,0.163-0.757,0.333-0.972
		c0.306-0.393,0.823-0.589,1.554-0.589c0.631,0,1.116,0.107,1.455,0.319c0.34,0.218,0.51,0.564,0.51,1.04
		c0,0.23-0.032,0.411-0.094,0.534c-0.108,0.227-0.323,0.365-0.645,0.402l-2.229,0.282C574.417,44.158,573.787,44.419,573.306,44.845
		z"/>
	<path d="M707.33,35.143c0.032,1.236,0,10.142,0,10.142s-0.468,2.405-2.173,2.908c-0.577,0.169-0.6,0.531,0,0.531h8.356
		c0.601,0,0.576-0.362,0-0.531c-1.706-0.503-2.172-2.908-2.172-2.908s0-9.417,0-10.654c0-2.645-2.039-5.157-6.717-5.157
		s-5.918,2.043-6.083,2.276c-0.167,0.236-0.301,0.034-0.301,0.034s-0.435-1.706-0.535-2.037c-0.1-0.334-0.267-0.273-0.267-0.273
		l-5.748,0.837c0,0-1.17,0.203,0,0.571c0,0,2.574,1.27,2.539,3.208c-0.021,1.236,0,11.194,0,11.194s-0.467,2.405-2.171,2.908
		c-0.578,0.169-0.603,0.531,0,0.531h8.355c0.598,0,0.576-0.362,0-0.531c-1.708-0.503-2.174-2.908-2.174-2.908s0-8.89,0-10.126
		c0,0,0.534-4.408,4.98-4.408C703.222,30.75,707.208,30.648,707.33,35.143z"/>
	<g>
		<g>
			<rect x="754.184" y="18.283" width="4.81" height="9.624"/>
			<path d="M756.587,23.096"/>
		</g>
		<g>
			<rect x="768.618" y="18.283" width="4.812" height="9.624"/>
			<path d="M771.023,23.096"/>
		</g>
		<g>
			<path d="M763.839,19.587c0,0-0.006,0.015,0.006,0.012"/>
			<path d="M763.904,19.384c0.43,2.113,1.305,1.003,1.305,1.003l-0.301,1.804c-0.102,0.571,0.4,0.135,0.4,0.135l0.737-0.733
				c-0.167,1.2,1.271,0.466,1.271,0.466c-0.803,1.402,0.197,1.301,0.197,1.301l-1.635,1.34c0,0.031-0.269,0.332-0.269,0.332
				l0.436,0.703l-2.041-0.5l0.103,1.902h-0.269h-0.267l0.1-1.902l-1.903,0.432l0.3-0.635c0,0-0.268-0.301-0.268-0.332l-1.637-1.34
				c0,0,1.001-0.098,0.133-1.368c0,0,1.437,0.736,1.336-0.399l0.735,0.733c0,0,0.501,0.436,0.401-0.135l-0.301-1.804
				c0,0,0.976,1.003,1.37-1.003"/>
		</g>
	</g>
	<g>
		<path d="M669.469,17.982l0.734,10.96c0,0-0.197,1.469-0.866-0.135c-0.669-1.604-3.074-10.626-9.76-9.755
			c-6.685,0.868-9.689,6.347-9.689,15.169s3.809,13.433,10.358,13.433c6.549,0,8.756-3.942,9.957-7.685c0,0,0.47-1.54,0.405-0.067
			c0,0-0.075,9.494-11.901,9.356c-11.632-0.135-14.701-11.028-14.701-15.105s1.603-15.237,15.772-16.372
			c0,0,3.976,0.064,6.949,1.672c0,0,0.938,0.534,1.405-0.202s0.6-1.003,0.6-1.003S669.068,17.381,669.469,17.982z"/>
	</g>
	<path d="M747.655,47.404c-4.329,2.675-10.035,2.058-13.013-2.273c-3.147-4.583-2.587-10.811,2.117-14.035
		c3.4-2.334,8.202-2.61,10.871-0.083c0,0,0.402,0.436,0.402-0.166c0-0.601,0-9.089,0-9.089s-0.567-2.675-3.142-2.675
		c0,0-0.669-0.233-0.065-0.534l6.282-0.669c0,0,0.934-0.064,0.934,0.568c0,0.77,0,26.035,0,26.035s0.567,3.206,2.875,3.206
		c0,0,0.868,0.067-0.032,0.537l-6.183,0.8c0,0-0.47,0.203-0.47-0.402l-0.132-1.003C748.101,47.622,748.288,47.014,747.655,47.404z
		 M748.052,39.305c0.007-3.875,0.363-9.522-5.87-8.915c-4.16,0.405-5.795,6.531-4.906,10.777c0.732,3.515,2.299,7.454,6.637,6.776
		C748.711,47.192,748.045,41.986,748.052,39.305z"/>
	<path d="M690.322,47.152c0,0,1.403-1.2,0.5,0.171l-0.567,0.669c-2.08,1.436-5.729,1.04-7.185-0.638
		c-0.336-0.5-0.707-0.104-0.707-0.104c-1.938,1.699-4.699,2.031-7.352,1.288c-2.224-0.623-3.933-2.546-3.71-4.825
		c0.489-4.933,6.069-4.325,9.586-5.638c0.949-0.356,1.615-1.703,1.65-3.083c0.049-1.828-0.508-4.73-3.345-4.761
		c-2.47-0.031-2.497,2.503-3.835,3.917c-0.602,0.635-2.564,0.586-3.054-0.666c-0.298-0.758-0.229-1.969,0.891-2.837
		c2.98-2.316,13.461-1.789,13.46,2.481c0,5.93-0.045,7.912,0.003,12.995c0.012,1.267,0.96,1.66,2.024,1.675
		c0.563,0.009,1.354-0.436,1.876-0.779 M682.234,38.367c-2.879,1.399-6.853,2.733-6.803,6.414c0.032,2.445,2.99,3.915,5.283,2.42
		c1.371-0.896,1.814-2.39,1.922-3.856v-4.61C682.637,38.735,682.702,38.198,682.234,38.367z"/>
	<path d="M732.827,47.152c0,0,1.403-1.2,0.5,0.171l-0.564,0.669c-2.082,1.436-5.729,1.04-7.187-0.638
		c-0.336-0.5-0.705-0.104-0.705-0.104c-1.938,1.699-4.701,2.031-7.352,1.288c-2.224-0.623-3.936-2.546-3.71-4.825
		c0.487-4.933,6.065-4.325,9.585-5.638c0.95-0.356,1.613-1.703,1.649-3.083c0.047-1.828-0.506-4.73-3.345-4.761
		c-2.471-0.031-2.494,2.503-3.833,3.917c-0.602,0.635-2.564,0.586-3.056-0.666c-0.297-0.758-0.229-1.969,0.893-2.837
		c2.978-2.316,13.458-1.789,13.458,2.481c0,5.93-0.043,7.912,0.003,12.995c0.011,1.267,0.962,1.66,2.024,1.675
		c0.562,0.009,1.354-0.436,1.878-0.779 M724.74,38.367c-2.879,1.399-6.851,2.733-6.804,6.414c0.034,2.445,2.991,3.915,5.287,2.42
		c1.37-0.896,1.813-2.39,1.921-3.856l-0.002-4.61C725.143,38.735,725.209,38.198,724.74,38.367z"/>
	<path d="M774.599,47.152c0,0,1.403-1.2,0.501,0.171l-0.565,0.669c-2.081,1.436-5.73,1.04-7.188-0.638
		c-0.334-0.5-0.706-0.104-0.706-0.104c-1.936,1.699-4.699,2.031-7.35,1.288c-2.224-0.623-3.936-2.546-3.709-4.825
		c0.486-4.933,6.065-4.325,9.585-5.638c0.949-0.356,1.612-1.703,1.649-3.083c0.049-1.828-0.507-4.73-3.346-4.761
		c-2.471-0.031-2.495,2.503-3.836,3.917c-0.602,0.635-2.563,0.586-3.053-0.666c-0.297-0.758-0.229-1.969,0.893-2.837
		c2.979-2.316,13.46-1.789,13.458,2.481c0,5.93-0.041,7.912,0.005,12.995c0.011,1.267,0.958,1.66,2.022,1.675
		c0.562,0.009,1.354-0.436,1.878-0.779 M766.514,38.367c-2.881,1.399-6.853,2.733-6.804,6.414c0.032,2.445,2.989,3.915,5.284,2.42
		c1.371-0.896,1.814-2.39,1.92-3.856l-0.002-4.61C766.912,38.735,766.98,38.198,766.514,38.367z"/>
</g>
</svg>
