<?xml version="1.0" encoding="utf-8"?>
<!-- Generator: Adobe Illustrator 18.1.1, SVG Export Plug-In . SVG Version: 6.00 Build 0)  -->
<svg version="1.1" xmlns="http://www.w3.org/2000/svg" xmlns:xlink="http://www.w3.org/1999/xlink" x="0px" y="0px"
	 viewBox="0 0 221.3 77.5" enable-background="new 0 0 221.3 77.5" xml:space="preserve">
<g id="m">
	<text transform="matrix(1 0 0 1 6.7558 60.2211)" font-family="'Impact'" font-size="36">m</text>
</g>
<g id="linked">
	<text transform="matrix(1 0 0 1 7.6841 24.6955)" font-family="'Impact'" font-size="24">linked</text>
</g>
<g id="_x3C_Type_x3E_">
	<rect x="-1.7" y="5.9" fill="none" width="112.6" height="5.9"/>
</g>
<g id="dernisms">
	<text transform="matrix(1 0 0 1 82.4152 60.2099)" font-family="'Impact'" font-size="36">dernisms</text>
</g>
<g id="Layer_1_xA0_Image_1_">
	<g>
		<g>
			<path fill="#FCFBFC" d="M53.3,27.4c3.6,0,7.2,0,10.8,0c-0.8,0.6-1.7,1.3-1.7,2.4c0,0.9,0.6,1.7,1.5,1.9c0.9,0.2,2.3-0.5,2.6-1.2
				c0.4-1,0.1-1.9-0.7-2.5c-0.3-0.2-0.6-0.3-0.7-0.6c5.9,0,11.8,0,17.8,0c0,15.7,0,31.4,0,47c-16,0-32,0-48,0c0-15.7,0-31.4,0-47
				c6.1,0,12.2,0,18.2,0c-0.4,0.3-0.9,0.5-1.3,0.9c-0.9,0.8-0.8,1.6-0.2,2.5c0.5,0.8,1.1,1.3,2.2,0.9c1.2-0.4,1.6-1.1,1.6-2.1
				C55.3,28.3,54.3,27.8,53.3,27.4z M43,42c0.4-0.2,0.7,0.2,1.1,0.2c1.4,0.3,2.9-1,2.5-2.3c-0.1-0.5-0.2-0.9-0.2-1.3
				c0.4,0,0.8,0.1,1.2,0.1c1.2,0.3,2.2-0.4,2.4-1.6c0.2-1.4-0.5-2.6-1.8-2.7c-1.5-0.1-2.3,0.6-2.5,1.9c-0.1,0.8,0.5,1.3,0.5,2
				c-0.1,0-0.2,0-0.3,0c-1.3-0.7-2.1-0.5-3,0.6c-0.8,1-0.6,1.8,0.3,2.7C43.1,41.8,43.2,41.9,43,42c-2.1-0.2-3.1,0.9-2.7,2.8
				c0.2,1,0.9,1.2,1.6,1.3c1,0.2,1.8-0.4,2.3-1.2c0.3-0.6,0.3-1.3-0.2-2C43.6,42.6,42.9,42.7,43,42z M55,70.6c0.3-0.3,0.6,0,0.8,0
				c1.2,0.3,1.9,0.1,2.6-1.1c0.5-0.9,0.1-1.4-0.2-2.1c-0.5-1-1.4-0.9-2.2-0.9c-0.8,0.1-1,0.7-1.3,1.3C54.1,68.9,55,69.7,55,70.6
				c-0.2-0.1-0.5-0.3-0.8-0.5c-0.8-0.5-2.4-0.1-2.9,0.7c-0.5,0.8-0.1,2.3,0.8,2.8c0.8,0.5,1.7,0.5,2.4-0.1
				C55.5,72.6,55.5,71.6,55,70.6z M63.1,70.1c0.2,0.3,0,0.6-0.1,0.7c-0.7,0.7-0.5,1.5-0.1,2.2c0.4,0.7,1.1,1,1.9,0.9
				c0.8,0,2-1.1,1.9-1.8c-0.1-0.8,0.1-1.9-1.4-2.1C64.5,69.8,63.8,70.2,63.1,70.1c0.1-0.4,0.1-0.8,0.2-1.1c0.3-1-0.2-1.9-1.2-2.3
				c-1.2-0.5-2.3-0.1-2.9,1c-0.4,0.7,0,2.1,0.6,2.6C61.1,71.1,62.1,70.6,63.1,70.1z M39.1,54.7c-0.5-0.3-1-0.5-1.5-0.5
				c-1.2,0.1-2.1,1-2.1,2.1c0,1.3,0.7,2.2,1.9,2.3c1,0.1,2.2-1,2.4-2C40,55.8,39.2,55.4,39.1,54.7c0.4-0.4,0.7,0.1,1,0.3
				c0.9,0.5,1.7,0.3,2.4-0.2c0.7-0.5,0.8-1.4,0.6-2.2c-0.2-1-1-1.2-1.8-1.4c-1.5-0.3-2.6,0.7-2.4,2.3C38.9,53.9,39.5,54.2,39.1,54.7
				z M74.2,59.5c-1.4,0-2.6,0.6-2.9,1.6c-0.3,1,0.2,1.6,0.9,2.2c0.6,0.6,2.1,0.5,2.7-0.1c0.9-0.9,0.8-1.7,0.2-2.7
				C74.8,60.1,74.2,60,74.2,59.5c0.2-0.1,0.3,0.1,0.5,0.1c1.2,0.5,2.3-0.1,2.9-1c0.5-0.9,0.2-1.8-0.8-2.5c-0.7-0.5-1.6-0.8-2.3-0.4
				c-0.5,0.4-1,1-1,1.9C73.6,58.4,74.1,58.9,74.2,59.5z M46.1,63.6c1.1-2.5,1-2.9-0.8-3.8c-0.9-0.4-2.2-0.2-2.7,0.8
				c-0.4,0.8-0.3,1.7,0.4,2.4C43.9,64.2,45,63.8,46.1,63.6c0.1,0,0.1,0.1,0.1,0.2c-0.5,1.3-0.4,2.6,0.4,3.1c0.8,0.6,2,0.3,3-0.5
				c0.1,0,0.1,0,0.2-0.1c0,2.4,0.7,3.4,2.3,3.3c1.1-0.1,2.2-1.5,2.1-2.7c-0.1-0.5-0.4-0.8-0.7-1.1c-1.1-1-2.3-0.6-3.6,0
				c0.4-1.3,0-2.2-0.9-2.7c-0.9-0.6-1.8-0.5-2.6,0.4C46.3,63.7,46.2,63.8,46.1,63.6z M62.9,57.8c-0.1-0.1-0.3-0.2-0.4-0.3
				c-1-1.2-1.7-1.2-2.8-0.1c-0.4,0.4-0.6,0.8-0.8,1.4c-0.6-2.5-2.2-2.8-4.3-1.2c0.8-1.3,0.4-2.2-0.6-2.8c-1-0.7-2,0-2.6,0.6
				c-0.6,0.7-0.4,1.7,0.2,2.4c0.7,0.9,1.6,0.8,3.2-0.1c-0.1,1.3,0.3,2.3,1.2,2.6c1.1,0.4,2.1,0,2.8-1.2c0.5,0,0.5,0.5,0.8,0.8
				c0.8,0.9,2.3,0.9,2.9-0.1C63,59.3,63.1,58.6,62.9,57.8c0.3,0.1,0.6,0.4,0.9,0.5c0.8,0.3,1.7,0.5,2.4-0.3c0.5-0.7,0.6-1.6,0.2-2.2
				C65.9,54.9,65,54.6,64,55C62.5,55.5,62.7,56.7,62.9,57.8z M74.4,42c-0.2,0.6-0.9,0.7-1,1.4c-0.2,1.3,0.6,2.5,1.8,2.7
				c1.4,0.2,2.3-0.5,2.4-1.8c0.1-1.7-0.4-2.2-2.1-2.2C75.1,42,74.8,42,74.4,42c-0.1-0.5,0.3-0.7,0.5-1c0.6-0.8,0.3-1.6,0-2.4
				c-0.3-0.8-0.9-0.5-1.4-0.5c-0.7,0-1.3,0-2.1,0c0.5-1.2,0.9-2.5-0.4-3.3c-1.3-0.9-2.5-0.6-3.4,1.1c0.3-2.6,0.1-3-1.2-3.5
				c-1-0.4-1.9-0.2-2.5,0.7c-0.5,0.8-0.8,1.6,0,2.5c0.8,1,1.7,1,3.8,0c-0.2,2.6,0.6,3.2,3.4,2.8c0.2,0.2,0,0.4-0.1,0.5
				c-0.5,1.7,0.3,2.9,2.1,3.1C73.6,42.1,74,41.8,74.4,42z M58.8,46.5c-1,0-2.1,0.1-2.9,0.8c-1.8,1.5-1.8,5-0.2,6.6
				c1,1,2.1,1.9,3.7,1.6c1.9-0.4,3.2-1.3,3.8-3.3c0.5-2,0.3-3.3-1-4.4c-0.4-0.4-1.1,0-1.3-0.4C60.4,46.3,59.5,46.6,58.8,46.5z
				 M51.9,47.1c1.5,0,2.8-0.1,3.1-1.6c0.2-0.9-0.3-1.6-1-2c-0.8-0.4-1.9-0.4-2.5,0.5c-0.7,0.9-0.5,1.9,0.4,2.8
				c-1.9,0.2-2.8,0.6-2.9,1.6c-0.1,0.9,0.3,1.8,1.1,2.1c0.8,0.3,1.7,0.4,2.4-0.4C53.2,49,53.1,48,51.9,47.1z M58.8,43.2
				c0.6,1.4,1.6,1.9,2.8,1.6c0.8-0.2,1.2-1,1.2-1.7c0-0.9-0.4-1.7-1.3-2.1c-1.8-0.7-2.1,0.9-2.9,2.1c-0.3-1.6-1.3-2.2-2.5-2
				c-0.7,0.1-1.3,0.8-1.4,1.7c-0.1,1,0.5,1.7,1.3,1.9C57.2,45.2,58.1,44.6,58.8,43.2z M39.9,45.3c0-1.2-1-2.3-2.2-2.3
				c-1.2,0-2.2,1.1-2.2,2.3c0,1.2,1.1,2.2,2.3,2.2C39,47.4,39.9,46.5,39.9,45.3z M52,36.6c1.2,0,2.2-1.1,2.1-2.1
				c-0.1-1.2-1-2.3-2-2.3c-1.6,0.1-2.4,0.8-2.4,2.1C49.7,35.4,50.9,36.6,52,36.6z M70.1,67.1c1.1,0,2.2-1.2,2.2-2.4
				c0-0.7-1.5-2-2.4-2c-1.1,0-2.2,1.3-2.2,2.4C67.8,66.2,69,67.2,70.1,67.1z M43.1,37.7c1.3,0,2.1-0.8,2.2-2.1
				c0-1.2-0.9-2.2-2.2-2.2c-1.3,0-2.1,0.9-2.1,2.6C41,36.9,41.9,37.7,43.1,37.7z M74.7,53.1c0,1.3,1,2.3,2.4,2.3
				c0.6,0,2.1-1.6,2.1-2.4c0-0.9-1-2-1.8-2C75.6,51.1,74.7,51.7,74.7,53.1z M80.2,47.1c1.3,0,2.2-1,2.1-2.5c0-0.9-1.2-1.8-2.3-1.8
				C79,42.8,78,43.9,78,45C78.1,46.1,79.1,47.1,80.2,47.1z M79,48.4c0-1-1-2.1-2-2.1c-1.4,0-2.3,0.9-2.4,2.2c0,1,1,2,2.1,2
				C78,50.5,79,49.6,79,48.4z M68.2,67.3c0-1-1.2-2-2.3-2c-1,0-2.3,1-2.3,1.8c0,1.1,1.1,2.5,2,2.5C66.5,69.7,68.1,68.2,68.2,67.3z
				 M43.2,68.2c1.7-0.1,2.4-0.8,2.3-2.1c-0.1-1.1-1.1-2-2.4-1.9c-0.9,0-1.9,1.3-1.8,2.5C41.3,67.6,42.1,68.2,43.2,68.2z M61.5,31
				c-1.7,0.1-2.4,0.6-2.4,1.8c0,1.5,0.8,2.5,1.8,2.4c1.1,0,2.4-1.2,2.4-2.1C63.3,32.3,62.2,31,61.5,31z M58.4,33.1
				c0-1.3-0.8-2.2-1.8-2.2c-0.9,0-2.3,1.2-2.3,1.9c0.1,1.3,1.1,2.4,2.2,2.4C57.8,35.3,58.4,34.6,58.4,33.1z M41.8,55.8
				c-1,0-1.8,0.7-1.8,1.9c0,1.1,0.9,2,2.1,2.1c0.9,0.1,2.3-1.2,2.4-2.2C44.6,56.7,43.3,55.9,41.8,55.8z M40.9,46.6
				c-1.1,0-2.1,1.1-2.1,2.1c0,1,1.1,1.9,2.2,1.9c1.2,0,2.1-1,2.1-2.2C43.2,47.3,42.3,46.6,40.9,46.6z M74.5,68.1
				c1.3,0,2.1-0.8,2.2-2c0-1.2-0.8-2-2.1-2.1c-1,0-2.1,0.9-2.1,1.9C72.5,67.3,73.3,68.1,74.5,68.1z M73.9,33.6c-1,0-1.6,0.6-1.6,1.5
				c0,1.2,0.9,2.3,1.9,2.3c1.2,0.1,2.2-0.9,2.2-2.1C76.4,33.8,76.1,33.6,73.9,33.6z M80.3,58.6c1.3,0,2.1-0.9,2.1-2.4
				c0-0.9-1.3-1.8-2.3-1.8c-1,0.1-1.8,0.9-1.8,2.1C78.2,57.7,79.1,58.6,80.3,58.6z M50.8,51.2c-1.1,0-2,0.8-2.1,1.9
				c0,0.8,1,1.9,1.9,1.9c1.2,0,2.2-0.9,2.2-2C52.9,52,51.9,51.2,50.8,51.2z M66.8,54.7c1.4,0,2-0.5,2-1.8c0-0.8-0.8-1.7-1.6-1.7
				c-1.5,0-2.4,0.6-2.4,1.8C64.9,54,65.6,54.7,66.8,54.7z M64.6,46.9c0.9,0,2-0.8,2.1-1.6c0.1-1-1-2.1-2-2.1c-0.9,0-2,1-2,1.9
				C62.7,46.1,63.3,46.8,64.6,46.9z M66.8,50.5c1.4,0,1.9-0.5,2-1.9c0-0.7-1.1-1.7-2.1-1.7c-0.8,0-1.7,0.9-1.7,1.7
				C65,49.8,65.6,50.4,66.8,50.5z"/>
			<path fill="#721563" d="M53.3,27.4c1,0.4,2,0.9,2,2.2c0,1.1-0.4,1.8-1.6,2.1c-1.2,0.4-1.7-0.1-2.2-0.9c-0.6-0.9-0.6-1.7,0.2-2.5
				c0.4-0.4,0.9-0.6,1.3-0.9C53.1,27.4,53.2,27.4,53.3,27.4z"/>
			<path fill="#721563" d="M65,27.4c0.1,0.3,0.4,0.4,0.7,0.6c0.8,0.6,1.1,1.5,0.7,2.5c-0.3,0.7-1.7,1.4-2.6,1.2
				c-1-0.2-1.5-1-1.5-1.9c0-1.1,0.9-1.8,1.7-2.4C64.4,27.4,64.7,27.4,65,27.4z"/>
			<path fill="#721563" d="M58.8,46.5c0.8,0.1,1.6-0.2,2,0.9c0.2,0.4,0.8,0.1,1.3,0.4c1.3,1.1,1.6,2.4,1,4.4c-0.5,2-1.8,2.9-3.8,3.3
				c-1.6,0.3-2.7-0.6-3.7-1.6c-1.6-1.6-1.6-5.2,0.2-6.6C56.7,46.6,57.7,46.5,58.8,46.5z"/>
			<path fill="#721563" d="M74.4,42c-0.4-0.2-0.8,0.1-1.2,0c-1.8-0.1-2.6-1.4-2.1-3.1c0.1-0.2,0.2-0.3,0.1-0.5
				c-2.9,0.4-3.6-0.2-3.4-2.8c-2.2,1-3,1-3.8,0c-0.7-0.9-0.5-1.7,0-2.5c0.6-1,1.5-1.1,2.5-0.7c1.3,0.5,1.5,0.9,1.2,3.5
				c1-1.6,2.2-1.9,3.4-1.1c1.3,0.9,0.9,2.1,0.4,3.3c0.8,0,1.4,0,2.1,0c0.5,0,1.1-0.2,1.4,0.5c0.3,0.8,0.6,1.6,0,2.4
				C74.7,41.3,74.3,41.5,74.4,42L74.4,42z"/>
			<path fill="#721563" d="M62.9,57.8c0.2,0.8,0.2,1.5-0.3,2.2c-0.6,0.9-2.1,0.9-2.9,0.1c-0.3-0.3-0.3-0.7-0.8-0.8
				c-0.7,1.2-1.7,1.6-2.8,1.2c-0.9-0.3-1.3-1.3-1.2-2.6c-1.6,0.9-2.4,1-3.2,0.1c-0.6-0.7-0.8-1.7-0.2-2.4c0.6-0.7,1.6-1.3,2.6-0.6
				c0.9,0.6,1.3,1.6,0.6,2.8c2.1-1.6,3.7-1.3,4.3,1.2c0.2-0.7,0.5-1.1,0.8-1.4c1-1.1,1.8-1.1,2.8,0.1C62.6,57.7,62.8,57.8,62.9,57.8
				L62.9,57.8z"/>
			<path fill="#721563" d="M46.1,63.6c0.1,0.2,0.3,0.1,0.4,0c0.7-0.9,1.7-1,2.6-0.4c0.9,0.5,1.3,1.4,0.9,2.7c1.3-0.6,2.5-1,3.6,0
				c0.3,0.3,0.6,0.6,0.7,1.1c0.1,1.2-1,2.6-2.1,2.7c-1.6,0.1-2.3-0.9-2.3-3.3c-0.1,0-0.2,0-0.2,0.1c-1,0.9-2.3,1.1-3,0.5
				c-0.8-0.6-1-1.8-0.4-3.1C46.2,63.7,46.1,63.7,46.1,63.6L46.1,63.6z"/>
			<path fill="#721563" d="M51.9,47.1c1.3,1,1.3,2,0.6,3c-0.6,0.8-1.6,0.8-2.4,0.4c-0.8-0.4-1.2-1.2-1.1-2.1c0.1-1,1-1.5,2.9-1.6
				c-0.9-0.9-1-1.8-0.4-2.8c0.6-0.9,1.6-0.9,2.5-0.5c0.7,0.3,1.2,1.1,1,2C54.7,47,53.4,47.1,51.9,47.1z"/>
			<path fill="#721563" d="M58.8,43.2c-0.7,1.4-1.6,2-2.8,1.6c-0.7-0.3-1.4-0.9-1.3-1.9c0.1-0.9,0.7-1.6,1.4-1.7
				c1.2-0.2,2.3,0.4,2.5,2c0.8-1.2,1.2-2.7,2.9-2.1c1,0.4,1.4,1.2,1.3,2.1c0,0.7-0.4,1.5-1.2,1.7C60.4,45.1,59.4,44.6,58.8,43.2z"/>
			<path fill="#721563" d="M46.1,38.4c0-0.7-0.6-1.2-0.5-2c0.2-1.3,1-2.1,2.5-1.9c1.2,0.1,2,1.3,1.8,2.7c-0.2,1.2-1.2,1.8-2.4,1.6
				c-0.4-0.1-0.8-0.1-1.2-0.1l0,0C46.4,38.4,46.4,38.3,46.1,38.4L46.1,38.4z"/>
			<path fill="#721563" d="M39.9,45.3c0,1.2-0.9,2.2-2,2.2c-1.2,0.1-2.3-1-2.3-2.2c0-1.2,1-2.4,2.2-2.3C38.8,43,39.8,44,39.9,45.3z"
				/>
			<path fill="#721563" d="M52,36.6c-1.1,0-2.3-1.1-2.3-2.3c0-1.4,0.8-2.1,2.4-2.1c1,0,2,1.1,2,2.3C54.1,35.5,53.1,36.5,52,36.6z"/>
			<path fill="#721563" d="M70.1,67.1c-1.2,0-2.3-0.9-2.4-2c-0.1-1.1,1.1-2.5,2.2-2.4c0.8,0,2.4,1.3,2.4,2
				C72.3,65.9,71.3,67.1,70.1,67.1z"/>
			<path fill="#721563" d="M43.1,37.7c-1.2,0-2.1-0.7-2.1-1.7c0-1.6,0.8-2.6,2.1-2.6c1.3,0,2.2,1,2.2,2.2
				C45.3,36.9,44.4,37.7,43.1,37.7z"/>
			<path fill="#721563" d="M74.7,53.1c0-1.4,0.9-2,2.7-2c0.9,0,1.8,1,1.8,2c0,0.7-1.5,2.4-2.1,2.4C75.7,55.4,74.7,54.4,74.7,53.1z"
				/>
			<path fill="#721563" d="M74.1,59.5c0,0.5,0.6,0.6,0.9,1.1c0.6,1,0.7,1.9-0.2,2.7c-0.6,0.6-2.1,0.7-2.7,0.1
				c-0.6-0.6-1.2-1.3-0.9-2.2C71.6,60.1,72.8,59.5,74.1,59.5L74.1,59.5z"/>
			<path fill="#721563" d="M39.1,54.7c0.1,0.7,0.9,1,0.7,1.9c-0.2,0.9-1.5,2-2.4,2c-1.2-0.1-1.9-1-1.9-2.3c0-1.1,0.9-2,2.1-2.1
				C38.2,54.2,38.7,54.4,39.1,54.7L39.1,54.7z"/>
			<path fill="#721563" d="M63.1,70.1c-1,0.5-2,1.1-3.2,0.2c-0.6-0.5-1-1.9-0.6-2.6c0.6-1.1,1.7-1.5,2.9-1c1,0.4,1.4,1.3,1.2,2.3
				C63.3,69.3,63.2,69.7,63.1,70.1C63.1,70.1,63.1,70.1,63.1,70.1z"/>
			<path fill="#721563" d="M46.1,63.6c-1.1,0.2-2.2,0.6-3.2-0.5c-0.7-0.8-0.8-1.7-0.4-2.4c0.5-1,1.7-1.3,2.7-0.8
				C47.1,60.7,47.2,61.1,46.1,63.6C46.1,63.6,46.1,63.6,46.1,63.6z"/>
			<path fill="#721563" d="M80.2,47.1c-1.1,0-2.1-1-2.2-2.1c0-1.1,1-2.2,1.9-2.2c1.1,0,2.3,0.9,2.3,1.8
				C82.4,46.1,81.5,47.1,80.2,47.1z"/>
			<path fill="#721563" d="M79,48.4c0,1.2-1,2.1-2.3,2.2c-1.1,0-2.1-1-2.1-2c0-1.3,1-2.2,2.4-2.2C78,46.3,79,47.3,79,48.4z"/>
			<path fill="#721563" d="M55,70.6c0-0.9-0.9-1.7-0.4-2.8c0.3-0.6,0.6-1.3,1.3-1.3c0.9-0.1,1.7-0.1,2.2,0.9
				c0.3,0.7,0.7,1.2,0.2,2.1c-0.7,1.2-1.4,1.4-2.6,1.1C55.5,70.5,55.2,70.3,55,70.6L55,70.6z"/>
			<path fill="#721563" d="M46.3,38.6c0.1,0.4,0.1,0.9,0.2,1.3c0.4,1.2-1.2,2.6-2.5,2.3c-0.4-0.1-0.6-0.4-1.1-0.2l0,0
				c0.2-0.1,0.2-0.2,0-0.4c-0.9-0.8-1.1-1.7-0.3-2.7c0.9-1.1,1.8-1.3,3-0.6c0.1,0,0.2,0,0.3,0c0,0,0,0,0,0
				C46,38.6,46.2,38.6,46.3,38.6L46.3,38.6z"/>
			<path fill="#721563" d="M68.2,67.3c0,0.9-1.7,2.4-2.6,2.3c-0.9-0.1-2-1.4-2-2.5c0-0.8,1.3-1.8,2.3-1.8
				C67,65.3,68.2,66.3,68.2,67.3z"/>
			<path fill="#721563" d="M39.1,54.7c0.3-0.5-0.2-0.8-0.3-1.3c-0.2-1.5,0.9-2.6,2.4-2.3c0.8,0.2,1.7,0.3,1.8,1.4
				c0.1,0.8,0,1.7-0.6,2.2c-0.7,0.6-1.5,0.7-2.4,0.2C39.8,54.9,39.6,54.3,39.1,54.7C39.1,54.7,39.1,54.7,39.1,54.7z"/>
			<path fill="#721563" d="M43,42c-0.1,0.7,0.7,0.6,1,1c0.6,0.7,0.6,1.4,0.2,2c-0.5,0.8-1.2,1.4-2.3,1.2c-0.7-0.1-1.4-0.4-1.6-1.3
				C39.9,42.8,40.8,41.8,43,42C43,42,43,42,43,42z"/>
			<path fill="#721563" d="M74.4,42c0.4,0,0.7,0,1.1,0c1.7,0,2.2,0.5,2.1,2.2c-0.1,1.3-1,2-2.4,1.8c-1.2-0.1-1.9-1.4-1.8-2.7
				C73.5,42.7,74.3,42.6,74.4,42C74.4,42,74.4,42,74.4,42z"/>
			<path fill="#721563" d="M74.2,59.5c0-0.7-0.6-1.1-0.6-1.9c0-0.9,0.4-1.5,1-1.9c0.7-0.5,1.6-0.1,2.3,0.4c1,0.7,1.3,1.7,0.8,2.5
				c-0.6,1-1.7,1.6-2.9,1C74.5,59.6,74.4,59.4,74.2,59.5C74.1,59.5,74.2,59.5,74.2,59.5z"/>
			<path fill="#721563" d="M43.2,68.2c-1,0.1-1.8-0.6-1.9-1.6c-0.1-1.1,0.9-2.4,1.8-2.5c1.3,0,2.4,0.8,2.4,1.9
				C45.5,67.4,44.8,68.1,43.2,68.2z"/>
			<path fill="#721563" d="M61.5,31c0.7,0,1.8,1.3,1.8,2.2c0,0.9-1.3,2.1-2.4,2.1c-1.1,0-1.8-1-1.8-2.4C59.1,31.6,59.9,31,61.5,31z"
				/>
			<path fill="#721563" d="M58.4,33.1c0,1.5-0.6,2.2-1.9,2.2c-1.1,0-2.2-1.1-2.2-2.4c0-0.8,1.3-1.9,2.3-1.9
				C57.6,30.9,58.4,31.9,58.4,33.1z"/>
			<path fill="#721563" d="M41.8,55.8c1.5,0,2.8,0.9,2.7,1.8c-0.1,0.9-1.5,2.2-2.4,2.2c-1.3-0.1-2.1-0.9-2.1-2.1
				C40.1,56.6,40.8,55.8,41.8,55.8z"/>
			<path fill="#721563" d="M40.9,46.6c1.3,0,2.2,0.7,2.2,1.8c0,1.3-0.9,2.2-2.1,2.2c-1.1,0-2.2-1-2.2-1.9
				C38.9,47.7,39.9,46.6,40.9,46.6z"/>
			<path fill="#721563" d="M74.5,68.1c-1.2,0-2-0.9-2-2.2c0-1,1.1-1.9,2.1-1.9c1.3,0,2.1,0.9,2.1,2.1C76.6,67.4,75.8,68.2,74.5,68.1
				z"/>
			<path fill="#721563" d="M55,70.6c0.6,1.1,0.6,2.1-0.4,2.9c-0.8,0.6-1.6,0.6-2.4,0.1c-0.9-0.5-1.3-2-0.8-2.8
				c0.5-0.8,2.1-1.2,2.9-0.7C54.5,70.3,54.7,70.4,55,70.6C55,70.6,55,70.6,55,70.6z"/>
			<path fill="#721563" d="M73.9,33.6c2.2,0,2.5,0.2,2.5,1.7c0,1.2-1,2.2-2.2,2.1c-1-0.1-2-1.2-1.9-2.3
				C72.3,34.1,72.9,33.5,73.9,33.6z"/>
			<path fill="#721563" d="M80.3,58.6c-1.2,0-2.1-0.8-2-2c0-1.2,0.8-2,1.8-2.1c1.1-0.1,2.3,0.9,2.3,1.8
				C82.4,57.6,81.6,58.6,80.3,58.6z"/>
			<path fill="#721563" d="M63.1,70.1c0.7,0.2,1.4-0.3,2.2-0.1c1.4,0.2,1.2,1.3,1.4,2.1c0.1,0.7-1.1,1.8-1.9,1.8
				c-0.8,0-1.5-0.2-1.9-0.9c-0.4-0.7-0.6-1.5,0.1-2.2C63.1,70.7,63.3,70.3,63.1,70.1C63.1,70.1,63.1,70.1,63.1,70.1z"/>
			<path fill="#721563" d="M50.8,51.2c1.1,0,2.1,0.8,2.1,1.8c0,1.1-1,2-2.2,2c-0.9,0-2-1.1-1.9-1.9C48.8,52,49.7,51.2,50.8,51.2z"/>
			<path fill="#721563" d="M62.9,57.8c-0.2-1.2-0.4-2.3,1.1-2.9c1.1-0.4,2-0.1,2.5,0.8c0.4,0.6,0.3,1.6-0.2,2.2
				c-0.7,0.8-1.6,0.6-2.4,0.3C63.5,58.2,63.2,58,62.9,57.8C62.9,57.8,62.9,57.8,62.9,57.8z"/>
			<path fill="#721563" d="M66.8,54.7c-1.1,0-1.9-0.7-1.9-1.8c0-1.2,0.9-1.9,2.4-1.8c0.7,0,1.6,1,1.6,1.7
				C68.8,54.2,68.2,54.7,66.8,54.7z"/>
			<path fill="#721563" d="M64.6,46.9c-1.2-0.1-1.9-0.7-1.9-1.8c0-0.9,1.1-1.9,2-1.9c1,0,2.1,1.2,2,2.1
				C66.6,46.1,65.5,46.9,64.6,46.9z"/>
			<path fill="#721563" d="M66.8,50.5c-1.2,0-1.9-0.7-1.8-1.9c0-0.8,1-1.8,1.7-1.7c0.9,0,2.1,1,2.1,1.7C68.7,50,68.2,50.5,66.8,50.5
				z"/>
			<path fill="#FCFBFC" d="M46.3,38.7c-0.1,0-0.3,0-0.3-0.3C46.4,38.3,46.4,38.4,46.3,38.7z"/>
		</g>
	</g>
</g>
</svg>
